<svg id="Layer_1" data-name="Layer 1" xmlns="http://www.w3.org/2000/svg" width="1600" height="900" viewBox="0 0 1600 900"><defs><style>.cls-1{fill:#07182b;}.cls-2{fill:#d3e7ea;}.cls-3,.cls-4{fill:#fff;}.cls-3{opacity:0.1;}.cls-4{opacity:0.05;}.cls-5{fill:#7b8b9b;}.cls-6{fill:#51647a;}.cls-7{fill:#3e5663;}.cls-8{fill:#244354;}.cls-9{fill:#1a3d54;}.cls-10,.cls-11,.cls-13{fill:#b3b3b3;}.cls-10{opacity:0.19;}.cls-11{opacity:0.33;}.cls-12{fill:#f2f2f2;opacity:0.12;}.cls-13{opacity:0.17;}</style></defs><rect class="cls-1" x="-0.58" y="-0.28" width="1600" height="900"/><circle class="cls-2" cx="1347.42" cy="203.72" r="204"/><ellipse class="cls-3" cx="1344.92" cy="199.72" rx="254.5" ry="238.42"/><ellipse class="cls-3" cx="1346.03" cy="196.72" rx="280.73" ry="262.99"/><ellipse class="cls-4" cx="1347.92" cy="199.72" rx="229.5" ry="215"/><path class="cls-5" d="M793.77,266.09s240.15,18.09,296.65-36.39,210.67-24.56,210.67-24.56,108.83,39,127.33,23.52,131.44,53.7,131.44,53.7,34.06,20.7,40.56,5.78l-1,611.58-1601.33,2,1-622Z"/><path class="cls-6" d="M-.91,211.36s134.72-43.77,175-12.7,183.67,89.8,269.49,67.43,344.51-37.63,350.16,0,315.73,24.05,315.73,24.05,151.25-13.58,192.59,0,166.18-29.55,188.75,36.52c0,0,71,57.93,109.28,21.5l.3,553.56H.42Z"/><path class="cls-7" d="M-.58,327.18s394-92,433,43.84,361-6.58,482,18.83S1049.55,587.64,1190,605.58s160.33,59.33,274.38,16.62,132.06-54,132.06-54l3.31-3.62-.31,298.13H-.58Z"/><path class="cls-8" d="M-.58,498.05s245-179.32,301-32.64c0,0,213.25,86.8,291.13,54.13,0,0,281.12,13.25,275,91s196.53,136.9,196.53,136.9,56.82,44.19,48.08,78.26c0,0-237.47,117.11-330.1-89.76,0,0-28.39-75.13-200.51-41.65,0,0-48.81,11.5-63.47-15.62,0,0-60.41,2.44-190.53,51.62,0,0-55.33,29.39-91.73-19.23,0,0-64.62-5.68-100,11,0,0-132.39,48.69-135.39,53.08S-.58,498.05-.58,498.05Z"/><path class="cls-9" d="M-.58,742.45s215.89-83.75,254-41.21,231.37-60,272.71-29.87,218.61-45.62,255,39.93,174.68,120.08,282,86,287.34-80.59,281.84-40.53,83.5,76.71,83.5,76.71,117.61,22.59,171.31,0l-.31,66.22H-.58Z"/><path class="cls-10" d="M1547.38,163.14s-35-6.5-33,4.54-10.75,14.1-12.87,13.07-22-9.61-23.56-5.32-25,12.29-19.3,18.29,43.9-3,43.9-3,25.56-18.57,27.7-15.28,19.18,0,19.18,0"/><path class="cls-11" d="M1169.63,125.27s21.42,3.61,20.35,13.78,16.13,7.89,16,11,22.48,14.17,6.7,11.16-17.79-14.77-26.79-11.89-16.59.45-16.29-5.84-14.52-8-14.52-8l4.17-10.8Z"/><path class="cls-12" d="M-2.58,125.72s105.69-.85,112.8,21.51,49.12,25.44,71.47,15.47,85-15.2,108.21,5.41,63.58,38.16,90.14,28.26,75,21.61,74.51,37.36,22.87,26,22.87,26l-14.19-.59s-58-32.15-66.78-43.4-16.26,0-42,0-44,15.75-69.11-3.38-48.77-40.5-72.48-29.25-69.83,17.36-96.56-.32S51.24,126.9,47,138.12s-49.6,5.52-49.6,5.52Z"/><path class="cls-11" d="M1344.92,219.13s21.75-29.28,32.63-23.34,19.12,9.93,24,7.93,10.87,8,10.87,8-14.94,27.28-16,19.22C1396.42,230.72,1354.42,223.53,1344.92,219.13Z"/><path class="cls-11" d="M1263,168.31c-.59,6.41,17.41,11.41,18.41,15.41s21.2-10.41,25.1-7.7,43.9-8.61,26.9-18-28.23-19.42-33.12-9.38-40.88-2-42.88,7A11,11,0,0,0,1263,168.31Z"/><path class="cls-13" d="M1389.72,124.72s2.81,19.59,32.76,19.8,6.58-13,20.76-9.9,35.36,10.7,31.27.4l-4.09-10.3h-80.7"/></svg>
