<svg id="Layer_1" data-name="Layer 1" xmlns="http://www.w3.org/2000/svg" width="1600" height="900" viewBox="0 0 1600 900"><defs><style>.cls-1{fill:#51647a;}.cls-2{fill:#3e5663;}.cls-3{fill:#244354;}.cls-4{fill:#1a3d54;}.cls-5{fill:#333;}.cls-6{fill:#4d4d4d;}</style></defs><rect class="cls-1" x="514.65" y="385.79" width="35.85" height="45.71"/><polygon class="cls-2" points="402.5 431.5 402.5 385.79 423.66 385.79 538.5 431.5 402.5 431.5"/><rect class="cls-2" x="402.5" y="431.5" width="148" height="70"/><rect class="cls-2" x="748.5" y="403.5" width="141" height="101"/><rect class="cls-1" x="1084.5" y="384.5" width="150" height="120"/><rect class="cls-2" x="901.5" y="545.5" width="172" height="125"/><rect class="cls-3" x="553.5" y="545.5" width="181" height="124"/><path class="cls-4" d="M1016.52,900V808.29s34-6.18,54-12.48l174-45.49h72.89V899.5Z"/><path class="cls-4" d="M687.86,735.5V901.38H978.68V810.79s-36.11.86-70.15-8.22S739.37,735.5,739.37,735.5Z"/><rect class="cls-4" x="354.5" y="735.5" width="271" height="164"/><path class="cls-5" d="M392.21,880.93s-21.34-207.55,84.7-207.43,88.33,207.43,88.33,207.43"/><path class="cls-6" d="M401.36,880.93S380,673.38,486.06,673.5s88.33,207.43,88.33,207.43"/><path class="cls-5" d="M921.48,651s-17.35-173.55,68.86-173.45S1062.15,651,1062.15,651"/><path class="cls-6" d="M908.61,651s-17.35-173.55,68.85-173.45S1049.28,651,1049.28,651"/><path class="cls-5" d="M771.77,463.48S758.32,340.2,825.14,340.27,880.8,463.48,880.8,463.48"/><path class="cls-6" d="M761.56,463.48S748.11,340.2,814.93,340.27s55.66,123.21,55.66,123.21"/><polyline class="cls-5" points="575.31 855.2 559.62 845.99 550.47 837.81 532.17 841.32 551.78 834.3 558.32 842.48 566.16 847.16 575.31 846.7"/><path class="cls-5" d="M1078.21,879.93s-21.34-207.55,84.7-207.43,88.33,207.43,88.33,207.43"/><path class="cls-6" d="M1065.55,879.5s-21.34-207.55,84.7-207.43,88.33,207.43,88.33,207.43"/><polyline class="cls-5" points="1069.17 845.3 1084.86 854.64 1094.01 862.94 1112.31 859.39 1092.7 866.5 1086.17 858.2 1078.32 853.46 1069.17 853.92"/><path class="cls-5" d="M727.21,879.93s-21.34-207.55,84.7-207.43,88.33,207.43,88.33,207.43"/><path class="cls-6" d="M736.36,880.93S715,673.38,821.06,673.5s88.33,207.43,88.33,207.43"/><polyline class="cls-5" points="1048.42 650.5 1039.63 629.58 1048.64 604.7 1044.13 627.6 1052.5 636.68 1052.5 650.5"/><path class="cls-5" d="M580.48,651s-17.35-173.55,68.86-173.45S721.15,651,721.15,651"/><path class="cls-6" d="M567.61,651s-17.35-173.55,68.85-173.45S708.28,651,708.28,651"/><polyline class="cls-5" points="566.5 630.42 587.42 621.63 612.3 630.64 589.4 626.13 580.32 634.5 566.5 634.5"/><polyline class="cls-5" points="837.17 462.99 828.48 456.55 828.48 446.88 821.53 438.5 821.53 423.86 824.51 435.78 833.45 446.67 830.47 454.83 842.64 462.99"/><path class="cls-5" d="M1107.77,463.48s-13.45-123.28,53.37-123.21,55.66,123.21,55.66,123.21"/><path class="cls-6" d="M1097.56,463.48s-13.45-123.28,53.37-123.21,55.66,123.21,55.66,123.21"/><polyline class="cls-5" points="1207.65 418.35 1201.21 427.03 1191.54 427.03 1183.16 433.98 1168.52 433.98 1180.44 431 1191.33 422.07 1199.49 425.05 1207.65 412.87"/><path class="cls-5" d="M428.77,463.48S415.32,340.2,482.14,340.27,537.8,463.48,537.8,463.48"/><path class="cls-6" d="M418.56,463.48S405.11,340.2,471.93,340.27s55.66,123.21,55.66,123.21"/><path class="cls-3" d="M894.67,735.5h84v75.29s-40.11-.14-70.15-8.22C908.53,802.57,901.83,748.5,894.67,735.5Z"/><path class="cls-3" d="M1073.22,750.32h-56.7v58s27.07-5.19,49-11C1065.55,797.3,1068.94,759.14,1073.22,750.32Z"/><path class="cls-3" d="M734.5,669.5v4.67s-18.75-4.67-36.87-4.67Z"/><path class="cls-3" d="M675.41,669.5S554.5,681.86,553.5,679.18V669.5Z"/><path class="cls-4" d="M553.5,679.18v6.29h181v-11.3a190,190,0,0,0-55.08-4.67s-41,1.76-65,5.88C614.45,675.38,572.5,679.86,553.5,679.18Z"/><polygon class="cls-2" points="1073.5 670.5 1073.5 685.47 922.27 685.47 901.5 670.5 1073.5 670.5"/></svg>
