<svg id="Layer_1" data-name="Layer 1" xmlns="http://www.w3.org/2000/svg" width="1600" height="900" viewBox="0 0 1600 900"><defs><style>.cls-1{fill:#333;}.cls-2{fill:#4d4d4d;}</style></defs><path class="cls-1" d="M1141.8,802.93s-16.33-177.55,64.8-177.45,67.59,177.45,67.59,177.45"/><path class="cls-2" d="M1130.8,802.93s-16.33-177.55,64.8-177.45,67.59,177.45,67.59,177.45"/><path class="cls-1" d="M881.8,802.93s-16.33-177.55,64.8-177.45,67.59,177.45,67.59,177.45"/><path class="cls-2" d="M870.8,802.93s-16.33-177.55,64.8-177.45,67.59,177.45,67.59,177.45"/><path class="cls-1" d="M577.8,802.93s-16.33-177.55,64.8-177.45,67.59,177.45,67.59,177.45"/><path class="cls-2" d="M584.8,802.93s-16.33-177.55,64.8-177.45,67.59,177.45,67.59,177.45"/><path class="cls-1" d="M330.8,802.93s-16.33-177.55,64.8-177.45,67.59,177.45,67.59,177.45"/><path class="cls-2" d="M337.8,802.93s-16.33-177.55,64.8-177.45,67.59,177.45,67.59,177.45"/><path class="cls-1" d="M465.56,597.93S452.09,451.4,519.05,451.48s55.77,146.45,55.77,146.45"/><path class="cls-2" d="M474.56,597.93S461.09,451.4,528.05,451.48s55.77,146.45,55.77,146.45"/><path class="cls-1" d="M743.56,595.93S730.09,449.4,797.05,449.48s55.77,146.45,55.77,146.45"/><path class="cls-2" d="M752.56,595.93S739.09,449.4,806.05,449.48s55.77,146.45,55.77,146.45"/><path class="cls-1" d="M1021.56,595.93s-13.47-146.53,53.49-146.45,55.77,146.45,55.77,146.45"/><path class="cls-2" d="M1011.56,595.93s-13.47-146.53,53.49-146.45,55.77,146.45,55.77,146.45"/><path class="cls-1" d="M1158.32,437.48s-10.54-115.13,41.83-115.06,43.63,115.06,43.63,115.06"/><path class="cls-2" d="M1150.32,437.48s-10.54-115.13,41.83-115.06,43.63,115.06,43.63,115.06"/><path class="cls-1" d="M898.32,437.48s-10.54-115.13,41.83-115.06,43.63,115.06,43.63,115.06"/><path class="cls-2" d="M890.32,437.48s-10.54-115.13,41.83-115.06,43.63,115.06,43.63,115.06"/><path class="cls-1" d="M595.32,437.48s-10.54-115.13,41.83-115.06,43.63,115.06,43.63,115.06"/><path class="cls-2" d="M604.32,437.48s-10.54-115.13,41.83-115.06,43.63,115.06,43.63,115.06"/><path class="cls-1" d="M351.32,437.48s-10.54-115.13,41.83-115.06,43.63,115.06,43.63,115.06"/><path class="cls-2" d="M359.32,437.48s-10.54-115.13,41.83-115.06,43.63,115.06,43.63,115.06"/><polyline class="cls-1" points="442.63 377.46 432.64 384.48 420.33 384.48 433.14 386.48 442.63 379.9"/><polyline class="cls-1" points="473.89 551.04 485.89 558.92 492.89 565.92 506.89 562.92 491.89 568.92 486.89 561.92 480.89 557.92 473.89 558.31"/><polyline class="cls-1" points="400.45 802.48 408.33 790.48 415.33 783.48 412.33 769.48 418.33 784.48 411.33 789.48 407.33 795.48 407.72 802.48"/><polyline class="cls-1" points="531.33 451.48 523.45 463.48 516.45 470.48 519.45 484.48 513.45 469.48 520.45 464.48 524.45 458.48 524.05 451.48"/><polyline class="cls-1" points="717.89 780.92 705.89 773.04 698.89 766.04 684.89 769.04 699.89 763.04 704.89 770.04 710.89 774.04 717.89 773.65"/><polyline class="cls-1" points="1120.16 595.48 1113.33 577.81 1120.33 556.81 1116.83 576.15 1123.33 583.81 1123.33 595.48"/><polyline class="cls-1" points="949.58 437.02 942.77 431 942.77 421.98 937.33 414.15 937.33 400.48 939.66 411.61 946.66 421.78 944.33 429.4 953.87 437.02"/><polyline class="cls-1" points="1215.71 332.02 1216.26 341.09 1209.88 347.47 1208.2 356.85 1198.53 366.52 1204.75 357 1206.99 344.86 1214.03 341.12 1212.67 328.98"/><polyline class="cls-1" points="805.62 449.48 812.43 455.5 812.43 464.53 817.87 472.35 817.87 486.02 815.54 474.89 808.54 464.73 810.87 457.1 801.33 449.48"/></svg>
