<svg id="Layer_1" data-name="Layer 1" xmlns="http://www.w3.org/2000/svg" width="1600" height="900" viewBox="0 0 1600 900"><defs><style>.cls-1{fill:#1a3d54;}.cls-2{fill:#51647a;}.cls-3{fill:#3e5663;}.cls-4{fill:#244354;}.cls-5{fill:#333;}.cls-6{fill:#4d4d4d;}.cls-7{fill:#cd89d3;}.cls-8{fill:#c875d1;}.cls-9{fill:#fff;}</style></defs><rect class="cls-1" x="575.5" y="669.5" width="137" height="37"/><rect class="cls-1" x="1039.5" y="804.5" width="262" height="97"/><rect class="cls-1" x="675.5" y="775.5" width="270" height="126"/><rect class="cls-2" x="514.65" y="385.79" width="35.85" height="45.71"/><polygon class="cls-3" points="402.5 431.5 402.5 385.79 423.66 385.79 538.5 431.5 402.5 431.5"/><rect class="cls-3" x="412.5" y="431.5" width="134" height="91"/><rect class="cls-3" x="757.5" y="398.5" width="127" height="124"/><rect class="cls-2" x="1093.5" y="397.5" width="146" height="132"/><rect class="cls-3" x="902.5" y="545.5" width="171" height="123"/><rect class="cls-4" x="566.5" y="545.5" width="163" height="124"/><rect class="cls-1" x="345.5" y="762.5" width="292" height="139"/><path class="cls-5" d="M392.21,880.93s-21.34-207.55,84.7-207.43,88.33,207.43,88.33,207.43"/><path class="cls-6" d="M401.36,880.93S380,673.38,486.06,673.5s88.33,207.43,88.33,207.43"/><path class="cls-5" d="M921.48,651s-17.35-173.55,68.86-173.45S1062.15,651,1062.15,651"/><path class="cls-6" d="M908.61,651s-17.35-173.55,68.85-173.45S1049.28,651,1049.28,651"/><path class="cls-5" d="M771.77,463.48S758.32,340.2,825.14,340.27,880.8,463.48,880.8,463.48"/><path class="cls-6" d="M761.56,463.48S748.11,340.2,814.93,340.27s55.66,123.21,55.66,123.21"/><polyline class="cls-5" points="575.31 855.2 559.62 845.99 550.47 837.81 532.17 841.32 551.78 834.3 558.32 842.48 566.16 847.16 575.31 846.7"/><path class="cls-5" d="M1078.21,879.93s-21.34-207.55,84.7-207.43,88.33,207.43,88.33,207.43"/><path class="cls-6" d="M1065.55,879.5s-21.34-207.55,84.7-207.43,88.33,207.43,88.33,207.43"/><polyline class="cls-5" points="1069.17 845.3 1084.86 854.64 1094.01 862.94 1112.31 859.39 1092.7 866.5 1086.17 858.2 1078.32 853.46 1069.17 853.92"/><path class="cls-5" d="M727.21,879.93s-21.34-207.55,84.7-207.43,88.33,207.43,88.33,207.43"/><path class="cls-6" d="M736.36,880.93S715,673.38,821.06,673.5s88.33,207.43,88.33,207.43"/><polyline class="cls-5" points="1048.42 650.5 1039.63 629.58 1048.64 604.7 1044.13 627.6 1052.5 636.68 1052.5 650.5"/><path class="cls-5" d="M580.48,651s-17.35-173.55,68.86-173.45S721.15,651,721.15,651"/><path class="cls-6" d="M567.61,651s-17.35-173.55,68.85-173.45S708.28,651,708.28,651"/><polyline class="cls-5" points="566.5 630.42 587.42 621.63 612.3 630.64 589.4 626.13 580.32 634.5 566.5 634.5"/><polyline class="cls-5" points="837.17 462.99 828.48 456.55 828.48 446.88 821.53 438.5 821.53 423.86 824.51 435.78 833.45 446.67 830.47 454.83 842.64 462.99"/><path class="cls-5" d="M1107.77,463.48s-13.45-123.28,53.37-123.21,55.66,123.21,55.66,123.21"/><path class="cls-6" d="M1097.56,463.48s-13.45-123.28,53.37-123.21,55.66,123.21,55.66,123.21"/><polyline class="cls-5" points="1207.65 418.35 1201.21 427.03 1191.54 427.03 1183.16 433.98 1168.52 433.98 1180.44 431 1191.33 422.07 1199.49 425.05 1207.65 412.87"/><path class="cls-5" d="M428.77,463.48S415.32,340.2,482.14,340.27,537.8,463.48,537.8,463.48"/><path class="cls-6" d="M418.56,463.48S405.11,340.2,471.93,340.27s55.66,123.21,55.66,123.21"/><path class="cls-4" d="M675.41,669.5s-108,12.36-108.91,9.68V669.5Z"/><rect class="cls-3" x="916.5" y="665.5" width="136" height="47"/><path class="cls-4" d="M916.5,679.28s34.31,28,59,33.22h-59Z"/><path class="cls-4" d="M904.68,775.5s23.82,29.72,40.82,30.86V775.5Z"/><path class="cls-4" d="M412.5,505.23s32.6,12.87,67,17h-67Z"/><path class="cls-7" d="M100.68,686.82s26.89,18,49.37,12.92c0,0,21.68-2.76,29.17-7.89,0,0,12.62-10.25,23.66-14.19,0,0,22.08-1.58,26.81-6.31,0,0,2.36-7.89-25.63-3.55,0,0-11.83,2.37-25.23,13.41,0,0-28,15.15-40.2,8.56,0,0-18.9-.7-30.55-12.32C108.08,677.45,101,684.16,100.68,686.82Z"/><path class="cls-7" d="M26.47,590.2s-15.21-17.42,8.05-47.78c0,0,16.17-37.45,12.23-52.44,0,0,2.57-14.77-8.77-8.76a38.09,38.09,0,0,0-4.64,24.53S31.76,530.2,22.7,537.69c0,0-26.19,32.22-3.24,59.08C19.46,596.77,25.9,591.85,26.47,590.2Z"/><path class="cls-7" d="M-65.23,643.75s-.25,7.94,23.93,14.61c0,0,13.53,11.81,12.74,28.36,0,0,8.67,8.68,26.42,13.8,0,0,6.31,4,11.43,20.9,0,0,.63,5.57,24.36,11.85,0,0,8.29,5.14,12.86,20.69,0,0,.81,9.11,9.39,9.18,0,0-30.11,43.53-43.88,43.88,0,0-10.61,5.87-69.76-56.42,0,0-58.74-76.1-52-81.22C-109.78,669.38-71.53,640.6-65.23,643.75Z"/><path class="cls-8" d="M-109.78,669.38s-46.13,39,3.15,91.47c0,0-23.26,7.49-41,36.27,0,0-13.4-14.19-17.74-8.28s10.64,15.38,10.64,15.38,4.34,10.64,14.2-4.73c0,0,37.45-36.67,43-31.15,0,0,9.47,15,13.8,14.59,0,0-27.2,42.18-41.4,46.13,0,0-2,4.33,9.86,13.8,0,0,5.92,9.85,11,6.3,0,0,4.51-1.73-8-14.66,0,0-1.47-3.47,13.9-16.48,0,0,17.75-12.23,22.87-27.6,0,0,15,26,49.68,28.39,0,0,16.9,7.58,37.82-11.79,0,0-14.56,1.93-69.76-56.42C-57.74,750.6-115.3,676.47-109.78,669.38Z"/><path class="cls-9" d="M-65.23,643.75s-.25,7.94,23.93,14.61c0,0,12.74,11,12.74,28.36,0,0,14.59,12.23,26.42,13.8,0,0,6.7,5.13,11.43,20.9,0,0-.95,4.78,24.36,11.85,0,0,6.81.24,14.88,26.13,0,0,4.31,4.46,7.37,3.74,0,0,45.09-58.48,44.78-76.32,0,0,15.06-19.81,44.24-41.1,0,0,71-52,26.81-106.45,0,0-31.36-47.7-86.06-7.88,0,0-21.13,13.93-59.2,58.81C26.47,590.2,10.47,613.78-65.23,643.75Z"/><ellipse class="cls-7" cx="109.83" cy="571.2" rx="21.19" ry="13.38" transform="translate(-371.73 244.96) rotate(-45)"/><ellipse class="cls-7" cx="132.7" cy="594.07" rx="21.19" ry="13.38" transform="translate(-381.21 267.83) rotate(-45)"/><path d="M122.05,559s7.89,9.46-8.67,19.71c0,0-11.83,9.47-17,3.55,0,0-6.17-6.15,6-18.45S122.05,559,122.05,559Z"/><path d="M143.34,580.27s7.89,9.46-8.67,19.72c0,0-11.83,9.46-16.95,3.54,0,0-6.18-6.15,6-18.45S143.34,580.27,143.34,580.27Z"/><path class="cls-9" d="M109.1,560.75s1.91,3.75,5.07,3.75,5.12-3.86,5.12-3.86S113.89,557.39,109.1,560.75Z"/><path class="cls-9" d="M132,582s1.91,3.75,5.06,3.75,5.13-3.86,5.13-3.86S136.76,578.68,132,582Z"/><path d="M68.83,586.19s-9.07,7.49,3.94,13.4c0,0,10.06,8.47,8.58,12.52,0,0,2.25,5.54,11.42,9.13,0,0,7.6,4.37,10.36,9.5,0,0,7.83,10.37,11.6,8.53,0,0,9.19-5.67,4.91-13.21s-17.3-12.67-17.3-12.67a38.44,38.44,0,0,1-16.17-16.16S79.08,577.51,68.83,586.19Z"/></svg>
