<svg xmlns="http://www.w3.org/2000/svg" width="1600" height="900" viewBox="0 0 1600 900"><defs><style>.cls-1{fill:#07182b;}.cls-2{fill:#d3e7ea;}.cls-3,.cls-36,.cls-43{fill:#fff;}.cls-3{opacity:0.05;}.cls-4{fill:#7b8b9b;}.cls-5{fill:#51647a;}.cls-6{fill:#3e5663;}.cls-7{fill:#244354;}.cls-8{fill:#1a3d54;}.cls-10,.cls-12,.cls-9{fill:#b3b3b3;}.cls-9{opacity:0.19;}.cls-10{opacity:0.33;}.cls-11{fill:#f2f2f2;opacity:0.12;}.cls-12{opacity:0.17;}.cls-13{fill:#546b66;}.cls-14{fill:#04252b;}.cls-15{fill:#3a564f;}.cls-16{fill:#2b4f48;}.cls-17{fill:#617773;}.cls-18{fill:#4d4d4d;}.cls-19{fill:#0b5147;}.cls-20{fill:#011b21;}.cls-21{fill:#082825;}.cls-22{fill:#446661;}.cls-23{fill:#326058;}.cls-24{fill:#506661;}.cls-25{fill:#a4b797;}.cls-26{fill:#96ab8a;}.cls-27{fill:#80cecc;}.cls-28{fill:#b4c7a9;}.cls-29{fill:#c5d2c0;}.cls-30{fill:#f4d083;}.cls-31{fill:#e2dfa6;}.cls-32{fill:#ea718b;}.cls-33{fill:#887146;}.cls-34{fill:#cd89d3;}.cls-35{fill:#c875d1;}.cls-37{opacity:0.38;}.cls-38{fill:#666;}.cls-39{fill:gray;}.cls-40{fill:#333;}.cls-41{fill:#f28a22;}.cls-42{fill:#3d2a09;}.cls-43{opacity:0.14;}</style></defs><g id="game_over" data-name="game over"><rect class="cls-1" x="-1.08" y="-1.78" width="1600" height="900"/><circle class="cls-2" cx="1346.92" cy="202.22" r="204"/><circle class="cls-3" cx="1346" cy="198" r="229"/><circle class="cls-3" cx="1347" cy="196" r="255"/><circle class="cls-3" cx="1344.5" cy="196.5" r="279.5"/><circle class="cls-3" cx="1345.5" cy="197.5" r="304.5"/><circle class="cls-3" cx="1346" cy="199" r="331"/><circle class="cls-3" cx="1344.5" cy="195.5" r="357.5"/><path class="cls-4" d="M793.27,264.59s240.15,18.09,296.65-36.39,210.67-24.56,210.67-24.56,108.83,39,127.33,23.52,131.44,53.7,131.44,53.7,34.06,20.7,40.56,5.78l-1,611.58-1601.33,2,1-622Z"/><path class="cls-5" d="M-1.41,209.86s134.72-43.77,175-12.7S357.29,287,443.11,264.59s344.51-37.63,350.16,0S1109,288.64,1109,288.64s151.25-13.58,192.59,0,166.18-29.55,188.75,36.52c0,0,71,57.93,109.28,21.5l.3,553.56H-.08Z"/><path class="cls-6" d="M-1.08,325.68s394-92,433,43.84,361-6.58,482,18.83,135.13,197.79,275.56,215.73,160.33,59.33,274.38,16.62,132.06-54,132.06-54l3.31-3.62-.31,298.13H-1.08Z"/><path class="cls-7" d="M-1.08,496.55s245-179.32,301-32.64c0,0,213.25,86.8,291.13,54.13,0,0,281.12,13.25,275,91s196.53,136.9,196.53,136.9,56.82,44.19,48.08,78.26c0,0-237.47,117.11-330.1-89.76,0,0-28.39-75.13-200.51-41.65,0,0-48.81,11.5-63.47-15.62,0,0-60.41,2.44-190.53,51.62,0,0-55.33,29.39-91.73-19.23,0,0-64.62-5.68-100,11,0,0-132.39,48.69-135.39,53.08S-1.08,496.55-1.08,496.55Z"/><path class="cls-8" d="M-1.08,741s215.89-83.75,254-41.21,231.37-60,272.71-29.87,218.61-45.62,255,39.93,174.68,120.08,282,86,287.34-80.59,281.84-40.53,83.5,76.71,83.5,76.71,117.61,22.59,171.31,0l-.31,66.22H-1.08Z"/><path class="cls-9" d="M1546.88,161.64s-35-6.5-33,4.54-10.75,14.1-12.87,13.07-22-9.61-23.56-5.32-25,12.29-19.3,18.29,43.9-3,43.9-3,25.56-18.57,27.7-15.28,19.18,0,19.18,0"/><path class="cls-10" d="M1169.13,123.77s21.42,3.61,20.35,13.78,16.13,7.89,16,11,22.48,14.17,6.7,11.16-17.79-14.77-26.79-11.89-16.59.45-16.29-5.84-14.52-8-14.52-8l4.17-10.8Z"/><path class="cls-11" d="M-3.08,124.22s105.69-.85,112.8,21.51,49.12,25.44,71.47,15.47,85-15.2,108.21,5.41,63.58,38.16,90.14,28.26,75,21.61,74.51,37.36,22.87,26,22.87,26l-14.19-.59s-58-32.15-66.78-43.4-16.26,0-42,0-44,15.75-69.11-3.38-48.77-40.5-72.48-29.25-69.83,17.36-96.56-.32S50.74,125.4,46.52,136.62s-49.6,5.52-49.6,5.52Z"/><path class="cls-10" d="M1344.42,217.63s21.75-29.28,32.63-23.34,19.12,9.93,24,7.93,10.87,8,10.87,8-14.94,27.28-16,19.22C1395.92,229.22,1353.92,222,1344.42,217.63Z"/><path class="cls-10" d="M1262.51,166.81c-.59,6.41,17.41,11.41,18.41,15.41s21.2-10.41,25.1-7.7,43.9-8.61,26.9-18-28.23-19.42-33.12-9.38-40.88-2-42.88,7A11,11,0,0,0,1262.51,166.81Z"/><path class="cls-12" d="M1389.22,123.22S1392,142.81,1422,143s6.58-13,20.76-9.9,35.36,10.7,31.27.4l-4.09-10.3h-80.7"/><g id="_2" data-name="2"><path class="cls-13" d="M200.1,287.9s21.73,1.14,16.72-10.36-2.33-11.9-.86-12.83,7.13-6.39,2.71-10.84-7.76-.66-9-7-11.58-8.32-11.58-8.32-12.21-.61-12.65,3.34-2.27,7.55,2.12,11.45.64,8.87,1,13.62,4,5.19,4.23,8.82-4.57,3.52-4.23,8.5S200.1,287.9,200.1,287.9Z"/><path class="cls-14" d="M201.27,292s.71-18.88-10.44-27.3c0,0,9.74,2.41,11.93,17.58,0,0,3-23.34-5.38-29.85,0,0-6.15-7.74-4.61-10.57,0,0,2.87,6.62,6.55,9.6s6.72-4.93,6.72-4.93,0,5.44-3.85,8.52c0,0,3.2,7.09,2.47,9.65,0,0,4.78,2.87,8-2.62,0,0,.08,4.92-8,4.85a44.21,44.21,0,0,1,0,8.69s7.86.78,10.11-2.86c0,0,.34,3.69-10.11,4.18,0,0-2.58,13.91-1.86,15.06"/><path class="cls-15" d="M1252.13,207.74s13.32.7,10.24-6.35-1.42-7.3-.52-7.86,4.36-3.92,1.66-6.65-4.76-.4-5.52-4.3-7.09-5.09-7.09-5.09-7.48-.37-7.75,2-1.39,4.62,1.3,7,.39,5.43.6,8.34,2.46,3.19,2.59,5.41-2.8,2.15-2.59,5.21S1252.13,207.74,1252.13,207.74Z"/><path class="cls-14" d="M1252.84,210.25s.44-11.56-6.39-16.72c0,0,6,1.47,7.31,10.77,0,0,1.84-14.3-3.3-18.29,0,0-3.76-4.74-2.82-6.47,0,0,1.76,4.05,4,5.87s4.12-3,4.12-3a7.22,7.22,0,0,1-2.36,5.22s2,4.34,1.51,5.91c0,0,2.93,1.76,4.91-1.61,0,0,.05,3-4.91,3a27,27,0,0,1,0,5.33s4.82.47,6.2-1.76c0,0,.2,2.27-6.2,2.57,0,0-1.57,8.52-1.14,9.22"/><path class="cls-16" d="M1194.66,228.14s19.69,1,15.15-9.38-2.11-10.79-.78-11.63,6.46-5.79,2.46-9.83-7-.59-8.16-6.36-10.49-7.53-10.49-7.53-11.07-.56-11.47,3-2.06,6.84,1.92,10.37.58,8,.89,12.35,3.65,4.71,3.83,8-4.14,3.18-3.83,7.7S1194.66,228.14,1194.66,228.14Z"/><path class="cls-14" d="M1195.71,231.86s.65-17.1-9.46-24.73c0,0,8.83,2.18,10.81,15.93,0,0,2.73-21.15-4.87-27.05,0,0-5.57-7-4.18-9.58,0,0,2.6,6,5.94,8.7s6.09-4.47,6.09-4.47,0,4.93-3.49,7.73c0,0,2.89,6.42,2.23,8.74,0,0,4.34,2.6,7.26-2.37,0,0,.08,4.45-7.26,4.39a39.29,39.29,0,0,1,0,7.87s7.13.71,9.17-2.59c0,0,.3,3.35-9.17,3.79,0,0-2.33,12.61-1.68,13.64"/><path class="cls-13" d="M1207.1,256.9s21.73,1.14,16.72-10.36-2.33-11.9-.86-12.83,7.13-6.39,2.71-10.84-7.76-.66-9-7-11.58-8.32-11.58-8.32-12.21-.61-12.65,3.34-2.27,7.55,2.12,11.45.64,8.87,1,13.62,4,5.19,4.23,8.82-4.57,3.52-4.23,8.5S1207.1,256.9,1207.1,256.9Z"/><path class="cls-14" d="M1208.27,261s.71-18.88-10.44-27.3c0,0,9.74,2.41,11.93,17.58,0,0,3-23.34-5.38-29.85,0,0-6.15-7.74-4.61-10.57,0,0,2.87,6.62,6.55,9.6s6.72-4.93,6.72-4.93,0,5.44-3.85,8.52c0,0,3.2,7.09,2.47,9.65,0,0,4.78,2.87,8-2.62,0,0,.08,4.92-8,4.85a44.21,44.21,0,0,1,0,8.69s7.86.78,10.11-2.86c0,0,.34,3.69-10.11,4.18,0,0-2.58,13.91-1.86,15.06"/><path class="cls-17" d="M131.89,232.3s20,1.06,15.4-9.54-2.14-11-.79-11.82,6.57-5.89,2.5-10-7.15-.6-8.3-6.47S130,186.82,130,186.82s-11.26-.56-11.66,3.08-2.09,6.95,2,10.54.58,8.17.9,12.55,3.7,4.79,3.9,8.13-4.22,3.24-3.9,7.83S131.89,232.3,131.89,232.3Z"/><path class="cls-14" d="M133,236.09s.66-17.39-9.62-25.15c0,0,9,2.22,11,16.2,0,0,2.77-21.51-5-27.51,0,0-5.66-7.13-4.24-9.73,0,0,2.64,6.1,6,8.84s6.19-4.54,6.19-4.54,0,5-3.55,7.85c0,0,2.95,6.53,2.28,8.89,0,0,4.4,2.64,7.38-2.41,0,0,.07,4.53-7.38,4.46a40.69,40.69,0,0,1,0,8s7.24.72,9.32-2.64c0,0,.3,3.41-9.32,3.86,0,0-2.38,12.81-1.71,13.87"/><path class="cls-18" d="M1485,264.83s-1.56-17,6.2-17,6.46,17,6.46,17"/><path class="cls-18" d="M1379,256.8s-1.56-17,6.2-17,6.46,17,6.46,17"/><path class="cls-18" d="M1307,254.79s-1.56-17,6.2-17,6.46,17,6.46,17"/><path class="cls-18" d="M1403.13,288.36s-3.26-35.57,12.94-35.55,13.5,35.55,13.5,35.55"/><path class="cls-18" d="M1316.13,285.35s-3.26-35.57,12.94-35.55,13.5,35.55,13.5,35.55"/><path class="cls-18" d="M1442.07,261.91s-2.53-28.18,10-28.16,10.48,28.16,10.48,28.16"/><path class="cls-18" d="M1498.07,279s-2.53-28.17,10-28.15S1518.6,279,1518.6,279"/><path class="cls-18" d="M1348.07,269.93s-2.53-28.17,10-28.15,10.48,28.15,10.48,28.15"/><path class="cls-17" d="M206,202.58s7.59-12.09,9.44-23.39c0,0,5.28,22.95,8.78,23.39h-5.62s4,17.69,8.5,19.33h-6.22s6.84,17.46,8.89,18.07H201.81s7.66-14.58,7.05-17.86h-5.53s7.16-14.17,7.16-19.51Z"/><path class="cls-19" d="M1465.3,593.68s115.57-26.06,72.44-78.94-29.63-59-23.28-66,28-44-1.69-60.84-41.66,8-57.48-23.5-72.86-26.52-72.86-26.52S1317.5,352.7,1321,374.05s-.85,42.89,27.9,56.85,16.34,45.55,25.1,70,28.69,21.29,35.1,40-18.81,25.17-9.71,50.8S1465.3,593.68,1465.3,593.68Z"/><path class="cls-14" d="M1477.41,613.48s-23.94-100-94.72-127.66c0,0,54.58-1.75,88.3,74.54,0,0-18.45-126.79-72-148.55,0,0-43.53-31.49-39.61-48.57,0,0,24.73,30.46,48.4,40.63s28-35.74,28-35.74,8.14,28.47-7.73,50.35c0,0,27.14,32.41,27.08,46.94,0,0,29.27,8,38.16-25.56,0,0,7.65,25.67-34.9,37.23,0,0,10.42,26.65,12.74,45.55,0,0,42.37-7.52,48.84-29.92,0,0,7.15,18.87-46.9,36.86,0,0,6.89,76.7,12.33,81.64"/><path class="cls-20" d="M1441.39,755.3s-49.8-92.75-42.5-92.35-101.37-28-104-68.93c0,0,44.52,38,63.32,36.37s-17.72-52-17.72-52,37,40.5,36.53,50.37,11.55,14.47,11.55,14.47-29.94-74.12-28.62-90.1c0,0-36.91-28.21-38-53,0,0,26.35,44.37,37,41.68,0,0-18.49-74.12,4.39-89.27,0,0-19.41,46.65,22.34,157.1,0,0,44.56-14.68,30.31-62.17,0,0,29.22,37.51-27,71.32,0,0,22.77,64,30.06,71.17,0,0,15.91-10.41,13.87-26.15,0,0,8.13,19.78-11.62,32.76,0,0,25.45,45.59,31.75,44.59"/><path class="cls-21" d="M1601,845.25s-289.68-1.16-269.74-106.9,98.94-28.34,98.44-102.15-57.18-60.05-54.84-85.49,66.46-33,77.4,13.4c0,0,56,50.45,38.48-71.45,0,0-107.3-42.12-87.92-97.56s45.38-66.48,72.38-68.48,125,33,125.5,94.27"/><path class="cls-22" d="M1600.74,317.15s-26.14-.11-24.34-9.65,8.93-2.55,8.88-9.21-5.15-5.42-4.94-7.71,6-3,7,1.2c0,0,5,4.55,3.47-6.44,0,0-9.68-3.8-7.93-8.8s4.09-6,6.53-6.18,11.27,3,11.32,8.51"/><path class="cls-23" d="M192.09,347.19s37.22,2,28.64-17.73-4-20.4-1.47-22,12.2-11,4.64-18.58-13.3-1.12-15.42-12-19.83-14.24-19.83-14.24-20.92-1.05-21.68,5.72-3.88,12.92,3.64,19.6,1.1,15.19,1.68,23.33,6.89,8.89,7.25,15.11-7.83,6-7.25,14.56S192.09,347.19,192.09,347.19Z"/><path class="cls-17" d="M60.66,231.1s19.69,1,15.15-9.39S73.7,210.92,75,210.09s6.46-5.8,2.46-9.83-7-.59-8.16-6.36-10.49-7.54-10.49-7.54-11.07-.55-11.47,3-2.06,6.83,1.92,10.37.58,8,.89,12.34,3.65,4.71,3.83,8-4.14,3.19-3.83,7.7S60.66,231.1,60.66,231.1Z"/><path class="cls-24" d="M80.1,257.8s21.73,1.14,16.72-10.35-2.33-11.91-.86-12.84,7.13-6.39,2.71-10.84-7.76-.65-9-7-11.58-8.31-11.58-8.31-12.21-.61-12.65,3.34-2.27,7.54,2.12,11.44.64,8.87,1,13.62,4,5.19,4.23,8.82-4.57,3.52-4.23,8.51S80.1,257.8,80.1,257.8Z"/><path class="cls-20" d="M1459.11,900.23s55.63-96.56,30.63-171.8-47.88-141.53-47.88-141.53,30.79,98.14,54.33,95.75,59.67-170.82,13.11-219c0,0-53.68-41.81-43.62-89.15,0,0,24.08,69,48.57,56,0,0,21.79-22.69,17.64-56,0,0,4.2,62,.52,73,0,0,24.57,122.26,9.45,139.39s44.18-.63,42-44.43c0,0,3.85,60.55-47.15,69.58l-23.83,115.77s82.83-27.49,84.83-68.62c0,0-5,66.22-88,84.27,0,0-22.81,146-14.41,156.76"/><path class="cls-20" d="M154.41,263.37s-3.21-19.37-1.94-18.86-16.2-11.06-14.21-18.45c0,0,5.57,9.4,9,10.25s0-10.25,0-10.25,4.1,9.39,3.42,11.1,1.17,3.25,1.17,3.25-.83-14.89.36-17.62c0,0-4.81-7.21-3.51-11.65,0,0,2,9.42,4,9.59,0,0,1.19-14.18,6.14-15.47,0,0-6.23,7.05-5.51,29.05,0,0,8.74.11,9.09-9.13,0,0,2.89,8.38-9,10.95,0,0,.17,12.66,1,14.37,0,0,3.43-.87,4-3.77a5.05,5.05,0,0,1-4,5.07s1.75,9.58,2.92,9.79"/><path class="cls-1" d="M1587.93,322s5-8.71,2.76-15.49-4.31-12.77-4.31-12.77,2.77,8.85,4.9,8.64,5.38-15.41,1.18-19.76c0,0-4.84-3.77-3.94-8,0,0,2.18,6.22,4.39,5.05a6.64,6.64,0,0,0,1.59-5.05s.38,5.59,0,6.59c0,0,2.22,11,.86,12.57s4-.06,3.79-4c0,0,.35,5.46-4.26,6.28l-2.14,10.44s7.47-2.48,7.65-6.19c0,0-.45,6-7.94,7.6,0,0-2.06,13.17-1.3,14.14"/><path class="cls-14" d="M194.09,354.22s1.21-32.33-17.89-46.74c0,0,16.69,4.12,20.44,30.1,0,0,5.15-40-9.22-51.13,0,0-10.52-13.25-7.88-18.09,0,0,4.91,11.33,11.22,16.43s11.51-8.44,11.51-8.44,0,9.32-6.61,14.6c0,0,5.48,12.13,4.23,16.53,0,0,8.19,4.91,13.73-4.49,0,0,.14,8.42-13.73,8.3,0,0,.9,9,0,14.88,0,0,13.48,1.34,17.33-4.9,0,0,.57,6.33-17.33,7.17,0,0-4.41,23.82-3.18,25.78"/><path class="cls-14" d="M61.71,234.82s.65-17.11-9.46-24.73c0,0,8.83,2.18,10.81,15.92,0,0,2.73-21.15-4.87-27,0,0-5.57-7-4.18-9.57,0,0,2.6,6,5.94,8.69S66,193.62,66,193.62s0,4.93-3.49,7.72c0,0,2.89,6.42,2.23,8.75,0,0,4.34,2.59,7.26-2.38,0,0,.08,4.46-7.26,4.39a39.38,39.38,0,0,1,0,7.88s7.13.7,9.17-2.6c0,0,.3,3.35-9.17,3.8,0,0-2.33,12.6-1.68,13.64"/><path class="cls-14" d="M81.27,261.91S82,243,70.83,234.61c0,0,9.74,2.41,11.93,17.58,0,0,3-23.34-5.38-29.85,0,0-6.15-7.74-4.61-10.56,0,0,2.87,6.61,6.55,9.59S86,216.44,86,216.44s0,5.44-3.85,8.52c0,0,3.2,7.09,2.47,9.65,0,0,4.78,2.87,8-2.62,0,0,.08,4.92-8,4.85a44.21,44.21,0,0,1,0,8.69s7.86.78,10.11-2.86c0,0,.34,3.69-10.11,4.18,0,0-2.58,13.91-1.86,15.06"/><path class="cls-22" d="M91.82,189.64s7.32-11.66,9.1-22.55c0,0,5.1,22.13,8.47,22.55H104s3.86,17.06,8.2,18.64h-6s6.59,16.83,8.57,17.43H87.81s7.39-14.06,6.79-17.23H89.27s6.91-13.67,6.91-18.81Z"/><path class="cls-15" d="M109.09,302s37.22,2,28.64-17.73-4-20.4-1.47-22,12.2-10.95,4.64-18.58-13.3-1.12-15.42-12-19.83-14.24-19.83-14.24-20.92-1-21.68,5.72-3.88,12.92,3.64,19.6,1.1,15.19,1.68,23.33,6.89,8.9,7.25,15.12-7.83,6-7.25,14.56S109.09,302,109.09,302Z"/><path class="cls-22" d="M268.33,306s-37.22,2-28.64-17.73,4-20.4,1.47-22-12.2-10.95-4.64-18.58,13.3-1.12,15.42-12,19.83-14.24,19.83-14.24,20.92-1,21.68,5.72,3.88,12.92-3.64,19.6-1.1,15.19-1.68,23.33-6.89,8.9-7.25,15.12,7.83,6,7.25,14.56S268.33,306,268.33,306Z"/><path class="cls-16" d="M172.66,245.14s19.69,1,15.15-9.38S185.7,225,187,224.13s6.46-5.79,2.46-9.83-7-.59-8.16-6.36-10.49-7.53-10.49-7.53-11.07-.56-11.47,3-2.06,6.84,1.92,10.37.58,8,.89,12.35,3.65,4.71,3.83,8-4.14,3.18-3.83,7.7S172.66,245.14,172.66,245.14Z"/><path class="cls-20" d="M234.41,278.42s-3.21-19.37-1.94-18.86-16.2-11.07-14.21-18.45c0,0,5.57,9.4,9,10.24s0-10.24,0-10.24,4.1,9.38,3.42,11.09,1.17,3.25,1.17,3.25-.83-14.88.36-17.62c0,0-4.81-7.2-3.51-11.64,0,0,2,9.42,4,9.59,0,0,1.19-14.19,6.14-15.48,0,0-6.23,7-5.51,29.06,0,0,8.74.11,9.09-9.13,0,0,2.89,8.38-9,11,0,0,.17,12.66,1,14.37,0,0,3.43-.88,4-3.78a5.07,5.07,0,0,1-4,5.08s1.75,9.58,2.92,9.78"/><path class="cls-14" d="M111.09,309.08s1.21-32.33-17.89-46.75c0,0,16.69,4.12,20.44,30.11,0,0,5.15-40-9.22-51.14,0,0-10.52-13.25-7.88-18.09,0,0,4.91,11.34,11.22,16.44s11.51-8.44,11.51-8.44,0,9.31-6.61,14.59c0,0,5.48,12.13,4.23,16.53,0,0,8.19,4.91,13.73-4.49,0,0,.14,8.43-13.73,8.3,0,0,.9,9,0,14.88,0,0,13.48,1.34,17.33-4.9,0,0,.57,6.33-17.33,7.17,0,0-4.41,23.83-3.18,25.79"/><path class="cls-14" d="M266.34,315.08s-1.21-32.33,17.88-46.75c0,0-16.68,4.12-20.43,30.11,0,0-5.15-40,9.22-51.14,0,0,10.51-13.25,7.88-18.09,0,0-4.91,11.34-11.22,16.44s-11.51-8.44-11.51-8.44-.06,9.31,6.6,14.59c0,0-5.47,12.13-4.22,16.53,0,0-8.2,4.91-13.73-4.49,0,0-.14,8.43,13.73,8.3,0,0-.9,9,0,14.88,0,0-13.48,1.34-17.33-4.9,0,0-.57,6.33,17.33,7.17,0,0,4.4,23.83,3.17,25.79"/><path class="cls-14" d="M173.71,248.86s.65-17.1-9.46-24.73c0,0,8.83,2.18,10.81,15.93,0,0,2.73-21.15-4.87-27.05,0,0-5.57-7-4.18-9.58,0,0,2.6,6,5.94,8.7s6.09-4.47,6.09-4.47,0,4.93-3.49,7.73c0,0,2.89,6.42,2.23,8.74,0,0,4.34,2.6,7.26-2.37,0,0,.08,4.45-7.26,4.39a39.29,39.29,0,0,1,0,7.87s7.13.71,9.17-2.59c0,0,.3,3.35-9.17,3.79,0,0-2.33,12.61-1.68,13.64"/><path class="cls-15" d="M35.39,255.79s22.14,1.17,17-10.55-2.37-12.13-.87-13.07,7.26-6.51,2.76-11-7.91-.66-9.17-7.15-11.79-8.47-11.79-8.47-12.45-.62-12.9,3.4-2.31,7.69,2.17,11.66.65,9,1,13.88,4.09,5.29,4.3,9-4.65,3.58-4.3,8.66S35.39,255.79,35.39,255.79Z"/><path class="cls-20" d="M54.41,271.39S51.2,252,52.47,252.54s-16.2-11.07-14.21-18.45c0,0,5.57,9.39,9,10.24s0-10.24,0-10.24,4.1,9.38,3.42,11.09,1.17,3.25,1.17,3.25-.83-14.88.36-17.62c0,0-4.81-7.21-3.51-11.64,0,0,2,9.42,4,9.59,0,0,1.19-14.19,6.14-15.48,0,0-6.23,7.05-5.51,29.06,0,0,8.74.1,9.09-9.14,0,0,2.89,8.39-9,11,0,0,.17,12.66,1,14.37,0,0,3.43-.87,4-3.77a5.05,5.05,0,0,1-4,5.07s1.75,9.58,2.92,9.79"/><path class="cls-14" d="M36.58,260s.72-19.23-10.64-27.81c0,0,9.92,2.45,12.16,17.91,0,0,3.06-23.78-5.49-30.41,0,0-6.25-7.89-4.69-10.77,0,0,2.92,6.75,6.68,9.78s6.85-5,6.85-5,0,5.54-3.93,8.68c0,0,3.25,7.22,2.51,9.83,0,0,4.87,2.92,8.16-2.67,0,0,.09,5-8.16,4.94a45,45,0,0,1,0,8.85s8,.8,10.31-2.91c0,0,.34,3.76-10.31,4.26,0,0-2.62,14.17-1.89,15.34"/><path class="cls-15" d="M23.66,341s36.61,1.93,28.17-17.44-3.92-20.06-1.45-21.62,12-10.77,4.57-18.27-13.08-1.1-15.17-11.82-19.5-14-19.5-14-20.59-1-21.33,5.62-3.82,12.71,3.58,19.28,1.08,14.94,1.65,23,6.78,8.75,7.13,14.87-7.7,5.92-7.13,14.32S23.66,341,23.66,341Z"/><path class="cls-14" d="M25.62,347.89s1.2-31.8-17.59-46c0,0,16.41,4.06,20.1,29.61,0,0,5.07-39.32-9.06-50.29,0,0-10.35-13-7.76-17.8,0,0,4.83,11.15,11,16.17s11.32-8.3,11.32-8.3,0,9.16-6.5,14.35c0,0,5.39,11.94,4.16,16.26,0,0,8.06,4.83,13.5-4.42,0,0,.14,8.29-13.5,8.17,0,0,.89,8.82,0,14.64,0,0,13.25,1.31,17.05-4.82,0,0,.56,6.22-17.05,7,0,0-4.33,23.43-3.12,25.36"/><path class="cls-17" d="M150.76,352.55s-44.13,2.33-33.95-21,4.72-24.18,1.74-26.06-14.47-13-5.51-22,15.77-1.33,18.29-14.25,23.51-16.89,23.51-16.89,24.81-1.24,25.7,6.78,4.61,15.32-4.31,23.24-1.3,18-2,27.67-8.17,10.54-8.59,17.92,9.28,7.14,8.59,17.26S150.76,352.55,150.76,352.55Z"/><path class="cls-14" d="M148.4,360.89s-1.44-38.33,21.2-55.43c0,0-19.78,4.89-24.23,35.7,0,0-6.11-47.41,10.93-60.63,0,0,12.47-15.71,9.35-21.45,0,0-5.82,13.44-13.31,19.49s-13.65-10-13.65-10-.06,11.05,7.84,17.31c0,0-6.5,14.38-5,19.59,0,0-9.71,5.83-16.27-5.32,0,0-.17,10,16.27,9.85,0,0-1.06,10.62,0,17.64,0,0-16,1.58-20.54-5.81,0,0-.68,7.5,20.54,8.5,0,0,5.23,28.25,3.77,30.57"/><path class="cls-16" d="M48.76,272.77s10.85-17.29,13.49-33.44c0,0,7.56,32.81,12.56,33.44h-8s5.72,25.29,12.16,27.64H70s9.77,24.95,12.7,25.84H42.81S53.76,305.4,52.88,300.7H45s10.24-20.26,10.24-27.89Z"/><path class="cls-16" d="M6.75,207.84s5.36-8.53,6.66-16.51c0,0,3.73,16.2,6.2,16.51h-4s2.83,12.49,6,13.65h-4.4s4.83,12.33,6.27,12.76H3.81s5.41-10.29,5-12.61H4.88s5.06-10,5.06-13.78Z"/><path class="cls-17" d="M418.89,266.3s20,1.06,15.4-9.54-2.14-11-.79-11.82,6.57-5.89,2.5-10-7.15-.6-8.3-6.47S417,220.82,417,220.82s-11.26-.56-11.66,3.08-2.09,6.95,2,10.54.58,8.17.9,12.55,3.7,4.79,3.9,8.13-4.22,3.24-3.9,7.83S418.89,266.3,418.89,266.3Z"/><path class="cls-14" d="M420,270.09s.66-17.39-9.62-25.15c0,0,9,2.22,11,16.2,0,0,2.77-21.51-5-27.51,0,0-5.66-7.13-4.24-9.73,0,0,2.64,6.1,6,8.84s6.19-4.54,6.19-4.54,0,5-3.55,7.85c0,0,2.95,6.53,2.28,8.89,0,0,4.4,2.64,7.38-2.41,0,0,.07,4.53-7.38,4.46a40.69,40.69,0,0,1,0,8s7.24.72,9.32-2.64c0,0,.3,3.41-9.32,3.86,0,0-2.38,12.81-1.71,13.87"/><path class="cls-17" d="M493,236.58s7.59-12.09,9.44-23.39c0,0,5.28,22.95,8.78,23.39h-5.62s4,17.69,8.5,19.33h-6.22s6.84,17.46,8.89,18.07H488.81s7.66-14.58,7.05-17.86h-5.53s7.16-14.17,7.16-19.51Z"/><path class="cls-17" d="M347.66,265.1s19.69,1,15.15-9.39-2.11-10.79-.78-11.62,6.46-5.8,2.46-9.83-7-.59-8.16-6.36-10.49-7.54-10.49-7.54-11.07-.55-11.47,3-2.06,6.83,1.92,10.37.58,8,.89,12.34,3.65,4.71,3.83,8-4.14,3.19-3.83,7.7S347.66,265.1,347.66,265.1Z"/><path class="cls-24" d="M367.1,291.8s21.73,1.14,16.72-10.35-2.33-11.91-.86-12.84,7.13-6.39,2.71-10.84-7.76-.65-9-7-11.58-8.31-11.58-8.31-12.21-.61-12.65,3.34-2.27,7.54,2.12,11.44.64,8.87,1,13.62,4,5.19,4.23,8.82-4.57,3.52-4.23,8.51S367.1,291.8,367.1,291.8Z"/><path class="cls-20" d="M441.41,297.37s-3.21-19.37-1.94-18.86-16.2-11.06-14.21-18.45c0,0,5.57,9.4,9,10.25s0-10.25,0-10.25,4.1,9.39,3.42,11.1,1.17,3.25,1.17,3.25-.83-14.89.36-17.62c0,0-4.81-7.21-3.51-11.65,0,0,2,9.42,4,9.59,0,0,1.19-14.18,6.14-15.47,0,0-6.23,7.05-5.51,29.05,0,0,8.74.11,9.09-9.13,0,0,2.89,8.38-9,10.95,0,0,.17,12.66,1,14.37,0,0,3.43-.87,4-3.77a5.05,5.05,0,0,1-4,5.07s1.75,9.58,2.92,9.79"/><path class="cls-14" d="M348.71,268.82s.65-17.11-9.46-24.73c0,0,8.83,2.18,10.81,15.92,0,0,2.73-21.15-4.87-27,0,0-5.57-7-4.18-9.57,0,0,2.6,6,5.94,8.69s6.09-4.46,6.09-4.46,0,4.93-3.49,7.72c0,0,2.89,6.42,2.23,8.75,0,0,4.34,2.59,7.26-2.38,0,0,.08,4.46-7.26,4.39a39.38,39.38,0,0,1,0,7.88s7.13.7,9.17-2.6c0,0,.3,3.35-9.17,3.8,0,0-2.33,12.6-1.68,13.64"/><path class="cls-14" d="M368.27,295.91s.71-18.88-10.44-27.3c0,0,9.74,2.41,11.93,17.58,0,0,3-23.34-5.38-29.85,0,0-6.15-7.74-4.61-10.56,0,0,2.87,6.61,6.55,9.59s6.72-4.93,6.72-4.93,0,5.44-3.85,8.52c0,0,3.2,7.09,2.47,9.65,0,0,4.78,2.87,8-2.62,0,0,.08,4.92-8,4.85a44.21,44.21,0,0,1,0,8.69s7.86.78,10.11-2.86c0,0,.34,3.69-10.11,4.18,0,0-2.58,13.91-1.86,15.06"/><path class="cls-22" d="M378.82,223.64s7.32-11.66,9.1-22.55c0,0,5.1,22.13,8.47,22.55H391s3.86,17.06,8.2,18.64h-6s6.59,16.83,8.57,17.43H374.81s7.39-14.06,6.79-17.23h-5.33s6.91-13.67,6.91-18.81Z"/><path class="cls-22" d="M560.05,225.28s5.9-9.4,7.33-18.19c0,0,4.11,17.84,6.83,18.19h-4.37s3.11,13.75,6.61,15h-4.83s5.31,13.57,6.9,14.05H556.81s6-11.34,5.48-13.89H558s5.57-11,5.57-15.17Z"/><path class="cls-15" d="M396.09,336s37.22,2,28.64-17.73-4-20.4-1.47-22,12.2-10.95,4.64-18.58-13.3-1.12-15.42-12-19.83-14.24-19.83-14.24-20.92-1-21.68,5.72-3.88,12.92,3.64,19.6,1.1,15.19,1.68,23.33,6.89,8.9,7.25,15.12-7.83,6-7.25,14.56S396.09,336,396.09,336Z"/><path class="cls-16" d="M459.66,279.14s19.69,1,15.15-9.38S472.7,259,474,258.13s6.46-5.79,2.46-9.83-7-.59-8.16-6.36-10.49-7.53-10.49-7.53-11.07-.56-11.47,3-2.06,6.84,1.92,10.37.58,8,.89,12.35,3.65,4.71,3.83,8-4.14,3.18-3.83,7.7S459.66,279.14,459.66,279.14Z"/><path class="cls-20" d="M521.41,312.42s-3.21-19.37-1.94-18.86-16.2-11.07-14.21-18.45c0,0,5.57,9.4,9,10.24s0-10.24,0-10.24,4.1,9.38,3.42,11.09,1.17,3.25,1.17,3.25-.83-14.88.36-17.62c0,0-4.81-7.2-3.51-11.64,0,0,2,9.42,4,9.59,0,0,1.19-14.19,6.14-15.48,0,0-6.23,7.05-5.51,29.06,0,0,8.74.11,9.09-9.13,0,0,2.89,8.38-9,10.95,0,0,.17,12.66,1,14.37,0,0,3.43-.88,4-3.78a5.07,5.07,0,0,1-4,5.08s1.75,9.58,2.92,9.78"/><path class="cls-14" d="M398.09,343.08s1.21-32.33-17.89-46.75c0,0,16.69,4.12,20.44,30.11,0,0,5.15-40-9.22-51.14,0,0-10.52-13.25-7.88-18.09,0,0,4.91,11.34,11.22,16.44s11.51-8.44,11.51-8.44.05,9.31-6.61,14.59c0,0,5.48,12.13,4.23,16.53,0,0,8.19,4.91,13.73-4.49,0,0,.14,8.43-13.73,8.3,0,0,.9,9,0,14.88,0,0,13.48,1.34,17.33-4.9,0,0,.57,6.33-17.33,7.17,0,0-4.41,23.83-3.18,25.79"/><path class="cls-14" d="M460.71,282.86s.65-17.1-9.46-24.73c0,0,8.83,2.18,10.81,15.93,0,0,2.73-21.15-4.87-27.05,0,0-5.57-7-4.18-9.58,0,0,2.6,6,5.94,8.7s6.09-4.47,6.09-4.47,0,4.93-3.49,7.73c0,0,2.89,6.42,2.23,8.74,0,0,4.34,2.6,7.26-2.37,0,0,.08,4.45-7.26,4.39a39.29,39.29,0,0,1,0,7.87s7.13.71,9.17-2.59c0,0,.3,3.35-9.17,3.79,0,0-2.33,12.61-1.68,13.64"/><path class="cls-15" d="M322.39,289.79s22.14,1.17,17-10.55-2.37-12.13-.87-13.07,7.26-6.51,2.76-11.05-7.91-.66-9.17-7.15-11.79-8.47-11.79-8.47-12.45-.62-12.9,3.4-2.31,7.69,2.17,11.66.65,9,1,13.88,4.09,5.29,4.3,9-4.65,3.58-4.3,8.66S322.39,289.79,322.39,289.79Z"/><path class="cls-20" d="M341.41,305.39s-3.21-19.37-1.94-18.85-16.2-11.07-14.21-18.45c0,0,5.57,9.39,9,10.24s0-10.24,0-10.24,4.1,9.38,3.42,11.09,1.17,3.25,1.17,3.25-.83-14.88.36-17.62c0,0-4.81-7.21-3.51-11.64,0,0,2,9.42,4,9.59,0,0,1.19-14.19,6.14-15.48,0,0-6.23,7.05-5.51,29.06,0,0,8.74.1,9.09-9.14,0,0,2.89,8.39-9,10.95,0,0,.17,12.66,1,14.37,0,0,3.43-.87,4-3.77a5.05,5.05,0,0,1-4,5.07s1.75,9.58,2.92,9.79"/><path class="cls-14" d="M323.58,294s.72-19.23-10.64-27.81c0,0,9.92,2.45,12.16,17.91,0,0,3.06-23.78-5.49-30.41,0,0-6.25-7.89-4.69-10.77,0,0,2.92,6.75,6.68,9.78s6.85-5,6.85-5,0,5.54-3.93,8.68c0,0,3.25,7.22,2.51,9.83,0,0,4.87,2.92,8.16-2.67,0,0,.09,5-8.16,4.94a45,45,0,0,1,0,8.85s8,.8,10.31-2.91c0,0,.34,3.76-10.31,4.26,0,0-2.62,14.17-1.89,15.34"/><path class="cls-15" d="M536.39,264.79s22.14,1.17,17-10.55-2.37-12.13-.87-13.07,7.26-6.51,2.76-11-7.91-.66-9.17-7.15-11.79-8.47-11.79-8.47-12.45-.62-12.9,3.4-2.31,7.69,2.17,11.66.65,9,1,13.88,4.09,5.29,4.3,9-4.65,3.58-4.3,8.66S536.39,264.79,536.39,264.79Z"/><path class="cls-14" d="M537.58,269s.72-19.23-10.64-27.81c0,0,9.92,2.45,12.16,17.91,0,0,3.06-23.78-5.49-30.41,0,0-6.25-7.89-4.69-10.77,0,0,2.92,6.75,6.68,9.78s6.85-5,6.85-5,0,5.54-3.93,8.68c0,0,3.25,7.22,2.51,9.83,0,0,4.87,2.92,8.16-2.67,0,0,.09,5-8.16,4.94a45,45,0,0,1,0,8.85s8,.8,10.31-2.91c0,0,.34,3.76-10.31,4.26,0,0-2.62,14.17-1.89,15.34"/><path class="cls-15" d="M303.66,349s36.61,1.93,28.17-17.44-3.92-20.06-1.45-21.62,12-10.77,4.57-18.27-13.08-1.1-15.17-11.82-19.5-14-19.5-14-20.59-1-21.33,5.62-3.82,12.71,3.58,19.28,1.08,14.94,1.65,23,6.78,8.75,7.13,14.87-7.7,5.92-7.13,14.32S303.66,349,303.66,349Z"/><path class="cls-14" d="M307.62,362.89s1.2-31.8-17.59-46c0,0,16.41,4.06,20.1,29.61,0,0,5.07-39.32-9.06-50.29,0,0-10.35-13-7.76-17.8,0,0,4.83,11.15,11,16.17s11.32-8.3,11.32-8.3.05,9.16-6.5,14.35c0,0,5.39,11.94,4.16,16.26,0,0,8.06,4.83,13.5-4.42,0,0,.14,8.29-13.5,8.17,0,0,.89,8.82,0,14.64,0,0,13.25,1.31,17.05-4.82,0,0,.56,6.22-17.05,7,0,0-4.33,23.43-3.12,25.36"/><path class="cls-17" d="M1154.89,212.3s20,1.06,15.4-9.54-2.14-11-.79-11.82,6.57-5.89,2.5-10-7.15-.6-8.3-6.47-10.66-7.66-10.66-7.66-11.26-.56-11.66,3.08-2.09,6.95,2,10.54.58,8.17.9,12.55,3.7,4.79,3.9,8.13-4.22,3.24-3.9,7.83S1154.89,212.3,1154.89,212.3Z"/><path class="cls-14" d="M1156,216.09s.66-17.39-9.62-25.15c0,0,9,2.22,11,16.2,0,0,2.77-21.51-5-27.51,0,0-5.66-7.13-4.24-9.73,0,0,2.64,6.1,6,8.84s6.19-4.54,6.19-4.54,0,5-3.55,7.85c0,0,3,6.53,2.28,8.89,0,0,4.4,2.64,7.38-2.41,0,0,.07,4.53-7.38,4.46a40.69,40.69,0,0,1,0,8s7.24.72,9.32-2.64c0,0,.3,3.41-9.32,3.86,0,0-2.38,12.81-1.71,13.87"/><path class="cls-17" d="M1218.6,191.87s5.09-8.11,6.32-15.68c0,0,3.54,15.38,5.89,15.68H1227s2.68,11.85,5.7,12.95h-4.17s4.58,11.7,6,12.11h-18.71s5.13-9.77,4.72-12h-3.7s4.8-9.5,4.8-13.08Z"/><path class="cls-23" d="M1231.59,275.73s23.82,1.25,18.32-11.35-2.55-13.06-.94-14.07,7.81-7,3-11.89-8.51-.71-9.87-7.69-12.69-9.11-12.69-9.11-13.39-.67-13.87,3.66-2.49,8.26,2.33,12.54.7,9.72,1.07,14.93,4.41,5.7,4.64,9.68-5,3.85-4.64,9.31S1231.59,275.73,1231.59,275.73Z"/><path class="cls-20" d="M1177.41,243.37s-3.21-19.37-1.94-18.86-16.2-11.06-14.21-18.45c0,0,5.57,9.4,9,10.25s0-10.25,0-10.25,4.1,9.39,3.42,11.1,1.17,3.25,1.17,3.25-.83-14.89.36-17.62c0,0-4.81-7.21-3.51-11.65,0,0,2,9.42,4,9.59,0,0,1.19-14.18,6.14-15.47,0,0-6.23,7.05-5.51,29.05,0,0,8.74.11,9.09-9.13,0,0,2.89,8.38-9,10.95,0,0,.17,12.66,1,14.37,0,0,3.43-.87,4-3.77a5.05,5.05,0,0,1-4,5.07s1.75,9.58,2.92,9.79"/><path class="cls-14" d="M1232.86,280.23s.78-20.69-11.44-29.92c0,0,10.67,2.64,13.08,19.27,0,0,3.29-25.59-5.9-32.72,0,0-6.74-8.48-5-11.58,0,0,3.14,7.25,7.18,10.52s7.37-5.41,7.37-5.41,0,6-4.23,9.34c0,0,3.51,7.77,2.71,10.58,0,0,5.24,3.15,8.78-2.87,0,0,.09,5.39-8.78,5.31a48.51,48.51,0,0,1,0,9.53s8.62.85,11.09-3.14c0,0,.36,4.05-11.09,4.59,0,0-2.82,15.25-2,16.5"/><path class="cls-22" d="M1272.05,176.28s5.9-9.4,7.33-18.19c0,0,4.11,17.84,6.83,18.19h-4.37s3.11,13.75,6.61,15h-4.83s5.31,13.57,6.9,14.05h-21.71s6-11.34,5.48-13.89H1270s5.57-11,5.57-15.17Z"/><path class="cls-15" d="M1133.78,252.93s25.74,1.36,19.8-12.26-2.75-14.1-1-15.2,8.43-7.57,3.21-12.84-9.2-.77-10.67-8.31-13.71-9.85-13.71-9.85-14.46-.72-15,4-2.69,8.93,2.51,13.55.76,10.5,1.16,16.13,4.77,6.15,5,10.45-5.41,4.16-5,10.07S1133.78,252.93,1133.78,252.93Z"/><path class="cls-22" d="M1264.74,240.52s-19.4,1-14.92-9.24,2.07-10.63.76-11.45-6.36-5.71-2.42-9.68,6.93-.58,8-6.27,10.33-7.42,10.33-7.42,10.9-.54,11.3,3,2,6.74-1.9,10.22-.57,7.91-.88,12.16-3.58,4.63-3.77,7.87,4.08,3.14,3.77,7.59S1264.74,240.52,1264.74,240.52Z"/><path class="cls-20" d="M1241.87,229.23s-2.32-14-1.4-13.6-11.69-8-10.25-13.32c0,0,4,6.78,6.48,7.4s0-7.4,0-7.4,3,6.77,2.46,8,.84,2.34.84,2.34-.59-10.73.27-12.71c0,0-3.47-5.2-2.54-8.4,0,0,1.43,6.8,2.91,6.92,0,0,.86-10.24,4.43-11.17,0,0-4.49,5.09-4,21,0,0,6.31.07,6.55-6.59,0,0,2.09,6-6.52,7.9,0,0,.12,9.13.74,10.37,0,0,2.48-.64,2.9-2.73a3.65,3.65,0,0,1-2.9,3.66s1.26,6.92,2.11,7.06"/><path class="cls-14" d="M1263.7,245.23s-.63-16.85,9.32-24.36c0,0-8.69,2.15-10.65,15.69,0,0-2.68-20.84,4.8-26.65,0,0,5.49-6.9,4.11-9.42,0,0-2.55,5.9-5.84,8.56s-6-4.4-6-4.4,0,4.86,3.44,7.61c0,0-2.85,6.32-2.2,8.61,0,0-4.27,2.56-7.16-2.34,0,0-.07,4.39,7.16,4.33a38.92,38.92,0,0,0,0,7.75s-7,.7-9-2.55c0,0-.3,3.3,9,3.73,0,0,2.29,12.42,1.65,13.44"/><path class="cls-17" d="M1175.83,278.53s-29.17,1.54-22.44-13.9,3.12-16,1.15-17.22-9.56-8.58-3.64-14.55,10.43-.88,12.09-9.42,15.54-11.16,15.54-11.16,16.39-.82,17,4.48,3,10.12-2.85,15.36-.85,11.9-1.31,18.28-5.4,7-5.68,11.84,6.14,4.72,5.68,11.41S1175.83,278.53,1175.83,278.53Z"/><path class="cls-14" d="M1174.27,284s-1-25.33,14-36.63c0,0-13.07,3.23-16,23.59,0,0-4-31.33,7.22-40.07,0,0,8.24-10.38,6.18-14.17,0,0-3.85,8.88-8.79,12.88s-9-6.62-9-6.62,0,7.31,5.17,11.44c0,0-4.29,9.51-3.31,12.95,0,0-6.42,3.85-10.75-3.52,0,0-.12,6.61,10.75,6.51a59.13,59.13,0,0,0,0,11.66s-10.56,1.05-13.58-3.84c0,0-.45,5,13.58,5.62,0,0,3.45,18.67,2.49,20.2"/><path class="cls-16" d="M335.76,306.77s10.85-17.29,13.49-33.44c0,0,7.56,32.81,12.56,33.44h-8s5.72,25.29,12.16,27.64H357s9.77,24.95,12.7,25.84H329.81s10.95-20.85,10.07-25.55H332s10.24-20.26,10.24-27.89Z"/><path class="cls-22" d="M63.33,393s-37.22,2-28.64-17.73,4-20.4,1.47-22S24,342.38,31.52,334.75s13.3-1.12,15.42-12,19.83-14.24,19.83-14.24,20.92-1,21.68,5.72,3.88,12.92-3.64,19.6-1.1,15.19-1.68,23.33-6.89,8.9-7.25,15.12,7.83,6,7.25,14.56S63.33,393,63.33,393Z"/><path class="cls-14" d="M61.34,402.08s-1.21-32.33,17.88-46.75c0,0-16.68,4.12-20.43,30.11,0,0-5.15-40,9.22-51.14,0,0,10.51-13.25,7.88-18.09,0,0-4.91,11.34-11.22,16.44s-11.51-8.44-11.51-8.44-.06,9.31,6.6,14.59c0,0-5.47,12.13-4.22,16.53,0,0-8.2,4.91-13.73-4.49,0,0-.14,8.43,13.73,8.3,0,0-.9,9,0,14.88,0,0-13.48,1.34-17.33-4.9,0,0-.57,6.33,17.33,7.17,0,0,4.4,23.83,3.17,25.79"/><path class="cls-24" d="M162.1,378.8s21.73,1.14,16.72-10.35-2.33-11.91-.86-12.84,7.13-6.39,2.71-10.84-7.76-.65-9-7-11.58-8.31-11.58-8.31-12.21-.61-12.65,3.34-2.27,7.54,2.12,11.44.64,8.87,1,13.62,4,5.19,4.23,8.82-4.57,3.52-4.23,8.51S162.1,378.8,162.1,378.8Z"/><path class="cls-20" d="M236.41,384.37s-3.21-19.37-1.94-18.86-16.2-11.06-14.21-18.45c0,0,5.57,9.4,9,10.25s0-10.25,0-10.25,4.1,9.39,3.42,11.1,1.17,3.25,1.17,3.25-.83-14.89.36-17.62c0,0-4.81-7.21-3.51-11.65,0,0,2,9.42,4,9.59,0,0,1.19-14.18,6.14-15.47,0,0-6.23,7.05-5.51,29.05,0,0,8.74.11,9.09-9.13,0,0,2.89,8.38-9,10.95,0,0,.17,12.66,1,14.37,0,0,3.43-.87,4-3.77a5.05,5.05,0,0,1-4,5.07s1.75,9.58,2.92,9.79"/><path class="cls-14" d="M163.27,382.91s.71-18.88-10.44-27.3c0,0,9.74,2.41,11.93,17.58,0,0,3-23.34-5.38-29.85,0,0-6.15-7.74-4.61-10.56,0,0,2.87,6.61,6.55,9.59s6.72-4.93,6.72-4.93,0,5.44-3.85,8.52c0,0,3.2,7.09,2.47,9.65,0,0,4.78,2.87,8-2.62,0,0,.08,4.92-8,4.85a44.21,44.21,0,0,1,0,8.69s7.86.78,10.11-2.86c0,0,.34,3.69-10.11,4.18,0,0-2.58,13.91-1.86,15.06"/><path class="cls-15" d="M191.09,423s37.22,2,28.64-17.73-4-20.4-1.47-22,12.2-10.95,4.64-18.58-13.3-1.12-15.42-12-19.83-14.24-19.83-14.24-20.92-1-21.68,5.72-3.88,12.92,3.64,19.6,1.1,15.19,1.68,23.33,6.89,8.9,7.25,15.12-7.83,6-7.25,14.56S191.09,423,191.09,423Z"/><path class="cls-13" d="M253.1,344.9s21.73,1.14,16.72-10.36-2.33-11.9-.86-12.83,7.13-6.39,2.71-10.84-7.76-.66-9-7-11.58-8.32-11.58-8.32-12.21-.61-12.65,3.34-2.27,7.55,2.12,11.45.64,8.87,1,13.62,4,5.19,4.23,8.82-4.57,3.52-4.23,8.5S253.1,344.9,253.1,344.9Z"/><path class="cls-20" d="M382.41,375.42s-3.21-19.37-1.94-18.86-16.2-11.07-14.21-18.45c0,0,5.57,9.4,9,10.24s0-10.24,0-10.24,4.1,9.38,3.42,11.09,1.17,3.25,1.17,3.25-.83-14.88.36-17.62c0,0-4.81-7.2-3.51-11.64,0,0,2,9.42,4,9.59,0,0,1.19-14.19,6.14-15.48,0,0-6.23,7.05-5.51,29.06,0,0,8.74.11,9.09-9.13,0,0,2.89,8.38-9,10.95,0,0,.17,12.66,1,14.37,0,0,3.43-.88,4-3.78a5.07,5.07,0,0,1-4,5.08s1.75,9.58,2.92,9.78"/><path class="cls-14" d="M193.09,430.08s1.21-32.33-17.89-46.75c0,0,16.69,4.12,20.44,30.11,0,0,5.15-40-9.22-51.14,0,0-10.52-13.25-7.88-18.09,0,0,4.91,11.34,11.22,16.44s11.51-8.44,11.51-8.44,0,9.31-6.61,14.59c0,0,5.48,12.13,4.23,16.53,0,0,8.19,4.91,13.73-4.49,0,0,.14,8.43-13.73,8.3,0,0,.9,9,0,14.88,0,0,13.48,1.34,17.33-4.9,0,0,.57,6.33-17.33,7.17,0,0-4.41,23.83-3.18,25.79"/><path class="cls-14" d="M254.27,349s.71-18.88-10.44-27.3c0,0,9.74,2.41,11.93,17.58,0,0,3-23.34-5.38-29.85,0,0-6.15-7.74-4.61-10.57,0,0,2.87,6.62,6.55,9.6s6.72-4.93,6.72-4.93,0,5.44-3.85,8.52c0,0,3.2,7.09,2.47,9.65,0,0,4.78,2.87,8-2.62,0,0,.08,4.92-8,4.85a44.21,44.21,0,0,1,0,8.69s7.86.78,10.11-2.86c0,0,.34,3.69-10.11,4.18,0,0-2.58,13.91-1.86,15.06"/><path class="cls-20" d="M136.41,392.39s-3.21-19.37-1.94-18.85-16.2-11.07-14.21-18.45c0,0,5.57,9.39,9,10.24s0-10.24,0-10.24,4.1,9.38,3.42,11.09,1.17,3.25,1.17,3.25-.83-14.88.36-17.62c0,0-4.81-7.21-3.51-11.64,0,0,2,9.42,4,9.59,0,0,1.19-14.19,6.14-15.48,0,0-6.23,7.05-5.51,29.06,0,0,8.74.1,9.09-9.14,0,0,2.89,8.39-9,10.95,0,0,.17,12.66,1,14.37,0,0,3.43-.87,4-3.77a5.05,5.05,0,0,1-4,5.07s1.75,9.58,2.92,9.79"/><path class="cls-14" d="M105.4,372.74s.85-22.53-12.46-32.58c0,0,11.63,2.88,14.24,21,0,0,3.59-27.86-6.42-35.63,0,0-7.33-9.23-5.5-12.61,0,0,3.43,7.9,7.82,11.46s8-5.88,8-5.88,0,6.49-4.6,10.17c0,0,3.82,8.45,3,11.51,0,0,5.7,3.43,9.56-3.13,0,0,.1,5.88-9.56,5.79a52.8,52.8,0,0,1,0,10.37s9.39.93,12.07-3.41c0,0,.4,4.41-12.07,5,0,0-3.07,16.6-2.22,18"/><path class="cls-14" d="M51,463.3S52,436,35.94,423.88c0,0,14.07,3.48,17.23,25.39,0,0,4.34-33.71-7.77-43.11,0,0-8.87-11.17-6.65-15.26,0,0,4.14,9.56,9.46,13.86s9.71-7.11,9.71-7.11,0,7.85-5.57,12.3c0,0,4.62,10.23,3.56,13.93,0,0,6.91,4.15,11.57-3.78,0,0,.12,7.1-11.57,7,0,0,.76,7.55,0,12.55,0,0,11.36,1.12,14.61-4.13,0,0,.48,5.33-14.61,6,0,0-3.71,20.08-2.68,21.74"/><path class="cls-16" d="M100.76,372.77s10.85-17.29,13.49-33.44c0,0,7.56,32.81,12.56,33.44h-8s5.72,25.29,12.16,27.64H122s9.77,24.95,12.7,25.84H94.81s11-20.85,10.07-25.55H97s10.24-20.26,10.24-27.89Z"/><path class="cls-16" d="M259.76,319.77s10.85-17.29,13.49-33.44c0,0,7.56,32.81,12.56,33.44h-8s5.72,25.29,12.16,27.64H281s9.77,24.95,12.7,25.84H253.81s10.95-20.85,10.07-25.55H256s10.24-20.26,10.24-27.89Z"/><path class="cls-16" d="M9.76,384.77s10.85-17.29,13.49-33.44c0,0,7.56,32.81,12.56,33.44h-8s5.72,25.29,12.16,27.64H31s9.77,24.95,12.7,25.84H3.81s11-20.85,10.07-25.55H6s10.24-20.26,10.24-27.89Z"/><path class="cls-16" d="M293.75,241.84s5.36-8.53,6.66-16.51c0,0,3.73,16.2,6.2,16.51h-4s2.83,12.49,6,13.65h-4.4s4.83,12.33,6.27,12.76H290.81s5.41-10.29,5-12.61h-3.9s5.06-10,5.06-13.78Z"/><path class="cls-14" d="M1134.84,257.67s.83-22-12.16-31.79c0,0,11.34,2.8,13.9,20.47,0,0,3.5-27.19-6.27-34.77,0,0-7.16-9-5.37-12.31,0,0,3.34,7.71,7.64,11.18s7.83-5.74,7.83-5.74,0,6.34-4.5,9.93c0,0,3.73,8.25,2.88,11.24,0,0,5.57,3.34,9.33-3.06,0,0,.1,5.73-9.33,5.65a51.11,51.11,0,0,1,0,10.12s9.16.91,11.78-3.33c0,0,.39,4.3-11.78,4.87,0,0-3,16.21-2.16,17.54"/><path class="cls-22" d="M82.33,483s-37.22,2-28.64-17.73,4-20.4,1.47-22S43,432.38,50.52,424.75s13.3-1.12,15.42-12,19.83-14.24,19.83-14.24,20.92-1,21.68,5.72,3.88,12.92-3.64,19.6-1.1,15.19-1.68,23.33-6.89,8.9-7.25,15.12,7.83,6,7.25,14.56S82.33,483,82.33,483Z"/><path class="cls-14" d="M80.34,492.08s-1.21-32.33,17.88-46.75c0,0-16.68,4.12-20.43,30.11,0,0-5.15-40,9.22-51.14,0,0,10.51-13.25,7.88-18.09,0,0-4.91,11.34-11.22,16.44s-11.51-8.44-11.51-8.44-.06,9.31,6.6,14.59c0,0-5.47,12.13-4.22,16.53,0,0-8.2,4.91-13.73-4.49,0,0-.14,8.43,13.73,8.3,0,0-.9,9,0,14.88,0,0-13.48,1.34-17.33-4.9,0,0-.57,6.33,17.33,7.17,0,0,4.4,23.83,3.17,25.79"/><path class="cls-15" d="M23.66,513s36.61,1.93,28.17-17.44-3.92-20.06-1.45-21.62,12-10.77,4.57-18.27-13.08-1.1-15.17-11.82-19.5-14-19.5-14-20.59-1-21.33,5.62-3.82,12.71,3.58,19.28,1.08,14.94,1.65,23,6.78,8.75,7.13,14.87-7.7,5.92-7.13,14.32S23.66,513,23.66,513Z"/><path class="cls-14" d="M25.62,519.89s1.2-31.8-17.59-46c0,0,16.41,4.06,20.1,29.61,0,0,5.07-39.32-9.06-50.29,0,0-10.35-13-7.76-17.8,0,0,4.83,11.15,11,16.17s11.32-8.3,11.32-8.3,0,9.16-6.5,14.35c0,0,5.39,11.94,4.16,16.26,0,0,8.06,4.83,13.5-4.42,0,0,.14,8.29-13.5,8.17,0,0,.89,8.82,0,14.64,0,0,13.25,1.31,17.05-4.82,0,0,.56,6.22-17.05,7,0,0-4.33,23.43-3.12,25.36"/><path class="cls-23" d="M276.4,473.66s49.56,2.61,38.12-23.61-5.3-27.16-1.95-29.27,16.25-14.57,6.18-24.73-17.7-1.49-20.53-16-26.4-19-26.4-19S244,359.7,243,368.7s-5.18,17.2,4.84,26.1S249.26,415,250,425.86s9.17,11.84,9.64,20.12-10.42,8-9.64,19.39S276.4,473.66,276.4,473.66Z"/><path class="cls-14" d="M279.06,483s1.61-43-23.81-62.24c0,0,22.21,5.49,27.21,40.09,0,0,6.85-53.24-12.28-68.08,0,0-14-17.64-10.5-24.09,0,0,6.54,15.09,14.94,21.88S290,379.35,290,379.35s.07,12.4-8.79,19.43c0,0,7.29,16.15,5.63,22,0,0,10.9,6.54,18.27-6,0,0,.19,11.21-18.27,11.05,0,0,1.19,11.93,0,19.81,0,0,17.93,1.78,23.07-6.52,0,0,.76,8.43-23.07,9.54,0,0-5.87,31.72-4.24,34.33"/><path class="cls-17" d="M221.37,480.8s-58.76,3.09-45.2-28,6.29-32.2,2.31-34.7-19.26-17.28-7.32-29.32,21-1.76,24.34-19,31.3-22.49,31.3-22.49,33-1.65,34.22,9,6.14,20.4-5.74,30.94-1.73,24-2.65,36.84-10.88,14-11.44,23.85,12.36,9.51,11.44,23S221.37,480.8,221.37,480.8Z"/><path class="cls-14" d="M218.22,491.9s-1.91-51,28.23-73.8c0,0-26.33,6.51-32.26,47.53,0,0-8.12-63.12,14.56-80.72,0,0,16.6-20.92,12.44-28.56,0,0-7.75,17.9-17.71,25.95S205.31,369,205.31,369s-.09,14.71,10.42,23c0,0-8.64,19.15-6.67,26.09,0,0-12.93,7.76-21.67-7.08,0,0-.22,13.3,21.67,13.11,0,0-1.42,14.14,0,23.49,0,0-21.27,2.1-27.36-7.74,0,0-.9,10,27.36,11.32,0,0,7,37.61,5,40.7"/><path class="cls-23" d="M192.34,565.17s57.2,3,44-27.25-6.12-31.35-2.25-33.78,18.75-16.83,7.13-28.55-20.44-1.72-23.7-18.48-30.47-21.89-30.47-21.89-32.16-1.6-33.32,8.8-6,19.85,5.59,30.12S161,497.48,161.91,510s10.58,13.67,11.13,23.22-12,9.26-11.13,22.38S192.34,565.17,192.34,565.17Z"/><path class="cls-14" d="M195.4,576s1.87-49.68-27.48-71.84c0,0,25.64,6.33,31.41,46.27,0,0,7.91-61.45-14.17-78.59,0,0-16.17-20.36-12.12-27.8,0,0,7.55,17.42,17.24,25.25s17.7-13,17.7-13,.08,14.33-10.16,22.43c0,0,8.42,18.65,6.5,25.41,0,0,12.59,7.54,21.09-6.9,0,0,.23,12.95-21.09,12.76,0,0,1.38,13.77,0,22.87,0,0,20.71,2,26.64-7.53,0,0,.87,9.72-26.64,11,0,0-6.77,36.62-4.88,39.63"/><path class="cls-17" d="M128.81,573.42S61,577,76.63,541.1,83.89,503.93,79.3,501s-22.23-20-8.45-33.84,24.23-2,28.1-21.91,36.13-26,36.13-26,38.13-1.91,39.51,10.42,7.08,23.54-6.63,35.72-2,27.68-3.07,42.51-12.55,16.21-13.2,27.54,14.27,11,13.2,26.54S128.81,573.42,128.81,573.42Z"/><path class="cls-14" d="M125.18,586.23S123,527.32,157.77,501c0,0-30.41,7.52-37.25,54.87,0,0-9.38-72.86,16.8-93.18,0,0,19.17-24.15,14.37-33,0,0-8.94,20.66-20.44,29.95s-21-15.38-21-15.38-.1,17,12,26.59c0,0-10,22.11-7.71,30.12,0,0-14.93,8.95-25-8.18,0,0-.26,15.36,25,15.13,0,0-1.64,16.33,0,27.12,0,0-24.55,2.43-31.58-8.93,0,0-1,11.53,31.58,13.06,0,0,8,43.42,5.79,47"/><path class="cls-22" d="M544.28,313.08s-25.35,1.33-19.5-12.09,2.71-13.89,1-15-8.32-7.46-3.17-12.66,9.07-.76,10.51-8.18,13.51-9.71,13.51-9.71,14.26-.71,14.77,3.9,2.65,8.8-2.48,13.35-.74,10.35-1.14,15.9-4.7,6.06-4.94,10.29,5.34,4.11,4.94,9.92S544.28,313.08,544.28,313.08Z"/><path class="cls-14" d="M542.93,319.23s-.83-22,12.19-31.85c0,0-11.37,2.81-13.93,20.51,0,0-3.5-27.24,6.28-34.83,0,0,7.17-9,5.38-12.33,0,0-3.35,7.72-7.65,11.2s-7.84-5.75-7.84-5.75,0,6.35,4.5,9.94c0,0-3.73,8.27-2.88,11.26,0,0-5.58,3.35-9.35-3.06,0,0-.1,5.74,9.35,5.66a51.33,51.33,0,0,0,0,10.14s-9.18.91-11.81-3.34c0,0-.39,4.31,11.81,4.88,0,0,3,16.24,2.16,17.57"/><path class="cls-13" d="M485.1,313.9s21.73,1.14,16.72-10.36-2.33-11.9-.86-12.83,7.13-6.39,2.71-10.84-7.76-.66-9-7-11.58-8.32-11.58-8.32-12.21-.61-12.65,3.34-2.27,7.55,2.12,11.45.64,8.87,1,13.62,4,5.19,4.23,8.82-4.57,3.52-4.23,8.5S485.1,313.9,485.1,313.9Z"/><path class="cls-14" d="M486.27,318s.71-18.88-10.44-27.3c0,0,9.74,2.41,11.93,17.58,0,0,3-23.34-5.38-29.85,0,0-6.15-7.74-4.61-10.57,0,0,2.87,6.62,6.55,9.6s6.72-4.93,6.72-4.93,0,5.44-3.85,8.52c0,0,3.2,7.09,2.47,9.65,0,0,4.78,2.87,8-2.62,0,0,.08,4.92-8,4.85a44.21,44.21,0,0,1,0,8.69s7.86.78,10.11-2.86c0,0,.34,3.69-10.11,4.18,0,0-2.58,13.91-1.86,15.06"/></g><g id="zombier_bag" data-name="zombier bag"><path class="cls-25" d="M1277.59,433.22s5.93,8.92,5.59,12.67c0,0-9.87,14.53-32.71,8,0,0-5.41-6-5-19.29,0,0,5-25.34,4.39-27.84l2.38-1.48s8.09,6.61,29.78,0c0,0-.72,13.05-3.25,19.33-.11.26-.22.51-.33.74"/><path class="cls-26" d="M1283.18,445.89s6.61,16.87-8.56,20.63V480s.8,2.95-4.56,2.5c0,0-3.54-1.37,1.48-2.51,0,0,1.26.45.69-4.45l.22-8.67a18,18,0,0,1-7.52-.23l-.61,12.88s5.55,1.25,2,3c0,0-6.12.64-4.29-3l-.34-14.27s-4-.95-11.27-11.36C1250.47,453.89,1269.6,460.27,1283.18,445.89Z"/><path class="cls-27" d="M1263.65,425.82s-.67,2.34-.15,2.36c0,0,.5,1.85-.41,2.25,0,0,.57-1.63,0-1.87s0-2.34,0-2.34"/><path class="cls-28" d="M1258.2,435.16s-18.71-.23-22.58-.8c0,0-1.67-1.26-3.57,3.76,0,0-4.07,1.37-1.22-5.36,0,0-.1-1.86,13.18-.76l14.19-.35"/><path class="cls-28" d="M1247.14,426.4s-12.66-3.79-20.08-2.31c0,0-2.51-.22-2.16,2.86,0,0-2,3.64-2.62-1.6,0,0,.45-5,6.15-4,0,0,18.22,1,19.26,1.87"/><path d="M1270.62,411.68a4.72,4.72,0,0,1,1.33,3.39s0,4.34-2.5,4.45-4.8,1.27-6.42-1.27.18-6.57.18-6.57S1267.23,408.82,1270.62,411.68Z"/><path d="M1259.36,409.37a4.25,4.25,0,0,1,1.19,3s0,3.87-2.23,4-4.29,1.14-5.73-1.13.16-5.86.16-5.86S1256.34,406.82,1259.36,409.37Z"/><path class="cls-29" d="M1263.1,422.84s-8.68-1.83-11.87,0a1.69,1.69,0,0,0,0,2.8c1.72,1.53,11.3.85,11.3.85S1265.84,425.35,1263.1,422.84Z"/><polygon class="cls-30" points="1257.83 422.11 1257.83 423.73 1256.37 423.52 1256.37 422.03 1257.83 422.11"/><polyline class="cls-30" points="1255.46 422.03 1255.58 423.98 1254.41 423.73 1254.15 422.09"/><polyline class="cls-30" points="1261.21 426.56 1261.04 423.98 1259.68 423.98 1259.35 426.63"/><circle class="cls-31" cx="1256.54" cy="412.4" r="3.25"/><circle class="cls-31" cx="1265.95" cy="415.31" r="3.19"/><path class="cls-32" d="M1280.25,406.2s1.1-2.86-2.32-3.43c0,0,.34-4-6-2.17,0,0,0-3.88-4.56-1.71,0,0-4-2.62-4.22,1.14,0,0-1.37-4.27-6.73.66,0,0-3.69,1.05-1.1,3.79,0,0-3.35-4-3,1.72C1252.26,406.2,1262.72,411.46,1280.25,406.2Z"/><path d="M1279,406.56s-.26-1.63-1.18-1.63-1.36-1.48-1.36-1.48,0,1.48,1.14,1.83a1.41,1.41,0,0,1,1.09,1.37Z"/><path d="M1267,399.53s-1.6.42-1.51,1.33-1.35,1.5-1.35,1.5,1.47-.14,1.71-1.3a1.42,1.42,0,0,1,1.26-1.22Z"/><path d="M1273.25,400.28a.64.64,0,0,0,0,1,1.31,1.31,0,0,1,.57.92,2.21,2.21,0,0,0-.41,1.51s-.73-1.51-.16-1.51-.25-.71-.25-.71-.92-1-.51-1.05"/><path d="M1255.49,401a.4.4,0,0,0,.3.54.8.8,0,0,1,.58.32,1.39,1.39,0,0,0,.22.94s-.84-.6-.53-.77-.34-.3-.34-.3-.79-.26-.59-.42"/><path d="M1263.55,406.3s-2.59-.12-3.07.58c0,0-1.86-.16-2.32.91,0,0,2.66-1.05,3.08-.74C1261.24,407.05,1261.3,406.55,1263.55,406.3Z"/><path d="M1263.05,399.89a1.64,1.64,0,0,0-2.26,1.31s-1.23-.37-1.43.82a1.68,1.68,0,0,1,1.58-.67S1260.86,399.78,1263.05,399.89Z"/><path d="M1269.57,401.32a1.64,1.64,0,0,0-2.2-1.4s-.24-1.26-1.4-.89a1.7,1.7,0,0,1,1.33,1.09S1268.66,399.33,1269.57,401.32Z"/><path d="M1275.71,403.65a1.64,1.64,0,0,0-2.26,1.31s-1.23-.37-1.43.83a1.67,1.67,0,0,1,1.58-.68S1273.52,403.55,1275.71,403.65Z"/><path d="M1268.87,408.39s-.93.18-.84-1.35l-.59-1.42.33,1.42s.52,1,.26,1.41"/><path d="M1254.62,403.78s.54.77-.9,1.31l-1.06,1.12,1.17-.88s.75-.89,1.19-.81"/><path d="M1264.81,405.28s-.67-1.85-1.08-2a14.81,14.81,0,0,0-2.22-.27l2.28.45A13,13,0,0,1,1264.81,405.28Z"/><path d="M1270.62,402.71s-1.95-.22-2.28.07a15.48,15.48,0,0,0-1.24,1.87l1.43-1.84A13.29,13.29,0,0,1,1270.62,402.71Z"/><path d="M1259.73,404.73s-1.85-.66-2.23-.45a15.19,15.19,0,0,0-1.63,1.54l1.8-1.46A13.51,13.51,0,0,1,1259.73,404.73Z"/><path class="cls-33" d="M1281.35,411.32s3.42-.46,3.65-.23c0,0-1.6-.11-1.48-.45,0,0,.85-.52,1-.43,0,0,.09-.71.32-.71a9.51,9.51,0,0,1-2.86,1.36s-.34-.57.46-.68a2,2,0,0,0,1.26-.91,6.74,6.74,0,0,0,.34-1.6s-.69,1.83-.8,1.71-.8.69-1.14.46l-.46-.46Z"/><path class="cls-33" d="M1249.86,407.1s-.22-1.25-2.84-2.05a7.75,7.75,0,0,0,2,.34,5.79,5.79,0,0,0-2.28-2.74s.68-.11,2,1.71c0,0-.22-3,.12-3,0,0,0,3.08.46,3.42s.44-2.61.44-2.61-.07,2.7.37,2.71.33-2.95.33-2.95l.23,2.51a11.48,11.48,0,0,0,1.63-2.58s-1.29,2.69-1,2.81l.77.91"/><path class="cls-25" d="M1170.93,413.82s-6.66,10-6.28,14.23c0,0,11.08,16.3,36.71,9,0,0,6.07-6.78,5.61-21.64,0,0-5.55-28.45-4.93-31.26l-2.66-1.66s-9.09,7.42-33.43,0c0,0,.81,14.65,3.65,21.7.12.29.24.57.36.83"/><path class="cls-26" d="M1164.65,428.05s-7.42,18.93,9.6,23.15v15.12s-.89,3.31,5.12,2.8c0,0,4-1.53-1.66-2.81,0,0-1.41.51-.77-5l-.25-9.72a20.4,20.4,0,0,0,8.45-.26l.68,14.45s-6.23,1.4-2.3,3.4c0,0,6.86.71,4.82-3.39l.38-16s4.42-1.06,12.64-12.75C1201.36,437,1179.89,444.19,1164.65,428.05Z"/><path class="cls-27" d="M1186.57,405.51s.76,2.64.17,2.66c0,0-.56,2.07.45,2.52,0,0-.63-1.83,0-2.1s0-2.62,0-2.62"/><path class="cls-28" d="M1192.69,416s21-.26,25.34-.9c0,0,1.87-1.41,4,4.23,0,0,4.57,1.53,1.37-6,0,0,.11-2.09-14.79-.85l-15.93-.4"/><path class="cls-28" d="M1205.1,406.17s14.21-4.25,22.53-2.59c0,0,2.82-.25,2.44,3.2,0,0,2.28,4.1,2.93-1.79,0,0-.5-5.63-6.9-4.48,0,0-20.45,1.13-21.62,2.1"/><path d="M1178.75,389.65a5.29,5.29,0,0,0-1.5,3.8s0,4.87,2.8,5,5.4,1.43,7.22-1.42-.2-7.37-.2-7.37S1182.55,386.44,1178.75,389.65Z"/><path d="M1191.38,387.06a4.72,4.72,0,0,0-1.33,3.39s0,4.35,2.5,4.45,4.81,1.27,6.43-1.27-.18-6.57-.18-6.57S1194.77,384.2,1191.38,387.06Z"/><path class="cls-29" d="M1187.18,402.17s9.75-2,13.33,0a1.9,1.9,0,0,1,0,3.14c-1.93,1.73-12.69,1-12.69,1S1184.11,405,1187.18,402.17Z"/><polygon class="cls-30" points="1193.1 401.36 1193.1 403.17 1194.74 402.94 1194.74 401.26 1193.1 401.36"/><polyline class="cls-30" points="1195.76 401.26 1195.63 403.45 1196.94 403.17 1197.23 401.33"/><polyline class="cls-30" points="1189.31 406.35 1189.5 403.45 1191.03 403.45 1191.39 406.42"/><circle class="cls-31" cx="1194.54" cy="390.46" r="3.65"/><circle class="cls-31" cx="1183.98" cy="393.73" r="3.58"/><path class="cls-32" d="M1167.94,383.5s-1.24-3.22,2.6-3.86c0,0-.38-4.48,6.79-2.43,0,0,0-4.35,5.12-1.92,0,0,4.48-2.94,4.73,1.28,0,0,1.54-4.78,7.56.74,0,0,4.14,1.18,1.23,4.25,0,0,3.77-4.44,3.38,1.94C1199.35,383.5,1187.62,389.4,1167.94,383.5Z"/><path d="M1169.35,383.91s.3-1.83,1.32-1.83,1.54-1.67,1.54-1.67,0,1.67-1.28,2a1.6,1.6,0,0,0-1.23,1.54Z"/><path d="M1182.79,376s1.79.47,1.7,1.48,1.51,1.69,1.51,1.69-1.66-.16-1.92-1.47a1.6,1.6,0,0,0-1.42-1.37Z"/><path d="M1175.79,376.85a.71.71,0,0,1,0,1.12,1.48,1.48,0,0,0-.64,1,2.56,2.56,0,0,1,.47,1.7s.81-1.7.17-1.7.29-.79.29-.79,1-1.1.56-1.18"/><path d="M1195.72,377.66s.17.51-.33.6a.9.9,0,0,0-.65.37,1.52,1.52,0,0,1-.25,1.05s.94-.67.6-.86.39-.34.39-.34.88-.3.65-.47"/><path d="M1186.68,383.61s2.91-.13,3.45.65c0,0,2.09-.17,2.6,1,0,0-3-1.17-3.45-.82C1189.28,384.46,1189.21,383.89,1186.68,383.61Z"/><path d="M1187.25,376.41a1.84,1.84,0,0,1,2.53,1.47s1.38-.41,1.61.93a1.88,1.88,0,0,0-1.78-.76S1189.7,376.29,1187.25,376.41Z"/><path d="M1179.93,378a1.83,1.83,0,0,1,2.46-1.57s.28-1.41,1.57-1a1.9,1.9,0,0,0-1.49,1.23S1181,375.79,1179.93,378Z"/><path d="M1173,380.64a1.84,1.84,0,0,1,2.53,1.46,1.21,1.21,0,0,1,1.61.94,1.9,1.9,0,0,0-1.78-.77S1175.49,380.52,1173,380.64Z"/><path d="M1180.71,386s1,.2.94-1.52l.67-1.6-.38,1.6s-.57,1.18-.29,1.58"/><path d="M1196.7,380.78s-.6.87,1,1.47l1.19,1.26-1.3-1s-.86-1-1.34-.91"/><path d="M1185.26,382.46s.76-2.07,1.21-2.25a17.11,17.11,0,0,1,2.51-.31l-2.56.51A14.39,14.39,0,0,0,1185.26,382.46Z"/><path d="M1178.75,379.58s2.19-.25,2.55.08a16.8,16.8,0,0,1,1.39,2.1l-1.6-2.06A13.86,13.86,0,0,0,1178.75,379.58Z"/><path d="M1191,381.85s2.07-.74,2.5-.51a17.43,17.43,0,0,1,1.84,1.73l-2-1.64A14.84,14.84,0,0,0,1191,381.85Z"/><path class="cls-33" d="M1166.7,389.24s-3.84-.51-4.09-.25c0,0,1.79-.13,1.66-.51,0,0-1-.59-1.18-.49,0,0-.1-.79-.36-.79,0,0,2.31,1.53,3.2,1.53,0,0,.39-.64-.51-.77a2.2,2.2,0,0,1-1.41-1,7.26,7.26,0,0,1-.38-1.79s.77,2.05.9,1.92.89.77,1.28.51l.51-.51Z"/><path class="cls-33" d="M1202,384.51s.25-1.41,3.19-2.31a8.34,8.34,0,0,1-2.3.39,6.47,6.47,0,0,1,2.56-3.07s-.76-.13-2.3,1.92c0,0,.25-3.33-.13-3.33,0,0,0,3.45-.52,3.84s-.5-2.93-.5-2.93.08,3-.41,3-.37-3.31-.37-3.31l-.25,2.81a13.08,13.08,0,0,1-1.84-2.89s1.45,3,1.07,3.15l-.86,1"/></g><g id="spøgelse"><path class="cls-34" d="M1256.59,493.73s-2,10-8.12,13.86c0,0-5.44,4.21-8.25,4.74a31.51,31.51,0,0,0-8.42,2.11s-5.27,4.56-7.37,4.56c0,0-2.29-1.23,4.91-6.49a20.12,20.12,0,0,1,8.6-2.64s9.6-2.85,10.86-7c0,0,4-4.36,4.06-9.54C1252.86,493.29,1255.93,493.2,1256.59,493.73Z"/><path class="cls-34" d="M1214.74,447.21s-1.82,1.71,2.07,8.57c0,0,.39,5.64-3.47,9.15a20.51,20.51,0,0,0,2.8,9s.53,2.28-2.1,7.19c0,0-1.1,1.38,2.78,8.07,0,0,.7,3-1.74,7.46,0,0-1.85,2.21.05,4.14,0,0-16.4,3-19.54,0,0,0-3.67-1.06-3-28.09,0,0,3.86-30,6.5-29.67C1199.12,443,1214,445.1,1214.74,447.21Z"/><path class="cls-35" d="M1199.12,443s-19-1.58-19.66,21.07c0,0-6.85-3.51-17.21-1.06,0,0,.18-6.14-2.1-5.79s-1.06,5.79-1.06,5.79-1.4,3.34,4.22,2.11c0,0,16.5.18,16.5,2.63,0,0-1.23,5.44-.18,6.32,0,0-15.44,3.34-19.48,1.06,0,0-1.41.52-.88,5.26,0,0-.88,3.51,1,3.86,0,0,1.39.62,1.49-5,0,0,.44-1.1,6.76-.57,0,0,6.67,1.23,11.24-1.06a20.08,20.08,0,0,0,4.74,17.38s2.07,5.45,11,5.8c0,0-3.67-2.81-3-28.09C1192.62,472.66,1196.31,443.34,1199.12,443Z"/><path class="cls-36" d="M1214.74,447.21s-1.82,1.71,2.07,8.57a12.73,12.73,0,0,1-3.47,9.15s.52,6,2.8,9c0,0,.36,2.63-2.1,7.19,0,0-1.28.86,2.78,8.07,0,0,1.46,1.56-2.5,9.12,0,0,0,2,.81,2.48,0,0,23-3,26.95-7a72.4,72.4,0,0,1,19,.69s27.39,4.22,29.67-17.72c0,0,3.63-17.6-17.41-20.92,0,0-7.8-1.6-26.27-.08C1247.07,455.7,1238.26,457.39,1214.74,447.21Z"/><path class="cls-34" d="M1248.65,458.71s-6.87,2.42-5.19,14.34c0,0-1.37,12.77-4.77,16.26,0,0-1.59,4.45-3.76,1.05a11.93,11.93,0,0,1,2.52-7.44s3.36-6.95,2-10.41c0,0-2.19-12.88,8.26-16.69A11.76,11.76,0,0,1,1248.65,458.71Z"/><ellipse class="cls-34" cx="1269.86" cy="470.03" rx="6.67" ry="4.21"/><ellipse class="cls-34" cx="1269.86" cy="480.21" rx="6.67" ry="4.21"/><path d="M1275.3,470s-.35,3.86-6.32,2.45c0,0-4.74-.52-4.56-3,0,0,0-2.75,5.44-2.78S1275.3,470,1275.3,470Z"/><path d="M1275.3,479.5s-.35,3.87-6.32,2.46c0,0-4.74-.52-4.56-3,0,0,0-2.75,5.44-2.78S1275.3,479.5,1275.3,479.5Z"/><path class="cls-36" d="M1272,467.54a2.13,2.13,0,0,0,.3,2c.7.7,2,.28,2,.28A3.11,3.11,0,0,0,1272,467.54Z"/><path class="cls-36" d="M1272.37,477.37a2.13,2.13,0,0,0,.3,2c.7.7,2,.28,2,.28A3.13,3.13,0,0,0,1272.37,477.37Z"/><path d="M1257.4,464.23s-3.69-.35-2.11,3.86c0,0,.35,4.13-.88,4.7,0,0-.73,1.74.51,4.58a10,10,0,0,1,.19,4.42s-.56,4,.69,4.48c0,0,3.31.78,4-1.85s-1-6.67-1-6.67a12.1,12.1,0,0,1,0-7.2S1261.61,464.58,1257.4,464.23Z"/></g><g id="zombier"><path class="cls-25" d="M1200.79,432.86s-8,8.12-7.08,19.19c0,0-3,8.41-2.36,26.55a53.11,53.11,0,0,1-1.48,18s-.88,7.52,7.38,11.8a138.87,138.87,0,0,1,.15,17.56s3.54,6.2,8.56,1.18c0,0-.15-1.77-5.46-1.62,0,0-.15-17.12.88-16.68a12.84,12.84,0,0,0,9.59-.15s3.84,9.45,1,16.68c0,0,.73,1-4.58.88,0,0-3,1.48-.29,2.36,0,0,7.67,1.18,8.41-1.47,0,0,.29-20.07-.59-20.07,0,0,8.26-5.31,6.49-19.33,0,0,.15-3.24,7.23-16.08,0,0,13.87-20.36,8-37.33C1236.65,434.34,1222.19,439.21,1200.79,432.86Z"/><path class="cls-28" d="M1215.94,472.66s28.75-2.24,28.75-.77,1.48-2.06,1.92,3.84c0,0,3.34,1.8,2.19-4.34,0,0,.14-3.65-10.69-2.31l-21.6.3"/><path class="cls-28" d="M1232.18,465.51s12.66-1.14,15.17-.55c0,0,9.44-.89,10.32,1.18,0,0,0,5.9,1.63,4.13a6.15,6.15,0,0,0-.89-6.94s-1.77-1.32-13.57-.88c0,0-10.69.09-11.47.56"/><path d="M1214,447.62s4.76,4.2,8.07,0c0,0,3.33-3,0-7.38,0,0-.66-2.59-6.57,0A6.37,6.37,0,0,0,1214,447.62Z"/><path class="cls-31" d="M1214,444.7s-.57,2.85,4.59,2.55c0,0,5.32-.29,3.84-3.84,0,0,.37-2.45-4.1-1.15A4.15,4.15,0,0,0,1214,444.7Z"/><path d="M1231,447.86s3.66.42,5.13-6.36c0,0-.2-5.36-3.64-4.67a6.89,6.89,0,0,0-6.65,5.49S1225.73,448.47,1231,447.86Z"/><path class="cls-31" d="M1230.82,438.25s-3.69.88-3.84,4.43c0,0-.44,4.05,3.84,2.91,0,0,4.43.22,4.21-3.71C1235,441.88,1235.1,436.92,1230.82,438.25Z"/><path class="cls-29" d="M1213.39,460.19s-.28,3,6.51,2.41c0,0,5.79,0,8.65.07,0,0,4.56-.91,3.63-2.93,0,0,.63-2.21-6.34-2.92C1225.84,456.82,1213.51,455.72,1213.39,460.19Z"/><path class="cls-30" d="M1216.77,457.31s-.71,3.37-1.15,3.81,3.25-.59,3.25-1.18c0,0,.29-2.95,0-3A8.58,8.58,0,0,0,1216.77,457.31Z"/><path class="cls-30" d="M1219.93,456.81a11.83,11.83,0,0,1-.41,2.88,5.09,5.09,0,0,0,2.45-.19,5,5,0,0,0-.38-2.78Z"/><path class="cls-30" d="M1222.85,456.7a5,5,0,0,1,.15,2.06s1,.44,1.48-.3c0,0,.11-1.61-.24-1.76A4.62,4.62,0,0,0,1222.85,456.7Z"/><path class="cls-30" d="M1225.84,456.82s-.18-.13-.33,1.64c0,0-.26.41.68.43a8.09,8.09,0,0,0,1.79,0s.68.05.51-1.66A14,14,0,0,0,1225.84,456.82Z"/><path class="cls-30" d="M1231.68,458.6c.12.57-2.09,1.45-2.09,1.45s-1-1-.58-1.16.58-1.37.58-1.37c2.12,1.09,2.12.5,2.12,1.09v.59"/><path class="cls-30" d="M1217,462.62a1.53,1.53,0,0,1,1-1.5s1.48-.59,1.48-.3v1.81A12.75,12.75,0,0,1,1217,462.62Z"/><path class="cls-30" d="M1220.34,462.6l.06-.88s-.06-.45.53-.16a2,2,0,0,0,1,0s.49-.13.32,1Z"/><path class="cls-30" d="M1223.39,462.67s-.67-2.81.28-2.62c0,0,1,0,.82,1.18l-.17,1.39Z"/><path class="cls-30" d="M1225.36,462.62s.38-1.94.12-2.16c0,0-.19-.45,1-.41,0,0,1.51-.11.92,1.07a2.93,2.93,0,0,0,.13,1.53S1225.65,462.65,1225.36,462.62Z"/><path class="cls-30" d="M1228.55,462.67s-.32-1.78.68-1.44c0,0,2,.33,1.55.7Z"/><path class="cls-29" d="M1224.62,451.09s-.26,2.21-1.09,2.5-1-1.18-1-1.18S1223.59,451.09,1224.62,451.09Z"/><path class="cls-29" d="M1226.46,450.79s1.41-.15,1.26,3.1C1227.72,453.89,1225.2,453.45,1226.46,450.79Z"/><path class="cls-18" d="M1198.06,443.56s.94-.44,1.28,0c0,0-.88,1.69-.64,1.66,0,0,.25.55,1.28-1.36,0,0,1,.59.74,1,0,0-.3,1.92,0,1.77,0,0,.24.25.63-1.64,0,0,1.44.46,1.44.75,0,0,.73-.14-1.19-1,0,0,.6-1.47.89-1.62a6.85,6.85,0,0,1,1.18.44s.74-.29-.88-.59a1.07,1.07,0,0,1,.73-1.18s.15.15.45-1.92-.59,2.07-1.63,2.81c0,0-1.56-.59-1.3-1,0,0,1.3-2.88.86-2.73a11.82,11.82,0,0,0-1.48,2.51s-1-.74-1.47-.45c0,0-.74,1,.74.74,0,0,.88-.29.29.74,0,0-.29,1-1,.59C1199,443.12,1197.92,443.12,1198.06,443.56Z"/><path class="cls-25" d="M1200.57,442.53a1,1,0,0,0-.29.59.89.89,0,0,1-.15.59s.93.32.91.75a2.21,2.21,0,0,0,.86-1.49S1201.31,442.09,1200.57,442.53Z"/><path class="cls-33" d="M1197.82,436.79s-.35-5-1.53-5.48a4.55,4.55,0,0,1,1.53,2.74s.69-4.51,1.28-4.51a17.14,17.14,0,0,0-.74,5.61s.59-3.77,1.77-4c0,0-1.48,2.69-1.48,3.58,0,0,0,.34.31.39Z"/><path class="cls-33" d="M1236.13,434.5s.44-.68.15-5c0,0,.44-.59.44,2.81,0,0,.15,0,1.18-2.22,0,0-1.47,3.4-1,3.55,0,0,1.33-2.81,1.77-2.66a20.18,20.18,0,0,0-1.62,3.1v1.4A6.25,6.25,0,0,0,1236.13,434.5Z"/><path class="cls-32" d="M1203.08,433.51s-2.21-1,0-2.86a3.58,3.58,0,0,1,3.69-2.58s.29-3.25,3-3.25c0,0,3.76-2.95,4.24.52,0,0,3.08-3.07,3.33-.83,0,0,4.14-1.35,4,.74,0,0,3.72-2.23,5.13.74,0,0,4-1.34,5.72,2.21,0,0,.56,1.05-.47,1.34,0,0,2.66-.88,2.73,1.11,0,0,2.43.53,1.69,3.85,0,0-3.56,1.6-16.53,1.57C1219.6,436.07,1204,435.11,1203.08,433.51Z"/><path d="M1205.29,431.76a1.5,1.5,0,0,1,.59-2.07s1,.44.89-1.18c0,0,0-1.33.44-1.33,0,0-.15,1.33-.15,1.92,0,0,0,1.18-.73,1C1206.33,430.13,1205.15,429.4,1205.29,431.76Z"/><path d="M1224.18,430a1.49,1.49,0,0,1,.59-2.07s1,.44.89-1.18c0,0,0-1.33.44-1.33,0,0-.15,1.33-.15,1.92,0,0,0,1.18-.74,1C1225.21,428.36,1224,427.63,1224.18,430Z"/><path d="M1213.56,435.74a1.48,1.48,0,0,1,.59-2.06s1,.44.88-1.18c0,0,0-1.33.44-1.33,0,0-.14,1.33-.14,1.92,0,0,0,1.18-.74,1C1214.59,434.12,1213.41,433.38,1213.56,435.74Z"/><path d="M1208,428.66s.88-1.92,2.36-1.77c0,0,1.4-.15,1.81.29,0,0-1.63-.29-2.09,0C1210,427.18,1209.43,426.74,1208,428.66Z"/><path d="M1206.18,434.56s.88-1.92,2.36-1.77c0,0,1.4-.15,1.81.3,0,0-1.63-.3-2.09,0C1208.26,433.09,1207.65,432.64,1206.18,434.56Z"/><path d="M1232.9,434.86s-.38-2.08.91-2.81c0,0,1-.93,1.64-.8,0,0-1.5.7-1.7,1.2C1233.75,432.45,1233,432.44,1232.9,434.86Z"/><path d="M1219,428.75s-.88-1.92.19-2.95c0,0,.8-1.16,1.4-1.18,0,0-1.28,1-1.36,1.59C1219.18,426.21,1218.45,426.38,1219,428.75Z"/><path d="M1228.16,430s.74-2.22,1.63-2.36c0,0,1.92-.45,2.36.44a3.09,3.09,0,0,0-2.49.1A5.22,5.22,0,0,0,1228.16,430Z"/><path d="M1219,431.12s.79-2.2,1.68-2.32c0,0,1.93-.4,2.35.5a3.11,3.11,0,0,0-2.5,0A5.31,5.31,0,0,0,1219,431.12Z"/><path d="M1229.79,432.79a1.2,1.2,0,0,1,1.47-1.18s3.1,1,0,.34c0,0-1.33-.64-1.33,1.14,0,0-.59.73,0,1,0,0-.08.91-.26-.06C1229.67,434.06,1229.05,433.82,1229.79,432.79Z"/><path d="M1222.6,432.66a1.21,1.21,0,0,1,1.48,1.18s-.26,3.24-.33.07c0,0,.32-1.43-1.41-1,0,0-.85-.41-1,.24,0,0-.91.12,0-.27C1221.34,432.84,1221.43,432.18,1222.6,432.66Z"/><path d="M1212.82,429.1s.59-1.18,1-.15c0,0-.59-2.4,0-2.09a.86.86,0,0,1,.89-.56s-1.18.15,1.47-1.92a2,2,0,0,1,1-.21s-.12-.68-1.3.21c0,0-2.07,1.92-2.81,1.62,0,0-.14.3.3.3,0,0,.4-.2.57,0,0,0-1.16.91-.87,1.65C1213.11,427.92,1213.56,428.07,1212.82,429.1Z"/><path class="cls-25" d="M1319.05,413.86s8,8.12,7.09,19.19c0,0,2.95,8.41,2.36,26.55a53,53,0,0,0,1.47,18s.89,7.52-7.38,11.8c0,0-.59,5.46-.14,17.56,0,0-3.54,6.2-8.56,1.18,0,0,.15-1.77,5.46-1.62,0,0,.15-17.12-.89-16.68a12.84,12.84,0,0,1-9.59-.15s-3.83,9.45-1,16.68c0,0-.74,1,4.57.88,0,0,2.95,1.48.3,2.36,0,0-7.67,1.18-8.41-1.47,0,0-.3-20.07.59-20.07,0,0-8.26-5.31-6.49-19.33,0,0-.15-3.24-7.23-16.08,0,0-13.87-20.36-8-37.33C1283.2,415.34,1297.66,420.21,1319.05,413.86Z"/><path class="cls-28" d="M1303.9,453.66s-28.74-2.24-28.74-.77-1.48-2.06-1.92,3.84c0,0-3.34,1.8-2.19-4.34,0,0-.15-3.65,10.69-2.31l21.6.3"/><path class="cls-28" d="M1287.66,446.51s-12.65-1.14-15.16-.55c0,0-9.44-.89-10.33,1.18,0,0,0,5.9-1.62,4.13a6.13,6.13,0,0,1,.89-6.94s1.77-1.32,13.57-.88c0,0,10.69.09,11.47.56"/><path d="M1305.87,428.62s-4.76,4.2-8.07,0c0,0-3.33-3,0-7.38,0,0,.66-2.59,6.57,0A6.37,6.37,0,0,1,1305.87,428.62Z"/><path class="cls-31" d="M1305.87,425.7s.57,2.85-4.6,2.55c0,0-5.31-.29-3.83-3.84,0,0-.37-2.45,4.09-1.15A4.16,4.16,0,0,1,1305.87,425.7Z"/><path d="M1288.84,428.86s-3.65.42-5.12-6.36c0,0,.2-5.36,3.64-4.67a6.9,6.9,0,0,1,6.65,5.49S1294.12,429.47,1288.84,428.86Z"/><path class="cls-31" d="M1289,419.25s3.69.88,3.83,4.43c0,0,.45,4.05-3.83,2.91,0,0-4.44.22-4.21-3.71C1284.82,422.88,1284.75,417.92,1289,419.25Z"/><path class="cls-29" d="M1306.46,441.19s.27,3-6.51,2.41c0,0-5.79,0-8.65.07,0,0-4.56-.91-3.64-2.93,0,0-.62-2.21,6.35-2.92C1294,437.82,1306.34,436.72,1306.46,441.19Z"/><path class="cls-30" d="M1303.08,438.31s.7,3.37,1.14,3.81-3.24-.59-3.24-1.18c0,0-.3-2.95,0-3A8.76,8.76,0,0,1,1303.08,438.31Z"/><path class="cls-30" d="M1299.92,437.81a11.83,11.83,0,0,0,.41,2.88,5.09,5.09,0,0,1-2.45-.19,5,5,0,0,1,.38-2.78Z"/><path class="cls-30" d="M1297,437.7a5,5,0,0,0-.15,2.06s-1,.44-1.48-.3c0,0-.11-1.61.24-1.76A4.62,4.62,0,0,1,1297,437.7Z"/><path class="cls-30" d="M1294,437.82s.18-.13.33,1.64c0,0,.25.41-.69.43a8.08,8.08,0,0,1-1.79,0s-.67.05-.5-1.66A14,14,0,0,1,1294,437.82Z"/><path class="cls-30" d="M1288.17,439.6c-.12.57,2.09,1.45,2.09,1.45s1-1,.58-1.16-.58-1.37-.58-1.37c-2.12,1.09-2.12.5-2.12,1.09v.59"/><path class="cls-30" d="M1302.85,443.62a1.51,1.51,0,0,0-1-1.5s-1.47-.59-1.47-.3v1.81A12.65,12.65,0,0,0,1302.85,443.62Z"/><path class="cls-30" d="M1299.51,443.6l-.06-.88s0-.45-.54-.16a2,2,0,0,1-1,0s-.49-.13-.32,1Z"/><path class="cls-30" d="M1296.46,443.67s.67-2.81-.28-2.62c0,0-1,0-.83,1.18l.17,1.39Z"/><path class="cls-30" d="M1294.49,443.62s-.38-1.94-.12-2.16c0,0,.19-.45-1-.41,0,0-1.51-.11-.92,1.07a2.87,2.87,0,0,1-.14,1.53S1294.2,443.65,1294.49,443.62Z"/><path class="cls-30" d="M1291.3,443.67s.32-1.78-.68-1.44c0,0-2,.33-1.56.7Z"/><path class="cls-29" d="M1295.22,432.09s.27,2.21,1.1,2.5,1-1.18,1-1.18S1296.26,432.09,1295.22,432.09Z"/><path class="cls-29" d="M1293.39,431.79s-1.41-.15-1.26,3.1C1292.13,434.89,1294.65,434.45,1293.39,431.79Z"/><path class="cls-18" d="M1321.78,424.56s-.93-.44-1.27,0c0,0,.88,1.69.63,1.66,0,0-.24.55-1.27-1.36,0,0-1,.59-.74,1,0,0,.29,1.92,0,1.77,0,0-.24.25-.64-1.64,0,0-1.43.46-1.43.75,0,0-.74-.14,1.18-1,0,0-.59-1.47-.88-1.62a6.85,6.85,0,0,0-1.18.44s-.74-.29.88-.59a1.07,1.07,0,0,0-.74-1.18s-.14.15-.44-1.92.59,2.07,1.62,2.81c0,0,1.57-.59,1.3-1,0,0-1.3-2.88-.85-2.73a11.65,11.65,0,0,1,1.47,2.51s1-.74,1.48-.45c0,0,.74,1-.74.74,0,0-.88-.29-.29.74,0,0,.29,1,1,.59C1320.9,424.12,1321.93,424.12,1321.78,424.56Z"/><path class="cls-25" d="M1319.28,423.53a1,1,0,0,1,.29.59.89.89,0,0,0,.15.59s-.93.32-.91.75A2.17,2.17,0,0,1,1318,424S1318.54,423.09,1319.28,423.53Z"/><path class="cls-33" d="M1322,417.79s.34-5,1.52-5.48a4.56,4.56,0,0,0-1.52,2.74s-.69-4.51-1.28-4.51a17.14,17.14,0,0,1,.74,5.61s-.59-3.77-1.77-4c0,0,1.47,2.69,1.47,3.58,0,0,0,.34-.3.39Z"/><path class="cls-33" d="M1283.72,415.5s-.45-.68-.15-5c0,0-.44-.59-.44,2.81,0,0-.15,0-1.19-2.22,0,0,1.48,3.4,1,3.55,0,0-1.33-2.81-1.77-2.66a20.18,20.18,0,0,1,1.62,3.1v1.4A6,6,0,0,1,1283.72,415.5Z"/><path class="cls-32" d="M1316.77,414.51s2.21-1,0-2.86a3.58,3.58,0,0,0-3.69-2.58s-.3-3.25-2.95-3.25c0,0-3.76-2.95-4.24.52,0,0-3.09-3.07-3.34-.83,0,0-4.14-1.35-4,.74,0,0-3.73-2.23-5.13.74,0,0-4-1.34-5.73,2.21,0,0-.55,1.05.48,1.34,0,0-2.67-.88-2.73,1.11,0,0-2.43.53-1.69,3.85,0,0,3.55,1.6,16.53,1.57C1300.25,417.07,1315.88,416.11,1316.77,414.51Z"/><path d="M1314.55,412.76a1.49,1.49,0,0,0-.59-2.07s-1,.44-.88-1.18c0,0,0-1.33-.44-1.33,0,0,.14,1.33.14,1.92,0,0,0,1.18.74,1C1313.52,411.13,1314.7,410.4,1314.55,412.76Z"/><path d="M1295.67,411a1.5,1.5,0,0,0-.59-2.07s-1,.44-.89-1.18c0,0,0-1.33-.44-1.33,0,0,.15,1.33.15,1.92,0,0,0,1.18.73,1C1294.63,409.36,1295.81,408.63,1295.67,411Z"/><path d="M1306.29,416.74a1.48,1.48,0,0,0-.59-2.06s-1,.44-.88-1.18c0,0,0-1.33-.45-1.33,0,0,.15,1.33.15,1.92,0,0,0,1.18.74,1C1305.26,415.12,1306.44,414.38,1306.29,416.74Z"/><path d="M1311.9,409.66s-.89-1.92-2.36-1.77c0,0-1.4-.15-1.81.29,0,0,1.62-.29,2.08,0C1309.81,408.18,1310.42,407.74,1311.9,409.66Z"/><path d="M1313.67,415.56s-.89-1.92-2.36-1.77c0,0-1.4-.15-1.81.3,0,0,1.62-.3,2.08,0C1311.58,414.09,1312.19,413.64,1313.67,415.56Z"/><path d="M1287,415.86s.38-2.08-.91-2.81c0,0-1-.93-1.64-.8,0,0,1.49.7,1.7,1.2C1286.1,413.45,1286.85,413.44,1287,415.86Z"/><path d="M1300.9,409.75s.88-1.92-.19-2.95c0,0-.8-1.16-1.4-1.18,0,0,1.28,1,1.35,1.59C1300.66,407.21,1301.39,407.38,1300.9,409.75Z"/><path d="M1291.68,411s-.73-2.22-1.62-2.36c0,0-1.92-.45-2.36.44a3.08,3.08,0,0,1,2.49.1A5.16,5.16,0,0,1,1291.68,411Z"/><path d="M1300.86,412.12s-.79-2.2-1.68-2.32c0,0-1.93-.4-2.35.5a3.09,3.09,0,0,1,2.49,0A5.24,5.24,0,0,1,1300.86,412.12Z"/><path d="M1290.06,413.79a1.21,1.21,0,0,0-1.48-1.18s-3.09,1,0,.34c0,0,1.33-.64,1.33,1.14,0,0,.59.73,0,1,0,0,.08.91.26-.06C1290.17,415.06,1290.8,414.82,1290.06,413.79Z"/><path d="M1297.25,413.66a1.21,1.21,0,0,0-1.48,1.18s.25,3.24.33.07c0,0-.32-1.43,1.4-1,0,0,.86-.41,1,.24,0,0,.91.12,0-.27C1298.51,413.84,1298.42,413.18,1297.25,413.66Z"/><path d="M1307,410.1s-.59-1.18-1-.15c0,0,.59-2.4,0-2.09a.86.86,0,0,0-.89-.56s1.18.15-1.48-1.92a2,2,0,0,0-1-.21s.12-.68,1.3.21c0,0,2.07,1.92,2.8,1.62,0,0,.15.3-.29.3,0,0-.4-.2-.57,0,0,0,1.16.91.86,1.65C1306.73,408.92,1306.29,409.07,1307,410.1Z"/><path class="cls-26" d="M1191,491.15s10.56,11.38,30.42,4.1c0,0-.65,7.63-6.48,11.83,0,0,1,.52.59,20.07,0,0,.37,2.73-8.41,1.47,0,0-1.7-.37-1.15-1.27a3.6,3.6,0,0,1,1.44-1.09s4.06-.22,4.58-.88c0,0,2.58-6.13-1-16.68,0,0-3.91,2.59-9.59.15,0,0-.81-1.84-.88,16.68,0,0,5.24-.23,5.46,1.62s-3.91,2-3.91,2-4.87.47-4.65-3.14c0,0,.22-16-.15-17.56C1197.25,508.41,1185.74,507.47,1191,491.15Z"/></g><g id="opacity"><rect class="cls-37" x="-1" y="-2" width="1600" height="900"/></g><g id="stor_gravsten" data-name="stor gravsten"><path class="cls-38" d="M528.8,854.09S464.87,232.23,782.59,232.58s264.67,621.51,264.67,621.51"/><path class="cls-39" d="M556.22,854.09S492.28,232.23,810,232.58s264.67,621.51,264.67,621.51"/><polyline class="cls-40" points="1078.42 790.02 1040.88 767.98 1018.99 748.39 975.2 756.78 1022.12 740 1037.76 759.58 1056.52 770.77 1078.42 769.68"/><polyline class="cls-40" points="815.82 231.4 793.77 268.94 774.19 290.83 782.58 334.62 765.8 287.7 785.38 272.06 796.57 253.3 795.47 231.4"/><polyline class="cls-40" points="561.88 854.32 580.96 821.84 597.91 802.89 590.65 765 605.17 805.6 588.23 819.13 578.54 835.38 579.49 854.32"/></g><g id="Tekst"><path class="cls-41" d="M680.88,463.2c.33.44,2.28.51,3,1.48a1.67,1.67,0,0,1-.25,2.45c-1.84,1.35-4.48-1.84-5.11-1.37-.36.27.32,1.72-.12,2.05a1.52,1.52,0,0,1-2.3-.45c-.72-.94-1.18-2.1-2-3.12a.67.67,0,0,0-1.07-.1c-.63.48-.54,1.34.36,2.51a19.68,19.68,0,0,0,2.17,2.05c1.91,2.47.69,4.47-.41,5.36a1.71,1.71,0,0,1-2,.18c-2.34-1.65-3.85-1-4.71-.28-.6.5-2.84,2.91-1.8,4.09,2.41,2.78,4.81,5.2,3.51,6.35a1.43,1.43,0,0,1-2.32-.16c-.18-.2-.78-1-1-1.3-3.31-3.71-4.81-3.85-5.56-3.16-.51.45-.18,1.65-.84,2.27a2.13,2.13,0,0,1-3,.14c-.7-.73-1.11-2.5-1.36-2.77s-.69-.23-1.11.17c-.59.56.64,2.69-.27,3.56a.78.78,0,0,1-1.23.05c-.52-.52-1.24-2.26-2.58-3.65-1-1.06-3.91-2-4.88-2.95-.52-.52-.66-1.54-1.18-2.07a38.81,38.81,0,0,0-3.14-2.33c-.52-.52-1.33-1.53-1.78-2-2.06-2.11-4.1-.74-5.59-2.23-1.18-1.17-.56-3.47-2-5-.51-.52-1.83-1.68-2-1.88-.78-.78-1.88-2.66-2.4-3.19-.9-.92-1.41-.67-2.45-1.72-.58-.59-1.58-3.35-2.54-4.34s-1.71-1.76-2.57-2.63c-4.21-5.74-5.26-7.19-.16-15,3.39-5,3-6.41,8.38-10.94,11.52-9.48,22.21-7,27.15.12.48.68,1.32,4.15,3.36,7,.59.82,2.13,2.54,3,3.82.59.82,1,1.57-.37,2.53-.82.6-1.73-.21-2.33-1a24.18,24.18,0,0,0-1.53-2.76c-.44-.59-1.23-.58-2.18.12-1.88,1.4,1.43,3.87.1,4.88-1.64,1.25-2.28,1.05-2.57.68s-.71-1.77-.93-2.06c-1.68-2.21-5.65,1.49-7.66-1-.64-.79-1.17-3.19-1.74-3.91-2.51-3.18-5-1.59-5.59-1.05-1.06.87-1.36,1.6-.95,2.09s2.28,1.46,2.86,2.18c1.11,1.35,1.76,3.19.73,4.05-.61.52-1.61,1-2.15.37s-.69-2.07-1.22-2.7a1.4,1.4,0,0,0-1.83-.26c-1.47,1.26-.44,4.52.71,5.83,2.59,3,3.82,2.77,4.9,4s.25,4.29,1.42,5.6c.31.34,5,3.72,7.32,6.43a30.15,30.15,0,0,1,3.16,4.93c.52.77,1.77,1.27,3.31,2.12,2.44,1.55,4.09,4,7.56,1a5.17,5.17,0,0,0,.63-7.05c-.63-.8-2.56-1.48-3-2-.64-.79-1-3.93-1.49-4.59-1.14-1.44-3.67-.24-4.05.09s-1.17,1.31-.82,1.74c.95,1.13,2.33,1.66,3.27,2.79a1.55,1.55,0,0,1-.1,2.36,1.43,1.43,0,0,1-2.28-.26c-.23-.28-1-1.34-1.27-1.69-1.18-1.41-3.52-1.48-5.08-3.29-2-2.3-2.15-5.08.52-7.29.5-.41,1.35-1,1.65-1.22.49-.41,2.54-2.76,3.45-3.46,1.62-1.27,5.61-1.87,7.23-3,2.85-2.08,3.38-2.21,4.39-.79.84,1.21,1.48,3.8,2.23,4.85.65.89,3.56,3.11,4.41,4.31,1.22,1.73,2.74,5.28,4,7,.49.67,2.71,2,3.45,3.08C681.24,459.3,680.12,462.15,680.88,463.2Z"/><path class="cls-41" d="M672.16,395.19c3.38-1.91,4.4-3.8,6.49-4.92s2.4-.21,4.68,1.81l2.48,2.15a20.08,20.08,0,0,1,2.46,2.77c.38.74.69,2.54,1.15,3.44a29.19,29.19,0,0,0,3.73,5.64c.2.31,7.92,6.75,10.44,12.09,2.26,4.62,5.36,5.08,7,8.5a23.8,23.8,0,0,0,4.72,6.32c4.89,5.24,5.56,6.06,6.67,8.48s.68,3.83-.85,4.54c-1.16.54-1.77.22-2.2-.69-.28-.58-.44-1.42-.68-1.92-.35-.75-.77-.86-1.35-.58-1.66.8,1.08,4-.35,4.67s-3.09-3.09-4.16-2.55c-.34.28-.33.78.17,1.77.3.57,1.21,1.65,1.67,2.56.54,1.07.22,1.85-.34,2.13-1.77.92-4-3.43-5.5-6.16-1.08-1.82-3.32-3.45-4.63-5.88-1.38-2.6-2.93-4.28-4.45-3.45s.88,4.24-.8,5.18c-1.28.72-4.72-1.11-5.53-.64a1,1,0,0,0-.13,1.36c.66,1.11,1.29.84,1.95,1.95.37.63-1.34,2.19-.73,3.22.38.63,1.67,1.25,2.24,2.2,1.65,2.75-3.53,2.35-.51,7.2.78,1.25,1.55,2.5.28,3.3-2.35,1.5-3.43-3.38-5.27-2.18-.74.48-.39,3-1.11,3.48a1,1,0,0,1-1.61-.24c-.93-1.37-.6-2.26-3.06-5.93-1.28-1.91-2.92-4.13-3.46-5.77-.46-1.31-.92-2.63-1.37-4q-1.23-4.2-2.39-8.45a6.87,6.87,0,0,0-.79-2.12c-.3-.46-.92-.28-1.37-1a12.07,12.07,0,0,1-1.15-4.07c-.75-4-2.08-4.36-5-13.7-1.87-6-8.57-15.51-4.36-18C666.67,397.09,669.74,396.55,672.16,395.19Zm13.66,31.42c.65,1.11,1.56,1.22,2,1.72.19.32-.27,1.22.43,2.41.37.64,1.69.28,3.78-.9,2.4-1.35,2.88-2.22,2.57-2.79a28.64,28.64,0,0,1-1.84-2.35c-3-5.41-3.71-5.74-4.14-5.49-1.09.6,1.12,3.05-.28,3.84s-2.54-3.75-3.74-3.06S684.7,424.71,685.82,426.61Z"/><path class="cls-41" d="M747.5,365.37c3.56-.85,5.81-2,7.41-2.33.93-.2,4.42-.81,4.93,1.82.24,1.26-.46,1.87.17,5,.39,1.88,4.07,5,4.61,8,.47,2.52-2.45,4.13-1.7,7.82.68,3.43.61,4.95.89,6.3.45,2.16,3.6,5.76,4.05,8.21.37,1.89-1.25,2.77-.85,4.75.91,4.52,2.25,5.47,2.77,8.18.26,1.35-1.17,2.67-.7,5,.21,1,1.54,1,1.95,3.08.52,2.71.5,6.46-2.16,7-1.63.34-4.25-2.18-5.51-1.88a1.28,1.28,0,0,0-1.15,1.59,9.23,9.23,0,0,1,1.15,2.95c1.41,5.9,1.45,6.08.17,6.39s-2.32-1.7-2.75-3.39a39.89,39.89,0,0,1-.43-4.26,2.57,2.57,0,0,0-.8-1.41c-1.65-1.76-1.73-2-2.1-3.45s.29-3.68-.05-5c-1.27-5-2.45-3.75-3-6-.84-3.2-.16-6.6-1.15-10.53-.65-2.58-2.34-8.24-4-7.81-1.19.31-.45,2.12.29,5.83,1.33,6.49-.62,12.38.69,16.89,1,3.71-.88,8.48,0,11.3.27.88,1.44,1.88,2,3.91.39,1.33.38,3.15-.9,3.53-.79.25-1.15-.22-1.37-.92-.41-1.32-.49-2.65-.67-3.26-.52-1.68-1.37-2.28-2.5-1.93-.4.13-1.13,1-1.73,1.23-1.22.4-2.64-2.52-3.11-3.91-.53-1.57-1.59-6.17-1.7-6.52-2.08-5.24-6.51-2.25-8.09-6.66-1-2.86-1.82-7.94-2.21-9.07s-1-1.71-2.59-1.13c0,0-2.71,1.48-1.34,5.1.32.86,1.8,3.45,2,4.06.58,1.55.94,3.18,1.68,5.16,2.63,7,5.51,10,6.14,11.76.69,1.91.53,3.33-1.38,4-.4.15-1.07.21-1.37.33-.91.34-1.17,1.15-.63,2.51.6,1.54,1.74,3.27,2.37,4.9,1.17,3,1.14,6-.08,6.47-.37.15-1-.88-1.71-2.58-.19-.48-.39-1-.59-1.45-.45-1.11-1.09-3.24-1.47-4.17-1.14-2.81-1.48-3.08-1.78-3s-.87,1.55-1.55,1.84a1.13,1.13,0,0,1-1.59-.73c-1.49-3.47-1.57-7.33-2.63-9.88a29.92,29.92,0,0,0-5.31-7.84,9.77,9.77,0,0,1-2.14-2.89c-.58-1.35-.83-4-1.41-5.4s-3.25-5.42-4.17-7.53c-.74-1.68-1.31-7.84-2.62-11-.39-.94-2.56-3-3.07-4.2-.58-1.35.09-2.84-1-5.29-.29-.68-2.11-1.51-2.37-2.1-1-2.37,1.15-3.6,3.45-4.53,2.14-.93,11.08-4.54,14.61-3.09,3.9,1.55,10.33,8.85,12.11,14.47,2,6.12,5.13,13.42,6.84,12.89s1.93-1.94.52-6.61a13.45,13.45,0,0,0-1.66-3.73c-.21-.7-.36-2,1.14-4.57,1-1.93-.22-7.6-.32-9.87,0-1.44,1.2-4.54.83-5.87-.29-1.06-1.32-1.73-1.54-2.53-.35-1.24,1-3.14,3.47-3.8C742.7,365.23,744.6,366.07,747.5,365.37Z"/><path class="cls-41" d="M809.71,416.38c0,.46.25,1.55.28,2.93,0,1.11-.49,1.58-1.54,1.61-.74,0-4.06-.77-5.33-.69a2,2,0,0,0-2.11,2.06c.42,1.55,1.28,1.95,1.42,4.34.05.74,0,1-1,1.07-1.52.2-3.17-6.6-5.09-6.45a3,3,0,0,0-2.41,2.62c.07.73.75,1.22.81,1.87.17,1.74-.42,2.07-1.25,2.15-3.17.33-3.19-5.4-5-5.19-.32,0-.88,1.49-1.82,1.61-.72.09-2.48-1.06-3.21-1-.42.06-1.18.73-1.59.8-1.88.28-1.77-3.09-2.09-3.78l-.27-1.73c-.08-.45-.15-1.65-.25-2.29s-.21-1.33-.31-2c-.47-2.9-.7-9.57-1.12-12.39-.34-2.18.71-5.51.65-6-.12-.82-.66-1.2-2-1-.47.07-1.13.46-1.6.53-.94.15-1.23-.83-1.32-1.37a2.92,2.92,0,0,1,.2-1.8c1.12-2.14.94-4.9.63-6.9-.49-3.09.78-5.61.44-7.89-.09-.63-1.73-2.9-1.93-4.17-.14-.91-.11-2.41-.24-3.22s-1-2.18-1.14-3.08c-.07-.46.21-1.25.14-1.7-.1-.64-1.59-1.52-1.71-2.25-.23-1.45,1.8-2.43,4.75-2.85.54-.07,1.75-.15,2.69-.27,2.42-.32,2.85-1.2,4.87-1.44,1.22-.13,2.65.55,3.59.45s1.29-.69,2.64-.81c1.89-.18,4.43,1.09,6.44.95,1.34-.09,2.62-1.2,4.51-1.3,1.35-.07,1.92.36,2.86.32s1.45-.72,3.48-.79c1,0,1.66,1.15,1.75,4.55.09,2.39,2.11,10.81,2.17,14.12,0,1.1-.72,1.76-2.47,1.81-1.13,0-1.78-.39-1.81-1.32,0-.73.13-3.23.12-3.5-.11-3.22-.61-6-1.39-5.93-2.35.1.12,6.07-2.44,6.19-.76,0-1.29-.21-1.44-.66-.76-2.08-1.07-2.8-1.48-3.23-1.74-.73-3.36-1.45-4.92-1.33-2.87.23-2.92,2.55-4.34,2.68-.77.07-1.18-.07-1.69,0-2.85.29-3.25,2.47-2.93,5.3.64,5.38,5.64,8,7.46,7.86.37,0,4.13-1,4.63-1a36.39,36.39,0,0,1,5.17-.59,2.14,2.14,0,0,1,2.19,2.2c0,.65-1,2.35-1,3.27.11,1.93,2.57,6.61,2.61,8,0,1.66-1.59,4-2.62,4.07-2.31.13-.84-5-3.78-4.85-2.47.16-.25,3.42-2.23,3.56-1.39.1-2.09-2.89-3.39-2.78-.82.07-1.68-.22-2.5-.14-1.05.09-1.51.33-1.43,1.06s1,1.57,1.39,5.78c.13,1.37-1.2,4-1.09,5,.16,1.47,1.91,3.19,6.65,2.81.67-.05,1.55-.21,2.54-.27,1.56-.11,4.47.47,5.91.41.44,0,1-.13,1.54-.15,1.67-.07,3.47,1.37,3.49,2.75C810.62,414.06,809.68,415.55,809.71,416.38Z"/><path class="cls-41" d="M883,370.24c2.27,3.1,2.84,6.11,1.22,12.43-2.36,9.08-5.61,13.49-7.08,19.47-.27,1.1-.55,2.21-.82,3.31-2.94,11.78-5.43,8.81-7,15.36s-3.64,10-5.06,9.7-.83-3.57-2-3.81c-2.78-.57-1.81,8.26-4.62,7.7-.7-.13-1.46-.46-1.14-3.3s.56-4.11-.68-4.34-1.55.94-2.37.8-1.25-2.07-2.81-2.31c-2.08-.32-2.52,4.83-4.15,4.59-2.3-.59-1.56-2.9-2.71-7.31-1.25-4.7-2.19-5.26-2.94-5.34-1.29-.14-1.73,1-1.83,2-.07.63,0,1.11,0,1.38-.07.73-.63,1-1.36.88-1.35-.13-2.39-8.15-2.09-12.1.24-3.12,2.64-8.36,2.85-10.46.24-2.39-2.95-6.81-2.68-10.75.14-2.3,3.8-10.4,4-12.5.12-1.38-.72-2.09-.55-4.11s2.47-5.88,2.8-6.5c2.44-5.61,16.48-6.95,18.53-6.53C868.4,359.65,879.69,365.79,883,370.24Zm-27.15,4.52c-.37,2.54.31,4.88,0,6.88a50.18,50.18,0,0,1-1.36,5.75c-.29,2,.57,7.62.32,9.17-.84,5.36-3.56,7.93-4.09,11.67a4,4,0,0,0,.59,2.22c1.72,4.26,1.61,4.8,3.78,5.16,2.49.41,4.74-.84,5.12-2.83.09-.45,0-1.87.13-2.5.06-.36.38-1.43.67-3s.66-4.83.9-6.1a9.42,9.42,0,0,1,1.79-4.44,8.13,8.13,0,0,0,1.33-3.12c.71-3.61-.26-7.07.75-12.59.44-2.35,1.91-3.95,2.31-6a2.45,2.45,0,0,0-2.2-3.11c-1.42-.26-2.78,4.55-4.3,4.29-1.26-.21-1.08-3.72-3.14-4C856.87,371.93,856,373.66,855.81,374.76Z"/><path class="cls-41" d="M930.93,381c.76.32,2.84,1,3.47,1.31,3,1.34,4.78,4.42,3.64,6.83-.36.74-3.54,3.11-4.89,6-.61,1.33-1.24,1.75-2.31,1.26s-1-.57-1.87-.94c-1.2-.54-4.33,1.42-5.52,4.21-.69,1.6-.91,4.33-1.31,5.25-.33.76-1,1.37-2.14,3.68-1.07,2.15-1,2.49-2.62,3-3.94,1.22-4.42,3.63-8.09,9.78-1.9,3.09-5.08,7.07-6.24,8.79-1.93,3-6.29,6.83-6.57,7.61-.65,1.72-.89,3.51-1.22,4.36-.59,1.55-1.37,2.13-2.91,1.56s-1.58-1.36-1.14-2.57c.22-.61.85-1.75,1.23-2.79,1.32-3.63,1.07-4.8-.76-5.45-1.22-.43-3.63.7-4.54.41a2.55,2.55,0,0,1-1.38-3.35c.22-.71,1.07-2.66,1.19-3,.55-1.75-.26-3.46-1.59-7.14-.78-2.06-1.63-4.41-1.17-6s2.51-4.06,3-5.74c1.68-5.56.75-11.95,2.06-16.64.23-.8,1-1.94,1.15-2.64.66-2.3-.36-3.85-2.83-4.52-.37-.1-1-.17-1.51-.3a2,2,0,0,1-1.66-2.24c.27-1.07,3-2.36,3.56-4.4.47-1.78-.28-3.59.18-5.37a24.33,24.33,0,0,0,.45-3.31c.48-1.87,2.27-2.27,4.38-1.69.92.25,3.32,1.78,4.88,2.24,1.18.33,4,.33,5.2.7,5.5,1.74,4.69,7.93,2.71,13.75-.42,1.22-1.73,3.88-1.94,4.49-1.24,3.75-.26,8.27-.39,8.62s-1.05,1.87-1.32,2.66a3.74,3.74,0,0,0,2,4.22c1.37.5,2.78-.84,4.35-4,4.34-8.69,4-11.37,10-16.49,3.5-5,4.42-6.89,7.87-5.5C928.51,378.6,928.28,379.89,930.93,381Z"/><path class="cls-41" d="M944.37,455c-.26.38-.68,1.43-1.44,2.58a1.4,1.4,0,0,1-2.24.39c-.64-.42-3-3-4.14-3.72a2.06,2.06,0,0,0-3,.45c-.53,1.51,0,2.35-1.29,4.39-.38.63-.61.81-1.43.31-1.39-.74,1.11-7.28-.61-8.28a3,3,0,0,0-3.54.74c-.36.65-.06,1.44-.38,2-.86,1.52-1.55,1.45-2.29,1-2.87-1.58.4-6.29-1.23-7.17-.28-.15-1.6.72-2.45.27-.67-.34-1.48-2.31-2.16-2.65-.38-.19-1.4-.08-1.79-.27-1.74-.86.29-3.55.41-4.31.26-.52.51-1.05.76-1.57s.83-1.44,1.11-2,.59-1.22.88-1.82c1.28-2.66,4.91-8.26,6.17-10.82,1-2,3.75-4.1,4-4.51.36-.74.13-1.38-1.07-2-.44-.22-1.21-.28-1.65-.49-.87-.42-.55-1.39-.31-1.89a2.88,2.88,0,0,1,1.19-1.37c2.16-1.1,3.6-3.47,4.48-5.29,1.36-2.82,3.87-4.15,4.89-6.22.29-.57.21-3.38.77-4.54.4-.82,1.29-2,1.65-2.78s.41-2.36.8-3.19c.2-.41.89-.9,1.09-1.31.28-.58-.46-2.17-.14-2.83.64-1.33,2.9-1,5.62.41.49.25,1.56.89,2.42,1.33,2.21,1.15,3.09.67,4.92,1.66,1.11.6,1.93,2,2.78,2.46s1.48.19,2.69.88c1.7,1,3.12,3.49,4.91,4.55,1.19.71,2.9.57,4.57,1.6,1.19.74,1.41,1.42,2.24,1.95s1.64.28,3.41,1.42c.82.53.75,1.92-1.12,4.77-1.3,2-4.4,10.11-6.26,12.85-.62.92-1.63,1-3.15,0-1-.64-1.28-1.38-.78-2.15s2-2.56,2.12-2.8c1.75-2.7,2.9-5.24,2.22-5.68-2-1.3-3.38,5-5.63,3.63-.67-.43-1-.94-.84-1.4.55-2.15.7-2.92.6-3.52-1.06-1.62-2-3.16-3.41-4-2.56-1.5-3.94.37-5.21-.35-.69-.39-1-.75-1.42-1-2.56-1.43-4.16.13-5.51,2.64-2.55,4.79.17,9.85,1.8,10.8.33.18,4,1.62,4.49,1.89a37.85,37.85,0,0,1,4.72,2.57,2.18,2.18,0,0,1,.61,3.11c-.35.54-2.2,1.32-2.69,2.11-1,1.64-1.61,6.93-2.37,8.09-.9,1.38-3.66,2.35-4.56,1.78-2-1.26,2.17-4.62-.42-6.21-2.19-1.32-2.18,2.66-3.93,1.61-1.24-.73-.12-3.6-1.28-4.27-.73-.42-1.29-1.17-2-1.58-.95-.54-1.46-.61-1.82,0s-.07,1.86-2.14,5.55c-.68,1.2-3.31,2.58-3.8,3.47-.7,1.3-.22,3.73,4,6.2.6.35,1.43.74,2.31,1.27,1.38.83,3.52,3,4.78,3.83.38.25.91.48,1.4.79,1.44.94,2.16,3.19,1.39,4.33C946.48,453.59,944.82,454.26,944.37,455Z"/><path class="cls-41" d="M970.91,485.32a13,13,0,0,1-1.57,2.31c-2.1,2.2-4.62,3.6-5.48,2.8-.55-.51-.34-1.06.29-1.74,1-1.08,2-1.88,2.4-2.28,1.32-1.41,3.91-5,3.07-5.81-1.42-1.29-2.34-.26-3.18-1-.33-.3-.63-.81-.26-1.22a27.47,27.47,0,0,0,2.88-2.24,9.35,9.35,0,0,0,2.06-4.44c.79-4.08,1.75-6.88,2.7-8,.54-.63,1.08-.9,1.56-1.46,1.38-1.6.58-4.45,1.52-5.58s1.44-1,2.21-1.86a1,1,0,0,0-.21-1.5c-1-.8-2.25-1.38-3.59.26a11.87,11.87,0,0,0-1.17,2c-.29.36-.73.12-.91,0-1.27-1.15,1.64-3.41.39-4.41-.39-.31-.92,0-1.61.83-.51.66-2.89,4.64-3.24,5.07-.69.86-4.37,4.16-6.42,6.77-1.47,1.87-2,4.6-3.77,6.75-2.07,2.59-2.78,3.31-3.64,2.63-1.89-1.49,1.46-3.65,0-4.81a3,3,0,0,0-3.86.54,34.21,34.21,0,0,0-1.86,3.55c-.33.44-.81.53-1.58,0s-.25-1.45.24-2.12c.21-.3,1.07-1.26,1.45-1.78.81-1.11,1.52-1.87.19-4.54-1-2-.5-2.73-.18-3.19s3.79-2,4.39-2.85c1.85-2.53,2.86-7.57,3.6-8.63,2.11-3,6.61-5.56,7.38-6.6,1.57-2.15,3.57-8.42,4.51-9.77,1.59-2.27,5.47-2.76,7.21-5.14,1.52-2.08,1.5-5.73,1.86-6.71.64-1.13.79-4.18,1.42-5.08s2.58-2.23,3.38-3.36c.21-.3.29-1.38.66-1.9.52-.76,2.12-.31,3,.36,1.28.9,3.54,4.29,4.55,5.06,1.24.93,3.77,2.3,4.89,3.19,2.58,2,6,5.44,8.55,7.59l-.11-.1c12.58,13.79,9.87,18.38,8.88,20.18a25.35,25.35,0,0,1-4.26,6.13c-1,1-4.17,2.1-5.19,3.16-1.55,1.57-4.87,3.86-6.4,5.45a10.31,10.31,0,0,0-1.2,1.78,2.28,2.28,0,0,1-3.07-.14c-.83-.79-.43-3.08-1.28-3.87a.6.6,0,0,0-.78-.09c-.87.94-.29,3.12-1.18,4.06-.5.53-1.4.57-2.09,1.31a4.57,4.57,0,0,0-1,2.19,24.08,24.08,0,0,1-1.07,4.18c-.81,1.9-4,4.49-4.38,6.13s-.35,6.61-1.74,8C977.18,487.92,972.81,483.29,970.91,485.32Zm24.54-43.91c.84-1,1.4-1,1.82-1.47,1.63-1.87,1.54-4.53-1.32-6.92-1.27-1.06-2.79-.28-3.67.78-.23.29-.71,1.08-.88,1.3-.47.57-.85.61-1.27.27-1.57-1.28,1.09-3.27-.41-4.47-.32-.25-.76-.13-1.27.52s-3.16,5.48-3.68,6.13c-.69.86-1.6.95-2.23,1.75a1.4,1.4,0,0,0,.48,1.91c.81.65,1.44.7,2,1.11,1,.83.12,3.55,1.7,4.89,1.77,1.5,4.54.5,6.78-2.06C995.45,442.86,994.92,442,995.45,441.41Z"/><path class="cls-36" d="M764,517q0,1.26-.9,1.26c-.6,0-.66-.42-.84-.42-.78,0-.42,4.14-1.62,4.14-.66,0-1-.9-1.62-.9-1.26,0-.24,5.52-1.26,5.52-.48,0-.6-.72-.6-1.08s.06-2.46.06-2.76-.12-.66-.6-.66-.48,1-1.08,1-1-1-1.68-1c-.54,0-.6.42-1,.42-.54,0-.84-1-1.44-1s-.54.66-.54,1.14c0,.72.18,1.68.18,2.1,0,.6-.18,1.26-.9,1.26-1.74,0-.9-4.08-1.86-4.08-1.38,0-.36,3.78-1.62,3.78a1.35,1.35,0,0,1-1.38-1.5c0-1.86-1.44-1.38-1.44-2.46,0-1.68.54-3.06.54-5.1,0-1.38-.66-1.32-.66-2.28,0-1.5.48-2,1.08-7.74.72-7.26.78-9.6.78-10.56,0-1.14-.12-1.68-.36-1.68-.84,0-.78,2.46-1.5,2.46-.42,0-.48-.78-.48-1.74,0-1.32.72-2.4.72-4.38,0-.6.3-2,.3-2.46a29.43,29.43,0,0,0-.42-4.44c0-1.38,1.14-2.76,2.22-2.76.36,0,1.32.48,1.8.48a20.14,20.14,0,0,1,2.28-.42c.18,0,1.32.42,1.74.42s1.8-.42,2.46-.42c.84,0,2.4,1.08,2.7,1.14,3.78.9,6,3.54,6,5.94a21.26,21.26,0,0,0,.42,4,17.77,17.77,0,0,1-.36,3.48c-.6,3-.12,4.86-1.26,4.86-.42,0-.42-.36-.78-.36s-.54.78-1.26.78-.78-.06-.78.42c0,1.8,3.24,1.8,3.24,3,0,.48-.3.72-.3.9s.18.42.54.84c1.08,1.08,1.14,2.34,1.14,3.84,0,1.32-.12,2.4-.18,4.08C763.47,514.67,764,516.59,764,517Zm-7.74-25.08c-.12,0-.6,1.14-1.08,1.14a.71.71,0,0,1-.72-.78c0-1,.72-1.86.72-3.3,0-.66-.78-1-1.5-1-1,0-.66,1.56-1,1.56-.66,0-.36-1.92-1-1.92s-.78,2.52-.78,3.48c0,.6.12,1.14.12,1.5,0,1-.84,1.86-.84,2.76,0,2.16,2.94,3.24,4,3.24s1.92-1.44,1.92-2.82c0-.42-.24-.9-.24-1.26,0-.66.54-1.5.54-1.92S756.33,491.93,756.21,491.93Zm-.78,20.16c0-1.44.6-3.12.6-4s-.36-1.38-1-1.38c-.84,0-.12,2.46-.9,2.46-.6,0-1-1-1-2.1,0-.42.18-.78.18-1.68,0-.6-.12-.78-.48-.78-.54,0-1.32,1.32-1.32,3.36,0,1.56,1,2.64,1,3.18,0,.3-.18.42-.48.42s-.84-.48-1.2-.48-.48.24-.48.66c0,.72.42,1,.42,2.34,0,.48.18.9.6.9.18,0,.48-.12.66-.12.78,0,.78,1,1.14,1,2.28,0,3.84-1.32,3.84-2.22S755.37,513,755.43,512.09Z"/><path class="cls-36" d="M786.33,484.43c1.32,1.62,1.92,3.42,1.92,7.68,0,6.12-1,9.42-1,13.44v2.22c0,7.92-1.68,6.42-1.68,10.8s-.72,6.9-1.56,6.9-.9-2.16-1.56-2.16c-1.62,0-.06,5.52-1.74,5.52-.42,0-.9-.12-1-2s-.12-2.7-.84-2.7-.78.78-1.26.78-.9-1.2-1.8-1.2c-1.2,0-1,3.36-2,3.36-1.38-.18-1.14-1.74-2.1-4.5-1-2.94-1.56-3.24-2-3.24-.72,0-.9.78-.9,1.44,0,.42.06.72.06.9,0,.48-.3.66-.72.66-.78,0-1.74-5.16-1.74-7.74,0-2,1-5.58,1-7,0-1.56-1.8-4.26-1.8-6.84,0-1.5,1.44-7,1.44-8.34,0-.9-.42-1.32-.42-2.64a19.75,19.75,0,0,1,1-4.38c.9-3.72,7-5.7,7.86-5.7C779,479.75,784.41,482.15,786.33,484.43Zm-11.82,6.24c0,1.68.48,3.12.48,4.44,0,2.52-.24,3-.24,3.84,0,1.32.84,4.86.84,5.88,0,3.54-1.2,5.46-1.2,7.92a2.93,2.93,0,0,0,.48,1.38c1.26,2.58,1.26,2.94,2.46,2.94a2.42,2.42,0,0,0,2.46-2.4c0-.3-.18-1.2-.18-1.62,0-.24.06-1,.06-2s-.12-3.18-.12-4A7.79,7.79,0,0,1,780,504a6.8,6.8,0,0,0,.36-2.16c0-2.4-.78-4.5-.78-8.16,0-1.56.54-2.76.54-4.14,0-.84-.3-1.74-1.26-1.74-.66,0-.9,3.24-1.62,3.24s-.78-2.28-1.74-2.28C774.81,488.75,774.51,490,774.51,490.67Z"/><path class="cls-36" d="M810.27,484.43c1.32,1.62,1.92,3.42,1.92,7.68,0,6.12-1,9.42-1,13.44v2.22c0,7.92-1.68,6.42-1.68,10.8s-.72,6.9-1.56,6.9-.9-2.16-1.56-2.16c-1.62,0-.06,5.52-1.74,5.52-.42,0-.9-.12-1-2s-.12-2.7-.84-2.7-.78.78-1.26.78-.9-1.2-1.8-1.2c-1.2,0-1,3.36-2,3.36-1.38-.18-1.14-1.74-2.1-4.5-1-2.94-1.56-3.24-2-3.24-.72,0-.9.78-.9,1.44,0,.42.06.72.06.9,0,.48-.3.66-.72.66-.78,0-1.74-5.16-1.74-7.74,0-2,1-5.58,1-7,0-1.56-1.8-4.26-1.8-6.84,0-1.5,1.44-7,1.44-8.34,0-.9-.42-1.32-.42-2.64a19.75,19.75,0,0,1,1-4.38c.9-3.72,7-5.7,7.86-5.7C803,479.75,808.35,482.15,810.27,484.43Zm-11.82,6.24c0,1.68.48,3.12.48,4.44,0,2.52-.24,3-.24,3.84,0,1.32.84,4.86.84,5.88,0,3.54-1.2,5.46-1.2,7.92a2.93,2.93,0,0,0,.48,1.38c1.26,2.58,1.26,2.94,2.46,2.94a2.42,2.42,0,0,0,2.46-2.4c0-.3-.18-1.2-.18-1.62,0-.24.06-1,.06-2s-.12-3.18-.12-4A7.79,7.79,0,0,1,804,504a6.8,6.8,0,0,0,.36-2.16c0-2.4-.78-4.5-.78-8.16,0-1.56.54-2.76.54-4.14,0-.84-.3-1.74-1.26-1.74-.66,0-.9,3.24-1.62,3.24s-.78-2.28-1.74-2.28C798.75,488.75,798.45,490,798.45,490.67Z"/><path class="cls-36" d="M846.39,511.73c0,4.44,1.26,7.14,1.26,7.86,0,1.5-1.32,3.18-1.86,3.18-.24,0-.9-.18-1.08-.18a.72.72,0,0,0-.84.72,10.48,10.48,0,0,0,.42,2,.64.64,0,0,1-.72.72c-.18,0-.3-.3-.3-1v-1c0-1.2-.3-1.68-.84-1.68s-1.38,1-2,1c-.36,0-.6-.42-.6-1.14v-1.26c-.06-.66-.48-4.2-.48-4.74,0-.3.12-1.2.12-1.38s-.06-.42-.06-.84c0-1.2,1.14-3.24,1.14-4.62,0-.6.36-3,.36-3.78s-.3-1.26-.72-1.26-1.5,1.62-1.92,1.62-1.08-.3-1.26-.3a.74.74,0,0,0-.6.78,4.57,4.57,0,0,1,.24,1.56v.78c0,.36-.18.9-.54.9s-.9-1.5-1.5-1.5c-.18,0-.36.18-.36.48,0,.54.6,2.34.6,3.12,0,1-.36,2.82-.36,3.36s.36,1.32.36,2.34c0,.24-.06.36-.06.6a8.34,8.34,0,0,0,.66,2.82c0,.66-.66,1.68-1.08,1.68a3.38,3.38,0,0,0-.42-.06c-.84,0-2.16.24-2.46,1.44,0,.48.72,1.26.72,1.68s-.24.66-.72.66a.91.91,0,0,1-.84-.9c.06-.72.18-1.26.18-1.68,0-.9-.3-1.32-.84-1.32s-1.74,1.32-2,1.32a.49.49,0,0,1-.48-.54c-.06-.06.48-1.8.48-2.52s-.54-1.68-.54-2.1.9-1.86.9-2.34c0-2-1.74-.72-1.74-3.36,0-.78,1-2.58,1-3.48v-2.28c0-3.24,1.2-7,1.2-7.5,0-1.32-.78-3.54-1.14-3.54s-.54.54-.72.54-.42-.36-.42-.9c0-1.32,1.14-5.7,1.14-8.28,0-1.56-.12-2.58-.12-3.6a2.91,2.91,0,0,1,2.82-2.94c.3,0,1.08.18,1.56.18.3,0,.54-.12,1-.12,1.44,0,1.56,2.22,1.56,3.66,0,4.2,1.38,5,1.38,6.54,0,1.08-1.44-.24-1.44,2.82,0,1.92.6,3.36,1.86,3.36.3,0,.72-.18,1.08-.18a7.63,7.63,0,0,1,2.1.48c.3,0,.48-.24.54-.6a18.62,18.62,0,0,1-.42-2.22v-3.06c0-3.36-.06-4.2-.06-4.68,0-.9.48-2.4.48-2.94,0-1-.9-1.44-.9-1.8,0-.84,1.38-1.62,2.64-1.62a21,21,0,0,1,2.82.24c.24,0,1.26-.36,1.5-.36,1.5.3,1.68,2.52,1.68,5.4a13.52,13.52,0,0,1-.42,3.72l-.54,1.2a4.73,4.73,0,0,0-.24,1.68c0,2.1,1,5.28,1,5.88v.84a21.49,21.49,0,0,0,.24,2.94c0,.78-.42,2-.42,2.76s.66,2.1.66,2.58c0,.06-.06.3-.12.6S846.39,509.93,846.39,511.73Z"/><path class="cls-36" d="M870.69,484.43c1.32,1.62,1.92,3.42,1.92,7.68,0,6.12-1,9.42-1,13.44v2.22c0,7.92-1.68,6.42-1.68,10.8s-.72,6.9-1.56,6.9-.9-2.16-1.56-2.16c-1.62,0-.06,5.52-1.74,5.52-.42,0-.9-.12-1-2s-.12-2.7-.84-2.7-.78.78-1.26.78-.9-1.2-1.8-1.2c-1.2,0-1,3.36-2,3.36-1.38-.18-1.14-1.74-2.1-4.5-1-2.94-1.56-3.24-2-3.24-.72,0-.9.78-.9,1.44,0,.42.06.72.06.9,0,.48-.3.66-.72.66-.78,0-1.74-5.16-1.74-7.74,0-2,1-5.58,1-7,0-1.56-1.8-4.26-1.8-6.84,0-1.5,1.44-7,1.44-8.34,0-.9-.42-1.32-.42-2.64a19.75,19.75,0,0,1,1-4.38c.9-3.72,7-5.7,7.86-5.7C863.37,479.75,868.77,482.15,870.69,484.43Zm-11.82,6.24c0,1.68.48,3.12.48,4.44,0,2.52-.24,3-.24,3.84,0,1.32.84,4.86.84,5.88,0,3.54-1.2,5.46-1.2,7.92a2.93,2.93,0,0,0,.48,1.38c1.26,2.58,1.26,2.94,2.46,2.94a2.42,2.42,0,0,0,2.46-2.4c0-.3-.18-1.2-.18-1.62,0-.24.06-1,.06-2s-.12-3.18-.12-4a7.79,7.79,0,0,1,.48-3.06,6.8,6.8,0,0,0,.36-2.16c0-2.4-.78-4.5-.78-8.16,0-1.56.54-2.76.54-4.14,0-.84-.3-1.74-1.26-1.74-.66,0-.9,3.24-1.62,3.24s-.78-2.28-1.74-2.28C859.17,488.75,858.87,490,858.87,490.67Z"/><path class="cls-36" d="M894.63,484.43c1.32,1.62,1.92,3.42,1.92,7.68,0,6.12-1,9.42-1,13.44v2.22c0,7.92-1.68,6.42-1.68,10.8s-.72,6.9-1.56,6.9-.9-2.16-1.56-2.16c-1.62,0-.06,5.52-1.74,5.52-.42,0-.9-.12-1-2s-.12-2.7-.84-2.7-.78.78-1.26.78-.9-1.2-1.8-1.2c-1.2,0-1,3.36-2,3.36-1.38-.18-1.14-1.74-2.1-4.5-1-2.94-1.56-3.24-2-3.24-.72,0-.9.78-.9,1.44,0,.42.06.72.06.9,0,.48-.3.66-.72.66-.78,0-1.74-5.16-1.74-7.74,0-2,1-5.58,1-7,0-1.56-1.8-4.26-1.8-6.84,0-1.5,1.44-7,1.44-8.34,0-.9-.42-1.32-.42-2.64a19.75,19.75,0,0,1,1-4.38c.9-3.72,7-5.7,7.86-5.7C887.31,479.75,892.71,482.15,894.63,484.43Zm-11.82,6.24c0,1.68.48,3.12.48,4.44,0,2.52-.24,3-.24,3.84,0,1.32.84,4.86.84,5.88,0,3.54-1.2,5.46-1.2,7.92a2.93,2.93,0,0,0,.48,1.38c1.26,2.58,1.26,2.94,2.46,2.94a2.42,2.42,0,0,0,2.46-2.4c0-.3-.18-1.2-.18-1.62,0-.24.06-1,.06-2s-.12-3.18-.12-4a7.79,7.79,0,0,1,.48-3.06,6.8,6.8,0,0,0,.36-2.16c0-2.4-.78-4.5-.78-8.16,0-1.56.54-2.76.54-4.14,0-.84-.3-1.74-1.26-1.74-.66,0-.9,3.24-1.62,3.24s-.78-2.28-1.74-2.28C883.11,488.75,882.81,490,882.81,490.67Z"/><path class="cls-36" d="M726.48,554.45a19.85,19.85,0,0,1-.9,4.68c0,.72.42,2.4.42,4.38,0,2.46,0,7-1,7a.91.91,0,0,1-1-1c0-.9.36-1.32.36-2.46a1.32,1.32,0,0,0-1.08-1.32c-.6,0-1,1.5-1,7.14,0,2.4.24,3.36.24,4.08,0,1.2-.12,2.16-1,2.16-.66,0-.9-1.86-1.62-1.86-.48,0-.72.6-.72,1.74,0,2.16-.3,4.8-.3,6.12,0,3.48.36,7.26.36,9.36a41.49,41.49,0,0,1-.36,4.5c0,1.08.3,2.1.3,2.82,0,1-.36,1.32-1.2,1.32s-1.08-.54-1.08-1.44a42.73,42.73,0,0,0,.42-5c0-1.68-.36-2-1.14-2-1,0-1,3.3-1.8,3.3s-1.2-.48-1.74-4.5c-.12-1.08-.24-2-.24-2.7,0-1.74.24-3.42.24-8.16,0-4.26-.24-6.42-4-13.62-1.74-3.3-.78-5.4-2.22-9.12-1.08-2.82-1.74-4.44-1.74-5.34,0-1.26.18-2.16,1.44-2.16s2.28-.06,2.76-.06c2.46,0,3.72.73,5.28,4.86.36.9.48,6.42,1.44,6.42,1.44,0,1.44-2.52,2.16-3.78s1.62-1.86,1.62-3.6c0-.54-.24-1.38-.24-2.34,0-1.56,3.12-2.16,4.56-2.16A2.56,2.56,0,0,1,726.48,554.45Z"/><path class="cls-36" d="M746.7,556.43c1.32,1.62,1.92,3.42,1.92,7.68,0,6.12-1,9.42-1,13.44v2.22c0,7.92-1.68,6.42-1.68,10.8s-.72,6.9-1.56,6.9-.9-2.16-1.56-2.16c-1.62,0-.06,5.52-1.74,5.52-.42,0-.9-.12-1-2s-.12-2.7-.84-2.7-.78.78-1.26.78-.9-1.2-1.8-1.2c-1.2,0-1,3.36-2,3.36-1.38-.18-1.14-1.74-2.1-4.5-1-2.94-1.56-3.24-2-3.24-.72,0-.9.78-.9,1.44,0,.42.06.72.06.9,0,.48-.3.66-.72.66-.78,0-1.74-5.16-1.74-7.74,0-2,1-5.58,1-7,0-1.56-1.8-4.26-1.8-6.84,0-1.5,1.44-7,1.44-8.34,0-.9-.42-1.32-.42-2.64a19.75,19.75,0,0,1,1-4.38c.9-3.72,7-5.7,7.86-5.7C739.38,551.75,744.78,554.15,746.7,556.43Zm-11.82,6.24c0,1.68.48,3.12.48,4.44,0,2.52-.24,3-.24,3.84,0,1.32.84,4.86.84,5.88,0,3.54-1.2,5.46-1.2,7.92a2.93,2.93,0,0,0,.48,1.38c1.26,2.58,1.26,2.94,2.46,2.94a2.42,2.42,0,0,0,2.46-2.4c0-.3-.18-1.2-.18-1.62,0-.24.06-1,.06-2s-.12-3.18-.12-4a7.79,7.79,0,0,1,.48-3.06,6.8,6.8,0,0,0,.36-2.16c0-2.4-.78-4.5-.78-8.16,0-1.56.54-2.76.54-4.14,0-.84-.3-1.74-1.26-1.74-.66,0-.9,3.24-1.62,3.24s-.78-2.28-1.74-2.28C735.18,560.75,734.88,562,734.88,562.67Z"/><path class="cls-36" d="M770.22,553.07c.9,0,1.14-.48,1.8-.48.9,0,1.26,1.62,1.26,4.8,0,2.58-2,4.62-2,7.38,0,.9.18,2.1.18,2.94,0,1.14-.18,1.8-.18,2.88,0,1.26.84,4.38.84,6.66,0,1.2-.3,2-.3,3.48,0,1,.06,2.22.06,3.36,0,3.42-.06,3.66-.84,5.52a27.61,27.61,0,0,1-3.9,3.66,3.33,3.33,0,0,0-1.38,2.64,18.29,18.29,0,0,0,.36,2.28,1,1,0,0,1-1.14,1.14c-.9,0-1.08-.48-1.08-1.26a15.61,15.61,0,0,1,.18-1.68,1.17,1.17,0,0,0-1.14-1.08c-.6.06-.66.9-1.32.9-.42,0-1.32-1-1.62-1s-.72.24-.72,1.14.72,2.94.72,5.46a1.61,1.61,0,0,1-1.56,1.74c-.84,0-1.26-.48-1.26-1.56,0-2.22.36-3.9.36-4.74a6.23,6.23,0,0,0-1.92-4.56,16.56,16.56,0,0,1-4.44-11.4c0-1.44.12-2.82.12-4.38,0-1.8-.24-3.9-.24-5.94,0-3.36,1-6.48,1-10.56,0-.84,0-1.56-.06-2.1-.18-2.16-1.32-2.34-1.32-3.84,0-1.8,3.06-2.7,4.32-2.7,2.52,0,3.78.78,4.32,4.92a56.92,56.92,0,0,1,.66,7.38c0,5.58-1.26,11.34-1.44,13.32s-.42,4.32-.42,5.16a5.07,5.07,0,0,0,4.26,5.4c1.44,0,2.46-1.68,2.46-7.32s-.6-8.52-.6-11.7c0-2.34.54-4.62.54-7.2,0-1.08-1.14-5.52-1.14-7.32,0-2.1,1.74-2.1,2.7-2.1C767.7,552.29,769.38,553.07,770.22,553.07Z"/><path class="cls-36" d="M805.5,589c0,.66-.78,1.68-.78,1.92,0,.48.48,1.38.48,1.8s-.36.84-1,1.14c-1.32.54-1.86,1.44-1.86,1.74a23.87,23.87,0,0,1,.48,2.4.89.89,0,0,1-.84,1,.66.66,0,0,1-.72-.72c0-.42.12-1.08.12-1.68,0-1-.24-2.22-1.32-2.22-.9,0-.12,4.08-1,4.08-1.26,0,0-3.48-2.22-3.48-.36,0-1,.48-1.26.48-.66,0-1.62-.84-2.1-.84-1.44,0-2.64.42-2.64,1.8,0,.24.12,1.08.12,1.32,0,.42-.18.66-.6.66-.72,0-.78-1.44-1-2.76-.06-.42-1-1.14-1.14-1.8a11.83,11.83,0,0,1-.3-2.64v-4c0-2.34-.72-4.5-.72-6.24,0-1.44,1.2-3.6,1.26-4.8a16.29,16.29,0,0,0,.06-1.68c0-1.2-.06-2.4-.06-3.24,0-1.26.9-3.42.9-4.8,0-2.34-1.44-3.48-1.44-5a31.08,31.08,0,0,0,.6-4.62c0-.66-.66-2.1-.66-2.58,0-1.32.66-1.92,1.74-1.92s2.46,1.14,4,1.14c1.38,0,2.58.36,2.58,1.92,0,.42-.48,1.56-.48,2.1,0,.72.36,2,.36,2.76,0,.54-.6,1.62-.6,2.22s1.2,2,1.2,2.82-1.32,1.8-1.32,2.64c0,.48.36,1.86.36,2,0,.84-.78,1.56-.78,2.64,0,.18.42,2.64.42,3.42,0,1.26-.42,3.48-.42,4.74s.42,2,.42,2.76-.06.9-.06,1.68a2.58,2.58,0,0,0,2.58,2.88c.66,0,2.1-.48,2.82-.48.48,0,.66.06,1.08.06.66,0,1.26-.06,1.74-.06C805.08,587.57,805.5,588.29,805.5,589Z"/><path class="cls-36" d="M826,556.43c1.32,1.62,1.92,3.42,1.92,7.68,0,6.12-1,9.42-1,13.44v2.22c0,7.92-1.68,6.42-1.68,10.8s-.72,6.9-1.56,6.9-.9-2.16-1.56-2.16c-1.62,0-.06,5.52-1.74,5.52-.42,0-.9-.12-1-2s-.12-2.7-.84-2.7-.78.78-1.26.78-.9-1.2-1.8-1.2c-1.2,0-1,3.36-2,3.36-1.38-.18-1.14-1.74-2.1-4.5-1-2.94-1.56-3.24-2-3.24-.72,0-.9.78-.9,1.44,0,.42.06.72.06.9,0,.48-.3.66-.72.66-.78,0-1.74-5.16-1.74-7.74,0-2,1-5.58,1-7,0-1.56-1.8-4.26-1.8-6.84,0-1.5,1.44-7,1.44-8.34,0-.9-.42-1.32-.42-2.64a19.75,19.75,0,0,1,1-4.38c.9-3.72,7-5.7,7.86-5.7C818.64,551.75,824,554.15,826,556.43Zm-11.82,6.24c0,1.68.48,3.12.48,4.44,0,2.52-.24,3-.24,3.84,0,1.32.84,4.86.84,5.88,0,3.54-1.2,5.46-1.2,7.92a2.93,2.93,0,0,0,.48,1.38c1.26,2.58,1.26,2.94,2.46,2.94a2.42,2.42,0,0,0,2.46-2.4c0-.3-.18-1.2-.18-1.62,0-.24.06-1,.06-2s-.12-3.18-.12-4a7.79,7.79,0,0,1,.48-3.06,6.8,6.8,0,0,0,.36-2.16c0-2.4-.78-4.5-.78-8.16,0-1.56.54-2.76.54-4.14,0-.84-.3-1.74-1.26-1.74-.66,0-.9,3.24-1.62,3.24s-.78-2.28-1.74-2.28C814.44,560.75,814.14,562,814.14,562.67Z"/><path class="cls-36" d="M849.9,556.43c1.32,1.62,1.92,3.42,1.92,7.68,0,6.12-1,9.42-1,13.44v2.22c0,7.92-1.68,6.42-1.68,10.8s-.72,6.9-1.56,6.9-.9-2.16-1.56-2.16c-1.62,0-.06,5.52-1.74,5.52-.42,0-.9-.12-1-2s-.12-2.7-.84-2.7-.78.78-1.26.78-.9-1.2-1.8-1.2c-1.2,0-1,3.36-2,3.36-1.38-.18-1.14-1.74-2.1-4.5-1-2.94-1.56-3.24-2-3.24-.72,0-.9.78-.9,1.44,0,.42.06.72.06.9,0,.48-.3.66-.72.66-.78,0-1.74-5.16-1.74-7.74,0-2,1-5.58,1-7,0-1.56-1.8-4.26-1.8-6.84,0-1.5,1.44-7,1.44-8.34,0-.9-.42-1.32-.42-2.64a19.75,19.75,0,0,1,1-4.38c.9-3.72,7-5.7,7.86-5.7C842.58,551.75,848,554.15,849.9,556.43Zm-11.82,6.24c0,1.68.48,3.12.48,4.44,0,2.52-.24,3-.24,3.84,0,1.32.84,4.86.84,5.88,0,3.54-1.2,5.46-1.2,7.92a2.93,2.93,0,0,0,.48,1.38c1.26,2.58,1.26,2.94,2.46,2.94a2.42,2.42,0,0,0,2.46-2.4c0-.3-.18-1.2-.18-1.62,0-.24.06-1,.06-2s-.12-3.18-.12-4a7.79,7.79,0,0,1,.48-3.06,6.8,6.8,0,0,0,.36-2.16c0-2.4-.78-4.5-.78-8.16,0-1.56.54-2.76.54-4.14,0-.84-.3-1.74-1.26-1.74-.66,0-.9,3.24-1.62,3.24s-.78-2.28-1.74-2.28C838.38,560.75,838.08,562,838.08,562.67Z"/><path class="cls-36" d="M874.08,585.11a5.42,5.42,0,0,1-.54,2.34,23,23,0,0,0-1.32,8.22c0,.3.06,1.2.06,2,0,.42-.18.9-.78.9s-.84-.42-.84-.9c0-2.94-.66-3.6-2.46-3.6-1.62,0-2.22,1.38-2.22,6.24,0,.9.06,1.86.06,2.7s-.06,1.32-.72,1.32c-2.22,0-.18-8.94-2.34-8.94-.66,0-1,.42-1,1.38,0,.48.18,1.56.18,2s-.18.66-.6.66c-1,0-1.14-.54-1.14-1.08,0-3.42-.72-3.12-1.92-4.62-.54-.6-.66-1.68-1.38-1.68-.54,0-.6,1.56-1.2,1.56-1.8,0-2.4-5-2.4-7.74a4,4,0,0,1,4.08-3.84c1.32,0,2.1.6,2.58,2.16,1,3.3,2.64,4.14,4,4.14,1.74,0,2.46-1.92,2.46-3.84a2.8,2.8,0,0,0-1.08-2.1c-3.06-2.76-2.52-3.72-4-5.88-.72-1.08-2.58-1.86-3.72-4.08-.72-1.32-.72-4.08-1.68-4.08s-1,2.22-1.8,2.22-1-1.38-1-2.64c0-.9.54-1.68.54-3.78a29.24,29.24,0,0,1,.36-4.92c.3-1.38,3.12-4,4.44-4.74.36-.12,5.16-2.28,5.76-2.28a.76.76,0,0,0,.36.06,8.78,8.78,0,0,1,5.1,2.22c1.5,1.38,3.84,5,3.84,7.56,0,1.44-.48,2.82-.48,4,0,2.16-.12,3.78-.66,3.78-1.86,0-.72-6.3-2.16-6.3-1.92,0-1.08,3.42-2.1,3.42-2.16,0-.66-5.82-2.34-5.82-.48,0-.6.48-.6,1.08,0,.24.06.6.06.84,0,.72-.24,1.2-1,1.2a.92.92,0,0,1-.9-.9c0-1,.18-1.2.18-2.22s-.42-1.14-.84-1.14c-1,0-1.38,2.46-1.38,4.2,0,3,2.7,5.88,6.06,7.8,1.86,1.08,2.4,3.3,2.88,3.84,1,1.2,3.12,1.56,3.12,4.32a15.9,15.9,0,0,0,.06,2A13.37,13.37,0,0,1,874.08,585.11Z"/><path class="cls-36" d="M894.66,591.65c0,.3.12,1,.12,1.92,0,.72-.3,1-.9,1-.42,0-2.28-.6-3-.6a1.23,1.23,0,0,0-1.26,1.26c.18,1,.66,1.32.66,2.88,0,.48-.06.66-.6.66-.9.06-1.56-4.44-2.64-4.44-.9,0-1.5,1.14-1.5,1.56s.36.84.36,1.26c0,1.14-.36,1.32-.84,1.32-1.86,0-1.5-3.72-2.52-3.72-.18,0-.6.9-1.14.9s-1.32-.9-1.74-.9c-.24,0-.72.36-1,.36-1.08,0-.72-2.16-.84-2.64v-1.14c0-.3.06-1.08.06-1.5v-1.32c0-1.92.42-6.24.42-8.1a20.59,20.59,0,0,1,.78-3.78c0-.54-.24-.84-.9-.84-.24,0-.6.18-.84.18-.48,0-.54-.66-.54-1a2.4,2.4,0,0,1,.24-1.14,9.36,9.36,0,0,0,.84-4.38c0-2,.78-3.54.78-5,0-.42-.6-2-.6-2.88,0-.6.12-1.56.12-2.1s-.3-1.5-.3-2.1c0-.3.18-.78.18-1.08s-.6-1.14-.6-1.62c0-1,1-1.38,2.28-1.38.24,0,.78.06,1.2.06,1.08,0,1.32-.54,2.22-.54.54,0,1.14.54,1.56.54s.6-.35,1.2-.35c.84,0,1.92.95,2.82.95.6,0,1.2-.66,2-.66.6,0,.84.3,1.26.3s.66-.42,1.56-.42c.42,0,.72.78.72,3,0,1.56.84,7.08.84,9.24,0,.72-.36,1.14-1.2,1.14-.54,0-.84-.3-.84-.9s.12-2.1.12-2.28c0-2.1-.18-3.9-.54-3.9-1.08,0-.06,4-1.26,4a.61.61,0,0,1-.66-.48,8.46,8.46,0,0,0-.6-2.16,4.48,4.48,0,0,0-2.22-1.08c-1.32,0-1.44,1.5-2.1,1.5-.36,0-.54-.12-.78-.12-1.32,0-1.62,1.38-1.62,3.24,0,3.54,2.28,5.58,3.18,5.58.18,0,2-.42,2.28-.42a15.07,15.07,0,0,1,2.52-.18c.6,0,1,.66,1,1.5,0,.42-.54,1.5-.54,2.1,0,1.26,1.14,4.38,1.14,5.28,0,1.08-.9,2.58-1.44,2.58-1.2,0-.3-3.3-1.8-3.3-1.26,0-.24,2.22-1.26,2.22-.72,0-1-2-1.62-2-.42,0-.84-.24-1.26-.24s-.78.12-.78.6a16.25,16.25,0,0,1,.42,3.84c0,.9-.84,2.52-.84,3.18,0,1,.84,2.22,3.42,2.22.36,0,.84-.06,1.38-.06.84,0,2.4.48,3.18.48.24,0,.54-.06.84-.06a2.05,2.05,0,0,1,1.86,1.86C895.2,590.15,894.66,591.11,894.66,591.65Z"/><path class="cls-36" d="M905.7,591.41c0,.66.54,1.92.54,2.34a2,2,0,0,1-1.8,1.86c-.6,0-1.08-1.14-1.62-1.14s-1,1.14-1.44,1.14S900.66,594,900,594s-.54,2.34-1.26,2.34-.72-1.74-.72-3.12v-1.8c0-.42-.06-1.62-.06-2.1,0-1.86.3-2.94,1.68-2.94.54,0,3.18.54,4.44.54h.6a.76.76,0,0,1,.36-.06c1.2,0,1.62.06,1.62,1C906.66,588.23,905.7,590.45,905.7,591.41Z"/><path class="cls-36" d="M917.88,591.41c0,.66.54,1.92.54,2.34a2,2,0,0,1-1.8,1.86c-.6,0-1.08-1.14-1.62-1.14s-1,1.14-1.44,1.14-.72-1.62-1.38-1.62-.54,2.34-1.26,2.34-.72-1.74-.72-3.12v-1.8c0-.42-.06-1.62-.06-2.1,0-1.86.3-2.94,1.68-2.94.54,0,3.18.54,4.44.54h.6a.76.76,0,0,1,.36-.06c1.2,0,1.62.06,1.62,1C918.84,588.23,917.88,590.45,917.88,591.41Z"/><path class="cls-36" d="M930.06,591.41c0,.66.54,1.92.54,2.34a2,2,0,0,1-1.8,1.86c-.6,0-1.08-1.14-1.62-1.14s-1,1.14-1.44,1.14S925,594,924.36,594s-.54,2.34-1.26,2.34-.72-1.74-.72-3.12v-1.8c0-.42-.06-1.62-.06-2.1,0-1.86.3-2.94,1.68-2.94.54,0,3.18.54,4.44.54h.6a.76.76,0,0,1,.36-.06c1.2,0,1.62.06,1.62,1C931,588.23,930.06,590.45,930.06,591.41Z"/></g><g id="græskar_ond" data-name="græskar ond"><path class="cls-42" d="M545.27,821.66s2.62-11.55,14.51-9.79l.88,7.61s-11.28-1-10.84,3.7Z"/><path class="cls-41" d="M544.54,819.71s3.46,3.37,7.83,2.62,23.58-1.18,31.29,2.38,29.74,22.62,26.13,35.1-10.75,38.41-41.93,30c0,0-15.58,3.59-26.22-2.9,0,0-18,2-29.76-9.34,0,0-16.41-4.12-26.4-12.34s-21.24-26.63-14.35-50.7c0,0,13.2-23.14,42.34-13.32S544.54,819.71,544.54,819.71Z"/><path class="cls-43" d="M544.54,819.71s-62.29-37.15-71.9,27.77l5.11,9.28S482.42,798.25,544.54,819.71Z"/><path class="cls-43" d="M546.6,821.18s-34.09-4-48.68,51.39l11.32,4.22S512.6,839.19,546.6,821.18Z"/><path class="cls-43" d="M549.82,823.18s6.21,27.19-17.18,63.48c0,0,6,.19,9,.21,0,0,2.89,2.16,4.57,2.12C546.21,889,558.19,837.69,549.82,823.18Z"/><path class="cls-43" d="M550.46,822.4s31,23.06,17.4,67.37l7.89,1.48S587.77,843.64,550.46,822.4Z"/><path class="cls-43" d="M552.37,822.33s44.42,9.24,56.17,41.72L610,859.2S603.05,828.76,552.37,822.33Z"/><polygon points="514.02 818.86 509.86 830.12 530.1 842.73 514.02 818.86"/><polygon points="576.43 839.7 572.27 850.96 548.18 848.76 576.43 839.7"/><path d="M492.25,833.75s40,29.48,93.24,31.13c0,0-25.49,8.89-52.94,1.53S492.25,833.75,492.25,833.75Z"/><path class="cls-36" d="M503.51,840.84l1.48,6.82,7.59-2,1.71,6.14,6.64-2.22,2.25,6.7,7.28-2.79,3.66,6.44,5.54-3.22,4.78,6.67,5.58-3.67,4.75,6.1,4.77-3.93,4.49,5.48,3.68-4.08,2.91,3,2.78-2.1,3.22,2.15,2.2-1.8s-41-2-81.66-27.49l1.49,4.23Z"/><path class="cls-36" d="M498.66,843.29l3.56-.84,1.76,6.83,6.2-1.24,2,8.4,6.75-4.12,1.21,9.17,9-5.15,3.38,10.07,5.9-6.42,5,8.56,6-6.07,4.54,6.83,5.34-4.88,4.35,4.58,4-3.17,3.62,2.29,2.37-1.84,2,1.08S526,879.84,498.66,843.29Z"/><path class="cls-42" d="M631,836s-.75-6.77,5-8l1.68,4s-5.31,1.51-4.32,4Z"/><path class="cls-41" d="M630.3,835a4.17,4.17,0,0,0,4,0c1.86-1.2,10.54-4.92,14.66-4.39s17.36,6.92,17.82,14.37,1.57,22.89-14.07,24c0,0-6.49,4.79-12.43,3.19,0,0-7.88,4.38-15.14.33,0,0-8.17.74-14.11-1.92s-14.16-10.65-15.07-25c0,0,2.11-15,17-14.95S630.3,835,630.3,835Z"/><path class="cls-43" d="M630.3,835s-34.64-8.91-28.09,28.21l3.89,4.13S598.38,834.65,630.3,835Z"/><path class="cls-43" d="M631.48,835.47s-16.2,4-13.52,36.86l5.87.23S619,851.47,631.48,835.47Z"/><path class="cls-43" d="M633.29,836s7.41,13.69,2.86,37.71c0,0,2.77-1,4.14-1.52a4.68,4.68,0,0,0,2.44.33S639.55,842.36,633.29,836Z"/><path class="cls-43" d="M633.45,835.43s18,6.93,19.27,33.54l3.85-.63S654,840.22,633.45,835.43Z"/><path class="cls-43" d="M634.31,835s21.8-3,32.62,12.52l-.18-2.9S658.49,829.33,634.31,835Z"/><polygon points="616.25 840.13 616.25 847.02 627.59 850.21 616.25 840.13"/><polygon points="648.2 840.13 648.2 847.02 636.85 850.21 648.2 840.13"/><path d="M608.84,852.2s23.2,8.78,47.73,0c0,0-10.12,9.49-23.87,10.47S608.84,852.2,608.84,852.2Z"/><path class="cls-36" d="M615.16,854l1.82,3.44L620.1,855l1.82,3,2.65-2.42,2.15,3.24,2.85-2.85,2.75,2.85,2-2.76,3.3,2.76,1.92-3,3.2,2.46,1.51-3,3,2.17,1-2.89,1.82,1.09.92-1.64,1.83.58.7-1.38a77.43,77.43,0,0,1-41.85-.12l1.4,2Z"/><path class="cls-36" d="M613.36,856.23l1.48-1.1,2,3.4,2.61-1.8,2.33,4.21,2.38-3.48,2.1,4.78,3.24-4.45,3.24,4.88,1.61-4.57,3.7,3.76,1.7-4.4,3.22,2.9,1.61-3.63,2.76,1.7,1.28-2.45,2,.59.77-1.44,1.11.22S632,871.17,613.36,856.23Z"/></g></g><g id="baggrund"><circle class="cls-3" cx="1340" cy="1214" r="331"/><circle class="cls-3" cx="1338.5" cy="1210.5" r="357.5"/></g><g id="tekst-2" data-name="tekst"><path class="cls-36" d="M594.59,658.4c-1.68.13-4.26.09-6.07.09l1.6-3.1,1-8c-3.57-5.25-8.47-12.6-11.74-18.06l6.36-.3-1.85,3.39,8.65,12.82c3.18-4.17,6.14-9.76,8.72-13.89a19.1,19.1,0,0,0-3.48-2.54l7.31.13s.13.13-11.74,18.79c-.38,3.4-.9,6.54-.64,7Z"/><path class="cls-36" d="M603.83,642.41c2-17.5,28.51-17.12,29.89.64a13.91,13.91,0,0,1-1.29,7.14c-3.14,7.53-12.47,11.1-19.57,8.09A15.22,15.22,0,0,1,603.83,642.41Zm13-10.79c-8.43.9-13.93,10.83-9.72,18.31,3.87,7,12.52,9.55,19.18,4.6,7.35-5.16,7-17.28-1.07-21.5A14.82,14.82,0,0,0,616.86,631.62Z"/><path class="cls-36" d="M662.31,633.51c0,10-1.29,25.8-15,24.94-6.45-1.29-10.24-4.48-11.1-10.58-.56-4.09-.3-10.71-.56-14.41l-1-4,5.59-.09-2.19,5.08c.13,9,.08,11.61.51,13.54,1.25,5.5,5.64,8.47,11.23,8.34,10.36-2.06,9.54-15.18,10.4-22.66l-2-3.57,5.72-.08Z"/><path class="cls-36" d="M702.82,657.42a16.28,16.28,0,0,1-18.28-.65c-4.3-3-5.8-8.39-5.8-12.6,0-8.51,5.11-15.74,14.92-15.74,4.38,0,7.31,1.47,12.08,4.65l-6,7.78c.48-2.15,1.77-5.07,2.28-7.35-2.32-2.41-5.8-3.92-11.39-3-9.38,1.59-12.3,13.5-8,21.37,2.45,4.43,13.85,9.5,19.87,2.62.13-1.59.38-4,.38-4.68l-2.06-5.16c1.2.26,3.66.34,5.12.56a16,16,0,0,0-1.16,4.73l0,9.46Z"/><path class="cls-36" d="M706.77,642.41c2-17.5,28.51-17.12,29.89.64a13.91,13.91,0,0,1-1.29,7.14c-3.14,7.53-12.47,11.1-19.57,8.09A15.22,15.22,0,0,1,706.77,642.41Zm13-10.79c-8.43.9-13.93,10.83-9.72,18.31,3.87,7,12.51,9.55,19.18,4.6,7.35-5.16,7-17.28-1.08-21.5A14.77,14.77,0,0,0,719.8,631.62Z"/><path class="cls-36" d="M746.54,656.08l2.58-4.25c-.73-17.38-1.07-16.73-1-18.32l-7,.38L737,639.44l2-9.16,1.51,1.42,19.91-1,1.55-1.85.51,9.12-2.79-5.08v0l-9.16.56.86,19.39,1.85,2.88Z"/><path class="cls-36" d="M895.29,664.33c.09-.56,1-1.38,2-2.67-.13-10.66.34-12.68-.35-25.58l-3.61-2.54a66.81,66.81,0,0,1,12.21-1.42c6.07,0,12.43,4.52,11.44,12.43a11.41,11.41,0,0,1-7.87,9.59,15.41,15.41,0,0,1-9.29-.39v7.74a23,23,0,0,1,2,2.71Zm4.51-13a10.21,10.21,0,0,0,4.82,1.33c5.25,0,9.42-2.36,10.15-8,1.24-9.54-8.65-12.17-14.84-9.33C899.8,639.22,899.93,643.64,899.8,651.3Z"/><path class="cls-36" d="M918.08,646.78c2-17.5,28.51-17.11,29.88.65a13.7,13.7,0,0,1-1.29,7.14c-3.13,7.52-12.47,11.09-19.56,8.08C921,660.2,917.31,653.58,918.08,646.78Zm13-10.79c-8.43.9-13.93,10.84-9.72,18.32,3.87,7,12.51,9.54,19.18,4.6,7.35-5.16,7-17.29-1.08-21.5A14.8,14.8,0,0,0,931.11,636Z"/><path class="cls-36" d="M949.86,662.52l1.54-4.34-.21-17.07c-.9-1.64-.86-2.67-1.85-4.3l5.2.21-1.42,3.74.39,16.56,1.12,5.33Z"/><path class="cls-36" d="M959.14,640.46,959,659c1.12,1.07,2.41,2,3.79,3.39a65.48,65.48,0,0,0-7.1.56c.56-2.19,1.34-6.28,1.38-7v-21.2l23.39,23.09.09-15.83a52.15,52.15,0,0,0-.73-7.78l5.71,0-2.83,2.76,0,26.14Z"/><path class="cls-36" d="M994.7,660.46l2.58-4.26c-.73-17.37-1.07-16.73-1-18.32l-7,.39-4.12,5.55,2-9.16,1.51,1.42,19.91-1,1.54-1.84.52,9.11-2.79-5.07v0l-9.16.56.86,19.4,1.85,2.88Z"/><path class="cls-36" d="M1029.49,637c-3.83-3.57-8.86-3.61-12.94-2-2.67,1.08-3.36,2.71-3.36,4.18,0,5.07,7.4,7,13.38,10.66,4.94,3,2.4,10-2.28,11.52-3.87,1.16-9.81.91-12.86-2.79l3.31-7.83-.73,7.61c-.09,1,3,2,7.31,2a5.89,5.89,0,0,0,5.25-2.75c5.2-9.33-22-8.86-14.41-21.84,2.15-3.27,7.14-3.7,10.06-3.7a13.14,13.14,0,0,1,10.24,4.73c.21.26-3.23,5.33-3.92,6.15Z"/></g></svg>
