<svg id="Layer_1" data-name="Layer 1" xmlns="http://www.w3.org/2000/svg" width="295" height="80" viewBox="0 0 295 80"><defs><style>.cls-1{fill:#93561f;}.cls-2{fill:#f28a22;}.cls-3{fill:#fff;}</style></defs><g id="knap"><rect class="cls-1" x="12.64" y="11.45" width="263.55" height="64" rx="4.11"/></g><g id="knap-2" data-name="knap"><rect class="cls-2" x="18.64" y="4.45" width="263.55" height="61.84" rx="4.11"/></g><g id="knap-3" data-name="knap"><path class="cls-3" d="M51.65,43.75c0-10.56.06-10.23-.39-18.63l-.9-1.26c5.61.12,6.42,0,8.46.45a9,9,0,0,1,3.3,1.35,5,5,0,0,1,1.14,6.87c-1.23,1.83-3.12,2.7-5.73,2.94a9.42,9.42,0,0,1,5,2.64c2.52,3.06.18,7-3.69,7.92-1.77.42-4.11.24-8.22,0Zm10.8-14.43c0-3.15-3.09-4.32-9.54-4.17,0,2.91.15,6,.09,9.09,2.4,0,4.35.24,6.51-.51a4.53,4.53,0,0,0,2.94-3.87Zm-9.3,15.45a20.7,20.7,0,0,0,5.1,0c2.94-.51,5-4.14,2.64-6.36C59.57,37.21,57.32,36.16,53,36,53,38.71,53.15,42,53.15,44.77Z"/><path class="cls-3" d="M81.77,45.73c.21-.45.48-1.14.81-1.77L81.26,41l-13.05.12-1.62,2.67,1.26,1.92-3.54,0L75.2,23.08c-.06,0,8.07,18.57,10,22.68ZM75,26.41,68.9,39.52c2.73-.09,8.85-.09,11.82,0Z"/><path class="cls-3" d="M89.3,43.3l1.8-3c-.51-12.12-.75-11.67-.72-12.78l-4.89.27-2.88,3.87L84,25.3l1.05,1,13.89-.72L100,24.28l.36,6.36-2-3.54v0L92,27.46,92.63,41l1.29,2Z"/><path class="cls-3" d="M106.76,43.3l1.8-3c-.51-12.12-.75-11.67-.72-12.78l-4.89.27-2.88,3.87,1.38-6.39,1,1,13.89-.72,1.08-1.29.36,6.36-2-3.54v0l-6.39.39.6,13.53,1.29,2Z"/><path class="cls-3" d="M118,44.41h-.18l1.62-2.49-.36-12.33-1.17-3.9,4.29.18-1.68,3.24.54,13.71H130l2.13-4.65-.72,6.3Z"/><path class="cls-3" d="M132.11,45c.51-1.32,1.23-3,1.86-4.26l.21-13.65a27.08,27.08,0,0,0-1.86-2.34l17.46,0,.42,6.69-2.07-5H135.56l-.12,8.82,7.26,0a14,14,0,0,0,2.43-2.37c-.21,2.19-.42,4.68-.42,7a19.13,19.13,0,0,0-2.34-3.27l-7-.09-.09,6.66c13.56.81,13.56.81,14,.78.63-1.62,1.68-3.66,2.49-5.34L151.34,45Z"/><path class="cls-3" d="M178.67,45.73c.21-.45.48-1.14.81-1.77L178.16,41l-13,.12-1.62,2.67,1.26,1.92-3.54,0L172.1,23.08c-.06,0,8.07,18.57,10,22.68Zm-6.75-19.32L165.8,39.52c2.73-.09,8.85-.09,11.82,0Z"/><path class="cls-3" d="M198.2,44.23a11.34,11.34,0,0,1-12.75-.45c-3-2.1-4-5.85-4-8.79,0-5.94,3.57-11,10.41-11,3.06,0,5.1,1,8.43,3.24l-4.17,5.43c.33-1.5,1.23-3.54,1.59-5.13-1.62-1.68-4-2.73-7.95-2.07-6.54,1.11-8.58,9.42-5.55,14.91,1.71,3.09,9.66,6.63,13.86,1.83.09-1.11.27-2.82.27-3.27l-1.44-3.6c.84.18,2.55.24,3.57.39a11.29,11.29,0,0,0-.81,3.3l0,6.6Z"/><path class="cls-3" d="M217.88,45.73c.21-.45.48-1.14.81-1.77L217.37,41l-13.05.12-1.62,2.67L204,45.73l-3.54,0,10.89-22.68c-.06,0,8.07,18.57,10,22.68Zm-6.75-19.32L205,39.52c2.73-.09,8.85-.09,11.82,0Z"/><path class="cls-3" d="M222.14,44.74l1.08-3-.15-11.91c-.63-1.14-.6-1.86-1.29-3l3.63.15-1,2.61.27,11.55.78,3.72Z"/><path class="cls-3" d="M228.62,29.35l-.09,12.93c.78.75,1.68,1.41,2.64,2.37a45.83,45.83,0,0,0-4.95.39c.39-1.53.93-4.38,1-4.86V25.39L243.5,41.5l.06-11a35.56,35.56,0,0,0-.51-5.43l4,0-2,1.92,0,18.24Z"/><path class="cls-3" d="M248.87,40.06c-.15-7.23-.57-12.15-.93-16.62l2.52.24-.72,16.5Zm-.81,3.84a1.18,1.18,0,0,1,1.29-1.56,1.14,1.14,0,0,1,.93.6,1.19,1.19,0,0,1-1.08,1.77A1.23,1.23,0,0,1,248.06,43.9Z"/></g></svg>
