<svg id="Layer_1" data-name="Layer 1" xmlns="http://www.w3.org/2000/svg" width="250" height="420" viewBox="0 0 250 420"><defs><style>.cls-1{fill:#f2e375;}.cls-2{fill:#ead13f;}.cls-3{fill:#eadc8c;}.cls-4{fill:#fff;}.cls-5{fill:#662d91;}.cls-6{fill:#7e00ed;}.cls-7{fill:#ddca58;}</style></defs><path class="cls-1" d="M71.82,173.7s-14.44,40.22-5.67,116.54c0,0,40.22,34.56,123.25-4.12,0,0,18-72.39,0-133.4,0,0-43,1.71-52.44,0C137,152.72,101.21,156.68,71.82,173.7Z"/><path class="cls-2" d="M66.15,290.24S66.66,330,93,348.52c0,0-1.54,20.63-10.83,47.44,0,0-4.64,16.5,13.41,15.47,0,0,19.08-2.58-3.61-9.8,0,0-6.19-2.57,1.55-21.14l9.57-25.12s19.82,6,31.68,4.49l-4.36,41.7s-5.36,10.48,8,9.92,23.17-1.6,10.28-8.3c0,0-12.38,5.16-9.8-13.41l6.7-32.49s27.85-4.64,43.84-71.16C189.4,286.12,118.75,324.28,66.15,290.24Z"/><path class="cls-3" d="M106.37,233.52s-8.25,49.5,10.31,58.27c0,0,21.15,19.6,19.6,4.64,0,0,1.86-3.74-15.83-18.11,0,0-9-7.67-4-44.8"/><path class="cls-3" d="M197,231s10,11.33,15.12,32.48c0,0,4.64,8.25,17,15.47,0,0,14.44,19.08,13.4,1.55L230.6,267.79s-10.26-4.36-15.93-22.41S202.35,217,197.42,218"/><path d="M138.86,215s0-12.89,20.63-6.7c0,0,8.25,1.55,17.53-8.25,0,0,18.64-2.58,8.29,14.95,0,0-16,9.8-35.62,8.25C149.69,223.2,139.38,222.69,138.86,215Z"/><ellipse cx="150.2" cy="180.66" rx="8.25" ry="13.67" transform="translate(-32.76 33.28) rotate(-11.41)"/><ellipse cx="176.51" cy="175.5" rx="8.25" ry="13.67" transform="translate(-31.22 38.38) rotate(-11.41)"/><path class="cls-4" d="M142.09,174s7.12,2,3.75-6.12C145.84,167.92,143.26,169.22,142.09,174Z"/><path class="cls-4" d="M168.39,168.88s7.12,2,3.75-6.12C172.14,162.76,169.56,164.06,168.39,168.88Z"/><path class="cls-5" d="M3.39,152.72s11.09-2.95,19.13,10c0,0,20.94,20.74,49.3,10.94,0,0,37.17-17.32,58.55-20,0,0,46.65,2.28,59-1,0,0,26.3-1.2,26.81-3.26s25.79,4.64,29.4,8.25-27.85-38.16-60.34-36.1l-97.33-.07S4.57,138.44,3.39,152.72Z"/><path class="cls-6" d="M179.08,101.5s5.16,13.41,6.19,20.11l-32.74-.07s-1.29-6.12,0-20Z"/><polygon class="cls-6" points="114.64 101.5 92.39 101.5 87.94 121.54 114.64 121.54 114.64 101.5"/><path class="cls-5" d="M92.39,101.5s29-84.47,38-88.39c0,0,22.73-18.25,50.93,0,0,0,18.93,13.49,4,52,0,0-.51-36.81-25.78-31.65,0,0-16.5.52,19.59,68.07"/><rect class="cls-7" x="113.08" y="97.89" width="41.08" height="26.82" rx="12"/><rect class="cls-6" x="116.68" y="101.5" width="33" height="20.11" rx="10.06"/></svg>
