<svg id="Layer_1" data-name="Layer 1" xmlns="http://www.w3.org/2000/svg" width="290" height="460" viewBox="0 0 290 460"><defs><style>.cls-1{fill:#f2e375;}.cls-2{fill:#ead13f;}.cls-3{fill:#eadc8c;}.cls-4{fill:#fff;}.cls-5{fill:#662d91;}.cls-6{fill:#7e00ed;}.cls-7{fill:#ddca58;}</style></defs><path class="cls-1" d="M78.55,189.28s-15.34,42.75-6,123.86c0,0,42.75,36.72,131-4.39,0,0,19.18-76.92,0-141.77,0,0-45.69,1.82-55.73,0C147.78,167,109.79,171.2,78.55,189.28Z"/><path class="cls-2" d="M72.52,313.14s.55,42.2,28.5,61.93c0,0-1.64,21.92-11.51,50.42,0,0-4.93,17.53,14.25,16.44,0,0,20.28-2.74-3.83-10.42,0,0-6.58-2.74,1.64-22.46l10.17-26.7s21.07,6.42,33.67,4.77l-4.63,44.31s-5.7,11.14,8.51,10.55,24.62-1.7,10.92-8.82c0,0-13.15,5.48-10.41-14.25l7.12-34.53s29.6-4.93,46.59-75.63C203.51,308.75,128.42,349.31,72.52,313.14Z"/><path class="cls-3" d="M115.27,252.85s-8.77,52.62,11,61.93c0,0,22.47,20.83,20.83,4.93,0,0,2-4-16.82-19.25,0,0-9.55-8.15-4.31-47.61"/><path class="cls-3" d="M211.55,250.12s10.59,12.05,16.07,34.52c0,0,4.93,8.77,18.09,16.44,0,0,15.34,20.28,14.24,1.65L247.3,289.27s-10.91-4.63-16.94-23.81S217.27,235.27,212,236.39"/><path d="M149.8,233.12s0-13.7,21.92-7.12c0,0,8.77,1.64,18.63-8.77,0,0,19.81-2.74,8.81,15.89,0,0-17,10.42-37.85,8.77C161.31,241.89,150.35,241.35,149.8,233.12Z"/><ellipse cx="161.86" cy="196.68" rx="8.77" ry="14.52" transform="translate(-35.7 35.9) rotate(-11.41)"/><ellipse cx="189.81" cy="191.2" rx="8.77" ry="14.52" transform="translate(-34.07 41.32) rotate(-11.41)"/><path class="cls-4" d="M153.23,189.64s7.57,2.16,4-6.5C157.22,183.14,154.47,184.52,153.23,189.64Z"/><path class="cls-4" d="M181.18,184.16s7.57,2.16,4-6.5C185.17,177.66,182.42,179,181.18,184.16Z"/><path class="cls-5" d="M5.83,167s11.79-3.13,20.33,10.68c0,0,22.25,22,52.39,11.62,0,0,39.5-18.4,62.23-21.26,0,0,49.57,2.43,62.73-1,0,0,28-1.26,28.49-3.46s27.41,4.94,31.24,8.77-29.59-40.55-64.12-38.36l-103.44-.08S7.09,151.81,5.83,167Z"/><path class="cls-6" d="M192.55,112.56s5.48,14.25,6.57,21.37l-34.8-.08s-1.37-6.5,0-21.29Z"/><polygon class="cls-6" points="124.06 112.56 100.41 112.56 95.68 133.85 124.06 133.85 124.06 112.56"/><path class="cls-5" d="M100.41,112.56s30.8-89.77,40.37-93.94c0,0,24.15-19.4,54.12,0,0,0,20.11,14.34,4.22,55.23,0,0-.55-39.12-27.4-33.64,0,0-17.54.55,20.83,72.35"/><rect class="cls-7" x="122.4" y="108.72" width="43.66" height="28.5" rx="12"/><rect class="cls-6" x="126.23" y="112.56" width="35.07" height="21.37" rx="10.06"/></svg>
