<svg id="Layer_1" data-name="Layer 1" xmlns="http://www.w3.org/2000/svg" width="500" height="560" viewBox="0 0 500 560"><defs><style>.cls-1{fill:#a54548;}.cls-2{fill:#603813;}.cls-3{fill:#b3b3b3;}.cls-4{fill:#fff;}.cls-5{fill:#7f1726;opacity:0.22;}</style></defs><path d="M230.06,11.93V24.32l5.22-.59,4.66.11-.4-12.64S233.27,10.86,230.06,11.93Z"/><path class="cls-1" d="M33.8,149.37,53,155.5s-10,74.31,91.93,77.38c0,0-18.39-120.28-23.75-129.47,0,0-12.26-82,114.15-91.93,0,0,117.21-11.5,130.23,114.91,0,0,6.9,31.16,0,75.33,0,0,36,4.34,36.78,61.8,0,0,3.83,10.72-8.43,48.26,0,0,9.19,46.73,15.32,47.5l-13,12.26s-23.75-28.35-11.49-108c0,0,2.29-42.9-19.92-46,0,0,1.53,185.4-85.8,232.13,0,0-10.73,58.22-3.07,68.95,0,0,34.48,4.59,27.58,15.32,0,0,12.26,9.19-36.77,4.59,0,0-13.79-2.37-5.75-80.09,0,0-38.68,21.11-94.61-4.17L161,534.71S112.7,547,115,526.29c0,0,4.6-6.13,28.35-3.83,0,0,11.49-.77,3.06-79.68,0,0-42.13-19.91-27.58-109.55,0,0,29.88-70.48,22.22-83.5C141.05,249.73,30.73,248.2,33.8,149.37Z"/><path class="cls-2" d="M33.8,149.37s-6.9-1.53-7.66-25.28c0,0,7.66-1.75,7.66,1.81,0,0,4.59,10.45,6.13,6.62,0,0,5.22-2.4,3-8.86l8.5,1.2s0,10,3.83,7.66,2.9,2.2,6.43-8.86l8.12,2s6.9,6.9-10.72,27.58c0,0-3.83,2.3-6.13,2.3Z"/><path class="cls-3" d="M27.51,123.85,12.35,45.18S49.89,61.82,33.8,125.9Z"/><path class="cls-3" d="M45.12,124,41.46,39.82s33.71,12.26,10,85Z"/><path class="cls-3" d="M61.68,123.66l15-80s17.62,54.39-6.9,82Z"/><path class="cls-2" d="M390,375.37l7.66,21.45,8.43-4.6s-4.6-6.89-1.54-8.43c0,0,3.07-4.59,6.9,4.6l8.43-4.6s-8.43-5.36-1.54-10c0,0,3.07-5.37,8.43,3.06l8.43-7.66s-15.32-17.62-26.05-10Z"/><path class="cls-3" d="M399.42,395.88s-6.33,50.73,30.45,66.82l-26.29-69.09Z"/><path class="cls-3" d="M413.68,387.19s7,57.13,53,60.19l-49.3-62.18Z"/><path class="cls-3" d="M429.87,374.11s13.79,52.59,59.75,57.95L433.33,371Z"/><path class="cls-4" d="M235.28,23.73s-89.63,6.13-99.59,82c0,0-1.53,85,109.55,98.83,0,0,108.51-7.88,101.37-78.63C346.61,125.9,359.39,25.26,235.28,23.73Z"/><path d="M203.1,74.29S222.26,70.46,224.55,95c0,0-.76,16.63-21.45,16.36s-22.76-18.63-22.76-18.63S182.42,72.76,203.1,74.29Z"/><path d="M283.54,74.29S302.69,70.46,305,95c0,0-.76,16.63-21.45,16.36s-22.76-18.63-22.76-18.63S262.86,72.76,283.54,74.29Z"/><circle cx="219.19" cy="128.69" r="5.36"/><circle cx="246.77" cy="128.69" r="5.36"/><circle cx="276.65" cy="128.69" r="5.36"/><ellipse cx="205.4" cy="149.37" rx="8.43" ry="4.6"/><ellipse cx="247.54" cy="149.37" rx="8.43" ry="4.6"/><ellipse cx="290.44" cy="149.37" rx="8.43" ry="4.6"/><circle cx="215.74" cy="167.37" r="3.45"/><circle cx="238.73" cy="170.44" r="3.45"/><circle cx="264.77" cy="170.44" r="3.45"/><circle cx="283.16" cy="167.37" r="3.45"/><path d="M135.69,103.81l-13.44,2.45,3,12.39L136.62,116"/><polygon points="343.67 92.25 357.52 88.87 360.64 99.14 345.53 100.9 343.67 92.25"/><path class="cls-5" d="M118.83,333.23s78.31,86.2,220.33,37.74c0,0-13.48,52.66-60.21,78.71,0,0-10,59-3.07,68.95,0,0,39.8,4.67,28.33,18.8,0,0,1.55,5-37.52,1.11,0,0-15.32-1.6-5.75-80.09,0,0-44.81,23.4-94.61-4.17L161,534.71s-49,12.26-46-8.42c0,0,.77-7.66,28.35-3.83,0,0,10-3.83,3.06-79.68C146.41,442.78,105.81,426.7,118.83,333.23Z"/></svg>
