<svg id="Layer_1" data-name="Layer 1" xmlns="http://www.w3.org/2000/svg" width="290" height="460" viewBox="0 0 290 460"><defs><style>.cls-1{fill:#a54548;}.cls-2{fill:#603813;}.cls-3{fill:#b3b3b3;}.cls-4{fill:#fff;}.cls-5{fill:#7f1726;opacity:0.22;}</style></defs><path d="M132,74.62V82l3.1-.35,2.78.07-.24-7.53A20.44,20.44,0,0,0,132,74.62Z"/><path class="cls-1" d="M15.12,156.44l11.4,3.65s-5.93,44.24,54.73,46.07c0,0-10.94-71.61-14.14-77.08,0,0-7.29-48.81,68-54.74,0,0,69.79-6.84,77.54,68.42,0,0,4.11,18.55,0,44.85,0,0,21.44,2.58,21.89,36.79,0,0,2.28,6.39-5,28.74,0,0,5.47,27.82,9.12,28.28l-7.75,7.29S216.72,271.84,224,224.4c0,0,1.37-25.54-11.86-27.36,0,0,.92,110.37-51.08,138.2,0,0-6.38,34.66-1.82,41.05,0,0,20.52,2.73,16.42,9.12,0,0,7.29,5.47-21.9,2.73,0,0-8.21-1.41-3.42-47.68,0,0-23,12.56-56.33-2.49l-3.19,47.89s-28.73,7.3-27.37-5c0,0,2.74-3.65,16.88-2.28,0,0,6.84-.46,1.83-47.44,0,0-25.09-11.86-16.42-65.22,0,0,17.78-42,13.22-49.72C79,216.19,13.29,215.28,15.12,156.44Z"/><path class="cls-2" d="M15.12,156.44s-4.11-.91-4.56-15.05c0,0,4.56-1,4.56,1.08,0,0,2.73,6.22,3.65,3.94,0,0,3.1-1.43,1.78-5.28l5.06.72s0,5.93,2.28,4.56,1.73,1.31,3.83-5.28l4.83,1.17s4.11,4.11-6.38,16.42a10,10,0,0,1-3.65,1.37Z"/><path class="cls-3" d="M11.37,141.25l-9-46.84s22.35,9.91,12.77,48.06Z"/><path class="cls-3" d="M21.86,141.32l-2.18-50.1s20.07,7.3,5.93,50.63Z"/><path class="cls-3" d="M31.72,141.13,40.66,93.5s10.49,32.38-4.11,48.8Z"/><path class="cls-2" d="M227.21,291l4.56,12.77,5-2.73s-2.73-4.11-.91-5c0,0,1.83-2.74,4.11,2.74l5-2.74s-5-3.19-.91-5.93c0,0,1.83-3.19,5,1.83l5-4.56s-9.13-10.5-15.51-5.93Z"/><path class="cls-3" d="M232.8,303.2S229,333.41,250.92,343l-15.65-41.14Z"/><path class="cls-3" d="M241.29,298s4.16,34,31.53,35.84l-29.36-37Z"/><path class="cls-3" d="M250.92,290.25s8.21,31.3,35.58,34.5L253,288.37Z"/><path class="cls-4" d="M135.07,81.64s-53.36,3.65-59.29,48.81c0,0-.91,50.62,65.22,58.83,0,0,64.61-4.69,60.36-46.81C201.36,142.47,209,82.55,135.07,81.64Z"/><path d="M115.92,111.74s11.4-2.28,12.77,12.32c0,0-.46,9.9-12.77,9.74s-13.56-11.09-13.56-11.09S103.6,110.83,115.92,111.74Z"/><path d="M163.81,111.74s11.4-2.28,12.77,12.32c0,0-.46,9.9-12.77,9.74s-13.56-11.09-13.56-11.09S151.49,110.83,163.81,111.74Z"/><circle cx="125.5" cy="144.13" r="3.19"/><circle cx="141.91" cy="144.13" r="3.19"/><circle cx="159.7" cy="144.13" r="3.19"/><ellipse cx="117.29" cy="156.44" rx="5.02" ry="2.74"/><ellipse cx="142.37" cy="156.44" rx="5.02" ry="2.74"/><ellipse cx="167.91" cy="156.44" rx="5.02" ry="2.74"/><circle cx="123.44" cy="167.16" r="2.05"/><circle cx="137.13" cy="168.99" r="2.05"/><circle cx="152.63" cy="168.99" r="2.05"/><circle cx="163.58" cy="167.16" r="2.05"/><polyline points="75.78 129.32 67.78 130.78 69.59 138.15 76.33 136.58"/><polygon points="199.61 122.44 207.85 120.42 209.71 126.54 200.71 127.59 199.61 122.44"/><path class="cls-5" d="M65.75,265.91s46.61,51.32,131.17,22.46c0,0-8,31.36-35.85,46.87,0,0-5.93,35.12-1.82,41.05,0,0,23.69,2.77,16.86,11.19,0,0,.92,2.94-22.34.66,0,0-9.12-.95-3.42-47.68,0,0-26.68,13.93-56.33-2.49l-3.19,47.89s-29.19,7.3-27.37-5c0,0,.46-4.56,16.88-2.28,0,0,5.93-2.28,1.83-47.44C82.17,331.13,58,321.55,65.75,265.91Z"/></svg>
