<svg id="Layer_1" data-name="Layer 1" xmlns="http://www.w3.org/2000/svg" width="270" height="90" viewBox="0 0 270 90"><defs><style>.cls-1{fill:#fff;}</style></defs><path class="cls-1" d="M25.76,75.8s29.44-144.59,57.73,0c0,0-6.83-10-14.73,0,0,0-7.64-10-14.13,0,0,0-6.88-10-14.87,0C39.76,75.8,32.49,65.8,25.76,75.8Z"/><ellipse cx="49.95" cy="32.15" rx="2.73" ry="5.46"/><ellipse cx="60.86" cy="32.15" rx="2.73" ry="5.46"/><path class="cls-1" d="M107.6,75.8s29.44-144.59,57.74,0c0,0-6.83-10-14.73,0,0,0-7.64-10-14.14,0,0,0-6.88-10-14.87,0C121.6,75.8,114.33,65.8,107.6,75.8Z"/><ellipse cx="131.79" cy="32.15" rx="2.73" ry="5.46"/><ellipse cx="142.71" cy="32.15" rx="2.73" ry="5.46"/><path class="cls-1" d="M191.27,75.8s29.44-144.59,57.73,0c0,0-6.83-10-14.73,0,0,0-7.64-10-14.14,0,0,0-6.87-10-14.87,0C205.26,75.8,198,65.8,191.27,75.8Z"/><ellipse cx="215.46" cy="32.15" rx="2.73" ry="5.46"/><ellipse cx="226.37" cy="32.15" rx="2.73" ry="5.46"/></svg>
