<svg id="Layer_1" data-name="Layer 1" xmlns="http://www.w3.org/2000/svg" width="1600" height="900" viewBox="0 0 1600 900"><defs><style>.cls-1{fill:#4d4d4d;}.cls-2{fill:#446661;}.cls-3{fill:#011b21;}.cls-4{fill:#0b5147;}.cls-5{fill:#04252b;}.cls-6{fill:#082825;}.cls-7{fill:#326058;}.cls-8{fill:#617773;}.cls-9{fill:#506661;}.cls-10{fill:#42210b;}.cls-11{fill:#07182b;}.cls-12{fill:#546b66;}.cls-13{fill:#3a564f;}.cls-14{fill:#2b4f48;}.cls-15{fill:#333;}</style></defs><path class="cls-1" d="M1483,265.73s-1.56-17,6.2-17,6.47,17,6.47,17"/><path class="cls-1" d="M1377,257.73s-1.56-17,6.2-17,6.47,17,6.47,17"/><path class="cls-1" d="M1305,255.73s-1.56-17,6.2-17,6.47,17,6.47,17"/><path class="cls-1" d="M1401.1,289.19s-3.26-35.45,13-35.43,13.49,35.43,13.49,35.43"/><path class="cls-1" d="M1314.1,286.19s-3.26-35.45,13-35.43,13.49,35.43,13.49,35.43"/><path class="cls-1" d="M1440,262.82s-2.53-28.08,10.06-28.06,10.48,28.06,10.48,28.06"/><path class="cls-1" d="M1496,279.82s-2.53-28.08,10.06-28.06,10.48,28.06,10.48,28.06"/><path class="cls-1" d="M1346,270.82s-2.53-28.08,10.06-28.06,10.48,28.06,10.48,28.06"/><path class="cls-2" d="M205,220.63s7.59-12,9.43-23.31c0,0,5.29,22.87,8.79,23.31h-5.63s4,17.63,8.51,19.27h-6.22s6.83,17.4,8.88,18H200.78s7.67-14.53,7.05-17.8H202.3s7.17-14.13,7.17-19.45Z"/><path class="cls-3" d="M1592.58,409.82s-5-30-3-29.2-25.17-17.14-22.07-28.57c0,0,8.65,14.55,14,15.86s0-15.86,0-15.86,6.37,14.53,5.31,17.18,1.81,5,1.81,5-1.28-23.05.58-27.29c0,0-7.48-11.16-5.47-18,0,0,3.08,14.59,6.26,14.85,0,0,1.86-22,9.54-24,0,0-9.68,10.92-8.55,45,0,0,13.58.17,14.11-14.14,0,0,4.51,13-14,17,0,0,.26,19.6,1.59,22.25,0,0,5.33-1.35,6.24-5.84a7.83,7.83,0,0,1-6.24,7.86s2.72,14.83,4.54,15.15"/><path class="cls-4" d="M1463.27,593.51s115.58-26,72.45-78.67-29.64-58.8-23.29-65.79,28-43.87-1.68-60.64-41.66,8-57.49-23.43-72.85-26.43-72.85-26.43-64.93,14.77-61.46,36.05-.84,42.75,27.9,56.67S1363.2,476.66,1372,501s28.69,21.22,35.09,39.88-18.81,25.09-9.71,50.63S1463.27,593.51,1463.27,593.51Z"/><path class="cls-5" d="M1475.38,613.25s-23.94-99.66-94.72-127.25c0,0,54.59-1.74,88.31,74.3,0,0-18.46-126.38-72-148.06,0,0-43.53-31.39-39.61-48.42,0,0,24.72,30.36,48.39,40.5s28-35.62,28-35.62,8.14,28.38-7.73,50.18c0,0,27.14,32.31,27.08,46.79,0,0,29.27,8,38.16-25.47,0,0,7.64,25.58-34.9,37.11,0,0,10.41,26.56,12.73,45.39,0,0,42.38-7.49,48.84-29.82,0,0,7.16,18.82-46.9,36.74,0,0,6.9,76.46,12.33,81.38"/><path class="cls-3" d="M1439.37,754.61s-49.81-92.45-42.5-92.05-101.38-27.89-104-68.71c0,0,44.51,37.88,63.32,36.25s-17.72-51.84-17.72-51.84,37,40.37,36.53,50.21,11.54,14.42,11.54,14.42-29.94-73.88-28.61-89.8c0,0-36.91-28.12-38-52.82,0,0,26.36,44.23,37,41.54,0,0-18.48-73.87,4.39-89,0,0-19.41,46.49,22.34,156.58,0,0,44.56-14.63,30.31-62,0,0,29.22,37.39-26.94,71.09,0,0,22.77,63.77,30.06,71,0,0,15.9-10.39,13.87-26.07,0,0,8.12,19.71-11.62,32.65,0,0,25.44,45.44,31.75,44.45"/><path class="cls-6" d="M1599,844.27s-289.68-1.16-269.75-106.55,98.94-28.25,98.44-101.83-57.17-59.85-54.83-85.21,66.46-32.91,77.39,13.36c0,0,56,50.28,38.49-71.22,0,0-107.3-42-87.92-97.24s45.37-66.26,72.37-68.26,125,32.94,125.5,94"/><path class="cls-2" d="M1598.71,317.88s-26.13-.1-24.33-9.61,8.92-2.55,8.88-9.19-5.16-5.4-5-7.68,6-3,7,1.2c0,0,5.06,4.54,3.47-6.42,0,0-9.67-3.79-7.93-8.77s4.1-6,6.53-6.16,11.28,3,11.32,8.47"/><path class="cls-7" d="M190.07,347.83s37.22,1.95,28.63-17.68-4-20.33-1.46-21.91,12.2-10.91,4.64-18.51-13.3-1.12-15.42-12-19.83-14.2-19.83-14.2-20.93-1-21.68,5.7-3.89,12.88,3.64,19.54,1.09,15.14,1.68,23.25,6.89,8.87,7.24,15.07-7.83,6-7.24,14.51S190.07,347.83,190.07,347.83Z"/><path class="cls-8" d="M58.63,232.11s19.7,1,15.15-9.35S71.68,212,73,211.17s6.45-5.78,2.45-9.8-7-.59-8.16-6.34-10.49-7.51-10.49-7.51-11.07-.55-11.47,3-2.05,6.81,1.93,10.34.58,8,.89,12.3,3.64,4.69,3.83,8-4.14,3.18-3.83,7.68S58.63,232.11,58.63,232.11Z"/><path class="cls-9" d="M78.08,258.73s21.73,1.14,16.72-10.32-2.33-11.87-.86-12.79,7.12-6.37,2.71-10.81-7.76-.65-9-7-11.58-8.28-11.58-8.28-12.22-.61-12.66,3.32-2.27,7.52,2.13,11.41.64,8.84,1,13.58,4,5.17,4.23,8.79-4.57,3.51-4.23,8.48S78.08,258.73,78.08,258.73Z"/><path class="cls-3" d="M1457.08,899.07s55.63-96.25,30.63-171.25-47.87-141.07-47.87-141.07,30.79,97.83,54.33,95.45,59.67-170.27,13.1-218.32c0,0-53.68-41.67-43.62-88.86,0,0,24.08,68.8,48.57,55.8,0,0,21.8-22.61,17.64-55.8,0,0,4.21,61.8.53,72.8,0,0,24.57,121.87,9.45,138.93s44.18-.62,42-44.28c0,0,3.85,60.35-47.15,69.35l-23.83,115.4s82.83-27.4,84.83-68.4c0,0-5,66-88,84,0,0-22.81,145.49-14.4,156.25"/><path class="cls-3" d="M144.39,265.28s-3.21-19.31-1.95-18.8-16.2-11-14.2-18.39c0,0,5.57,9.37,9,10.21s0-10.21,0-10.21,4.1,9.35,3.42,11.06,1.16,3.24,1.16,3.24-.82-14.84.37-17.56c0,0-4.81-7.19-3.51-11.61,0,0,2,9.39,4,9.56,0,0,1.2-14.14,6.14-15.43,0,0-6.23,7-5.5,29,0,0,8.74.1,9.08-9.11,0,0,2.9,8.36-9,10.92,0,0,.17,12.61,1,14.32,0,0,3.43-.87,4-3.76a5,5,0,0,1-4,5.06s1.74,9.55,2.92,9.75"/><path class="cls-10" d="M1218.07,236.82s-3.73-22.49-2.26-21.89-18.87-12.85-16.54-21.42c0,0,6.48,10.91,10.46,11.89s0-11.89,0-11.89,4.77,10.89,4,12.88,1.36,3.77,1.36,3.77-1-17.28.43-20.45c0,0-5.6-8.37-4.09-13.52,0,0,2.3,10.93,4.69,11.13,0,0,1.39-16.47,7.15-18,0,0-7.25,8.19-6.41,33.74,0,0,10.18.12,10.58-10.6,0,0,3.38,9.73-10.53,12.71,0,0,.2,14.7,1.19,16.68,0,0,4-1,4.68-4.38a5.86,5.86,0,0,1-4.68,5.89s2,11.12,3.41,11.36"/><path class="cls-11" d="M1585.91,322.73s5-8.68,2.76-15.44-4.32-12.73-4.32-12.73,2.78,8.82,4.9,8.61,5.39-15.36,1.19-19.69c0,0-4.85-3.76-3.94-8,0,0,2.17,6.21,4.38,5a6.55,6.55,0,0,0,1.59-5s.38,5.58,0,6.57c0,0,2.22,11,.85,12.53s4-.06,3.79-4c0,0,.35,5.44-4.25,6.25l-2.15,10.41s7.47-2.47,7.65-6.17c0,0-.45,6-7.94,7.58,0,0-2,13.12-1.29,14.09"/><path class="cls-5" d="M192.06,354.84s1.22-32.23-17.88-46.6c0,0,16.68,4.11,20.44,30,0,0,5.14-39.85-9.22-51,0,0-10.52-13.2-7.89-18,0,0,4.91,11.3,11.22,16.38s11.52-8.41,11.52-8.41.05,9.29-6.61,14.55c0,0,5.48,12.09,4.23,16.47,0,0,8.19,4.9,13.72-4.47,0,0,.15,8.4-13.72,8.27,0,0,.9,8.94,0,14.84,0,0,13.47,1.33,17.33-4.89,0,0,.57,6.31-17.33,7.15,0,0-4.41,23.75-3.18,25.7"/><path class="cls-5" d="M59.69,235.82s.64-17-9.46-24.65c0,0,8.82,2.17,10.81,15.88,0,0,2.72-21.09-4.88-27,0,0-5.56-7-4.17-9.54,0,0,2.6,6,5.94,8.67S64,194.76,64,194.76s0,4.91-3.5,7.69c0,0,2.9,6.4,2.24,8.72,0,0,4.33,2.59,7.26-2.37,0,0,.08,4.45-7.26,4.38a39.93,39.93,0,0,1,0,7.85s7.13.7,9.17-2.59c0,0,.3,3.34-9.17,3.78,0,0-2.33,12.57-1.68,13.6"/><path class="cls-5" d="M79.24,262.82S80,244,68.8,235.62c0,0,9.74,2.4,11.93,17.52,0,0,3-23.27-5.38-29.76,0,0-6.14-7.71-4.6-10.53,0,0,2.86,6.6,6.55,9.57S84,217.51,84,217.51s0,5.42-3.86,8.49c0,0,3.2,7.06,2.47,9.62,0,0,4.78,2.86,8-2.61,0,0,.09,4.9-8,4.83a43.08,43.08,0,0,1,0,8.66s7.87.77,10.12-2.85c0,0,.33,3.68-10.12,4.17,0,0-2.57,13.86-1.85,15"/><path class="cls-2" d="M977.74,237.65s10.85-17.23,13.48-33.33c0,0,7.57,32.7,12.56,33.33h-8s5.72,25.2,12.16,27.55H999s9.77,24.87,12.7,25.75H971.78s11-20.78,10.08-25.46H974s10.24-20.19,10.24-27.8Z"/><path class="cls-8" d="M99.8,188.8s7.32-11.62,9.09-22.48c0,0,5.1,22.05,8.48,22.48h-5.43s3.86,17,8.21,18.58h-6s6.59,16.77,8.56,17.37H95.78s7.39-14,6.8-17.18H97.25s6.91-13.62,6.91-18.75Z"/><path class="cls-2" d="M107.07,302.83s37.22,1.95,28.63-17.68-4-20.33-1.46-21.91,12.2-10.91,4.64-18.51-13.3-1.12-15.42-12-19.83-14.2-19.83-14.2-20.93-1-21.68,5.7-3.89,12.88,3.64,19.54,1.09,15.14,1.68,23.25,6.89,8.87,7.24,15.07-7.83,6-7.24,14.51S107.07,302.83,107.07,302.83Z"/><path class="cls-8" d="M170.63,246.11s19.7,1,15.15-9.35-2.1-10.76-.77-11.59,6.45-5.78,2.45-9.8-7-.59-8.16-6.34-10.49-7.51-10.49-7.51-11.07-.55-11.47,3-2.05,6.81,1.93,10.34.58,8,.89,12.3,3.64,4.69,3.83,8-4.14,3.18-3.83,7.68S170.63,246.11,170.63,246.11Z"/><path class="cls-12" d="M198.08,288.73s21.73,1.14,16.72-10.32-2.33-11.87-.86-12.79,7.12-6.37,2.71-10.81-7.76-.65-9-7-11.58-8.28-11.58-8.28-12.22-.61-12.66,3.32-2.27,7.52,2.13,11.41.64,8.84,1,13.58,4,5.17,4.23,8.79-4.57,3.51-4.23,8.48S198.08,288.73,198.08,288.73Z"/><path class="cls-3" d="M232.39,279.28s-3.21-19.31-1.95-18.8-16.2-11-14.2-18.39c0,0,5.57,9.37,9,10.21s0-10.21,0-10.21,4.1,9.35,3.42,11.06,1.16,3.24,1.16,3.24-.82-14.84.37-17.56c0,0-4.81-7.19-3.51-11.61,0,0,2,9.39,4,9.56,0,0,1.2-14.14,6.14-15.43,0,0-6.23,7-5.5,29,0,0,8.74.1,9.08-9.11,0,0,2.9,8.36-9,10.92,0,0,.17,12.61,1,14.32,0,0,3.43-.87,4-3.76a5,5,0,0,1-4,5.06s1.74,9.55,2.92,9.75"/><path class="cls-5" d="M109.06,309.84s1.22-32.23-17.88-46.6c0,0,16.68,4.11,20.44,30,0,0,5.14-39.85-9.22-51,0,0-10.52-13.2-7.89-18,0,0,4.91,11.3,11.22,16.38s11.52-8.41,11.52-8.41,0,9.29-6.61,14.55c0,0,5.48,12.09,4.23,16.47,0,0,8.19,4.9,13.72-4.47,0,0,.15,8.4-13.72,8.27,0,0,.9,8.94,0,14.84,0,0,13.47,1.33,17.33-4.89,0,0,.57,6.31-17.33,7.15,0,0-4.41,23.75-3.18,25.7"/><path class="cls-5" d="M171.69,249.82s.64-17-9.46-24.65c0,0,8.82,2.17,10.81,15.88,0,0,2.72-21.09-4.88-27,0,0-5.56-7-4.17-9.54,0,0,2.6,6,5.94,8.67s6.09-4.45,6.09-4.45,0,4.91-3.5,7.69c0,0,2.9,6.4,2.24,8.72,0,0,4.33,2.59,7.26-2.37,0,0,.08,4.45-7.26,4.38a39.93,39.93,0,0,1,0,7.85s7.13.7,9.17-2.59c0,0,.3,3.34-9.17,3.78,0,0-2.33,12.57-1.68,13.6"/><path class="cls-5" d="M199.24,292.82S200,274,188.8,265.62c0,0,9.74,2.4,11.93,17.52,0,0,3-23.27-5.38-29.76,0,0-6.14-7.71-4.6-10.53,0,0,2.86,6.6,6.55,9.57s6.72-4.91,6.72-4.91,0,5.42-3.86,8.49c0,0,3.2,7.06,2.47,9.62,0,0,4.78,2.86,8-2.61,0,0,.09,4.9-8,4.83a43.08,43.08,0,0,1,0,8.66s7.87.77,10.12-2.85c0,0,.33,3.68-10.12,4.17,0,0-2.57,13.86-1.85,15"/><path class="cls-8" d="M82.63,373.11s19.7,1,15.15-9.35S95.68,353,97,352.17s6.45-5.78,2.45-9.8-7-.59-8.16-6.34-10.49-7.51-10.49-7.51-11.07-.55-11.47,3-2,6.81,1.93,10.34.58,8,.89,12.3,3.64,4.69,3.83,8-4.14,3.18-3.83,7.68S82.63,373.11,82.63,373.11Z"/><path class="cls-13" d="M23.37,279.65s22.14,1.16,17-10.51-2.37-12.09-.87-13,7.25-6.49,2.76-11-7.91-.67-9.18-7.13-11.79-8.44-11.79-8.44-12.44-.62-12.89,3.39-2.32,7.66,2.16,11.62.65,9,1,13.83,4.1,5.27,4.31,9-4.66,3.57-4.31,8.63S23.37,279.65,23.37,279.65Z"/><path class="cls-3" d="M52.39,272.28s-3.21-19.31-2-18.8-16.2-11-14.2-18.39c0,0,5.57,9.37,9,10.21s0-10.21,0-10.21,4.1,9.35,3.42,11.06,1.16,3.24,1.16,3.24-.82-14.84.37-17.56c0,0-4.81-7.19-3.51-11.61,0,0,2,9.39,4,9.56,0,0,1.2-14.14,6.14-15.43,0,0-6.23,7-5.5,29,0,0,8.74.1,9.08-9.11,0,0,2.9,8.36-9,10.92,0,0,.17,12.61,1,14.32,0,0,3.43-.87,4-3.76a5,5,0,0,1-4,5.06s1.74,9.55,2.92,9.75"/><path class="cls-5" d="M83.69,376.82s.64-17.05-9.46-24.65c0,0,8.82,2.17,10.81,15.88,0,0,2.72-21.09-4.88-27,0,0-5.56-7-4.17-9.54,0,0,2.6,6,5.94,8.67S88,335.76,88,335.76s0,4.91-3.5,7.69c0,0,2.9,6.4,2.24,8.72,0,0,4.33,2.59,7.26-2.37,0,0,.08,4.45-7.26,4.38a39.93,39.93,0,0,1,0,7.85s7.13.7,9.17-2.59c0,0,.3,3.34-9.17,3.78,0,0-2.33,12.57-1.68,13.6"/><path class="cls-5" d="M24.55,283.82s.73-19.16-10.63-27.71c0,0,9.92,2.44,12.15,17.85,0,0,3.06-23.71-5.48-30.32,0,0-6.26-7.85-4.69-10.72,0,0,2.92,6.72,6.67,9.74s6.85-5,6.85-5,0,5.52-3.93,8.65c0,0,3.26,7.19,2.52,9.8,0,0,4.87,2.91,8.16-2.66,0,0,.08,5-8.16,4.92a44.69,44.69,0,0,1,0,8.82s8,.79,10.3-2.9c0,0,.34,3.75-10.3,4.25,0,0-2.62,14.12-1.89,15.28"/><path class="cls-13" d="M23.64,398.45s36.61,1.92,28.16-17.39-3.92-20-1.44-21.55,12-10.74,4.57-18.21-13.09-1.1-15.18-11.79-19.5-14-19.5-14-20.58-1-21.32,5.61-3.83,12.66,3.58,19.21,1.07,14.9,1.65,22.88,6.78,8.72,7.12,14.82-7.7,5.9-7.12,14.27S23.64,398.45,23.64,398.45Z"/><path class="cls-5" d="M25.6,405.34S26.79,373.65,8,359.51c0,0,16.41,4,20.1,29.52,0,0,5.06-39.2-9.07-50.14,0,0-10.34-13-7.76-17.73,0,0,4.84,11.11,11,16.11S33.65,329,33.65,329s.05,9.13-6.5,14.3c0,0,5.39,11.9,4.16,16.21,0,0,8.05,4.81,13.5-4.4,0,0,.14,8.26-13.5,8.14,0,0,.88,8.78,0,14.59,0,0,13.25,1.31,17-4.81,0,0,.56,6.21-17,7,0,0-4.34,23.36-3.13,25.28"/><path class="cls-14" d="M46.74,273.65s10.85-17.23,13.48-33.33c0,0,7.57,32.7,12.56,33.33h-8s5.72,25.2,12.16,27.55H68s9.77,24.87,12.7,25.75H40.78s11-20.78,10.08-25.46H43S53.2,281.3,53.2,273.69Z"/><rect class="cls-1" x="-0.67" y="0.98" width="1600" height="125"/><polyline class="cls-15" points="255.27 0.98 269.33 20.98 269.33 45.65 273.33 19.98 260.16 0.98"/><polyline class="cls-15" points="1601.63 67.98 1586.27 86.66 1567.33 86.66 1587.04 91.98 1601.63 74.48"/><polyline class="cls-15" points="384.45 125.98 392.33 113.98 399.33 106.98 396.33 92.98 402.33 107.98 395.33 112.98 391.33 118.98 391.72 125.98"/><polyline class="cls-15" points="1294.33 0.98 1275.43 20.25 1258.64 31.5 1265.84 53.98 1251.45 29.89 1268.23 21.86 1277.83 12.22 1276.89 0.98"/><polyline class="cls-15" points="746.16 46.65 739.33 28.98 746.33 7.98 742.83 27.31 749.33 34.98 749.33 46.65"/><polyline class="cls-15" points="928.58 126.53 921.77 120.5 921.77 111.48 916.33 103.66 916.33 89.98 918.66 101.11 925.66 111.28 923.33 118.9 932.87 126.53"/><polyline class="cls-15" points="1.33 103.45 4.79 99.3 9.97 99.3 14.47 95.98 22.33 95.98 15.93 97.4 10.09 101.67 5.71 100.25 1.33 106.07"/><polyline class="cls-15" points="557.33 58.98 512.43 46.65 470.46 58.98 444.51 58.98 467.7 63.48 498.33 57.98 524.02 55.06 558.81 72.73"/><polyline class="cls-15" points="219.31 125.98 245.33 95.98 255.27 72.73 286.71 72.73 302.33 67.98 275.69 81.98 255.27 87.19 255.27 100.8 244.58 109.48 240.04 125.98"/><polyline class="cls-15" points="1185.23 125.98 1135.14 72.73 1144.25 27.48 1140.83 7.98 1155.33 36.98 1147.65 53.98 1160.19 72.73 1168.12 91.81 1207.92 125.98"/><polygon class="cls-15" points="1363.22 126.53 1349.06 108.25 1353.32 98.47 1356.14 91.98 1349.06 74.93 1367.94 91.98 1363.22 100.73 1375.49 125.98 1363.22 126.53"/></svg>
