<svg xmlns="http://www.w3.org/2000/svg" width="1600" height="900" viewBox="0 0 1600 900"><defs><style>.cls-1{fill:#546b66;}.cls-2{fill:#04252b;}.cls-3{fill:#3a564f;}.cls-4{fill:#2b4f48;}.cls-5{fill:#617773;}.cls-6{fill:#4d4d4d;}.cls-7{fill:#0b5147;}.cls-8{fill:#011b21;}.cls-9{fill:#082825;}.cls-10{fill:#446661;}.cls-11{fill:#326058;}.cls-12{fill:#506661;}.cls-13{fill:#07182b;}.cls-14{fill:#333;}</style></defs><g id="_2" data-name="2"><path class="cls-1" d="M199.08,287.67s21.73,1.14,16.72-10.36-2.33-11.9-.86-12.83,7.12-6.39,2.71-10.84-7.76-.66-9-7-11.58-8.32-11.58-8.32-12.22-.61-12.66,3.34-2.27,7.55,2.13,11.45.64,8.87,1,13.62,4,5.19,4.23,8.82-4.57,3.52-4.23,8.5S199.08,287.67,199.08,287.67Z"/><path class="cls-2" d="M200.24,291.78s.71-18.88-10.44-27.3c0,0,9.74,2.41,11.93,17.58,0,0,3-23.34-5.38-29.85,0,0-6.14-7.74-4.6-10.57,0,0,2.86,6.62,6.55,9.6s6.72-4.93,6.72-4.93,0,5.44-3.86,8.52c0,0,3.2,7.09,2.47,9.65,0,0,4.78,2.87,8-2.62,0,0,.09,4.92-8,4.85a43.38,43.38,0,0,1,0,8.69s7.87.78,10.12-2.86c0,0,.33,3.69-10.12,4.18,0,0-2.57,13.91-1.85,15.06"/><path class="cls-3" d="M1251.11,207.51s13.31.7,10.24-6.35-1.42-7.3-.52-7.86,4.36-3.92,1.66-6.65-4.76-.4-5.52-4.3-7.09-5.09-7.09-5.09-7.49-.37-7.76,2-1.39,4.63,1.3,7,.39,5.43.6,8.34,2.47,3.18,2.6,5.41-2.81,2.15-2.6,5.21S1251.11,207.51,1251.11,207.51Z"/><path class="cls-2" d="M1251.82,210s.44-11.56-6.4-16.72c0,0,6,1.47,7.31,10.77,0,0,1.85-14.3-3.29-18.29,0,0-3.77-4.74-2.82-6.48,0,0,1.75,4.06,4,5.88s4.12-3,4.12-3a7.2,7.2,0,0,1-2.37,5.22s2,4.34,1.52,5.91c0,0,2.93,1.76,4.91-1.61,0,0,0,3-4.91,3a27,27,0,0,1,0,5.33s4.82.47,6.2-1.76c0,0,.2,2.27-6.2,2.57,0,0-1.58,8.52-1.14,9.22"/><path class="cls-4" d="M1193.63,227.91s19.7,1,15.15-9.38-2.1-10.79-.77-11.63,6.45-5.79,2.45-9.83-7-.59-8.16-6.36-10.49-7.53-10.49-7.53-11.07-.56-11.47,3-2,6.84,1.93,10.37.58,8,.89,12.35,3.64,4.71,3.83,8-4.14,3.18-3.83,7.7S1193.63,227.91,1193.63,227.91Z"/><path class="cls-2" d="M1194.69,231.63s.64-17.1-9.46-24.73c0,0,8.82,2.18,10.81,15.93,0,0,2.72-21.15-4.88-27.05,0,0-5.56-7-4.17-9.58,0,0,2.6,6,5.94,8.7s6.09-4.47,6.09-4.47,0,4.93-3.5,7.73c0,0,2.9,6.42,2.24,8.74,0,0,4.33,2.6,7.26-2.37,0,0,.08,4.45-7.26,4.39a40.12,40.12,0,0,1,0,7.87s7.13.71,9.17-2.59c0,0,.3,3.35-9.17,3.79,0,0-2.33,12.61-1.68,13.64"/><path class="cls-1" d="M1206.08,256.67s21.73,1.14,16.72-10.36-2.33-11.9-.86-12.83,7.12-6.39,2.71-10.84-7.76-.66-9-7-11.58-8.32-11.58-8.32-12.22-.61-12.66,3.34-2.27,7.55,2.13,11.45.64,8.87,1,13.62,4,5.19,4.23,8.82-4.57,3.52-4.23,8.5S1206.08,256.67,1206.08,256.67Z"/><path class="cls-2" d="M1207.24,260.78s.71-18.88-10.44-27.3c0,0,9.74,2.41,11.93,17.58,0,0,3-23.34-5.38-29.85,0,0-6.14-7.74-4.6-10.57,0,0,2.86,6.62,6.55,9.6s6.72-4.93,6.72-4.93,0,5.44-3.86,8.52c0,0,3.2,7.09,2.47,9.65,0,0,4.78,2.87,8-2.62,0,0,.09,4.92-8,4.85a43.38,43.38,0,0,1,0,8.69s7.87.78,10.12-2.86c0,0,.33,3.69-10.12,4.18,0,0-2.57,13.91-1.85,15.06"/><path class="cls-5" d="M130.87,232.07s20,1.06,15.4-9.54-2.14-11-.79-11.82,6.56-5.89,2.5-10-7.16-.6-8.3-6.47S129,186.59,129,186.59s-11.26-.56-11.67,3.08-2.09,7,2,10.54.59,8.17.91,12.55,3.7,4.79,3.89,8.13-4.21,3.24-3.89,7.83S130.87,232.07,130.87,232.07Z"/><path class="cls-2" d="M131.94,235.86s.65-17.39-9.62-25.15c0,0,9,2.22,11,16.2,0,0,2.77-21.51-5-27.51,0,0-5.65-7.13-4.24-9.73,0,0,2.64,6.1,6,8.84s6.19-4.54,6.19-4.54,0,5-3.55,7.85c0,0,2.94,6.53,2.27,8.89,0,0,4.41,2.64,7.38-2.41,0,0,.08,4.53-7.38,4.46a40.69,40.69,0,0,1,0,8s7.25.72,9.32-2.64c0,0,.31,3.41-9.32,3.86,0,0-2.37,12.81-1.71,13.87"/><path class="cls-6" d="M1484,264.6s-1.56-17,6.2-17,6.47,17,6.47,17"/><path class="cls-6" d="M1378,256.57s-1.56-17,6.2-17,6.47,17,6.47,17"/><path class="cls-6" d="M1306,254.56s-1.56-17,6.2-17,6.47,17,6.47,17"/><path class="cls-6" d="M1402.1,288.13s-3.26-35.57,13-35.55,13.49,35.55,13.49,35.55"/><path class="cls-6" d="M1315.1,285.12s-3.26-35.57,13-35.55,13.49,35.55,13.49,35.55"/><path class="cls-6" d="M1441,261.68s-2.53-28.18,10.06-28.16,10.48,28.16,10.48,28.16"/><path class="cls-6" d="M1497,278.73s-2.53-28.17,10.06-28.15,10.48,28.15,10.48,28.15"/><path class="cls-6" d="M1347,269.7s-2.53-28.17,10.06-28.15,10.48,28.15,10.48,28.15"/><path class="cls-5" d="M205,202.35s7.59-12.09,9.43-23.39c0,0,5.29,22.95,8.79,23.39h-5.63s4,17.69,8.51,19.33h-6.22s6.83,17.46,8.88,18.07H200.78s7.67-14.58,7.05-17.86H202.3s7.17-14.17,7.17-19.51Z"/><path class="cls-7" d="M1464.27,593.45s115.58-26.06,72.45-78.94-29.64-59-23.29-66,28-44-1.68-60.84-41.66,8-57.49-23.5-72.85-26.52-72.85-26.52-64.93,14.82-61.46,36.17-.84,42.88,27.9,56.85,16.35,45.55,25.11,70,28.69,21.29,35.09,40-18.81,25.17-9.71,50.8S1464.27,593.45,1464.27,593.45Z"/><path class="cls-2" d="M1476.38,613.25s-23.94-100-94.72-127.66c0,0,54.59-1.75,88.31,74.54,0,0-18.46-126.79-72-148.55,0,0-43.53-31.49-39.61-48.57,0,0,24.72,30.46,48.39,40.63s28-35.74,28-35.74,8.14,28.47-7.73,50.35c0,0,27.14,32.41,27.08,46.94,0,0,29.27,8,38.16-25.56,0,0,7.64,25.67-34.9,37.23,0,0,10.41,26.65,12.73,45.55,0,0,42.38-7.52,48.84-29.92,0,0,7.16,18.87-46.9,36.86,0,0,6.9,76.7,12.33,81.64"/><path class="cls-8" d="M1440.37,755.07s-49.81-92.75-42.5-92.35-101.38-28-104-68.93c0,0,44.51,38,63.32,36.37s-17.72-52-17.72-52,37,40.5,36.53,50.37S1387.52,643,1387.52,643s-29.94-74.12-28.61-90.1c0,0-36.91-28.21-38-53,0,0,26.36,44.37,37,41.68,0,0-18.48-74.12,4.39-89.27,0,0-19.41,46.65,22.34,157.1,0,0,44.56-14.68,30.31-62.17,0,0,29.22,37.51-26.94,71.32,0,0,22.77,64,30.06,71.17,0,0,15.9-10.41,13.87-26.15,0,0,8.12,19.78-11.62,32.76,0,0,25.44,45.59,31.75,44.59"/><path class="cls-9" d="M1600,845s-289.68-1.16-269.75-106.9,98.94-28.34,98.44-102.15-57.17-60.05-54.83-85.49,66.46-33,77.39,13.4c0,0,56,50.44,38.49-71.45,0,0-107.3-42.12-87.92-97.56s45.37-66.48,72.37-68.48,125,33,125.5,94.27"/><path class="cls-10" d="M1599.71,316.92s-26.13-.11-24.33-9.65,8.92-2.55,8.88-9.21-5.16-5.42-5-7.71,6-3,7,1.2c0,0,5.06,4.55,3.47-6.44,0,0-9.67-3.8-7.93-8.8s4.1-6,6.53-6.18,11.28,3,11.32,8.5"/><path class="cls-11" d="M191.07,347s37.22,2,28.63-17.73-4-20.4-1.46-22,12.2-10.95,4.64-18.58-13.3-1.12-15.42-12-19.83-14.24-19.83-14.24-20.93-1.05-21.68,5.72-3.89,12.92,3.64,19.6,1.09,15.19,1.68,23.33,6.89,8.89,7.24,15.11-7.83,6-7.24,14.56S191.07,347,191.07,347Z"/><path class="cls-5" d="M59.63,230.87s19.7,1,15.15-9.39-2.1-10.79-.77-11.62,6.45-5.8,2.45-9.83-7-.59-8.16-6.36-10.49-7.54-10.49-7.54-11.07-.55-11.47,3-2.05,6.83,1.93,10.37.58,8,.89,12.34,3.64,4.71,3.83,8-4.14,3.19-3.83,7.7S59.63,230.87,59.63,230.87Z"/><path class="cls-12" d="M79.08,257.57s21.73,1.14,16.72-10.35-2.33-11.91-.86-12.84,7.12-6.39,2.71-10.84-7.76-.65-9-7-11.58-8.31-11.58-8.31-12.22-.61-12.66,3.34-2.27,7.54,2.13,11.44.64,8.87,1,13.62,4,5.19,4.23,8.82-4.57,3.52-4.23,8.51S79.08,257.57,79.08,257.57Z"/><path class="cls-8" d="M1458.08,900s55.63-96.56,30.63-171.8-47.87-141.53-47.87-141.53,30.79,98.14,54.33,95.75,59.67-170.82,13.1-219c0,0-53.68-41.81-43.62-89.15,0,0,24.08,69,48.57,56,0,0,21.8-22.69,17.64-56,0,0,4.21,62,.53,73,0,0,24.57,122.26,9.45,139.39s44.18-.63,42-44.43c0,0,3.85,60.55-47.15,69.58l-23.83,115.77s82.83-27.49,84.83-68.62c0,0-5,66.22-88,84.27,0,0-22.81,146-14.4,156.76"/><path class="cls-8" d="M153.39,263.14s-3.21-19.37-1.95-18.86-16.2-11.06-14.2-18.45c0,0,5.57,9.4,9,10.25s0-10.25,0-10.25,4.1,9.39,3.42,11.1,1.16,3.25,1.16,3.25-.82-14.89.37-17.62c0,0-4.81-7.21-3.51-11.65,0,0,2,9.42,4,9.59,0,0,1.2-14.18,6.14-15.47,0,0-6.23,7.05-5.5,29.05,0,0,8.74.11,9.08-9.13,0,0,2.9,8.38-9,11,0,0,.17,12.66,1,14.37,0,0,3.43-.87,4-3.77a5,5,0,0,1-4,5.07s1.74,9.58,2.92,9.79"/><path class="cls-13" d="M1586.91,321.78s5-8.71,2.76-15.49-4.32-12.77-4.32-12.77,2.78,8.85,4.9,8.64,5.39-15.41,1.19-19.76c0,0-4.85-3.77-3.94-8,0,0,2.17,6.22,4.38,5.05a6.59,6.59,0,0,0,1.59-5.05s.38,5.59,0,6.59c0,0,2.22,11,.85,12.57s4-.06,3.79-4c0,0,.35,5.46-4.25,6.28l-2.15,10.44s7.47-2.48,7.65-6.19c0,0-.45,6-7.94,7.6,0,0-2,13.17-1.29,14.14"/><path class="cls-2" d="M193.06,354s1.22-32.33-17.88-46.74c0,0,16.68,4.12,20.44,30.1,0,0,5.14-40-9.22-51.13,0,0-10.52-13.25-7.89-18.09,0,0,4.91,11.33,11.22,16.43s11.52-8.44,11.52-8.44.05,9.32-6.61,14.6c0,0,5.48,12.13,4.23,16.53,0,0,8.19,4.91,13.72-4.49,0,0,.15,8.42-13.72,8.3,0,0,.9,9,0,14.88,0,0,13.47,1.34,17.33-4.9,0,0,.57,6.33-17.33,7.17,0,0-4.41,23.82-3.18,25.78"/><path class="cls-2" d="M60.69,234.59s.64-17.11-9.46-24.73c0,0,8.82,2.18,10.81,15.92,0,0,2.72-21.15-4.88-27.05,0,0-5.56-7-4.17-9.57,0,0,2.6,6,5.94,8.69S65,193.39,65,193.39s0,4.93-3.5,7.72c0,0,2.9,6.42,2.24,8.75,0,0,4.33,2.59,7.26-2.38,0,0,.08,4.46-7.26,4.39a40.21,40.21,0,0,1,0,7.88s7.13.7,9.17-2.6c0,0,.3,3.35-9.17,3.8,0,0-2.33,12.6-1.68,13.64"/><path class="cls-2" d="M80.24,261.68S81,242.8,69.8,234.38c0,0,9.74,2.41,11.93,17.58,0,0,3-23.34-5.38-29.85,0,0-6.14-7.74-4.6-10.56,0,0,2.86,6.61,6.55,9.59S85,216.21,85,216.21s0,5.44-3.86,8.52c0,0,3.2,7.09,2.47,9.65,0,0,4.78,2.87,8-2.62,0,0,.09,4.92-8,4.85a43.38,43.38,0,0,1,0,8.69s7.87.78,10.12-2.86c0,0,.33,3.69-10.12,4.18,0,0-2.57,13.91-1.85,15.06"/><path class="cls-10" d="M90.8,189.41s7.32-11.66,9.09-22.55c0,0,5.1,22.13,8.48,22.55h-5.43s3.86,17.06,8.21,18.64h-6s6.59,16.83,8.56,17.43H86.78s7.39-14.06,6.8-17.23H88.25s6.91-13.67,6.91-18.81Z"/><path class="cls-3" d="M108.07,301.81s37.22,2,28.63-17.73-4-20.4-1.46-22,12.2-11,4.64-18.58-13.3-1.12-15.42-12-19.83-14.24-19.83-14.24S83.7,216.22,83,223s-3.89,12.92,3.64,19.6,1.09,15.19,1.68,23.33,6.89,8.9,7.24,15.12-7.83,6-7.24,14.56S108.07,301.81,108.07,301.81Z"/><path class="cls-10" d="M267.3,305.81s-37.22,2-28.63-17.73,4-20.4,1.46-22-12.2-11-4.64-18.58,13.3-1.12,15.43-12,19.82-14.24,19.82-14.24,20.93-1,21.68,5.72,3.89,12.92-3.64,19.6-1.09,15.19-1.68,23.33-6.89,8.9-7.24,15.12,7.83,6,7.24,14.56S267.3,305.81,267.3,305.81Z"/><path class="cls-4" d="M171.63,244.91s19.7,1,15.15-9.38-2.1-10.79-.77-11.63,6.45-5.79,2.45-9.83-7-.59-8.16-6.36-10.49-7.53-10.49-7.53-11.07-.56-11.47,3-2.05,6.84,1.93,10.37.58,8,.89,12.35,3.64,4.71,3.83,8-4.14,3.18-3.83,7.7S171.63,244.91,171.63,244.91Z"/><path class="cls-8" d="M233.39,278.19s-3.21-19.37-1.95-18.86-16.2-11.07-14.2-18.45c0,0,5.57,9.4,9,10.24s0-10.24,0-10.24,4.1,9.38,3.42,11.09,1.16,3.25,1.16,3.25-.82-14.88.37-17.62c0,0-4.81-7.2-3.51-11.64,0,0,2,9.42,4,9.59,0,0,1.2-14.19,6.14-15.48,0,0-6.23,7.05-5.5,29.06,0,0,8.74.11,9.08-9.13,0,0,2.9,8.38-9,10.95,0,0,.17,12.66,1,14.37,0,0,3.43-.88,4-3.78a5.05,5.05,0,0,1-4,5.08s1.74,9.58,2.92,9.78"/><path class="cls-2" d="M110.06,308.85s1.22-32.33-17.88-46.75c0,0,16.68,4.12,20.44,30.11,0,0,5.14-40-9.22-51.14,0,0-10.52-13.25-7.89-18.09,0,0,4.91,11.34,11.22,16.44S118.25,231,118.25,231s0,9.31-6.61,14.59c0,0,5.48,12.13,4.23,16.53,0,0,8.19,4.91,13.72-4.49,0,0,.15,8.43-13.72,8.3,0,0,.9,9,0,14.88,0,0,13.47,1.34,17.33-4.9,0,0,.57,6.33-17.33,7.17,0,0-4.41,23.83-3.18,25.79"/><path class="cls-2" d="M265.32,314.85s-1.22-32.33,17.88-46.75c0,0-16.68,4.12-20.44,30.11,0,0-5.15-40,9.22-51.14,0,0,10.52-13.25,7.89-18.09,0,0-4.91,11.34-11.22,16.44S257.13,237,257.13,237s-.05,9.31,6.61,14.59c0,0-5.48,12.13-4.23,16.53,0,0-8.19,4.91-13.72-4.49,0,0-.15,8.43,13.72,8.3,0,0-.9,9,0,14.88,0,0-13.47,1.34-17.33-4.9,0,0-.57,6.33,17.33,7.17,0,0,4.41,23.83,3.18,25.79"/><path class="cls-2" d="M172.69,248.63s.64-17.1-9.46-24.73c0,0,8.82,2.18,10.81,15.93,0,0,2.72-21.15-4.88-27.05,0,0-5.56-7-4.17-9.58,0,0,2.6,6,5.94,8.7s6.09-4.47,6.09-4.47,0,4.93-3.5,7.73c0,0,2.9,6.42,2.24,8.74,0,0,4.33,2.6,7.26-2.37,0,0,.08,4.45-7.26,4.39a40.12,40.12,0,0,1,0,7.87s7.13.71,9.17-2.59c0,0,.3,3.35-9.17,3.79,0,0-2.33,12.61-1.68,13.64"/><path class="cls-3" d="M34.37,255.56s22.14,1.17,17-10.55-2.37-12.13-.87-13.07,7.25-6.51,2.76-11.05-7.91-.66-9.18-7.15-11.79-8.47-11.79-8.47-12.44-.62-12.89,3.4-2.32,7.69,2.16,11.66.65,9,1,13.88,4.1,5.29,4.31,9-4.66,3.58-4.31,8.66S34.37,255.56,34.37,255.56Z"/><path class="cls-8" d="M53.39,271.16s-3.21-19.37-2-18.85-16.2-11.07-14.2-18.45c0,0,5.57,9.39,9,10.24s0-10.24,0-10.24,4.1,9.38,3.42,11.09,1.16,3.25,1.16,3.25-.82-14.88.37-17.62c0,0-4.81-7.21-3.51-11.64,0,0,2,9.42,4,9.59,0,0,1.2-14.19,6.14-15.48,0,0-6.23,7-5.5,29.06,0,0,8.74.1,9.08-9.14,0,0,2.9,8.39-9,10.95,0,0,.17,12.66,1,14.37,0,0,3.43-.87,4-3.77a5,5,0,0,1-4,5.07s1.74,9.58,2.92,9.79"/><path class="cls-2" d="M35.55,259.75s.73-19.23-10.63-27.81c0,0,9.92,2.45,12.15,17.91,0,0,3.06-23.78-5.48-30.41,0,0-6.26-7.89-4.69-10.77,0,0,2.92,6.75,6.67,9.78s6.85-5,6.85-5,0,5.54-3.93,8.68c0,0,3.26,7.22,2.52,9.83,0,0,4.87,2.92,8.16-2.67,0,0,.08,5-8.16,4.94a45,45,0,0,1,0,8.85s8,.8,10.3-2.91c0,0,.34,3.76-10.3,4.26,0,0-2.62,14.17-1.89,15.34"/><path class="cls-3" d="M22.64,340.74s36.61,1.93,28.16-17.44-3.92-20.06-1.44-21.62,12-10.77,4.57-18.27-13.09-1.1-15.18-11.82-19.5-14-19.5-14-20.58-1-21.32,5.62-3.83,12.71,3.58,19.28,1.07,14.94,1.65,22.95,6.78,8.75,7.12,14.87-7.7,5.92-7.12,14.32S22.64,340.74,22.64,340.74Z"/><path class="cls-2" d="M24.6,347.66s1.19-31.8-17.59-46c0,0,16.41,4.06,20.1,29.61,0,0,5.06-39.32-9.07-50.29,0,0-10.34-13-7.76-17.8,0,0,4.84,11.15,11,16.17s11.33-8.3,11.33-8.3.05,9.16-6.5,14.35c0,0,5.39,11.94,4.16,16.26,0,0,8.05,4.83,13.5-4.42,0,0,.14,8.29-13.5,8.17,0,0,.88,8.82,0,14.64,0,0,13.25,1.31,17-4.82,0,0,.56,6.22-17,7.05,0,0-4.34,23.43-3.13,25.36"/><path class="cls-5" d="M149.73,352.32s-44.13,2.33-33.94-21,4.72-24.18,1.73-26.06-14.46-13-5.5-22,15.77-1.33,18.29-14.25,23.5-16.89,23.5-16.89,24.81-1.24,25.71,6.78,4.61,15.32-4.31,23.24-1.3,18-2,27.67-8.17,10.54-8.59,17.91,9.29,7.15,8.59,17.27S149.73,352.32,149.73,352.32Z"/><path class="cls-2" d="M147.37,360.66s-1.44-38.33,21.21-55.43c0,0-19.79,4.89-24.24,35.7,0,0-6.1-47.41,10.93-60.63,0,0,12.48-15.71,9.35-21.45,0,0-5.82,13.44-13.3,19.49s-13.65-10-13.65-10-.06,11.05,7.83,17.31c0,0-6.49,14.38-5,19.59,0,0-9.71,5.83-16.27-5.32,0,0-.17,10,16.27,9.85,0,0-1.07,10.62,0,17.64,0,0-16,1.58-20.55-5.81,0,0-.67,7.5,20.55,8.5,0,0,5.22,28.25,3.77,30.57"/><path class="cls-4" d="M47.74,272.54s10.85-17.29,13.48-33.44c0,0,7.57,32.81,12.56,33.44h-8s5.72,25.29,12.16,27.64H69s9.77,24.95,12.7,25.84H41.78s11-20.85,10.08-25.55H44S54.2,280.21,54.2,272.58Z"/><path class="cls-4" d="M5.72,207.61s5.36-8.53,6.66-16.51c0,0,3.74,16.2,6.21,16.51h-4s2.82,12.49,6,13.65H16.23S21.05,233.59,22.5,234H2.78s5.41-10.29,5-12.61H3.86s5.06-10,5.06-13.78Z"/><path class="cls-5" d="M417.87,266.07s20,1.06,15.4-9.54-2.14-11-.79-11.82,6.56-5.89,2.5-10-7.16-.6-8.3-6.47S416,220.59,416,220.59s-11.26-.56-11.67,3.08-2.09,7,2,10.54.59,8.17.91,12.55,3.7,4.79,3.89,8.13-4.21,3.24-3.89,7.83S417.87,266.07,417.87,266.07Z"/><path class="cls-2" d="M418.94,269.86s.65-17.39-9.62-25.15c0,0,9,2.22,11,16.2,0,0,2.77-21.51-5-27.51,0,0-5.65-7.13-4.24-9.73,0,0,2.64,6.1,6,8.84s6.19-4.54,6.19-4.54,0,5-3.55,7.85c0,0,2.94,6.53,2.27,8.89,0,0,4.41,2.64,7.38-2.41,0,0,.08,4.53-7.38,4.46a40.69,40.69,0,0,1,0,8s7.25.72,9.32-2.64c0,0,.31,3.41-9.32,3.86,0,0-2.37,12.81-1.71,13.87"/><path class="cls-5" d="M492,236.35s7.59-12.09,9.43-23.39c0,0,5.29,22.95,8.79,23.39h-5.63s4,17.69,8.51,19.33h-6.22s6.83,17.46,8.88,18.07H487.78s7.67-14.58,7.05-17.86H489.3s7.17-14.17,7.17-19.51Z"/><path class="cls-5" d="M346.63,264.87s19.7,1,15.15-9.39-2.1-10.79-.77-11.62,6.45-5.8,2.45-9.83-7-.59-8.16-6.36-10.49-7.54-10.49-7.54-11.07-.55-11.47,3-2,6.83,1.93,10.37.58,8,.89,12.34,3.64,4.71,3.83,8-4.14,3.19-3.83,7.7S346.63,264.87,346.63,264.87Z"/><path class="cls-12" d="M366.08,291.57s21.73,1.14,16.72-10.35-2.33-11.91-.86-12.84,7.12-6.39,2.71-10.84-7.76-.65-9-7-11.58-8.31-11.58-8.31-12.22-.61-12.66,3.34-2.27,7.54,2.13,11.44.64,8.87,1,13.62,4,5.19,4.23,8.82-4.57,3.52-4.23,8.51S366.08,291.57,366.08,291.57Z"/><path class="cls-8" d="M440.39,297.14s-3.21-19.37-1.95-18.86-16.2-11.06-14.2-18.45c0,0,5.57,9.4,9,10.25s0-10.25,0-10.25,4.1,9.39,3.42,11.1,1.16,3.25,1.16,3.25-.82-14.89.37-17.62c0,0-4.81-7.21-3.51-11.65,0,0,2,9.42,4,9.59,0,0,1.2-14.18,6.14-15.47,0,0-6.23,7.05-5.5,29,0,0,8.74.11,9.08-9.13,0,0,2.9,8.38-9,10.95,0,0,.17,12.66,1,14.37,0,0,3.43-.87,4-3.77a5,5,0,0,1-4,5.07s1.74,9.58,2.92,9.79"/><path class="cls-2" d="M347.69,268.59s.64-17.11-9.46-24.73c0,0,8.82,2.18,10.81,15.92,0,0,2.72-21.15-4.88-27,0,0-5.56-7-4.17-9.57,0,0,2.6,6,5.94,8.69s6.09-4.46,6.09-4.46,0,4.93-3.5,7.72c0,0,2.9,6.42,2.24,8.75,0,0,4.33,2.59,7.26-2.38,0,0,.08,4.46-7.26,4.39a40.21,40.21,0,0,1,0,7.88s7.13.7,9.17-2.6c0,0,.3,3.35-9.17,3.8,0,0-2.33,12.6-1.68,13.64"/><path class="cls-2" d="M367.24,295.68s.71-18.88-10.44-27.3c0,0,9.74,2.41,11.93,17.58,0,0,3-23.34-5.38-29.85,0,0-6.14-7.74-4.6-10.56,0,0,2.86,6.61,6.55,9.59s6.72-4.93,6.72-4.93,0,5.44-3.86,8.52c0,0,3.2,7.09,2.47,9.65,0,0,4.78,2.87,8-2.62,0,0,.09,4.92-8,4.85a43.38,43.38,0,0,1,0,8.69s7.87.78,10.12-2.86c0,0,.33,3.69-10.12,4.18,0,0-2.57,13.91-1.85,15.06"/><path class="cls-10" d="M377.8,223.41s7.32-11.66,9.09-22.55c0,0,5.1,22.13,8.48,22.55h-5.43s3.86,17.06,8.21,18.64h-6s6.59,16.83,8.56,17.43H373.78s7.39-14.06,6.8-17.23h-5.33s6.91-13.67,6.91-18.81Z"/><path class="cls-10" d="M559,225.05s5.91-9.4,7.34-18.19c0,0,4.11,17.84,6.83,18.19h-4.37s3.11,13.75,6.61,15h-4.84s5.32,13.57,6.91,14H555.78s6-11.34,5.48-13.89H557s5.57-11,5.57-15.17Z"/><path class="cls-3" d="M395.07,335.81s37.22,2,28.63-17.73-4-20.4-1.46-22,12.2-11,4.64-18.58-13.3-1.12-15.42-12-19.83-14.24-19.83-14.24-20.93-1-21.68,5.72-3.89,12.92,3.64,19.6,1.09,15.19,1.68,23.33,6.89,8.9,7.24,15.12-7.83,6-7.24,14.56S395.07,335.81,395.07,335.81Z"/><path class="cls-4" d="M458.63,278.91s19.7,1,15.15-9.38-2.1-10.79-.77-11.63,6.45-5.79,2.45-9.83-7-.59-8.16-6.36-10.49-7.53-10.49-7.53-11.07-.56-11.47,3-2,6.84,1.93,10.37.58,8,.89,12.35,3.64,4.71,3.83,8-4.14,3.18-3.83,7.7S458.63,278.91,458.63,278.91Z"/><path class="cls-8" d="M520.39,312.19s-3.21-19.37-1.95-18.86-16.2-11.07-14.2-18.45c0,0,5.57,9.4,9,10.24s0-10.24,0-10.24,4.1,9.38,3.42,11.09,1.16,3.25,1.16,3.25-.82-14.88.37-17.62c0,0-4.81-7.2-3.51-11.64,0,0,2,9.42,4,9.59,0,0,1.2-14.19,6.14-15.48,0,0-6.23,7.05-5.5,29.06,0,0,8.74.11,9.08-9.13,0,0,2.9,8.38-9,10.95,0,0,.17,12.66,1,14.37,0,0,3.43-.88,4-3.78a5.05,5.05,0,0,1-4,5.08s1.74,9.58,2.92,9.78"/><path class="cls-2" d="M397.06,342.85s1.22-32.33-17.88-46.75c0,0,16.68,4.12,20.44,30.11,0,0,5.14-40-9.22-51.14,0,0-10.52-13.25-7.89-18.09,0,0,4.91,11.34,11.22,16.44S405.25,265,405.25,265s.05,9.31-6.61,14.59c0,0,5.48,12.13,4.23,16.53,0,0,8.19,4.91,13.72-4.49,0,0,.15,8.43-13.72,8.3,0,0,.9,9,0,14.88,0,0,13.47,1.34,17.33-4.9,0,0,.57,6.33-17.33,7.17,0,0-4.41,23.83-3.18,25.79"/><path class="cls-2" d="M459.69,282.63s.64-17.1-9.46-24.73c0,0,8.82,2.18,10.81,15.93,0,0,2.72-21.15-4.88-27,0,0-5.56-7-4.17-9.58,0,0,2.6,6,5.94,8.7s6.09-4.47,6.09-4.47,0,4.93-3.5,7.73c0,0,2.9,6.42,2.24,8.74,0,0,4.33,2.6,7.26-2.37,0,0,.08,4.45-7.26,4.39a40.12,40.12,0,0,1,0,7.87s7.13.71,9.17-2.59c0,0,.3,3.35-9.17,3.79,0,0-2.33,12.61-1.68,13.64"/><path class="cls-3" d="M321.37,289.56s22.14,1.17,17-10.55-2.37-12.13-.87-13.07,7.25-6.51,2.76-11.05-7.91-.66-9.18-7.15-11.79-8.47-11.79-8.47-12.44-.62-12.89,3.4-2.32,7.69,2.16,11.66.65,9,1,13.88,4.1,5.29,4.31,9-4.66,3.58-4.31,8.66S321.37,289.56,321.37,289.56Z"/><path class="cls-8" d="M340.39,305.16s-3.21-19.37-1.95-18.85-16.2-11.07-14.2-18.45c0,0,5.57,9.39,9,10.24s0-10.24,0-10.24,4.1,9.38,3.42,11.09,1.16,3.25,1.16,3.25-.82-14.88.37-17.62c0,0-4.81-7.21-3.51-11.64,0,0,2,9.42,4,9.59,0,0,1.2-14.19,6.14-15.48,0,0-6.23,7-5.5,29.06,0,0,8.74.1,9.08-9.14,0,0,2.9,8.39-9,10.95,0,0,.17,12.66,1,14.37,0,0,3.43-.87,4-3.77a5,5,0,0,1-4,5.07s1.74,9.58,2.92,9.79"/><path class="cls-2" d="M322.55,293.75s.73-19.23-10.63-27.81c0,0,9.92,2.45,12.15,17.91,0,0,3.06-23.78-5.48-30.41,0,0-6.26-7.89-4.69-10.77,0,0,2.92,6.75,6.67,9.78s6.85-5,6.85-5,0,5.54-3.93,8.68c0,0,3.26,7.22,2.52,9.83,0,0,4.87,2.92,8.16-2.67,0,0,.08,5-8.16,4.94a45,45,0,0,1,0,8.85s8,.8,10.3-2.91c0,0,.34,3.76-10.3,4.26,0,0-2.62,14.17-1.89,15.34"/><path class="cls-3" d="M535.37,264.56s22.14,1.17,17-10.55-2.37-12.13-.87-13.07,7.25-6.51,2.76-11.05-7.91-.66-9.18-7.15-11.79-8.47-11.79-8.47-12.44-.62-12.89,3.4-2.32,7.69,2.16,11.66.65,9,1,13.88,4.1,5.29,4.31,9-4.66,3.58-4.31,8.66S535.37,264.56,535.37,264.56Z"/><path class="cls-2" d="M536.55,268.75s.73-19.23-10.63-27.81c0,0,9.92,2.45,12.15,17.91,0,0,3.06-23.78-5.48-30.41,0,0-6.26-7.89-4.69-10.77,0,0,2.92,6.75,6.67,9.78s6.85-5,6.85-5,0,5.54-3.93,8.68c0,0,3.26,7.22,2.52,9.83,0,0,4.87,2.92,8.16-2.67,0,0,.08,5-8.16,4.94a45,45,0,0,1,0,8.85s8,.8,10.3-2.91c0,0,.34,3.76-10.3,4.26,0,0-2.62,14.17-1.89,15.34"/><path class="cls-3" d="M302.64,348.74s36.61,1.93,28.16-17.44-3.92-20.06-1.44-21.62,12-10.77,4.57-18.27-13.09-1.1-15.18-11.82-19.5-14-19.5-14-20.58-1-21.32,5.62-3.83,12.71,3.58,19.28,1.07,14.94,1.65,22.95,6.78,8.75,7.12,14.87-7.7,5.92-7.12,14.32S302.64,348.74,302.64,348.74Z"/><path class="cls-2" d="M306.6,362.66s1.19-31.8-17.59-46c0,0,16.41,4.06,20.1,29.61,0,0,5.06-39.32-9.07-50.29,0,0-10.34-13-7.76-17.8,0,0,4.84,11.15,11,16.17s11.33-8.3,11.33-8.3.05,9.16-6.5,14.35c0,0,5.39,11.94,4.16,16.26,0,0,8.05,4.83,13.5-4.42,0,0,.14,8.29-13.5,8.17,0,0,.88,8.82,0,14.64,0,0,13.25,1.31,17-4.82,0,0,.56,6.22-17,7.05,0,0-4.34,23.43-3.13,25.36"/><path class="cls-5" d="M1153.87,212.07s20,1.06,15.4-9.54-2.14-11-.79-11.82,6.56-5.89,2.5-10-7.16-.6-8.3-6.47-10.66-7.66-10.66-7.66-11.26-.56-11.67,3.08-2.09,7,2,10.54.59,8.17.91,12.55,3.7,4.79,3.89,8.13-4.21,3.24-3.89,7.83S1153.87,212.07,1153.87,212.07Z"/><path class="cls-2" d="M1154.94,215.86s.65-17.39-9.62-25.15c0,0,9,2.22,11,16.2,0,0,2.77-21.51-5-27.51,0,0-5.65-7.13-4.24-9.73,0,0,2.64,6.1,6,8.84s6.19-4.54,6.19-4.54,0,5-3.55,7.85c0,0,2.94,6.53,2.27,8.89,0,0,4.41,2.64,7.38-2.41,0,0,.08,4.53-7.38,4.46a40.69,40.69,0,0,1,0,8s7.25.72,9.32-2.64c0,0,.31,3.41-9.32,3.86,0,0-2.37,12.81-1.71,13.87"/><path class="cls-5" d="M1217.57,191.63s5.09-8.1,6.33-15.67c0,0,3.54,15.38,5.88,15.67H1226s2.68,11.86,5.7,13h-4.17s4.58,11.7,6,12.11h-18.72s5.14-9.77,4.73-12h-3.71s4.8-9.5,4.8-13.08Z"/><path class="cls-11" d="M1230.56,275.5s23.82,1.25,18.33-11.35-2.55-13.06-.94-14.07,7.81-7,3-11.89-8.51-.71-9.87-7.69-12.69-9.11-12.69-9.11-13.39-.67-13.87,3.66-2.49,8.26,2.32,12.54.7,9.72,1.08,14.93,4.41,5.7,4.64,9.68-5,3.85-4.64,9.31S1230.56,275.5,1230.56,275.5Z"/><path class="cls-8" d="M1176.39,243.14s-3.21-19.37-2-18.86-16.2-11.06-14.2-18.45c0,0,5.57,9.4,9,10.25s0-10.25,0-10.25,4.1,9.39,3.42,11.1,1.16,3.25,1.16,3.25-.82-14.89.37-17.62c0,0-4.81-7.21-3.51-11.65,0,0,2,9.42,4,9.59,0,0,1.2-14.18,6.14-15.47,0,0-6.23,7.05-5.5,29.05,0,0,8.74.11,9.08-9.13,0,0,2.9,8.38-9,11,0,0,.17,12.66,1,14.37,0,0,3.43-.87,4-3.77a5,5,0,0,1-4,5.07s1.74,9.58,2.92,9.79"/><path class="cls-2" d="M1231.84,280s.78-20.69-11.45-29.92c0,0,10.68,2.64,13.08,19.27,0,0,3.3-25.59-5.9-32.72,0,0-6.73-8.48-5-11.58,0,0,3.14,7.25,7.18,10.52s7.37-5.41,7.37-5.41,0,6-4.23,9.34c0,0,3.5,7.77,2.7,10.58,0,0,5.24,3.15,8.79-2.87,0,0,.09,5.39-8.79,5.31a47.68,47.68,0,0,1,0,9.53s8.63.85,11.09-3.14c0,0,.37,4-11.09,4.59,0,0-2.82,15.25-2,16.5"/><path class="cls-10" d="M1271,176.05s5.91-9.4,7.34-18.19c0,0,4.11,17.84,6.83,18.19h-4.37s3.11,13.75,6.61,15h-4.84s5.32,13.57,6.91,14h-21.72s6-11.34,5.48-13.89H1269s5.57-11,5.57-15.17Z"/><path class="cls-3" d="M1132.76,252.7s25.73,1.36,19.8-12.26-2.76-14.1-1-15.2,8.44-7.57,3.21-12.84-9.19-.77-10.66-8.31-13.71-9.85-13.71-9.85-14.47-.72-15,4-2.69,8.93,2.52,13.55.75,10.5,1.16,16.13,4.76,6.15,5,10.45-5.42,4.16-5,10.07S1132.76,252.7,1132.76,252.7Z"/><path class="cls-10" d="M1263.71,240.29s-19.39,1-14.92-9.24,2.08-10.63.77-11.45-6.36-5.71-2.42-9.68,6.93-.58,8-6.27,10.34-7.42,10.34-7.42,10.9-.54,11.29,3,2,6.73-1.89,10.22-.57,7.91-.88,12.16-3.59,4.63-3.77,7.87,4.08,3.14,3.77,7.59S1263.71,240.29,1263.71,240.29Z"/><path class="cls-8" d="M1240.85,229s-2.32-14-1.41-13.6-11.68-8-10.25-13.32c0,0,4,6.78,6.48,7.4s0-7.4,0-7.4,3,6.77,2.47,8,.84,2.34.84,2.34-.6-10.73.27-12.71c0,0-3.48-5.2-2.54-8.4,0,0,1.43,6.8,2.9,6.92,0,0,.87-10.24,4.43-11.17,0,0-4.49,5.09-4,21a6.49,6.49,0,0,0,6.55-6.59s2.09,6.05-6.52,7.9c0,0,.12,9.13.74,10.37,0,0,2.47-.64,2.89-2.73a3.64,3.64,0,0,1-2.89,3.66s1.26,6.92,2.1,7.06"/><path class="cls-2" d="M1262.68,245s-.64-16.85,9.32-24.36c0,0-8.7,2.15-10.65,15.69,0,0-2.69-20.84,4.8-26.65,0,0,5.48-6.9,4.11-9.42,0,0-2.56,5.9-5.85,8.56s-6-4.4-6-4.4,0,4.86,3.45,7.61c0,0-2.86,6.32-2.21,8.61,0,0-4.27,2.56-7.15-2.34,0,0-.07,4.39,7.15,4.33a38.92,38.92,0,0,0,0,7.75s-7,.7-9-2.55c0,0-.29,3.3,9,3.73,0,0,2.3,12.42,1.66,13.44"/><path class="cls-5" d="M1174.81,278.3s-29.17,1.54-22.44-13.9,3.12-16,1.15-17.22-9.56-8.58-3.64-14.55,10.42-.88,12.09-9.42,15.53-11.16,15.53-11.16,16.4-.82,17,4.48,3,10.12-2.85,15.36-.86,11.9-1.32,18.28-5.4,7-5.67,11.84,6.13,4.72,5.67,11.41S1174.81,278.3,1174.81,278.3Z"/><path class="cls-2" d="M1173.24,283.81s-1-25.33,14-36.63c0,0-13.08,3.23-16,23.59,0,0-4-31.33,7.23-40.07,0,0,8.24-10.38,6.18-14.17,0,0-3.85,8.88-8.8,12.88s-9-6.62-9-6.62,0,7.31,5.18,11.44c0,0-4.29,9.51-3.31,13,0,0-6.42,3.85-10.76-3.52,0,0-.11,6.61,10.76,6.51a58.3,58.3,0,0,0,0,11.66s-10.56,1.05-13.58-3.84c0,0-.45,5,13.58,5.62,0,0,3.45,18.67,2.49,20.2"/><path class="cls-4" d="M334.74,306.54s10.85-17.29,13.48-33.44c0,0,7.57,32.81,12.56,33.44h-8s5.72,25.29,12.16,27.64H356s9.77,24.95,12.7,25.84H328.78s11-20.85,10.08-25.55H331s10.24-20.26,10.24-27.89Z"/><path class="cls-10" d="M62.3,392.81s-37.22,2-28.63-17.73,4-20.4,1.46-22-12.2-11-4.64-18.58,13.3-1.12,15.43-12,19.82-14.24,19.82-14.24,20.93-1,21.68,5.72,3.89,12.92-3.64,19.6-1.09,15.19-1.68,23.33-6.89,8.9-7.24,15.12,7.83,6,7.24,14.56S62.3,392.81,62.3,392.81Z"/><path class="cls-2" d="M60.32,401.85S59.1,369.52,78.2,355.1c0,0-16.68,4.12-20.44,30.11,0,0-5.15-40,9.22-51.14,0,0,10.52-13.25,7.89-18.09,0,0-4.91,11.34-11.22,16.44S52.13,324,52.13,324s-.05,9.31,6.61,14.59c0,0-5.48,12.13-4.23,16.53,0,0-8.19,4.91-13.72-4.49,0,0-.15,8.43,13.72,8.3,0,0-.9,9,0,14.88,0,0-13.47,1.34-17.33-4.9,0,0-.57,6.33,17.33,7.17,0,0,4.41,23.83,3.18,25.79"/><path class="cls-12" d="M161.08,378.57s21.73,1.14,16.72-10.35-2.33-11.91-.86-12.84,7.12-6.39,2.71-10.84-7.76-.65-9-7-11.58-8.31-11.58-8.31-12.22-.61-12.66,3.34-2.27,7.54,2.13,11.44.64,8.87,1,13.62,4,5.19,4.23,8.82-4.57,3.52-4.23,8.51S161.08,378.57,161.08,378.57Z"/><path class="cls-8" d="M235.39,384.14s-3.21-19.37-1.95-18.86-16.2-11.06-14.2-18.45c0,0,5.57,9.4,9,10.25s0-10.25,0-10.25,4.1,9.39,3.42,11.1,1.16,3.25,1.16,3.25-.82-14.89.37-17.62c0,0-4.81-7.21-3.51-11.65,0,0,2,9.42,4,9.59,0,0,1.2-14.18,6.14-15.47,0,0-6.23,7.05-5.5,29.05,0,0,8.74.11,9.08-9.13,0,0,2.9,8.38-9,10.95,0,0,.17,12.66,1,14.37,0,0,3.43-.87,4-3.77a5,5,0,0,1-4,5.07s1.74,9.58,2.92,9.79"/><path class="cls-2" d="M162.24,382.68s.71-18.88-10.44-27.3c0,0,9.74,2.41,11.93,17.58,0,0,3-23.34-5.38-29.85,0,0-6.14-7.74-4.6-10.56,0,0,2.86,6.61,6.55,9.59s6.72-4.93,6.72-4.93,0,5.44-3.86,8.52c0,0,3.2,7.09,2.47,9.65,0,0,4.78,2.87,8-2.62,0,0,.09,4.92-8,4.85a43.38,43.38,0,0,1,0,8.69s7.87.78,10.12-2.86c0,0,.33,3.69-10.12,4.18,0,0-2.57,13.91-1.85,15.06"/><path class="cls-3" d="M190.07,422.81s37.22,2,28.63-17.73-4-20.4-1.46-22,12.2-11,4.64-18.58-13.3-1.12-15.42-12-19.83-14.24-19.83-14.24-20.93-1-21.68,5.72-3.89,12.92,3.64,19.6,1.09,15.19,1.68,23.33,6.89,8.9,7.24,15.12-7.83,6-7.24,14.56S190.07,422.81,190.07,422.81Z"/><path class="cls-1" d="M252.08,344.67s21.73,1.14,16.72-10.36-2.33-11.9-.86-12.83,7.12-6.39,2.71-10.84-7.76-.66-9-7-11.58-8.32-11.58-8.32-12.22-.61-12.66,3.34-2.27,7.55,2.13,11.45.64,8.87,1,13.62,4,5.19,4.23,8.82-4.57,3.52-4.23,8.5S252.08,344.67,252.08,344.67Z"/><path class="cls-8" d="M381.39,375.19s-3.21-19.37-1.95-18.86-16.2-11.07-14.2-18.45c0,0,5.57,9.4,9,10.24s0-10.24,0-10.24,4.1,9.38,3.42,11.09,1.16,3.25,1.16,3.25-.82-14.88.37-17.62c0,0-4.81-7.2-3.51-11.64,0,0,2,9.42,4,9.59,0,0,1.2-14.19,6.14-15.48,0,0-6.23,7.05-5.5,29.06,0,0,8.74.11,9.08-9.13,0,0,2.9,8.38-9,10.95,0,0,.17,12.66,1,14.37,0,0,3.43-.88,4-3.78a5.05,5.05,0,0,1-4,5.08s1.74,9.58,2.92,9.78"/><path class="cls-2" d="M192.06,429.85s1.22-32.33-17.88-46.75c0,0,16.68,4.12,20.44,30.11,0,0,5.14-40-9.22-51.14,0,0-10.52-13.25-7.89-18.09,0,0,4.91,11.34,11.22,16.44S200.25,352,200.25,352s.05,9.31-6.61,14.59c0,0,5.48,12.13,4.23,16.53,0,0,8.19,4.91,13.72-4.49,0,0,.15,8.43-13.72,8.3,0,0,.9,9,0,14.88,0,0,13.47,1.34,17.33-4.9,0,0,.57,6.33-17.33,7.17,0,0-4.41,23.83-3.18,25.79"/><path class="cls-2" d="M253.24,348.78s.71-18.88-10.44-27.3c0,0,9.74,2.41,11.93,17.58,0,0,3-23.34-5.38-29.85,0,0-6.14-7.74-4.6-10.57,0,0,2.86,6.62,6.55,9.6s6.72-4.93,6.72-4.93,0,5.44-3.86,8.52c0,0,3.2,7.09,2.47,9.65,0,0,4.78,2.87,8-2.62,0,0,.09,4.92-8,4.85a43.38,43.38,0,0,1,0,8.69s7.87.78,10.12-2.86c0,0,.33,3.69-10.12,4.18,0,0-2.57,13.91-1.85,15.06"/><path class="cls-8" d="M135.39,392.16s-3.21-19.37-1.95-18.85-16.2-11.07-14.2-18.45c0,0,5.57,9.39,9,10.24s0-10.24,0-10.24,4.1,9.38,3.42,11.09,1.16,3.25,1.16,3.25-.82-14.88.37-17.62c0,0-4.81-7.21-3.51-11.64,0,0,2,9.42,4,9.59,0,0,1.2-14.19,6.14-15.48,0,0-6.23,7.05-5.5,29.06,0,0,8.74.1,9.08-9.14,0,0,2.9,8.39-9,10.95,0,0,.17,12.66,1,14.37,0,0,3.43-.87,4-3.77a5,5,0,0,1-4,5.07s1.74,9.58,2.92,9.79"/><path class="cls-2" d="M104.38,372.51s.84-22.53-12.46-32.58c0,0,11.62,2.88,14.24,21,0,0,3.58-27.86-6.43-35.63,0,0-7.33-9.23-5.49-12.61,0,0,3.42,7.9,7.82,11.46s8-5.88,8-5.88,0,6.49-4.6,10.17c0,0,3.81,8.45,2.94,11.51,0,0,5.71,3.43,9.57-3.13,0,0,.1,5.88-9.57,5.79a52,52,0,0,1,0,10.37s9.39.93,12.08-3.41c0,0,.4,4.4-12.08,5,0,0-3.07,16.6-2.21,18"/><path class="cls-2" d="M50,463.07s1-27.26-15.07-39.42c0,0,14.06,3.48,17.23,25.39,0,0,4.34-33.71-7.78-43.11,0,0-8.86-11.17-6.64-15.26,0,0,4.14,9.56,9.46,13.86s9.7-7.11,9.7-7.11,0,7.85-5.57,12.3c0,0,4.62,10.23,3.57,13.93,0,0,6.9,4.15,11.57-3.78,0,0,.12,7.1-11.57,7,0,0,.76,7.55,0,12.55,0,0,11.36,1.12,14.61-4.13,0,0,.48,5.33-14.61,6,0,0-3.72,20.08-2.68,21.74"/><path class="cls-4" d="M99.74,372.54s10.85-17.29,13.48-33.44c0,0,7.57,32.81,12.56,33.44h-8s5.72,25.29,12.16,27.64H121s9.77,24.95,12.7,25.84H93.78s11-20.85,10.08-25.55H96s10.24-20.26,10.24-27.89Z"/><path class="cls-4" d="M258.74,319.54s10.85-17.29,13.48-33.44c0,0,7.57,32.81,12.56,33.44h-8s5.72,25.29,12.16,27.64H280s9.77,24.95,12.7,25.84H252.78s11-20.85,10.08-25.55H255s10.24-20.26,10.24-27.89Z"/><path class="cls-4" d="M8.74,384.54s10.85-17.29,13.48-33.44c0,0,7.57,32.81,12.56,33.44h-8s5.72,25.29,12.16,27.64H30s9.77,24.95,12.7,25.84H2.78s11-20.85,10.08-25.55H5S15.2,392.21,15.2,384.58Z"/><path class="cls-4" d="M292.72,241.61s5.36-8.53,6.66-16.51c0,0,3.74,16.2,6.21,16.51h-4s2.82,12.49,6,13.65h-4.39s4.82,12.33,6.27,12.76H289.78s5.41-10.29,5-12.61h-3.9s5.06-10,5.06-13.78Z"/><rect class="cls-6" x="0.33" y="-1.02" width="1600" height="125.41"/><polyline class="cls-14" points="256.27 -1.02 270.33 19.05 270.33 43.79 274.33 18.04 261.16 -1.02"/><polyline class="cls-14" points="1602.63 66.2 1587.27 84.94 1568.33 84.94 1588.04 90.28 1602.63 72.72"/><polyline class="cls-14" points="385.45 124.39 393.33 112.35 400.33 105.33 397.33 91.28 403.33 106.33 396.33 111.35 392.33 117.37 392.72 124.39"/><polyline class="cls-14" points="1295.33 -1.02 1276.43 18.32 1259.64 29.59 1266.84 52.15 1252.45 27.98 1269.23 19.93 1278.83 10.26 1277.89 -1.02"/><polyline class="cls-14" points="747.16 44.8 740.33 27.07 747.33 6 743.83 25.4 750.33 33.09 750.33 44.8"/><polyline class="cls-14" points="929.58 124.94 922.77 118.9 922.77 109.84 917.33 101.99 917.33 88.27 919.66 99.44 926.66 109.64 924.33 117.29 933.87 124.94"/><polyline class="cls-14" points="2.33 101.79 5.79 97.62 10.97 97.62 15.47 94.29 23.33 94.29 16.93 95.72 11.09 100 6.71 98.57 2.33 104.41"/><polyline class="cls-14" points="558.33 57.17 513.43 44.8 471.46 57.17 445.51 57.17 468.7 61.69 499.33 56.17 525.02 53.24 559.81 70.97"/><polyline class="cls-14" points="220.31 124.39 246.33 94.29 256.27 70.97 287.71 70.97 303.33 66.2 276.69 80.25 256.27 85.47 256.27 99.12 245.58 107.83 241.04 124.39"/><polyline class="cls-14" points="1186.23 124.39 1136.14 70.97 1145.25 25.57 1141.83 6 1156.33 35.1 1148.65 52.15 1161.19 70.97 1169.12 90.11 1208.92 124.39"/><polygon class="cls-14" points="1364.22 124.94 1350.06 106.6 1354.32 96.79 1357.14 90.28 1350.06 73.17 1368.94 90.28 1364.22 99.05 1376.49 124.39 1364.22 124.94"/><path class="cls-2" d="M1133.82,257.44s.82-22-12.17-31.79c0,0,11.35,2.8,13.9,20.47,0,0,3.5-27.19-6.27-34.77,0,0-7.15-9-5.36-12.31,0,0,3.34,7.71,7.63,11.18s7.83-5.74,7.83-5.74,0,6.34-4.49,9.93c0,0,3.72,8.25,2.87,11.24,0,0,5.57,3.34,9.34-3.06,0,0,.1,5.73-9.34,5.65a51.11,51.11,0,0,1,0,10.12s9.17.91,11.79-3.33c0,0,.39,4.3-11.79,4.87,0,0-3,16.21-2.16,17.54"/><path class="cls-10" d="M81.3,482.81s-37.22,2-28.63-17.73,4-20.4,1.46-22-12.2-11-4.64-18.58,13.3-1.12,15.43-12,19.82-14.24,19.82-14.24,20.93-1,21.68,5.72,3.89,12.92-3.64,19.6-1.09,15.19-1.68,23.33-6.89,8.9-7.24,15.12,7.83,6,7.24,14.56S81.3,482.81,81.3,482.81Z"/><path class="cls-2" d="M79.32,491.85S78.1,459.52,97.2,445.1c0,0-16.68,4.12-20.44,30.11,0,0-5.15-40,9.22-51.14,0,0,10.52-13.25,7.89-18.09,0,0-4.91,11.34-11.22,16.44S71.13,414,71.13,414s0,9.31,6.61,14.59c0,0-5.48,12.13-4.23,16.53,0,0-8.19,4.91-13.72-4.49,0,0-.15,8.43,13.72,8.3,0,0-.9,9,0,14.88,0,0-13.47,1.34-17.33-4.9,0,0-.57,6.33,17.33,7.17,0,0,4.41,23.83,3.18,25.79"/><path class="cls-3" d="M22.64,512.74s36.61,1.93,28.16-17.44-3.92-20.06-1.44-21.62,12-10.77,4.57-18.27-13.09-1.1-15.18-11.82-19.5-14-19.5-14-20.58-1-21.32,5.62-3.83,12.71,3.58,19.28,1.07,14.94,1.65,22.95,6.78,8.75,7.12,14.87-7.7,5.92-7.12,14.32S22.64,512.74,22.64,512.74Z"/><path class="cls-2" d="M24.6,519.66s1.19-31.8-17.59-46c0,0,16.41,4.06,20.1,29.61,0,0,5.06-39.32-9.07-50.29,0,0-10.34-13-7.76-17.8,0,0,4.84,11.15,11,16.17s11.33-8.3,11.33-8.3.05,9.16-6.5,14.35c0,0,5.39,11.94,4.16,16.26,0,0,8.05,4.83,13.5-4.42,0,0,.14,8.29-13.5,8.17,0,0,.88,8.82,0,14.64,0,0,13.25,1.31,17-4.82,0,0,.56,6.22-17,7.05,0,0-4.34,23.43-3.13,25.36"/><path class="cls-11" d="M275.38,473.43s49.55,2.61,38.12-23.61-5.3-27.16-1.95-29.27,16.24-14.57,6.18-24.73-17.71-1.49-20.54-16-26.39-19-26.39-19-27.86-1.39-28.87,7.61-5.17,17.2,4.85,26.1,1.45,20.22,2.24,31.06,9.17,11.84,9.64,20.12-10.43,8-9.64,19.39S275.38,473.43,275.38,473.43Z"/><path class="cls-2" d="M278,482.79s1.62-43-23.81-62.24c0,0,22.22,5.49,27.21,40.09,0,0,6.86-53.24-12.27-68.08,0,0-14-17.64-10.5-24.09,0,0,6.54,15.09,14.94,21.88s15.33-11.23,15.33-11.23.07,12.4-8.8,19.43c0,0,7.29,16.15,5.63,22,0,0,10.91,6.54,18.27-6,0,0,.19,11.21-18.27,11.05,0,0,1.2,11.93,0,19.81,0,0,17.94,1.78,23.07-6.52,0,0,.76,8.43-23.07,9.54,0,0-5.87,31.72-4.23,34.33"/><path class="cls-5" d="M220.34,480.57s-58.75,3.09-45.19-28,6.28-32.2,2.31-34.7-19.26-17.28-7.33-29.32,21-1.76,24.35-19,31.3-22.49,31.3-22.49,33-1.65,34.22,9,6.14,20.4-5.74,30.94-1.73,24-2.66,36.84-10.87,14-11.43,23.85,12.36,9.51,11.43,23S220.34,480.57,220.34,480.57Z"/><path class="cls-2" d="M217.2,491.67s-1.92-51,28.23-73.8c0,0-26.34,6.51-32.26,47.53,0,0-8.13-63.12,14.55-80.72,0,0,16.61-20.92,12.45-28.56,0,0-7.75,17.9-17.71,25.95s-18.18-13.33-18.18-13.33-.08,14.71,10.43,23c0,0-8.65,19.15-6.67,26.09,0,0-12.93,7.76-21.67-7.08,0,0-.23,13.3,21.67,13.11,0,0-1.42,14.14,0,23.49,0,0-21.27,2.1-27.36-7.74,0,0-.9,10,27.36,11.32,0,0,7,37.61,5,40.7"/><path class="cls-11" d="M191.31,564.94s57.21,3,44-27.25-6.12-31.35-2.25-33.78,18.75-16.83,7.13-28.55-20.44-1.72-23.7-18.48S186,435,186,435s-32.16-1.6-33.32,8.8-6,19.85,5.59,30.12,1.68,23.34,2.58,35.86S171.47,523.44,172,533s-12,9.26-11.13,22.38S191.31,564.94,191.31,564.94Z"/><path class="cls-2" d="M194.38,575.75s1.86-49.68-27.49-71.84c0,0,25.64,6.33,31.41,46.27,0,0,7.91-61.45-14.17-78.59,0,0-16.16-20.36-12.12-27.8,0,0,7.55,17.42,17.25,25.25s17.69-13,17.69-13S207,470.4,196.8,478.5c0,0,8.42,18.65,6.5,25.41,0,0,12.59,7.54,21.09-6.9,0,0,.22,12.95-21.09,12.76,0,0,1.38,13.77,0,22.87,0,0,20.71,2.05,26.63-7.53,0,0,.88,9.72-26.63,11,0,0-6.77,36.62-4.89,39.63"/><path class="cls-5" d="M127.78,573.19S60,576.75,75.61,540.87s7.26-37.17,2.67-40.06S56.05,480.86,69.82,467s24.24-2,28.11-21.91,36.13-25.95,36.13-25.95,38.13-1.91,39.5,10.42,7.09,23.54-6.63,35.72-2,27.68-3.06,42.51S151.32,524,150.67,535.3s14.27,11,13.2,26.54S127.78,573.19,127.78,573.19Z"/><path class="cls-2" d="M124.16,586s-2.22-58.91,32.58-85.19c0,0-30.4,7.52-37.24,54.87,0,0-9.38-72.86,16.8-93.18,0,0,19.17-24.15,14.37-33,0,0-8.95,20.66-20.45,30s-21-15.38-21-15.38-.1,17,12,26.59c0,0-10,22.11-7.7,30.12,0,0-14.93,8.95-25-8.18,0,0-.26,15.36,25,15.13,0,0-1.64,16.33,0,27.12,0,0-24.56,2.43-31.58-8.93,0,0-1,11.53,31.58,13.06,0,0,8,43.42,5.79,47"/><path class="cls-10" d="M543.26,312.85s-25.36,1.33-19.51-12.09,2.72-13.89,1-15-8.31-7.46-3.16-12.66,9.06-.76,10.51-8.19,13.51-9.7,13.51-9.7,14.25-.71,14.76,3.9,2.65,8.8-2.47,13.35-.75,10.35-1.15,15.9-4.69,6.06-4.93,10.29,5.33,4.11,4.93,9.92S543.26,312.85,543.26,312.85Z"/><path class="cls-2" d="M541.91,319s-.83-22,12.18-31.85c0,0-11.36,2.81-13.92,20.51,0,0-3.51-27.24,6.28-34.83,0,0,7.17-9,5.37-12.33,0,0-3.34,7.72-7.64,11.2s-7.85-5.75-7.85-5.75,0,6.35,4.5,9.94c0,0-3.73,8.27-2.88,11.26,0,0-5.58,3.35-9.35-3.06,0,0-.09,5.74,9.35,5.66a51.33,51.33,0,0,0,0,10.14s-9.18.91-11.8-3.34c0,0-.39,4.31,11.8,4.88,0,0,3,16.24,2.17,17.57"/><path class="cls-1" d="M484.08,313.67s21.73,1.14,16.72-10.36-2.33-11.9-.86-12.83,7.12-6.39,2.71-10.84-7.76-.66-9-7-11.58-8.32-11.58-8.32-12.22-.61-12.66,3.34-2.27,7.55,2.13,11.45.64,8.87,1,13.62,4,5.19,4.23,8.82-4.57,3.52-4.23,8.5S484.08,313.67,484.08,313.67Z"/><path class="cls-2" d="M485.24,317.78s.71-18.88-10.44-27.3c0,0,9.74,2.41,11.93,17.58,0,0,3-23.34-5.38-29.85,0,0-6.14-7.74-4.6-10.57,0,0,2.86,6.62,6.55,9.6s6.72-4.93,6.72-4.93,0,5.44-3.86,8.52c0,0,3.2,7.09,2.47,9.65,0,0,4.78,2.87,8-2.62,0,0,.09,4.92-8,4.85a43.38,43.38,0,0,1,0,8.69s7.87.78,10.12-2.86c0,0,.33,3.69-10.12,4.18,0,0-2.57,13.91-1.85,15.06"/></g></svg>
