<svg id="Layer_1" data-name="Layer 1" xmlns="http://www.w3.org/2000/svg" width="250" height="70" viewBox="0 0 250 70"><defs><style>.cls-1{fill:#fff;}</style></defs><path class="cls-1" d="M36.17,33.52C36,31,35.72,28,35.62,25.21c-5.9-2.35-15.5-3.65-18.6,3.61-2.65,10.9,14.45,6.15,19.5,13a7.05,7.05,0,0,1-3,10.8,27.3,27.3,0,0,1-17.85,0c.8-3.7,1.4-7.7,2.65-10.9.6,2.65.8,6,1.25,8.7,2.8,1.7,14.4,2.8,15.4-3.15,1.15-6.85-10.25-7.25-14.4-8.5-5.7-1.55-8.4-5.91-6-11.45,3.85-9.16,17.7-7.11,24-3.06Z"/><path class="cls-1" d="M68.57,55.27C65,56.42,62.37,57.42,58,57.42A17.82,17.82,0,0,1,39.62,38c.5-5.6,3.35-10.21,8.15-13.66,6.9-5.1,17.4-4.2,24.75.4-1.75,2.75-3.45,6.31-5.2,9.45.35-2.79.3-5.75.45-8.79-1.6-1.56-6.5-2.25-9.1-2.16-12.85.35-21.55,15-13.05,25.06a19.09,19.09,0,0,0,9.65,6.25,26.46,26.46,0,0,0,12.6-1.25Z"/><path class="cls-1" d="M81.72,53.42c-6.8-3.55-10.2-11.7-8.5-19.46,1.15-5.2,5.25-10.65,10.5-12.4a22.49,22.49,0,0,1,7-1.25c2.6-.1,5.6,1.05,8.15,2.25,5.45,2.65,8.85,9.46,8.7,15.76a17,17,0,0,1-2.4,8.2,17.65,17.65,0,0,1-14.55,9A19.12,19.12,0,0,1,81.72,53.42ZM99,25.67c-2.5-2.16-6.45-2.86-9.55-2.86a13.76,13.76,0,0,0-7.7,2.65,18.23,18.23,0,0,0-4.65,5,13.76,13.76,0,0,0-1,12.7c2.25,5.2,7.4,9.8,13.4,9.8a17.4,17.4,0,0,0,8.15-2.15,13.86,13.86,0,0,0,6.7-8.45C106.32,35.72,104.37,29.76,99,25.67Z"/><path class="cls-1" d="M130.32,49.32l1.55,2.45c-1.65,2.8-4.6,6.15-7.6,6.15-3.4-.15-4.35-4.1-4.2-7,.35-1.75.9-4.05-.45-5.6a5.48,5.48,0,0,0-5.45-1.5c0,2.8,0,5.65.2,8.4l2.3,3.75-6.75-.85,1.9-2.9-.65-29c-2.35-2.85-2.65-3.05-2.75-3.3,5.85-.6,12.35-.7,17.5,2.55,5.4,3.5,7.9,11.25,2.55,16a22.74,22.74,0,0,1-8.2,4.3c4.8,1.85,1.55,6.6,2.1,9.9.7,5.3,5.6,2.3,7.1-1.2Zm-16.1-8.2c3.3-.1,11.7-1.25,14.1-6.8,1.15-2.7.15-5.81-1.5-7.86-3.55-4.25-8.7-4.75-13.3-4.4Z"/><path class="cls-1" d="M167.22,54.62c-11.05.35-22.35,1-33.4,1.85l3.55-6.2c0-8.35-.5-15.4-.8-24.35-1.15-1.41-3.15-2.56-3.95-4.06l5.4.31c1.6,0,11.8.34,26.75,1.54.1,1.91.6,4.41.75,6.16l-4.1-4.36c-7.45-.5-14.65-.59-22.4-1.05.1,2.8,0,11.26.35,12.81l14.25-.15,2.65-3.25L157,43c-1.1-1.1-2.05-2.5-3.15-3.4l-14.5.2c.15,3.5.3,7.15.4,10.65v2.9c9.45,0,15.75-.7,24-1,1.4-3.65,3.65-8.2,4.7-10.5Z"/></svg>
