<svg id="Layer_1" data-name="Layer 1" xmlns="http://www.w3.org/2000/svg" width="293" height="90" viewBox="0 0 293 90"><defs><style>.cls-1{fill:#f9f0ea;}.cls-2{fill:#fff;}.cls-3{fill:#f28a22;}</style></defs><g id="knap"><rect class="cls-1" x="10.3" y="16.54" width="263.55" height="64" rx="4.11"/></g><g id="knap-2" data-name="knap"><rect class="cls-2" x="16.3" y="9.54" width="263.55" height="61.84" rx="4.11"/></g><g id="knap-3" data-name="knap"><path class="cls-3" d="M45.69,49.83c-1.11,0-2.16-.06-3-.06.27-1,.81-2.07,1-3L43.74,43,33,43l0,3.75,1.29,3.42-4,.12,1.38-3v-15a10.52,10.52,0,0,0-.93-2.13l3.18-.06-.93,2.28L33,41.58h10.8c0-4.56.09-6,.12-8L43.65,30l3.12.21a29.88,29.88,0,0,0-1.47,3.57L45.12,47.1Z"/><path class="cls-3" d="M47.31,38.85c1.41-12.21,19.89-11.94,20.85.45a9.64,9.64,0,0,1-.9,5,10.74,10.74,0,0,1-13.65,5.64A10.6,10.6,0,0,1,47.31,38.85Zm9.09-7.53c-5.88.63-9.72,7.56-6.78,12.78C52.32,49,58.35,50.76,63,47.31c5.13-3.6,4.86-12.06-.75-15A10.33,10.33,0,0,0,56.4,31.32Z"/><path class="cls-3" d="M97.26,51C87.3,34.62,86.91,33.87,86.4,33.21c-6.69,11-8.28,13.77-9.9,16.44C68.34,32.07,68,31.14,67.44,30.24c1.89-.21,2.85-.54,4.74-.69L70.26,32.7c1.89,3.87,4.41,9.12,6.27,13l9.9-15.09L97.11,47.94c.24-.6.45-1.29,4.41-13.86-.45-1-1-2.1-1.59-3.15,1.38.06,2.79.33,4.14.42L97.32,51Z"/><path class="cls-3" d="M120.21,48.39l1.8-3c-.51-12.12-.75-11.67-.72-12.78l-4.89.27-2.88,3.87,1.38-6.39,1,1,13.89-.72,1.08-1.29.36,6.36-1.95-3.54v0l-6.39.39.6,13.53,1.29,2Z"/><path class="cls-3" d="M131.52,38.85c1.41-12.21,19.89-11.94,20.85.45a9.64,9.64,0,0,1-.9,5,10.74,10.74,0,0,1-13.65,5.64A10.6,10.6,0,0,1,131.52,38.85Zm9.09-7.53c-5.88.63-9.72,7.56-6.78,12.78,2.7,4.86,8.73,6.66,13.38,3.21,5.13-3.6,4.86-12.06-.75-15A10.33,10.33,0,0,0,140.61,31.32Z"/><path class="cls-3" d="M163.92,30.21a10.31,10.31,0,0,0-1.17-1.65c6.15.24,8.07-.39,11.67,1.62,1.92,1.14,2.61,2.79,2.46,5.31-.42,2.49-1.41,5.19-6.54,5.49,1.86.39,5.16,1.35,5.82,4.14.54,2.13-.66,4.17-2.94,5.19-1.62.48-3,1-10.59.54.3-1,1.11-.9,1.11-2.79Zm3.9,19.35c1.68.09,6-.21,6.54-2.7.39-3.09-3.6-5.07-9.15-5.34,0,2.67,0,5.28-.06,7.89Zm7.38-15.33c-.27-4.5-7.44-4.32-9.9-4.11-.09,3.09,0,6.3-.09,9.54,3.87,0,9.81.42,10-4.92Z"/><path class="cls-3" d="M194.52,50.82c.21-.45.48-1.14.81-1.77L194,46.11l-13,.12-1.62,2.67,1.26,1.92-3.54,0L188,28.17c-.06,0,8.07,18.57,10,22.68ZM187.77,31.5l-6.12,13.11c2.73-.09,8.85-.09,11.82,0Z"/><path class="cls-3" d="M202.05,48.39l1.8-3c-.51-12.12-.75-11.67-.72-12.78l-4.89.27-2.88,3.87,1.38-6.39,1,1,13.89-.72,1.08-1.29.36,6.36-2-3.54v0l-6.39.39.6,13.53,1.29,2Z"/><path class="cls-3" d="M219.51,48.39l1.8-3c-.51-12.12-.75-11.67-.72-12.78l-4.89.27-2.88,3.87,1.38-6.39,1.05,1,13.89-.72,1.08-1.29.36,6.36-2-3.54v0l-6.39.39.6,13.53,1.29,2Z"/><path class="cls-3" d="M230.76,49.5h-.18L232.2,47l-.36-12.33-1.17-3.9L235,31l-1.68,3.24.54,13.71h8.91l2.13-4.65-.72,6.3Z"/><path class="cls-3" d="M244.86,50.1c.51-1.32,1.23-3,1.86-4.26l.21-13.65a27.08,27.08,0,0,0-1.86-2.34l17.46,0,.42,6.69-2.07-4.95H248.31l-.12,8.82,7.26,0A14,14,0,0,0,257.88,38c-.21,2.19-.42,4.68-.42,7a19.13,19.13,0,0,0-2.34-3.27l-7-.09L248,48.24c13.56.81,13.56.81,14,.78.63-1.62,1.68-3.66,2.49-5.34l-.42,6.42Z"/></g></svg>
