<svg id="Layer_1" data-name="Layer 1" xmlns="http://www.w3.org/2000/svg" width="384" height="579" viewBox="0 0 384 579"><defs><style>.cls-1{fill:#cd89d3;}.cls-2{fill:#c875d1;}.cls-3{fill:#fff;}</style></defs><path class="cls-1" d="M262.26,218.2s41.87-8.26,58-34c0,0,17.64-22.78,19.84-34.53,0,0,2.2-21.31,8.82-35.27,0,0,19.1-22,19.1-30.86,0,0-5.14-9.55-27.19,20.57,0,0-8.81,13.23-11,36,0,0-11.94,40.17-29.48,45.43,0,0-18.26,16.95-39.94,17C260.42,202.57,260.07,215.43,262.26,218.2Z"/><path class="cls-1" d="M103.08,197.31s-30.39-2.06-37-52c0,0-19.83-50-37.47-60.25,0,0-11.37-16.16-16.34,0,0,0,3.12,15.43,18.55,27.19,0,0,21.3,24.24,19.83,39.67,0,0,5.63,54.41,52,58.07C102.68,210,104.09,199.37,103.08,197.31Z"/><path class="cls-1" d="M67.54,332.65s7.16,7.63,35.91-8.68c0,0,23.61-1.61,38.3,14.55,0,0,16.16,0,37.47-11.75,0,0,9.55-2.21,30.13,8.81,0,0,5.77,4.61,33.74-11.65,0,0,12.5-2.94,31.26,7.3,0,0,9.24,7.74,17.3-.2,0,0,12.51,68.61,0,81.77,0,0-4.42,15.36-117.57,12.42,0,0-125.64-16.16-124.17-27.18C49.91,398,58.73,335.58,67.54,332.65Z"/><path class="cls-2" d="M49.91,398s-6.61,79.35,88.17,82.29c0,0-14.7,28.65-4.41,72,0,0-25.72-.73-24.25,8.82s24.25,4.41,24.25,4.41,14,5.88,8.82-17.64c0,0,.73-69.06,11-69.06,0,0,22.77,5.14,26.45.73,0,0,14,64.66,4.41,81.56,0,0,2.2,5.88,22,3.67,0,0,14.69,3.68,16.16-4.41,0,0,2.59-5.81-21.11-6.21,0,0-4.6-1.87-2.4-28.32,0,0,5.14-27.92-4.41-47,0,0,38.21,10.28,72.74-19.84,0,0,22.81-8.68,24.26-46.22,0,0-11.77,15.36-117.57,12.42C174.08,425.22,51.38,409.79,49.91,398Z"/><path class="cls-3" d="M67.54,332.65s7.16,7.63,35.91-8.68c0,0,22.14-1.61,38.3,14.55,0,0,25-2.2,37.47-11.75,0,0,11-1.47,30.13,8.81,0,0,3.57,5.35,33.74-11.65,0,0,6.57-6.12,38.21,10.48,0,0,8.17.15,10.35-3.38,0,0-12.48-96.5-29.39-112.83,0,0-4.42-32.5,2.93-79.52,0,0,17.63-114.62-74.21-124.17,0,0-73.67-15.23-87.53,72.84,0,0-6.7,32.67-.37,110C103.08,197.31,110.16,234.19,67.54,332.65Z"/><ellipse class="cls-1" cx="163.06" cy="101.94" rx="17.63" ry="27.92"/><ellipse class="cls-1" cx="205.67" cy="101.94" rx="17.63" ry="27.92"/><path d="M163.06,79.16s16.16,1.47,10.28,26.45c0,0-2.2,19.84-12.49,19.11,0,0-11.49,0-11.62-22.77S163.06,79.16,163.06,79.16Z"/><path d="M202.73,79.16S218.9,80.63,213,105.61c0,0-2.2,19.84-12.49,19.11,0,0-11.49,0-11.62-22.77S202.73,79.16,202.73,79.16Z"/><path class="cls-3" d="M152.64,92.88s5.27,1.71,8.21-1.23S162,83.29,162,83.29,154,85.28,152.64,92.88Z"/><path class="cls-3" d="M193.78,91.41s5.28,1.71,8.22-1.23,1.18-8.36,1.18-8.36S195.12,83.81,193.78,91.41Z"/><path d="M138.81,154.11s-1.47,15.42,16.17,8.81c0,0,17.26-1.48,19.65,3.67,0,0,7.27,3.07,19.15-2.14,0,0,11.16-3,18.51-.79,0,0,17,2.36,18.76-2.86,0,0,3.28-13.86-7.74-16.89s-27.92,4.32-27.92,4.32a50.66,50.66,0,0,1-30.13,0S140.28,136.47,138.81,154.11Z"/></svg>
