<svg id="Layer_1" data-name="Layer 1" xmlns="http://www.w3.org/2000/svg" width="290" height="460" viewBox="0 0 290 460"><defs><style>.cls-1{fill:#cd89d3;}.cls-2{fill:#c875d1;}.cls-3{fill:#fff;}</style></defs><path class="cls-1" d="M202,175.34s31.78-6.26,44-25.78c0,0,13.38-17.28,15.06-26.2,0,0,1.67-16.17,6.69-26.77,0,0,14.5-16.72,14.5-23.41,0,0-3.91-7.25-20.63,15.61,0,0-6.7,10-8.37,27.32,0,0-9.06,30.49-22.37,34.48,0,0-13.86,12.87-30.31,12.89C200.59,163.48,200.32,173.24,202,175.34Z"/><path class="cls-1" d="M81.19,159.49S58.12,157.93,53.1,120c0,0-15.06-37.91-28.44-45.72,0,0-8.63-12.27-12.4,0A38.15,38.15,0,0,0,26.33,94.92S42.5,113.32,41.39,125c0,0,4.27,41.29,39.49,44.07C80.88,169.1,82,161.06,81.19,159.49Z"/><path class="cls-1" d="M54.21,262.2s5.43,5.79,27.25-6.59c0,0,17.92-1.22,29.07,11.05,0,0,12.27,0,28.44-8.92,0,0,7.25-1.68,22.86,6.69,0,0,4.38,3.49,25.61-8.85,0,0,9.48-2.23,23.72,5.54,0,0,7,5.87,13.13-.15,0,0,9.49,52.07,0,62.06,0,0-3.36,11.65-89.23,9.42,0,0-95.34-12.26-94.23-20.63C40.83,311.82,47.52,264.43,54.21,262.2Z"/><path class="cls-2" d="M40.83,311.82s-5,60.22,66.91,62.45c0,0-11.15,21.75-3.34,54.64,0,0-19.52-.55-18.4,6.7S104.4,439,104.4,439s10.59,4.46,6.69-13.38c0,0,.56-52.41,8.36-52.41,0,0,17.29,3.9,20.07.55,0,0,10.6,49.07,3.35,61.9,0,0,1.67,4.46,16.73,2.78,0,0,11.15,2.79,12.26-3.34,0,0,2-4.42-16-4.72,0,0-3.49-1.42-1.82-21.49,0,0,3.9-21.19-3.34-35.68,0,0,29,7.8,55.2-15.06,0,0,17.31-6.59,18.41-35.07,0,0-8.93,11.65-89.23,9.42C135.06,332.45,42,320.74,40.83,311.82Z"/><path class="cls-3" d="M54.21,262.2s5.43,5.79,27.25-6.59c0,0,16.8-1.22,29.07,11.05,0,0,19-1.68,28.44-8.92,0,0,8.36-1.12,22.86,6.69,0,0,2.71,4.05,25.61-8.85,0,0,5-4.64,29,8,0,0,6.2.11,7.86-2.57,0,0-9.47-73.23-22.31-85.63,0,0-3.35-24.66,2.22-60.35,0,0,13.39-87-56.31-94.23,0,0-55.91-11.55-66.43,55.28,0,0-5.08,24.8-.27,83.45C81.19,159.49,86.55,187.48,54.21,262.2Z"/><ellipse class="cls-1" cx="126.7" cy="87.12" rx="13.38" ry="21.19"/><ellipse class="cls-1" cx="159.04" cy="87.12" rx="13.38" ry="21.19"/><path d="M126.7,69.83S139,71,134.51,89.9c0,0-1.68,15.06-9.48,14.5,0,0-8.72,0-8.82-17.28S126.7,69.83,126.7,69.83Z"/><path d="M156.81,69.83S169.08,71,164.62,89.9c0,0-1.68,15.06-9.48,14.5,0,0-8.73,0-8.83-17.28S156.81,69.83,156.81,69.83Z"/><path class="cls-3" d="M118.79,80.24s4,1.3,6.24-.93.89-6.35.89-6.35S119.81,74.48,118.79,80.24Z"/><path class="cls-3" d="M150,79.12s4,1.3,6.23-.93.9-6.35.9-6.35S151,73.36,150,79.12Z"/><path d="M108.3,126.7s-1.12,11.71,12.27,6.69c0,0,13.1-1.12,14.91,2.79,0,0,5.52,2.33,14.54-1.62,0,0,8.46-2.28,14-.61,0,0,12.87,1.79,14.24-2.17,0,0,2.49-10.51-5.88-12.81s-21.19,3.27-21.19,3.27a38.34,38.34,0,0,1-22.86,0S109.41,113.32,108.3,126.7Z"/></svg>
