<svg id="Layer_1" data-name="Layer 1" xmlns="http://www.w3.org/2000/svg" width="290" height="90" viewBox="0 0 290 90"><defs><style>.cls-1{fill:#ff8724;}.cls-2{fill:#ffbf85;}</style></defs><g id="knap"><rect class="cls-1" x="8.76" y="10.27" width="273.24" height="69.52" rx="12"/><rect class="cls-2" x="16.45" y="19.25" width="257.85" height="52.6" rx="12"/><path d="M75.48,55.85c0-.33.59-.82,1.18-1.59-.07-6.36.21-7.56-.2-15.26L74.3,37.49a39.86,39.86,0,0,1,7.29-.85c3.61,0,7.41,2.69,6.82,7.41a6.79,6.79,0,0,1-4.69,5.72,9.17,9.17,0,0,1-5.54-.23v4.62a13.81,13.81,0,0,1,1.2,1.62Zm2.7-7.77a6,6,0,0,0,2.87.8c3.13,0,5.62-1.41,6-4.78.75-5.69-5.15-7.25-8.85-5.56C78.18,40.87,78.25,43.52,78.18,48.08Z"/><path d="M102.16,48.41l-.9,6.6c-5.38.28-6.38.33-12.38.43l2.77-2.74c-.26-3.77-.47-8.08-.85-11.85l-1.08-2.34,4.64.16-2.1,2.25,1.16,13c2.66,0,4-.08,6.48-.23Z"/><path d="M118.66,55.78l.13-1.67L117,51.49c-.13-.05-6.33-.05-12,.13-.46,1.05-.56,1.31-1.1,2.49l.82,2h-2.77c1.82-4.77,3.8-9.49,5.74-14.24.72-2,1.44-3.54,2.26-5.56,2.88,4.69,5.62,9.36,8.41,14.08.67,1.1,1.31,2.2,2,3.33a23,23,0,0,0,1.34,2ZM105.6,50.11c1.34,0,9.08-.08,10.7-.08-2-3.62-4.16-7.21-6.34-10.7C108.53,42.93,107,46.52,105.6,50.11Z"/><path d="M127.69,54.93c-1,.08-2.54,0-3.62,0l1-1.85.62-4.77c-2.13-3.13-5-7.51-7-10.77l3.79-.18-1.1,2,5.16,7.64c1.89-2.49,3.66-5.82,5.2-8.28a11.82,11.82,0,0,0-2.07-1.52l4.36.08s.07.08-7,11.21a23,23,0,0,0-.38,4.2Z"/><path d="M156.68,54.34a9.68,9.68,0,0,1-10.9-.39c-2.57-1.79-3.46-5-3.46-7.51,0-5.08,3.05-9.39,8.9-9.39,2.61,0,4.36.87,7.21,2.77l-3.57,4.64c.28-1.28,1-3,1.36-4.38-1.39-1.44-3.46-2.34-6.8-1.77-5.59.95-7.33,8-4.74,12.75,1.46,2.64,8.26,5.67,11.85,1.56.07-.95.23-2.41.23-2.79l-1.23-3.08c.72.15,2.18.2,3.05.33a9.86,9.86,0,0,0-.69,2.82l0,5.64Z"/><path d="M173.51,55.62c.18-.38.41-1,.7-1.51l-1.13-2.51-11.16.1L160.53,54l1.08,1.64-3,0,9.31-19.39s6.9,15.87,8.57,19.39ZM167.74,39.1l-5.23,11.21c2.33-.07,7.56-.07,10.1,0Z"/><path d="M199,54.72l1.36-2.48-4-12.19-6.75,15.39-7.41-15.52L178.49,52l.77,2.36-3,.07L182,36.23c2.66,5.1,4.77,10.21,7.61,16.19,2.44-5.24,4.39-11,6.8-16.29l6.31,18.49Z"/><path d="M202.74,55c.43-1.13,1-2.57,1.59-3.65l.18-11.67a24.36,24.36,0,0,0-1.59-2l14.93,0,.36,5.72-1.77-4.24H205.69l-.1,7.55,6.2,0a11.44,11.44,0,0,0,2.08-2c-.18,1.88-.36,4-.36,6a16.94,16.94,0,0,0-2-2.79l-6-.08-.07,5.7c11.59.69,11.59.69,11.95.66.54-1.38,1.44-3.13,2.13-4.56L219.18,55Z"/></g></svg>
