<svg id="Layer_1" data-name="Layer 1" xmlns="http://www.w3.org/2000/svg" width="1600" height="900" viewBox="0 0 1600 900"><defs><style>.cls-1{fill:#07182b;}.cls-2{fill:#d3e7ea;}.cls-10,.cls-11,.cls-23,.cls-3{fill:#fff;}.cls-3{opacity:0.05;}.cls-4{fill:#b3b3b3;opacity:0.25;}.cls-5{fill:#7b8b9b;}.cls-6{fill:#51647a;}.cls-7{fill:#3e5663;}.cls-8{fill:#244354;}.cls-9{fill:#1a3d54;}.cls-10{opacity:0.12;}.cls-11{opacity:0.24;}.cls-12{fill:#011b21;}.cls-13{fill:#0b5147;}.cls-14{fill:#082825;}.cls-15{fill:#617773;}.cls-16{fill:#326058;}.cls-17{fill:#04252b;}.cls-18{fill:#3a564f;}.cls-19{fill:#333;}.cls-20{fill:gray;}.cls-21{fill:#cd89d3;}.cls-22{fill:#c875d1;}.cls-24{fill:#4d4d4d;}.cls-25{fill:#f28a22;}.cls-26{fill:#a4b797;}.cls-27{fill:#b4c7a9;}.cls-28{fill:#e2dfa6;}.cls-29{fill:#c5d2c0;}.cls-30{fill:#f4d083;}.cls-31{fill:#887146;}.cls-32{fill:#ea718b;}.cls-33{fill:#96ab8a;}.cls-34{fill:#80cecc;}</style></defs><rect class="cls-1" x="2.56" y="-0.64" width="1599" height="899"/><path d="M1601.06-.14v898H3.06V-.14h1598m1-1H2.06v900h1600v-900Z"/><circle class="cls-2" cx="924.56" cy="204.36" r="205.5"/><circle class="cls-3" cx="924.06" cy="204.86" r="229"/><circle class="cls-3" cx="925.06" cy="202.86" r="255"/><circle class="cls-3" cx="922.56" cy="203.36" r="279.5"/><circle class="cls-3" cx="923.56" cy="204.36" r="304.5"/><circle class="cls-3" cx="924.06" cy="205.86" r="331"/><circle class="cls-3" cx="922.56" cy="202.36" r="357.5"/><path id="mørk" class="cls-4" d="M719.06,204.36s46.21,6.5,62.1,0,49.2-12.5,48.05.5,19.85,1,26.85,13-24,17-30,11-20-17-31-7-33.57-13.16-47.29-7.58-26.95,17.13-26.95,17.13A266,266,0,0,1,719.06,204.36Z"/><path id="mørk-2" data-name="mørk" class="cls-4" d="M1089.38,81.3s-27.32,3.56-25.32,15.56-7,12-9,20-2,25,9,19,32-2,23-12-2.36-21.32,2.32-20.16,8.85-9.37,8.85-9.37"/><path id="mørk-3" data-name="mørk" class="cls-4" d="M810.48,49.21c12.58-8.35,53.58-18.35,62.58-6.35s24,33.52,32,34.26,22,32.85,1,26.8-61,3.94-60-14.06c0,0,14-17.73-8-18.86S810.48,49.21,810.48,49.21Z"/><path id="mørk-4" data-name="mørk" class="cls-4" d="M1102.33,307.5s-100.27-56.64-126.27-36.64S910.91,265.23,911,287s71,2.1,62.52,20.46,42.56,22.36,46.56,9.36,18.36-13.72,28.18-9.36S1033,326,1054,333.43s30.43,0,30.43,0"/><path id="mørk-5" data-name="mørk" class="cls-4" d="M759.66,310.28c-2-17.08,47.23-14.42,57.31-11.42s35.11,0,47.6,2c0,0,26.65,3.78,27.57,16.89,0,0-22.14,2.95-43.11-7.47s-43.45-6.73-43.71-2.57S761.27,323.7,759.66,310.28Z"/><path id="mørk-6" data-name="mørk" class="cls-4" d="M970.06,176.86c0-25.06-57.94-59.48-53-39.74s-13,47.88,8,48.81,48.65,7.93,59.82,18.93S1028,225.7,1039,214.28s44.19-6.82,37.11-17.12-31.08-19.3-42.08-15.3S970.06,193.86,970.06,176.86Z"/><path id="nr_5" data-name="nr 5" class="cls-5" d="M2.06,345.61s217-56.75,286-31.75S534,345.61,534,345.61s200.07-37.25,268.07,0,204.2,32.05,204.2,32.05V581.21H2.06Z"/><path id="nr_4" data-name="nr 4" class="cls-6" d="M2.06,489.58S178,549.08,313,549.47s211.86-85.13,360.44-84.37,233.59-102.24,380.59-106.24,242-22,346-8,202,15.5,202,15.5V720H2.06Z"/><path id="nr_3" data-name="nr 3" class="cls-7" d="M1602.06,489.58s-177.23-53.72-377.62-20.72-295.38,122-444.38,144l-270.45,28.5s4.14,45.08,4.79,65.79H1602.06Z"/><path id="nr_2" data-name="nr 2" class="cls-8" d="M2.06,689.78s202.5,27.58,282.5,28.58,264.73-17.58,358.86-14.29,251.16-52.71,330.15-62.71,237-110,325-89,238,13.47,303.5,59.74v49.47s-263.5-39.21-350.5,30.79c0,0-57.14-35.5-227.07,77.75,0,0-83.93,72.25-263.93-25.75,0,0-44-34-195,42,0,0-291-14.19-317.48,9.41,0,0-125.52-3.46-246,66.57Z"/><path id="nr_1" data-name="nr 1" class="cls-9" d="M2.06,834.52s244.5-89.16,422.5-66.16,245-59,321-46,107.05,62.76,216,55.38,150-111.38,229-103.38,129-33,211-33,186,.42,200.5,20.21V898.86H2.06Z"/><path class="cls-10" d="M2.06,94s108-22.87,182,0,56,52.87,138,52.87,108-23.2,137-15.6,247,85.6,291,57.6S1046,204.74,1075.51,253.8s125.56,97.06,125.56,97.06l-42.4,2.89s-148.26-85.16-182.44-72.52-94.17-58.37-133.17-54.37S714.89,198.7,677.47,214.28s-112.66,2.18-143.54-17.12-90.87-43.3-109.87-37.3c0,0-155.89.6-157.45,20.8s-79.55-31.8-104.55-24.8-62-30-82-25-78-8.55-78-8.55Z"/><path class="cls-11" d="M1602.06,744.16s-65.79-36.72-121.4-37-153.6-89.29-153.6-89.29-74-113-148-109-169-73.44-171-80.72S853.38,294.46,832.72,301.66s-89.66-20.8-119.66-12.8-123-8.4-133.53,12.8-39.44,42.87-39.44,42.87l15-2.67s36-48.41,46.5-37.2c0,0,10.5,7.2,33.5-5.8s35,1,47,1,29-8,46-6,30,17,50,18,48-3,57,11,30,7,42,19,43,39,48,74,75,42,98,79,157,102,119,80,102,39,113,92,209,153,169,118c0,0-67-34-37-38s53-30,95-5,56.34-1.5,81.67,28.25c0,0,31.33,26.09,38.33,43.92Z"/><path class="cls-12" d="M1571.29,566.86s-9.37-56.33-5.68-54.83-47.26-32.19-41.44-53.66c0,0,16.24,27.33,26.21,29.8s0-29.8,0-29.8,11.95,27.29,10,32.26,3.41,9.46,3.41,9.46-2.41-43.29,1.07-51.25c0,0-14-21-10.26-33.86,0,0,5.78,27.4,11.75,27.89,0,0,3.49-41.26,17.91-45,0,0-18.16,20.51-16,84.5,0,0,25.5.31,26.5-26.55,0,0,8.46,24.38-26.37,31.84,0,0,.5,36.81,3,41.79,0,0,10-2.54,11.72-11,0,0,.71,11.57-11.72,14.75,0,0,5.1,27.86,8.52,28.46"/><path class="cls-13" d="M1428.18,567.45s38.29-60.79,47.59-117.59c0,0,26.67,115.38,44.32,117.59h-28.37s20.19,88.95,42.91,97.21h-31.39s34.49,87.78,44.82,90.88H1407.17s38.65-73.32,35.55-89.84h-27.88S1451,594.44,1451,567.59Z"/><path class="cls-14" d="M1603.91,819.19s-188.56-.75-175.58-69.35,64.4-18.39,64.07-66.28-37.21-38.95-35.69-55.46,43.26-21.42,50.38,8.7c0,0,36.47,32.72,25.05-46.36,0,0-69.84-27.33-57.23-63.3S1504.45,484,1522,482.72s81.36,21.43,81.69,61.16"/><path class="cls-12" d="M1511.52,854.86s36.21-62.64,19.94-111.46-31.16-91.82-31.16-91.82,20,63.67,35.36,62.12,38.84-110.82,8.53-142.1c0,0-34.94-27.12-28.39-57.84,0,0,15.67,44.79,31.61,36.32,0,0,14.19-14.72,11.48-36.32,0,0,2.74,40.23.35,47.39,0,0,16,79.32,6.15,90.43s28.75-.41,27.35-28.82c0,0,2.51,39.28-30.69,45.14L1546.54,743s53.91-17.83,55.21-44.52c0,0-3.25,43-57.27,54.67,0,0-14.85,94.7-9.38,101.7"/><path class="cls-15" d="M702.77,360.78s8.4-13.32,10.44-25.77c0,0,5.85,25.29,9.71,25.77H716.7s4.43,19.51,9.41,21.32h-6.88s7.56,19.24,9.83,19.92H698.17s8.47-16.07,7.79-19.7h-6.11s7.92-15.62,7.92-21.5Z"/><path class="cls-12" d="M559.53,384.33s-2.13-12.81-1.29-12.47-10.75-7.32-9.43-12.2c0,0,3.7,6.21,6,6.77s0-6.77,0-6.77,2.71,6.2,2.26,7.33.78,2.15.78,2.15-.55-9.84.24-11.65c0,0-3.19-4.77-2.33-7.7,0,0,1.31,6.23,2.67,6.34,0,0,.79-9.39,4.07-10.24,0,0-4.13,4.67-3.65,19.22a6,6,0,0,0,6-6s1.92,5.55-6,7.25c0,0,.12,8.37.68,9.5,0,0,2.28-.58,2.67-2.49a3.34,3.34,0,0,1-2.67,3.35s1.16,6.34,1.94,6.47"/><path class="cls-12" d="M434.53,378.33s-2.13-12.81-1.29-12.47-10.75-7.32-9.43-12.2c0,0,3.7,6.21,6,6.77s0-6.77,0-6.77,2.71,6.2,2.26,7.33.78,2.15.78,2.15-.55-9.84.24-11.65c0,0-3.19-4.77-2.33-7.7,0,0,1.31,6.23,2.67,6.34,0,0,.79-9.39,4.07-10.24,0,0-4.13,4.67-3.65,19.22a6,6,0,0,0,6-6s1.92,5.55-6,7.25c0,0,.12,8.37.68,9.5,0,0,2.28-.58,2.67-2.49a3.34,3.34,0,0,1-2.67,3.35s1.16,6.34,1.94,6.47"/><path class="cls-16" d="M617.13,329.6s5.41-8.58,6.72-16.59c0,0,3.77,16.28,6.26,16.59h-4s2.85,12.56,6.06,13.73h-4.43s4.87,12.39,6.33,12.83H614.17s5.45-10.35,5-12.69h-3.94s5.1-10.06,5.1-13.85Z"/><path class="cls-15" d="M535,372.41s16.17.85,12.44-7.68-1.74-8.83-.64-9.52,5.3-4.74,2-8-5.78-.48-6.71-5.2-8.61-6.17-8.61-6.17-9.09-.45-9.42,2.47-1.69,5.6,1.58,8.49.48,6.58.73,10.11,3,3.85,3.15,6.54-3.4,2.61-3.15,6.31S535,372.41,535,372.41Z"/><path class="cls-17" d="M535.87,375.46s.53-14-7.77-20.25c0,0,7.25,1.79,8.88,13,0,0,2.24-17.31-4-22.14,0,0-4.57-5.74-3.43-7.84,0,0,2.13,4.91,4.87,7.12s5-3.65,5-3.65,0,4-2.87,6.32c0,0,2.38,5.25,1.83,7.15,0,0,3.56,2.13,6-1.94,0,0,.06,3.65-6,3.6a32.38,32.38,0,0,1,0,6.44s5.86.58,7.53-2.12c0,0,.25,2.74-7.53,3.1,0,0-1.91,10.32-1.38,11.17"/><path class="cls-15" d="M475.2,388s23.48,1.23,18.06-11.16S490.75,364,492.34,363s7.7-6.89,2.93-11.68-8.39-.71-9.73-7.56-12.51-9-12.51-9-13.21-.66-13.68,3.6-2.46,8.12,2.29,12.32.69,9.56,1.06,14.68,4.35,5.59,4.57,9.5-4.94,3.79-4.57,9.16S475.2,388,475.2,388Z"/><path class="cls-17" d="M476.45,392.41s.77-20.33-11.28-29.4c0,0,10.53,2.59,12.9,18.94,0,0,3.24-25.15-5.82-32.16,0,0-6.64-8.34-5-11.38,0,0,3.1,7.13,7.08,10.33s7.27-5.3,7.27-5.3,0,5.86-4.17,9.17c0,0,3.46,7.64,2.67,10.4,0,0,5.17,3.09,8.66-2.82,0,0,.09,5.3-8.66,5.22a47.64,47.64,0,0,1,0,9.36s8.5.84,10.93-3.08c0,0,.36,4-10.93,4.51,0,0-2.78,15-2,16.21"/><path class="cls-16" d="M543.28,447s36.29,1.9,27.92-17.24-3.89-19.82-1.43-21.36,11.89-10.64,4.52-18-13-1.09-15-11.68-19.33-13.84-19.33-13.84-20.41-1-21.14,5.56-3.79,12.55,3.55,19.05,1.06,14.76,1.63,22.67,6.72,8.64,7.07,14.69S523.4,432.65,524,441,543.28,447,543.28,447Z"/><path class="cls-17" d="M545.22,453.83s1.19-31.41-17.43-45.43c0,0,16.26,4,19.93,29.26,0,0,5-38.85-9-49.69,0,0-10.26-12.88-7.69-17.58,0,0,4.78,11,10.94,16s11.22-8.2,11.22-8.2,0,9-6.44,14.18c0,0,5.34,11.79,4.12,16.06,0,0,8,4.78,13.38-4.36,0,0,.14,8.19-13.38,8.07,0,0,.88,8.71,0,14.46,0,0,13.14,1.3,16.9-4.76,0,0,.56,6.15-16.9,7,0,0-4.29,23.15-3.1,25.05"/><path class="cls-18" d="M510.9,395.85s21.66,1.13,16.66-10.29-2.32-11.83-.85-12.75,7.1-6.35,2.7-10.77-7.74-.65-9-7-11.53-8.26-11.53-8.26-12.18-.61-12.62,3.31-2.26,7.5,2.12,11.37.64,8.81,1,13.53,4,5.16,4.21,8.77-4.55,3.49-4.21,8.44S510.9,395.85,510.9,395.85Z"/><path class="cls-17" d="M512.06,399.92s.71-18.75-10.41-27.11c0,0,9.71,2.39,11.9,17.46,0,0,3-23.19-5.37-29.65,0,0-6.12-7.69-4.59-10.5,0,0,2.86,6.58,6.53,9.54s6.7-4.9,6.7-4.9,0,5.41-3.84,8.47c0,0,3.18,7,2.46,9.58,0,0,4.76,2.85,8-2.6,0,0,.09,4.88-8,4.81a43.62,43.62,0,0,1,0,8.63s7.84.78,10.08-2.84c0,0,.33,3.67-10.08,4.16,0,0-2.57,13.82-1.85,14.95"/><path class="cls-18" d="M461.63,454.88s42.41,2.22,32.62-20.15-4.53-23.17-1.67-25,13.91-12.44,5.29-21.1S482.72,387.4,480.3,375s-22.59-16.18-22.59-16.18-23.85-1.19-24.71,6.5-4.43,14.67,4.15,22.26,1.24,17.25,1.91,26.5,7.85,10.1,8.26,17.16-8.93,6.85-8.26,16.54S461.63,454.88,461.63,454.88Z"/><path class="cls-17" d="M463.9,462.86s1.38-36.72-20.38-53.09c0,0,19,4.68,23.29,34.19,0,0,5.86-45.41-10.51-58.08,0,0-12-15.05-9-20.54,0,0,5.59,12.87,12.78,18.66s13.12-9.58,13.12-9.58.06,10.58-7.53,16.57c0,0,6.25,13.78,4.82,18.78,0,0,9.34,5.58,15.64-5.1,0,0,.17,9.57-15.64,9.43,0,0,1,10.18,0,16.9,0,0,15.36,1.52,19.75-5.56,0,0,.65,7.18-19.75,8.14,0,0-5,27.06-3.62,29.28"/><path class="cls-19" d="M1571.25,397.86s-2.41-26.29,9.6-26.27,10,26.27,10,26.27"/><path class="cls-20" d="M1572.29,397.86s-2.42-26.29,9.6-26.27,10,26.27,10,26.27"/><polyline class="cls-19" points="1592 394.61 1590.22 393.44 1589.19 392.4 1587.11 392.85 1589.34 391.96 1590.08 392.99 1590.96 393.59 1592 393.53"/><path class="cls-19" d="M1542.23,385.14s-2.08-22.57,8.24-22.55,8.59,22.55,8.59,22.55"/><path class="cls-20" d="M1543.12,385.14s-2.08-22.57,8.24-22.55,8.59,22.55,8.59,22.55"/><polyline class="cls-19" points="1560.04 382.35 1558.51 381.35 1557.62 380.45 1555.84 380.84 1557.75 380.07 1558.38 380.96 1559.15 381.47 1560.04 381.42"/><path class="cls-19" d="M1522.19,371.13s-1.62-17.55,6.41-17.54,6.68,17.54,6.68,17.54"/><path class="cls-20" d="M1522.88,371.13s-1.61-17.55,6.41-17.54,6.68,17.54,6.68,17.54"/><polyline class="cls-19" points="1536.04 368.96 1534.85 368.18 1534.16 367.48 1532.78 367.78 1534.26 367.19 1534.76 367.88 1535.35 368.27 1536.04 368.24"/><path class="cls-19" d="M1563.14,367.86s-1-11.28,4.12-11.27,4.3,11.27,4.3,11.27"/><path class="cls-20" d="M1563.59,367.86s-1-11.28,4.12-11.27,4.29,11.27,4.29,11.27"/><polyline class="cls-19" points="1572.05 366.46 1571.28 365.96 1570.84 365.52 1569.95 365.71 1570.9 365.33 1571.22 365.77 1571.6 366.03 1572.05 366"/><path class="cls-19" d="M1478.25,404.86s-2.41-26.29,9.6-26.27,10,26.27,10,26.27"/><path class="cls-20" d="M1479.29,404.86s-2.42-26.29,9.6-26.27,10,26.27,10,26.27"/><polyline class="cls-19" points="1499 401.61 1497.22 400.44 1496.19 399.4 1494.11 399.85 1496.34 398.96 1497.08 399.99 1497.96 400.59 1499 400.53"/><path class="cls-19" d="M1499.23,385.14s-2.08-22.57,8.24-22.55,8.59,22.55,8.59,22.55"/><path class="cls-20" d="M1500.12,385.14s-2.08-22.57,8.24-22.55,8.59,22.55,8.59,22.55"/><polyline class="cls-19" points="1517.04 382.35 1515.51 381.35 1514.62 380.45 1512.84 380.84 1514.75 380.07 1515.38 380.96 1516.15 381.47 1517.04 381.42"/><path class="cls-19" d="M1480.19,371.13s-1.62-17.55,6.41-17.54,6.68,17.54,6.68,17.54"/><path class="cls-20" d="M1480.88,371.13s-1.61-17.55,6.41-17.54,6.68,17.54,6.68,17.54"/><polyline class="cls-19" points="1494.04 368.96 1492.85 368.18 1492.16 367.48 1490.78 367.78 1492.26 367.19 1492.76 367.88 1493.35 368.27 1494.04 368.24"/><path class="cls-19" d="M1449.14,363.86s-1-11.28,4.12-11.27,4.3,11.27,4.3,11.27"/><path class="cls-20" d="M1449.59,363.86s-1-11.28,4.12-11.27,4.29,11.27,4.29,11.27"/><polyline class="cls-19" points="1458.05 362.46 1457.28 361.96 1456.84 361.52 1455.95 361.71 1456.9 361.33 1457.22 361.77 1457.6 362.03 1458.05 362"/><path class="cls-19" d="M1439.25,389.86s-2.41-26.29,9.6-26.27,10,26.27,10,26.27"/><path class="cls-20" d="M1440.29,389.86s-2.42-26.29,9.6-26.27,10,26.27,10,26.27"/><polyline class="cls-19" points="1460 386.61 1458.22 385.44 1457.19 384.4 1455.11 384.85 1457.34 383.96 1458.08 384.99 1458.96 385.59 1460 385.53"/><path class="cls-19" d="M1410.23,377.14s-2.08-22.57,8.24-22.55,8.59,22.55,8.59,22.55"/><path class="cls-20" d="M1411.12,377.14s-2.08-22.57,8.24-22.55,8.59,22.55,8.59,22.55"/><polyline class="cls-19" points="1428.04 374.35 1426.51 373.35 1425.62 372.45 1423.84 372.84 1425.75 372.07 1426.38 372.96 1427.15 373.47 1428.04 373.42"/><path class="cls-19" d="M1390.19,363.13s-1.62-17.55,6.41-17.54,6.68,17.54,6.68,17.54"/><path class="cls-20" d="M1390.88,363.13s-1.61-17.55,6.41-17.54,6.68,17.54,6.68,17.54"/><polyline class="cls-19" points="1404.04 360.96 1402.85 360.18 1402.16 359.48 1400.78 359.78 1402.26 359.19 1402.76 359.88 1403.35 360.27 1404.04 360.24"/><path class="cls-19" d="M1431.14,359.86s-1-11.28,4.12-11.27,4.3,11.27,4.3,11.27"/><path class="cls-20" d="M1431.59,359.86s-1-11.28,4.12-11.27,4.29,11.27,4.29,11.27"/><polyline class="cls-19" points="1440.05 358.46 1439.28 357.96 1438.84 357.52 1437.95 357.71 1438.9 357.33 1439.22 357.77 1439.6 358.03 1440.05 358"/><path class="cls-19" d="M1320.25,387.86s-2.41-26.29,9.6-26.27,10,26.27,10,26.27"/><path class="cls-20" d="M1321.29,387.86s-2.42-26.29,9.6-26.27,10,26.27,10,26.27"/><polyline class="cls-19" points="1341 384.61 1339.22 383.44 1338.19 382.4 1336.11 382.85 1338.34 381.96 1339.08 382.99 1339.96 383.59 1341 383.53"/><path class="cls-19" d="M1367.23,377.14s-2.08-22.57,8.24-22.55,8.59,22.55,8.59,22.55"/><path class="cls-20" d="M1368.12,377.14s-2.08-22.57,8.24-22.55,8.59,22.55,8.59,22.55"/><polyline class="cls-19" points="1385.04 374.35 1383.51 373.35 1382.62 372.45 1380.84 372.84 1382.75 372.07 1383.38 372.96 1384.15 373.47 1385.04 373.42"/><path class="cls-19" d="M1348.19,363.13s-1.62-17.55,6.41-17.54,6.68,17.54,6.68,17.54"/><path class="cls-20" d="M1348.88,363.13s-1.61-17.55,6.41-17.54,6.68,17.54,6.68,17.54"/><polyline class="cls-19" points="1362.04 360.96 1360.85 360.18 1360.16 359.48 1358.78 359.78 1360.26 359.19 1360.76 359.88 1361.35 360.27 1362.04 360.24"/><path class="cls-19" d="M1317.14,355.86s-1-11.28,4.12-11.27,4.3,11.27,4.3,11.27"/><path class="cls-20" d="M1317.59,355.86s-1-11.28,4.12-11.27,4.29,11.27,4.29,11.27"/><polyline class="cls-19" points="1326.05 354.46 1325.28 353.96 1324.84 353.52 1323.95 353.71 1324.9 353.33 1325.22 353.77 1325.6 354.03 1326.05 354"/><path class="cls-12" d="M522.55,446.33s-3.91-23.48-2.37-22.86-19.7-13.42-17.28-22.37c0,0,6.77,11.39,10.93,12.42s0-12.42,0-12.42,5,11.37,4.15,13.45,1.42,3.94,1.42,3.94-1-18.05.45-21.37c0,0-5.86-8.74-4.28-14.12,0,0,2.41,11.42,4.9,11.63,0,0,1.46-17.2,7.47-18.77,0,0-7.57,8.56-6.69,35.24,0,0,10.63.13,11-11.07,0,0,3.53,10.16-11,13.27,0,0,.21,15.35,1.25,17.43,0,0,4.17-1.06,4.89-4.58a6.15,6.15,0,0,1-4.89,6.16s2.12,11.61,3.55,11.86"/><path class="cls-15" d="M480.89,428.65s12.26-19.46,15.24-37.64c0,0,8.54,36.93,14.19,37.64h-9.08s6.46,28.48,13.73,31.12H504.92s11,28.1,14.35,29.09h-45.1s12.37-23.47,11.38-28.76h-8.93s11.57-22.81,11.57-31.41Z"/><path class="cls-12" d="M699.53,388.33s-2.13-12.81-1.29-12.47-10.75-7.32-9.43-12.2c0,0,3.7,6.21,6,6.77s0-6.77,0-6.77,2.71,6.2,2.26,7.33.78,2.15.78,2.15-.55-9.84.24-11.65c0,0-3.19-4.77-2.33-7.7,0,0,1.31,6.23,2.67,6.34,0,0,.79-9.39,4.07-10.24,0,0-4.13,4.67-3.65,19.22a6,6,0,0,0,6-6s1.92,5.55-6,7.25c0,0,.12,8.37.68,9.5,0,0,2.28-.58,2.67-2.49a3.34,3.34,0,0,1-2.67,3.35s1.16,6.34,1.94,6.47"/><path class="cls-12" d="M574.53,382.33s-2.13-12.81-1.29-12.47-10.75-7.32-9.43-12.2c0,0,3.7,6.21,6,6.77s0-6.77,0-6.77,2.71,6.2,2.26,7.33.78,2.15.78,2.15-.55-9.84.24-11.65c0,0-3.19-4.77-2.33-7.7,0,0,1.31,6.23,2.67,6.34,0,0,.79-9.39,4.07-10.24,0,0-4.13,4.67-3.65,19.22a6,6,0,0,0,6-6s1.92,5.55-6,7.25c0,0,.12,8.37.68,9.5,0,0,2.28-.58,2.67-2.49a3.34,3.34,0,0,1-2.67,3.35s1.16,6.34,1.94,6.47"/><path class="cls-16" d="M757.13,333.6s5.41-8.58,6.72-16.59c0,0,3.77,16.28,6.26,16.59h-4s2.85,12.56,6.06,13.73h-4.43s4.87,12.39,6.33,12.83H754.17s5.45-10.35,5-12.69h-3.94s5.1-10.06,5.1-13.85Z"/><path class="cls-15" d="M675,376.41s16.17.85,12.44-7.68-1.74-8.83-.64-9.52,5.3-4.74,2-8-5.78-.48-6.71-5.2-8.61-6.17-8.61-6.17-9.09-.45-9.42,2.47-1.69,5.6,1.58,8.49.48,6.58.73,10.11,3,3.85,3.15,6.54-3.4,2.61-3.15,6.31S675,376.41,675,376.41Z"/><path class="cls-17" d="M675.87,379.46s.53-14-7.77-20.25c0,0,7.25,1.79,8.88,13,0,0,2.24-17.31-4-22.14,0,0-4.57-5.74-3.43-7.84,0,0,2.13,4.91,4.87,7.12s5-3.65,5-3.65,0,4-2.87,6.32c0,0,2.38,5.25,1.83,7.15,0,0,3.56,2.13,6-1.94,0,0,.06,3.65-6,3.6a32.38,32.38,0,0,1,0,6.44s5.86.58,7.53-2.12c0,0,.25,2.74-7.53,3.1,0,0-1.91,10.32-1.38,11.17"/><path class="cls-15" d="M615.2,392s23.48,1.23,18.06-11.16S630.75,368,632.34,367s7.7-6.89,2.93-11.68-8.39-.71-9.73-7.56-12.51-9-12.51-9-13.21-.66-13.68,3.6-2.46,8.12,2.29,12.32.69,9.56,1.06,14.68,4.35,5.59,4.57,9.5-4.94,3.79-4.57,9.16S615.2,392,615.2,392Z"/><path class="cls-17" d="M616.45,396.41s.77-20.33-11.28-29.4c0,0,10.53,2.59,12.9,18.94,0,0,3.24-25.15-5.82-32.16,0,0-6.64-8.34-5-11.38,0,0,3.1,7.13,7.08,10.33s7.27-5.3,7.27-5.3,0,5.86-4.17,9.17c0,0,3.46,7.64,2.67,10.4,0,0,5.17,3.09,8.66-2.82,0,0,.09,5.3-8.66,5.22a47.64,47.64,0,0,1,0,9.36s8.5.84,10.93-3.08c0,0,.36,4-10.93,4.51,0,0-2.78,15-2,16.21"/><path class="cls-16" d="M683.28,451s36.29,1.9,27.92-17.24-3.89-19.82-1.43-21.36,11.89-10.64,4.52-18-13-1.09-15-11.68-19.33-13.84-19.33-13.84-20.41-1-21.14,5.56-3.79,12.55,3.55,19.05,1.06,14.76,1.63,22.67,6.72,8.64,7.07,14.69S663.4,436.65,664,445,683.28,451,683.28,451Z"/><path class="cls-17" d="M685.22,457.83s1.19-31.41-17.43-45.43c0,0,16.26,4,19.93,29.26,0,0,5-38.85-9-49.69,0,0-10.26-12.88-7.69-17.58,0,0,4.78,11,10.94,16s11.22-8.2,11.22-8.2,0,9-6.44,14.18c0,0,5.34,11.79,4.12,16.06,0,0,8,4.78,13.38-4.36,0,0,.14,8.19-13.38,8.07,0,0,.88,8.71,0,14.46,0,0,13.14,1.3,16.9-4.76,0,0,.56,6.15-16.9,7,0,0-4.29,23.15-3.1,25.05"/><path class="cls-18" d="M650.9,399.85s21.66,1.13,16.66-10.29-2.32-11.83-.85-12.75,7.1-6.35,2.7-10.77-7.74-.65-9-7-11.53-8.26-11.53-8.26-12.18-.61-12.62,3.31-2.26,7.5,2.12,11.37.64,8.81,1,13.53,4,5.16,4.21,8.77-4.55,3.49-4.21,8.44S650.9,399.85,650.9,399.85Z"/><path class="cls-17" d="M652.06,403.92s.71-18.75-10.41-27.11c0,0,9.71,2.39,11.9,17.46,0,0,3-23.19-5.37-29.65,0,0-6.12-7.69-4.59-10.5,0,0,2.86,6.58,6.53,9.54s6.7-4.9,6.7-4.9,0,5.41-3.84,8.47c0,0,3.18,7,2.46,9.58,0,0,4.76,2.85,8-2.6,0,0,.09,4.88-8,4.81a43.62,43.62,0,0,1,0,8.63s7.84.78,10.08-2.84c0,0,.33,3.67-10.08,4.16,0,0-2.57,13.82-1.85,14.95"/><path class="cls-18" d="M601.63,458.88s42.41,2.22,32.62-20.15-4.53-23.17-1.67-25,13.91-12.44,5.29-21.1S622.72,391.4,620.3,379s-22.59-16.18-22.59-16.18-23.85-1.19-24.71,6.5-4.43,14.67,4.15,22.26,1.24,17.25,1.91,26.5,7.85,10.1,8.26,17.16-8.93,6.85-8.26,16.54S601.63,458.88,601.63,458.88Z"/><path class="cls-17" d="M603.9,466.86s1.38-36.72-20.38-53.09c0,0,19,4.68,23.29,34.19,0,0,5.86-45.41-10.51-58.08,0,0-12-15.05-9-20.54,0,0,5.59,12.87,12.78,18.66s13.12-9.58,13.12-9.58.06,10.58-7.53,16.57c0,0,6.25,13.78,4.82,18.78,0,0,9.34,5.58,15.64-5.1,0,0,.17,9.57-15.64,9.43,0,0,1,10.18,0,16.9,0,0,15.36,1.52,19.75-5.56,0,0,.65,7.18-19.75,8.14,0,0-5,27.06-3.62,29.28"/><path class="cls-12" d="M662.55,450.33s-3.91-23.48-2.37-22.86-19.7-13.42-17.28-22.37c0,0,6.77,11.39,10.93,12.42s0-12.42,0-12.42,5,11.37,4.15,13.45,1.42,3.94,1.42,3.94-1-18.05.45-21.37c0,0-5.86-8.74-4.28-14.12,0,0,2.41,11.42,4.9,11.63,0,0,1.46-17.2,7.47-18.77,0,0-7.57,8.56-6.69,35.24,0,0,10.63.13,11-11.07,0,0,3.53,10.16-11,13.27,0,0,.21,15.35,1.25,17.43,0,0,4.17-1.06,4.89-4.58a6.15,6.15,0,0,1-4.89,6.16s2.12,11.61,3.55,11.86"/><path class="cls-12" d="M137.53,368.33s-2.13-12.81-1.29-12.47-10.75-7.32-9.43-12.2c0,0,3.7,6.21,6,6.77s0-6.77,0-6.77,2.71,6.2,2.26,7.33.78,2.15.78,2.15-.55-9.84.24-11.65c0,0-3.19-4.77-2.33-7.7,0,0,1.31,6.23,2.67,6.34,0,0,.79-9.39,4.07-10.24,0,0-4.13,4.67-3.65,19.22a6,6,0,0,0,6-6s1.92,5.55-6,7.25c0,0,.12,8.37.68,9.5,0,0,2.28-.58,2.67-2.49a3.34,3.34,0,0,1-2.67,3.35s1.16,6.34,1.94,6.47"/><path class="cls-12" d="M12.53,362.33s-2.13-12.81-1.29-12.47-10.75-7.32-9.43-12.2c0,0,3.7,6.21,6,6.77s0-6.77,0-6.77,2.71,6.2,2.26,7.33.78,2.15.78,2.15-.55-9.84.24-11.65c0,0-3.19-4.77-2.33-7.7,0,0,1.31,6.23,2.67,6.34,0,0,.79-9.39,4.07-10.24,0,0-4.13,4.67-3.65,19.22a6,6,0,0,0,6-6s1.92,5.55-6,7.25c0,0,.12,8.37.68,9.5,0,0,2.28-.58,2.67-2.49a3.34,3.34,0,0,1-2.67,3.35s1.16,6.34,1.94,6.47"/><path class="cls-16" d="M73.13,313.6S78.54,305,79.85,297c0,0,3.77,16.28,6.26,16.59h-4s2.85,12.56,6.06,13.73H83.73s4.87,12.39,6.33,12.83H70.17s5.45-10.35,5-12.69H71.25s5.1-10.06,5.1-13.85Z"/><path class="cls-15" d="M113,356.41s16.17.85,12.44-7.68-1.74-8.83-.64-9.52,5.3-4.74,2-8-5.78-.48-6.71-5.2-8.61-6.17-8.61-6.17-9.09-.45-9.42,2.47-1.69,5.6,1.58,8.49.48,6.58.73,10.11,3,3.85,3.15,6.54-3.4,2.61-3.15,6.31S113,356.41,113,356.41Z"/><path class="cls-17" d="M113.87,359.46s.53-14-7.77-20.25c0,0,7.25,1.79,8.88,13,0,0,2.24-17.31-4-22.14,0,0-4.57-5.74-3.43-7.84,0,0,2.13,4.91,4.87,7.12s5-3.65,5-3.65,0,4-2.87,6.32c0,0,2.38,5.25,1.83,7.15,0,0,3.56,2.13,6-1.94,0,0,.06,3.65-6,3.6a32.38,32.38,0,0,1,0,6.44s5.86.58,7.53-2.12c0,0,.25,2.74-7.53,3.1,0,0-1.91,10.32-1.38,11.17"/><path class="cls-15" d="M53.2,372s23.48,1.23,18.06-11.16S68.75,348,70.34,347s7.7-6.89,2.93-11.68-8.39-.71-9.73-7.56-12.51-9-12.51-9-13.21-.66-13.68,3.6-2.46,8.12,2.29,12.32.69,9.56,1.06,14.68,4.35,5.59,4.57,9.5-4.94,3.79-4.57,9.16S53.2,372,53.2,372Z"/><path class="cls-17" d="M54.45,376.41s.77-20.33-11.28-29.4c0,0,10.53,2.59,12.9,18.94,0,0,3.24-25.15-5.82-32.16,0,0-6.64-8.34-5-11.38,0,0,3.1,7.13,7.08,10.33s7.27-5.3,7.27-5.3,0,5.86-4.17,9.17c0,0,3.46,7.64,2.67,10.4,0,0,5.17,3.09,8.66-2.82,0,0,.09,5.3-8.66,5.22a47.64,47.64,0,0,1,0,9.36s8.5.84,10.93-3.08c0,0,.36,4-10.93,4.51,0,0-2.78,15-2,16.21"/><path class="cls-16" d="M121.28,431s36.29,1.9,27.92-17.24-3.89-19.82-1.43-21.36,11.89-10.64,4.52-18-13-1.09-15-11.68-19.33-13.84-19.33-13.84-20.41-1-21.14,5.56-3.79,12.55,3.55,19.05,1.06,14.76,1.63,22.67,6.72,8.64,7.07,14.69S101.4,416.65,102,425,121.28,431,121.28,431Z"/><path class="cls-17" d="M123.22,437.83s1.19-31.41-17.43-45.43c0,0,16.26,4,19.93,29.26,0,0,5-38.85-9-49.69,0,0-10.26-12.88-7.69-17.58,0,0,4.78,11,10.94,16s11.22-8.2,11.22-8.2.05,9-6.44,14.18c0,0,5.34,11.79,4.12,16.06,0,0,8,4.78,13.38-4.36,0,0,.14,8.19-13.38,8.07,0,0,.88,8.71,0,14.46,0,0,13.14,1.3,16.9-4.76,0,0,.56,6.15-16.9,7,0,0-4.29,23.15-3.1,25.05"/><path class="cls-18" d="M88.9,379.85s21.66,1.13,16.66-10.29-2.32-11.83-.85-12.75,7.1-6.35,2.7-10.77-7.74-.65-9-7-11.53-8.26-11.53-8.26-12.18-.61-12.62,3.31-2.26,7.5,2.12,11.37.64,8.81,1,13.53,4,5.16,4.21,8.77-4.55,3.49-4.21,8.44S88.9,379.85,88.9,379.85Z"/><path class="cls-17" d="M90.06,383.92s.71-18.75-10.41-27.11c0,0,9.71,2.39,11.9,17.46,0,0,3-23.19-5.37-29.65,0,0-6.12-7.69-4.59-10.5,0,0,2.86,6.58,6.53,9.54s6.7-4.9,6.7-4.9,0,5.41-3.84,8.47c0,0,3.18,7,2.46,9.58,0,0,4.76,2.85,8-2.6,0,0,.09,4.88-8,4.81a43.62,43.62,0,0,1,0,8.63s7.84.78,10.08-2.84c0,0,.33,3.67-10.08,4.16,0,0-2.57,13.82-1.85,14.95"/><path class="cls-18" d="M39.63,438.88S82,441.1,72.25,418.73s-4.53-23.17-1.67-25,13.91-12.44,5.29-21.1S60.72,371.4,58.3,359s-22.59-16.18-22.59-16.18-23.85-1.19-24.71,6.5S6.57,364,15.15,371.6s1.24,17.25,1.91,26.5,7.85,10.1,8.26,17.16-8.93,6.85-8.26,16.54S39.63,438.88,39.63,438.88Z"/><path class="cls-17" d="M41.9,446.86s1.38-36.72-20.38-53.09c0,0,19,4.68,23.29,34.19,0,0,5.86-45.41-10.51-58.08,0,0-12-15.05-9-20.54,0,0,5.59,12.87,12.78,18.66s13.12-9.58,13.12-9.58S51.28,369,43.69,375c0,0,6.25,13.78,4.82,18.78,0,0,9.34,5.58,15.64-5.1,0,0,.17,9.57-15.64,9.43,0,0,1,10.18,0,16.9,0,0,15.36,1.52,19.75-5.56,0,0,.65,7.18-19.75,8.14,0,0-5,27.06-3.62,29.28"/><path class="cls-12" d="M100.55,430.33s-3.91-23.48-2.37-22.86S78.48,394.05,80.9,385.1c0,0,6.77,11.39,10.93,12.42s0-12.42,0-12.42,5,11.37,4.15,13.45,1.42,3.94,1.42,3.94-1-18.05.45-21.37c0,0-5.86-8.74-4.28-14.12,0,0,2.41,11.42,4.9,11.63,0,0,1.46-17.2,7.47-18.77,0,0-7.57,8.56-6.69,35.24,0,0,10.63.13,11-11.07,0,0,3.53,10.16-11,13.27,0,0,.21,15.35,1.25,17.43,0,0,4.17-1.06,4.89-4.58a6.15,6.15,0,0,1-4.89,6.16s2.12,11.61,3.55,11.86"/><path class="cls-15" d="M58.89,412.65S71.15,393.19,74.13,375c0,0,8.54,36.93,14.19,37.64H79.24S85.7,441.13,93,443.77h-10s11,28.1,14.35,29.09H52.17s12.37-23.47,11.38-28.76H54.62s11.57-22.81,11.57-31.41Z"/><path class="cls-21" d="M614.35,607.88s32,21.49,58.83,15.38c0,0,25.83-3.29,34.76-9.39,0,0,15-12.22,28.19-16.92,0,0,26.3-1.88,31.94-7.51,0,0,2.82-9.4-30.54-4.23,0,0-14.09,2.82-30.06,16,0,0-33.32,18.06-47.9,10.2,0,0-22.52-.83-36.4-14.68C623.17,596.7,614.72,604.7,614.35,607.88Z"/><path class="cls-21" d="M525.93,492.75s-18.11-20.76,9.6-56.93c0,0,19.26-44.63,14.56-62.48,0,0,3.07-17.6-10.44-10.45,0,0-7.88,11.86-5.53,29.24,0,0-1.88,29.13-12.68,38.05,0,0-31.2,38.39-3.85,70.4C517.59,500.58,525.26,494.71,525.93,492.75Z"/><path class="cls-21" d="M416.68,556.55s-.31,9.46,28.5,17.42c0,0,16.13,14.06,15.19,33.79,0,0,10.33,10.33,31.47,16.44,0,0,7.52,4.7,13.63,24.9,0,0,.74,6.64,29,14.12,0,0,9.87,6.12,15.32,24.65,0,0,.95,10.86,11.18,10.94,0,0-35.87,51.87-52.28,52.28,0,0-12.65,7-83.12-67.23,0,0-70-90.66-62-96.77C363.59,587.09,409.16,552.79,416.68,556.55Z"/><path class="cls-22" d="M363.59,587.09s-55,46.51,3.76,109c0,0-27.71,8.92-48.85,43.21,0,0-16-16.91-21.14-9.86S310,747.75,310,747.75s5.17,12.68,16.91-5.64c0,0,44.63-43.69,51.21-37.11,0,0,11.27,17.85,16.44,17.38,0,0-32.41,50.27-49.33,55,0,0-2.35,5.16,11.75,16.44,0,0,7,11.74,13.15,7.51,0,0,5.38-2.06-9.52-17.47,0,0-1.75-4.13,16.57-19.64,0,0,21.14-14.56,27.24-32.88,0,0,17.86,31,59.2,33.82,0,0,20.13,9,45.06-14,0,0-17.35,2.3-83.12-67.23C425.6,683.86,357,595.54,363.59,587.09Z"/><path class="cls-23" d="M416.68,556.55s-.31,9.46,28.5,17.42c0,0,15.19,13.12,15.19,33.79,0,0,17.38,14.56,31.47,16.44,0,0,8,6.11,13.63,24.9,0,0-1.14,5.7,29,14.12,0,0,8.11.29,17.72,31.13,0,0,5.13,5.32,8.78,4.46,0,0,53.72-69.68,53.35-90.93,0,0,18-23.61,52.72-49,0,0,84.56-62,31.94-126.84,0,0-37.36-56.83-102.53-9.39,0,0-25.18,16.61-70.55,70.08C525.93,492.75,506.88,520.85,416.68,556.55Z"/><ellipse class="cls-21" cx="625.26" cy="470.11" rx="25.25" ry="15.94" transform="translate(-149.29 579.82) rotate(-45)"/><ellipse class="cls-21" cx="652.51" cy="497.36" rx="25.25" ry="15.94" transform="translate(-160.57 607.06) rotate(-45)"/><path d="M639.82,455.55s9.4,11.28-10.33,23.49c0,0-14.1,11.27-20.2,4.23,0,0-7.37-7.34,7.12-22S639.82,455.55,639.82,455.55Z"/><path d="M665.19,480.92s9.39,11.27-10.34,23.49c0,0-14.09,11.27-20.2,4.23,0,0-7.36-7.34,7.13-22S665.19,480.92,665.19,480.92Z"/><path class="cls-23" d="M624.39,457.66s2.28,4.47,6,4.47,6.1-4.6,6.1-4.6S630.1,453.66,624.39,457.66Z"/><path class="cls-23" d="M651.64,483s2.27,4.47,6,4.47,6.11-4.6,6.11-4.6S657.35,479,651.64,483Z"/><path d="M576.4,488s-10.8,8.92,4.7,16c0,0,12,10.09,10.22,14.91,0,0,2.69,6.61,13.61,10.88,0,0,9.05,5.21,12.34,11.32,0,0,9.34,12.36,13.83,10.17,0,0,10.95-6.76,5.84-15.75s-20.61-15.09-20.61-15.09a45.81,45.81,0,0,1-19.26-19.26S588.62,477.63,576.4,488Z"/><path class="cls-11" d="M951,378.08s49.85-14.72,68.94-16.47,72.1-92.79,110.1-94.27,288.55-106.95,288.55-106.95,151.45-38.43,183.45-84V45.65s-22.53,56.84-69.77,59-101.93,48.84-135.58,50.51-42,33.37-83.32,31-76.79,33.74-98.06,45.2-130.24,32.55-144.26,56S951,378.08,951,378.08Z"/><g id="gravsten"><path id="gravsten-2" data-name="gravsten" class="cls-19" d="M45,892.3S-9.93,295.53,262.77,295.86,489.94,892.3,489.94,892.3"/><path id="gravsten-3" data-name="gravsten" class="cls-24" d="M68.48,892.3S13.6,295.53,286.3,295.86,513.47,892.3,513.47,892.3"/></g><g id="tekst"><path class="cls-25" d="M202.47,455.76a1.45,1.45,0,0,1-.42,2.27c-.87.57-1.27.16-1.53.33-1.14.75,2.44,5,.76,6.14-.92.63-2.1,0-2.94.59-1.75,1.25,3.94,6.22,2.58,7.21-.63.46-1.36-.2-1.65-.58s-1.86-2.7-2.1-3-.69-.59-1.34-.1.11,1.51-.69,2.13c-.64.49-2.12-.08-3.09.68-.72.58-.45,1.08-.93,1.47-.71.58-1.92-.08-2.72.59-.64.53-.14,1.27.27,1.76.62.73,1.68,1.51,2,1.94a1.47,1.47,0,0,1-.06,2.26c-2.19,1.9-4.72-3.1-6-2-1.77,1.6,2.91,4.15,1.35,5.59a2.13,2.13,0,0,1-3.08.15c-1.71-1.8-3.06.41-4.07-.61-1.58-1.59-2.18-3.58-4.07-5.53-1.29-1.32-2.1-.41-3-1.32-1.4-1.42-1.3-2.54-5.74-8.82-5.69-8-7.7-10.36-8.59-11.27-1.05-1.11-1.73-1.45-2.1-1.09-1.3,1.25,1.08,3.51,0,4.58-.63.62-1.45,0-2.36-.92-1.25-1.25-1.15-3.37-3-5.26-.56-.56-1.37-2.34-1.82-2.8a23,23,0,0,0-4.83-3.56c-1.3-1.3-.69-4.49,1.16-6.22.61-.59,2.68-1.63,3.51-2.38s2-2.55,3.59-3.91c.31-.28,2.68-1.56,3.42-2.17s2.85-3.05,4-4c1.51-1.21,5.22-2.2,5.81-2.53,7.63-4.13,13.71-3.72,15.41-1a19.4,19.4,0,0,0,3.65,4,16,16,0,0,1,1.88,4.31c1.14,4,3.31,5.57,1.41,6.82-.7.46-1,.06-1.56.47-.79.53-.31,1.46-1.48,2.28s-1.32.82-.95,1.35c1.38,1.92,6.61-1.65,7.5-.28.35.53,0,1.12.18,1.32s.59.28,1.48.37c2.51.08,3.5,1.45,4.57,3.14.95,1.48,1.53,2.82,2.65,4.76C200.08,453.58,202.17,455.29,202.47,455.76Zm-31.34-18.95c-.2.16-.1,2-.9,2.61-.2.15-1.26.87-1.85.12-.84-1.07-.31-2.91-1.47-4.43-.54-.7-2.14,0-3.38,1-1.64,1.32.18,2.53-.33,2.94-1.11.91-2.23-1.49-3.35-.55s.85,3.68,1.68,4.65c.52.61,1.18,1,1.49,1.36.82,1,.24,3.05,1,4,1.89,2.15,7.45-.65,9.19-2a4.07,4.07,0,0,0,.83-5.4c-.34-.45-1.12-.66-1.41-1-.54-.7-.3-2.28-.64-2.73S171.34,436.66,171.13,436.81Zm15,22.36c-1.18-1.53-1.64-4-2.31-4.89a1.7,1.7,0,0,0-2.57-.35c-1.28,1,1.82,2.73.66,3.65-.89.7-2.31.21-3.27-1a16.76,16.76,0,0,0-1.13-2c-.5-.62-.83-.66-1.38-.22-.83.67-.89,3,.86,5.09,1.34,1.59,3.74,1.48,4.19,2,.26.31.1.65-.33,1s-1.62.51-2.14,1a.76.76,0,0,0-.11,1.25c.62.73,1.48.53,2.61,1.87a1.08,1.08,0,0,0,1.62.21c.24-.21.56-.68.82-.89,1.09-.91,1.95.16,2.45-.25,3.19-2.57,4.4-5.62,3.7-6.6C189,458.13,186.8,460.18,186.16,459.17Z"/><path class="cls-25" d="M200.68,402.57c3.37-1.57,4.55-3.2,6.63-4.09s2.29-.09,4.19,1.81c.7.66,1.39,1.33,2.08,2a16,16,0,0,1,2,2.57c.27.67.36,2.26.68,3.08a23.21,23.21,0,0,0,2.85,5.16c.15.27,6.59,6.37,8.32,11.21,1.57,4.19,4.37,4.79,5.46,7.89a19.69,19.69,0,0,0,3.62,5.86c3.87,4.93,4.38,5.7,5.12,7.9s.21,3.38-1.24,3.88c-1.08.38-1.61.06-1.9-.77-.19-.53-.25-1.27-.42-1.73-.24-.67-.6-.8-1.15-.6-1.57.58.57,3.54-.78,4.05s-2.47-2.91-3.49-2.52c-.33.22-.37.67,0,1.56.21.52.92,1.52,1.25,2.34s0,1.63-.5,1.84c-1.67.69-3.23-3.25-4.37-5.72-.8-1.66-2.68-3.21-3.63-5.42s-2.26-3.91-3.72-3.26.41,3.76-1.2,4.5c-1.23.56-4.19-1.2-5-.81a.84.84,0,0,0-.24,1.19c.5,1,1.1.79,1.6,1.79.28.57-1.4,1.87-.92,2.8.29.57,1.4,1.17,1.84,2,1.26,2.48-3.36,1.92-1,6.3.6,1.13,1.2,2.25,0,2.9-2.22,1.23-2.84-3.09-4.58-2.11-.7.4-.55,2.63-1.22,3a.94.94,0,0,1-1.44-.27c-.74-1.23-.39-2-2.35-5.3a25.15,25.15,0,0,1-2.73-5.18c-.32-1.17-.64-2.35-1-3.52q-.81-3.75-1.53-7.54a5.68,5.68,0,0,0-.55-1.89c-.24-.42-.81-.27-1.17-.9a9.84,9.84,0,0,1-.72-3.64c-.35-3.56-1.56-3.9-3.44-12.27-1.18-5.35-6.52-14-2.32-16.14C195.33,404.08,198.27,403.7,200.68,402.57Zm9.54,28.26c.49,1,1.32,1.14,1.66,1.59.14.29-.36,1.07.17,2.15.28.58,1.52.31,3.54-.63,2.33-1.08,2.85-1.82,2.63-2.34a22.82,22.82,0,0,1-1.46-2.15c-2.18-4.9-2.84-5.22-3.27-5-1.07.49.73,2.75-.63,3.38s-2-3.41-3.15-2.85S209.37,429.11,210.22,430.83Z"/><path class="cls-25" d="M261.91,389.5c.17,1.27-1.24,4.71-1,6.29a10.44,10.44,0,0,0,.88,2.54c.15.95-.16,1.39-1.24,1.56-3.12.5-2.32-5.06-3.91-4.79-1.36.23-1.13,2.23-2.22,2.43-1.58.3-2.53-1.32-4.62-.89-2.69.56-3.16,1.92-2.45,5,.18.78.92,1.85,1,2.39.52,2.35.21,4.22.51,5.55.92,4,3.35,4.33,4.5,9.74.84,4-.63,6.36.09,9.48.52,2.26,1.65,3.08,2,4.72.12.55,0,1.39.1,1.86.2.86,1.73,2.24,1.92,3.18.2,2.31-4.84,2.33-3.66,7,.54,2.17,2,3.46,2.63,6,.2.85-.51,1.76-2.17,2.19-1.4.36-2.23.09-2.5-.91-.39-1.39.17-2.87-.18-4.18-.71-2.62-1.72-6.42-3.43-6-.85.24-.38,1.52-1.32,1.79-1.38.41-3.76-4.63-4.29-6.31-1.48-4.66-.78-12.05-1.26-13.82-1-3.46-1.7-3.84-2-5a100.54,100.54,0,0,1-1.75-11.07c-.32-2.82-.17-6.44-.55-7.83-.43-1.54-2.74-.89-3.82-.57-3.39,1-.74,5.73-3.9,6.74-2.68.9-3.32-4.48-7.26-3.09-1.31.47-3.08.44-3.42-.45-.23-.6,1-2.58.63-3.48s-2.18-2.52-2.41-3.12.29-1.13,1.28-1.49c2.12-.77,4.39-.28,6.62-1,4.74-1.54,6.92-3.91,10.11-4.78,5.74-1.52,7.14-.79,13.27-2.1,3.72-.77,6-2.28,7.79-2.59C259.55,384,261.64,387.52,261.91,389.5Z"/><path class="cls-25" d="M300.86,387.63c-.07,1.28-2.09,4.4-2.13,6a9.66,9.66,0,0,0,.39,2.66c0,1-.42,1.34-1.51,1.3-3.15-.08-1.34-5.39-2.95-5.42-1.37,0-1.51,2-2.62,2-1.6,0-2.24-1.76-4.36-1.73-2.74.06-3.44,1.3-3.33,4.49,0,.8.56,2,.57,2.55.08,2.39-.57,4.18-.51,5.54.16,4.07,2.47,4.88,2.59,10.4.08,4.08-1.79,6.14-1.66,9.34.08,2.31,1,3.33,1.09,5,0,.55-.26,1.36-.24,1.84,0,.88,1.27,2.53,1.29,3.49-.24,2.3-5.17,1.39-4.88,6.2.13,2.24,1.33,3.77,1.46,6.41,0,.88-.82,1.64-2.53,1.75-1.43.1-2.19-.32-2.28-1.35-.12-1.44.7-2.79.6-4.14-.2-2.72-.49-6.63-2.25-6.48-.87.07-.65,1.42-1.61,1.51-1.43.14-2.82-5.25-3-7-.58-4.86,1.46-12,1.32-13.81-.34-3.59-.95-4.09-1.07-5.28a99.18,99.18,0,0,1,.33-11.21c.21-2.83,1-6.35.9-7.79s-2.5-1.39-3.62-1.27c-3.49.37-1.78,5.49-5,5.89-2.78.38-2.41-5-6.51-4.4-1.36.21-3.07-.14-3.24-1.08-.11-.64,1.4-2.35,1.25-3.3s-1.66-2.88-1.77-3.52S256,385.15,257,385c2.2-.35,4.32.55,6.63.24,4.9-.62,7.47-2.54,10.74-2.81,5.89-.42,7.12.55,13.37.4,3.77-.06,6.27-1.14,8.11-1.1C299.56,381.79,301,385.64,300.86,387.63Z"/><path class="cls-25" d="M329.53,434.46c-.2.85-1.79,1.88-1.86,2.2-.14.62.37,2,.24,2.51s-.83,1-2,1.12c-2.26.24-3.35,1.26-3.43,1.65-.15.79.39,1.95.12,3.29a1.29,1.29,0,0,1-1.55,1c-.55-.11-1.06-.45-.93-1.15s.46-1.38.61-2.17c.24-1.25.18-3-1.56-3.29-1.43-.25-1.12,5.32-2.43,5.1-2-.31.77-4.6-2.78-5.13-.58-.08-1.62.43-2.1.36-1.05-.13-2.45-1.43-3.23-1.51-2.32-.25-4.3.16-4.45,2,0,.32.07,1.45.05,1.77-.05.56-.36.85-1,.8-1.13-.08-1.09-2-1.26-3.78-.05-.56-1.44-1.61-1.69-2.5a13,13,0,0,1-.3-3.55c.09-1.78.19-3.56.28-5.35.17-3.12-1-6.05-.86-8.37.07-1.92,2.42-4.69,2.64-6.27a15.29,15.29,0,0,0,.24-2.23c.09-1.6.07-3.2.14-4.32.09-1.68,2-4.45,2.16-6.28.23-3.12-2.62-4.81-2.52-6.8,0-.56,1.42-3.29,1.6-6.08.05-.88-1.26-2.88-1.23-3.52.09-1.75,1.58-2.49,3.94-2.32,2.11.14,5.24,1.92,8.61,2.29,3,.33,5.52,1.17,5.23,3.23-.08.55-1.3,1.92-1.4,2.64-.12,1,.4,2.8.26,3.75-.1.71-1.52,2-1.62,2.77-.07.63,2.08,2.94,1.92,4.05s-3,2-3.09,3.14a26.59,26.59,0,0,0,.35,2.79c-.15,1.1-1.78,1.86-1.95,3.29,0,.24.35,3.6.22,4.63-.22,1.66-1.36,4.5-1.56,6.17s.4,2.79.28,3.75c-.1.79-.26,1.17-.39,2.21-.29,2.3,1.25,4,3.87,4.42,1.12.17,3.66-.06,4.88.17.81.15,1.09.29,1.8.43,1.12.21,2.14.34,2.95.52C329.27,432.41,329.75,433.53,329.53,434.46Z"/><path class="cls-25" d="M358.84,448.13c-.17.36-.38,1.32-.88,2.41-.4.88-1,1-1.91.63-.63-.29-3.13-2.23-4.24-2.67a1.84,1.84,0,0,0-2.54.79c-.23,1.38.35,2-.43,4-.24.59-.42.78-1.21.46-1.34-.44-.2-6.42-1.89-7a2.65,2.65,0,0,0-3,1.15c-.21.61.18,1.25,0,1.78-.5,1.43-1.12,1.47-1.83,1.23-2.78-.93-.73-5.46-2.32-6-.28-.09-1.28.85-2.11.61-.65-.2-1.72-1.76-2.38-1.94-.38-.1-1.26.16-1.63.06-1.69-.45-.41-3.09-.44-3.76l.39-1.47c.1-.39.46-1.37.6-1.91s.29-1.14.44-1.7c.63-2.48,2.81-7.87,3.45-10.27.49-1.86,2.59-4.11,2.7-4.49.19-.69-.14-1.2-1.34-1.52-.44-.12-1.15-.05-1.59-.16-.87-.22-.77-1.1-.66-1.57a2.39,2.39,0,0,1,.81-1.36,9.41,9.41,0,0,0,3-5.26c.67-2.64,2.7-4.17,3.23-6.1.14-.54-.49-3-.22-4,.21-.77.77-1.95,1-2.64s-.11-2.1.09-2.88c.1-.38.64-.91.74-1.29.14-.54-.87-1.8-.72-2.42.32-1.24,2.49-1.27,5.29-.49.5.14,1.62.54,2.5.8,2.27.67,3,.14,4.88.73,1.14.36,2.17,1.46,3,1.75s1.41,0,2.66.4c1.76.62,3.55,2.63,5.39,3.34,1.23.47,2.78.13,4.51.83,1.23.5,1.56,1.07,2.42,1.43s1.56.05,3.39.86c.85.37,1,1.6-.19,4.3-.83,1.9-2.26,9.34-3.49,11.95-.4.87-1.3,1.07-2.86.37-1-.45-1.4-1.05-1.08-1.79.25-.59,1.34-2.47,1.44-2.69,1.12-2.56,1.73-4.92,1-5.22-2.11-.9-2.2,4.8-4.5,3.83-.69-.28-1.06-.69-1-1.11.12-1.94.12-2.63-.09-3.14a11.52,11.52,0,0,0-3.85-3c-2.63-1-3.54.84-4.84.38-.71-.25-1-.52-1.49-.68-2.63-.88-3.79.69-4.54,3-1.41,4.49,2,8.49,3.66,9.1.33.11,4,.86,4.43,1a35.09,35.09,0,0,1,4.74,1.64,1.94,1.94,0,0,1,1.08,2.62c-.22.52-1.76,1.43-2.06,2.17-.64,1.55-.28,6.23-.78,7.33-.58,1.32-2.89,2.49-3.8,2.12-2-.84,1.18-4.29-1.43-5.33-2.2-.86-1.5,2.59-3.26,1.91-1.24-.47-.74-3.1-1.9-3.52-.74-.26-1.37-.83-2.12-1.09-1-.33-1.43-.32-1.63.29a16.1,16.1,0,0,1-.92,5.1c-.4,1.13-2.51,2.69-2.78,3.53-.41,1.23.46,3.24,4.66,4.78.59.22,1.39.44,2.27.78,1.37.53,3.64,2.15,4.88,2.68.39.17.9.3,1.38.51,1.44.63,2.42,2.5,1.91,3.58C360.5,446.69,359.13,447.47,358.84,448.13Z"/><path class="cls-25" d="M408.23,479.15c-.68.66-4.05.27-4.93,1.21-.5.52-.2.81-.7,1.33-.33.34-.82.09-1.42-.48s-1.5-2.06-2.19-2.7c-1.62-1.48-4.94-1.92-8.1,1.81-.57.67-1.84,3.06-2.21,3.48a1.69,1.69,0,0,1-2.63.28,2.27,2.27,0,0,1-.16-3.25c1.61-2,3.6-2.85,4.16-3.52s.92-1.42.14-2.07c-1.73-1.39-3.87,2.43-5.25,1.34a1.38,1.38,0,0,1-.51-1.91c1.16-1.53,3.07-1.88,4.2-3.32.89-1.14.47-2.28-.85-3.27-2.4-1.82-6.92,0-8.72,2.67-1.18,1.71-2.8,5.17-3.26,5.82-1.39,2-3.11,3-5,1.73-1.05-.71-1.11-2.27-.07-3.88,1.69-2.63,5-4.31,6.84-7.09,2.23-3.33,2.93-7,4.15-8.87,1.47-2.16,2.63-3.89,10.84-5.39,1.75-.33,2.86-.71,3.19-1.16.89-1.25-2.88-2.84-2.2-3.81s8.79-1.24,12.11-3.09c1.52-.89,8-1.5,9.22-3a2.72,2.72,0,0,0,.65-1.64c0-.4,2.92-5.35,1.35-6.57-6-4.52-8.27,6.28-11.52,3.89-1.41-1-1.53-2.37-1.08-3,.74-1.06,2.32-1.12,3.66-3,.84-1.18.58-2.84-1.46-4.24-.75-.51-1.33-.81-1.87-1.17-.87-.57-.86-1-.69-1.31.88-1.35,2.7-1,3.63-2.4,1.83-2.73.37-3.69,1.15-4.9.66-1,1.72-1.37,3.42-.22,2.27,1.55,2.34,4.09,6.4,7.07,2.35,1.55,15.47,10.16,20.72,15.4,4.3,4.1,1.74,7.06-.74,9.53a52.67,52.67,0,0,1-6,4.88c-4.28,3.2-5.68,6.07-7.94,3.88-.9-.88-1.32-1.71-.78-2.29s1.25-.59,2.24-1.63c.33-.35.12-.88-.53-1.49-1.7-1.58-2.95-1.72-8.83,4.81-2.31,2.56-4.49,5.33-7.17,8.3a1.62,1.62,0,0,1-2.45.17,1.52,1.52,0,0,1-.28-2.27c2.78-3.2,3.85-4.07,4.22-4.49.74-.85,1-2-.75-3.5a1.77,1.77,0,0,0-2.67.06c-.36.43-.59,1.27-1.06,1.83-3.62,4.32-8.13-.31-10.77,3.16-1.2,1.58,1.12,4.41,2.53,5.59.51.4,4,2.71,5.45,4C405.42,471.94,410.19,477.2,408.23,479.15Z"/></g><rect id="tekstboks" class="cls-19" x="115.06" y="574.86" width="344" height="300" rx="12"/><path class="cls-19" d="M905.17,58.05s1.59-3.5,7.33-2.63L912,53.69s1.61,1.47,2.48-.79l.61,1.56a7.37,7.37,0,0,1,7.13-2.61s1.17.31,1.24.72c0,0-1.8.1-1.91,1.12,0,0-2.11-.1-2,1.47,0,0-3-.09-3.22,1.74a1.66,1.66,0,0,1-2.79,1,3.39,3.39,0,0,0-3.35.48,1.46,1.46,0,0,0-2-.28,3.5,3.5,0,0,0-3,.81A1.64,1.64,0,0,1,905.17,58.05Z"/><path class="cls-19" d="M958.93,109.16S955,100.59,941,102.72l1.18-4.22s-3.95,3.58-6.08-2l-1.49,3.83s-5.53-8.09-17.45-6.39c0,0-2.86.76-3,1.77,0,0,4.4.22,4.67,2.74,0,0,5.17-.25,5,3.58,0,0,7.23-.21,7.87,4.26,0,0,1.49,6,6.81,2.34a8.28,8.28,0,0,1,8.21,1.16s1.54-2.33,4.86-.68a8.55,8.55,0,0,1,7.44,2A4.24,4.24,0,0,0,958.93,109.16Z"/><path class="cls-19" d="M839.33,272.46s-8.44-8.39-24.09.4l-.49-5.52s-3.07,6-8,.41l-.05,5.19s-10.15-7.09-23.48.24c0,0-3,2.18-2.79,3.44,0,0,5.3-1.7,6.74,1.16,0,0,6-2.6,7.46,2,0,0,8.46-3.48,11.21,1.52,0,0,4.42,6.38,9.09-.28,0,0,3.7-4,10.22-2.28,0,0,.78-3.45,5.44-3a10.82,10.82,0,0,1,9.68-1A5.27,5.27,0,0,0,839.33,272.46Z"/><path class="cls-19" d="M1077.3,276.63s3-14-16-24.15l5.27-4.06s-8.06.77-5.62-7.9l-5.29,3.3s.62-14.87-15.43-23.63c0,0-4.17-1.67-5.29-.61,0,0,5.15,4.27,3.19,7.58,0,0,6.51,4.4,2.77,8.87,0,0,9,6.32,5.71,12.34,0,0-3.6,8.6,6.16,9,0,0,6.45,1.16,8.93,8.88,0,0,4-1.45,6.53,3.58a13,13,0,0,1,7.24,9.19A6.32,6.32,0,0,0,1077.3,276.63Z"/><path class="cls-26" d="M1383.71,336.14a4.92,4.92,0,0,1,1.3,3.53,14.74,14.74,0,0,1,.44,4.89,9.77,9.77,0,0,0,.27,3.31,2.29,2.29,0,0,1-1.36,2.18,25.32,25.32,0,0,0,0,3.23.94.94,0,0,1-1.57.22s0-.33,1-.3a16.28,16.28,0,0,0-.16-3.07,2.38,2.38,0,0,1-1.77,0,4.94,4.94,0,0,0-.19,3.07s-.13.19.85.17c0,0,.54.27,0,.43,0,0-1.41.22-1.55-.27a28.59,28.59,0,0,1,.11-3.7s-1.52-1-1.2-3.56a9.69,9.69,0,0,0-1.33-3s-2.55-3.75-1.47-6.87A11.91,11.91,0,0,0,1383.71,336.14Z"/><path class="cls-27" d="M1380.92,343.46s-5.3-.41-5.3-.14-.27-.38-.35.71c0,0-.61.33-.4-.8,0,0,0-.67,2-.43l4,.06"/><path class="cls-27" d="M1377.93,342.15a20.36,20.36,0,0,0-2.8-.1s-1.73-.17-1.9.21c0,0,0,1.09-.3.76a1.11,1.11,0,0,1,.17-1.27s.32-.25,2.5-.17a18,18,0,0,1,2.11.11"/><path d="M1381.28,338.85s-.88.78-1.49,0a1,1,0,0,1,0-1.36s.13-.47,1.21,0A1.17,1.17,0,0,1,1381.28,338.85Z"/><path class="cls-28" d="M1381.28,338.31s.1.53-.85.47c0,0-1,0-.7-.7,0,0-.07-.45.75-.21A.76.76,0,0,1,1381.28,338.31Z"/><path d="M1378.14,338.9s-.67.08-.94-1.17c0,0,0-1,.67-.86a1.26,1.26,0,0,1,1.23,1S1379.12,339,1378.14,338.9Z"/><path class="cls-28" d="M1378.18,337.13a.91.91,0,0,1,.7.81s.09.75-.7.54c0,0-.82,0-.78-.68C1377.4,337.8,1377.39,336.88,1378.18,337.13Z"/><path class="cls-29" d="M1381.39,341.17s0,.55-1.2.44c0,0-1.07,0-1.59,0,0,0-.84-.17-.67-.54,0,0-.12-.41,1.17-.54C1379.1,340.55,1381.37,340.35,1381.39,341.17Z"/><path class="cls-30" d="M1380.77,340.64a3.29,3.29,0,0,0,.21.7c.08.08-.6-.11-.6-.22s-.05-.54,0-.56A1.59,1.59,0,0,1,1380.77,340.64Z"/><path class="cls-30" d="M1380.18,340.54a2.06,2.06,0,0,0,.08.54,1,1,0,0,1-.45,0,.92.92,0,0,1,.07-.51Z"/><path class="cls-30" d="M1379.65,340.53a.82.82,0,0,0,0,.37s-.19.09-.27,0,0-.3,0-.32A.76.76,0,0,1,1379.65,340.53Z"/><path class="cls-30" d="M1379.1,340.55s0,0,.06.3c0,0,0,.08-.13.08a1.79,1.79,0,0,1-.33,0s-.12,0-.09-.31A2.66,2.66,0,0,1,1379.1,340.55Z"/><path class="cls-30" d="M1378,340.87c0,.11.39.27.39.27s.18-.18.1-.21-.1-.25-.1-.25c-.39.2-.39.09-.39.2V341"/><path class="cls-30" d="M1380.72,341.61a.27.27,0,0,0-.18-.27s-.27-.11-.27-.06v.34S1380.72,341.65,1380.72,341.61Z"/><path class="cls-30" d="M1380.11,341.61v-.16s0-.08-.1,0a.33.33,0,0,1-.19,0s-.09,0-.06.19Z"/><path class="cls-30" d="M1379.55,341.63s.12-.52,0-.49c0,0-.19,0-.16.22l0,.25Z"/><path class="cls-30" d="M1379.18,341.62s-.07-.36,0-.4,0-.08-.19-.08c0,0-.28,0-.17.2a.58.58,0,0,1,0,.28Z"/><path class="cls-30" d="M1378.6,341.63s.06-.33-.13-.27c0,0-.36.06-.29.13Z"/><path class="cls-29" d="M1379.32,339.49s0,.41.2.46.18-.21.18-.21S1379.51,339.49,1379.32,339.49Z"/><path class="cls-29" d="M1379,339.44s-.26,0-.23.57C1378.75,340,1379.21,339.93,1379,339.44Z"/><path class="cls-24" d="M1384.21,338.11s-.17-.09-.23,0,.16.31.11.3,0,.1-.23-.25c0,0-.19.11-.14.19s.06.35,0,.33,0,0-.12-.31c0,0-.26.09-.26.14s-.13,0,.22-.19a1.27,1.27,0,0,0-.16-.3,1.15,1.15,0,0,0-.22.09s-.14-.06.16-.11a.19.19,0,0,0-.13-.22s0,0-.09-.35.11.38.3.51c0,0,.29-.11.24-.17s-.24-.53-.16-.51a1.79,1.79,0,0,1,.28.47s.19-.14.27-.09.13.19-.14.14c0,0-.16,0-.05.14,0,0,.05.19.19.1S1384.24,338,1384.21,338.11Z"/><path class="cls-26" d="M1383.75,337.92a.17.17,0,0,1,0,.1.14.14,0,0,0,0,.11s-.17.06-.17.14a.4.4,0,0,1-.16-.27S1383.61,337.83,1383.75,337.92Z"/><path class="cls-31" d="M1384.26,336.86s.06-.93.28-1a.79.79,0,0,0-.28.5s-.13-.83-.24-.83a3.37,3.37,0,0,1,.14,1s-.11-.7-.33-.74a2.57,2.57,0,0,1,.27.66s0,.06,0,.07Z"/><path class="cls-31" d="M1377.2,336.44a2.23,2.23,0,0,1,0-.92s-.08-.1-.08.52c0,0,0,0-.22-.41,0,0,.28.63.19.65s-.24-.51-.32-.48a4.37,4.37,0,0,1,.3.57v.25A1.3,1.3,0,0,1,1377.2,336.44Z"/><path class="cls-32" d="M1383.29,336.25s.4-.18,0-.52a.66.66,0,0,0-.68-.48s-.06-.6-.55-.6c0,0-.69-.54-.78.1,0,0-.56-.57-.61-.15,0,0-.76-.25-.74.13,0,0-.69-.41-1,.14a.86.86,0,0,0-1,.41s-.1.19.09.24c0,0-.5-.16-.51.21,0,0-.45.1-.31.71a9.22,9.22,0,0,0,3,.29S1383.12,336.55,1383.29,336.25Z"/><path d="M1382.88,335.93a.27.27,0,0,0-.11-.38s-.19.08-.16-.22c0,0,0-.24-.08-.24s0,.24,0,.35,0,.22.14.19S1382.91,335.5,1382.88,335.93Z"/><path d="M1379.4,335.61a.27.27,0,0,0-.11-.38s-.19.08-.16-.22c0,0,0-.25-.08-.25s0,.25,0,.36,0,.21.13.19S1379.43,335.17,1379.4,335.61Z"/><path d="M1381.36,336.67a.29.29,0,0,0-.11-.39s-.19.09-.16-.21c0,0,0-.25-.09-.25s0,.25,0,.36,0,.21.14.19S1381.38,336.23,1381.36,336.67Z"/><path d="M1382.39,335.36s-.16-.35-.43-.33c0,0-.26,0-.34.06s.3-.06.39,0S1382.12,335,1382.39,335.36Z"/><path d="M1382.72,336.45s-.17-.36-.44-.33c0,0-.26,0-.33.06s.3-.06.38,0S1382.44,336.09,1382.72,336.45Z"/><path d="M1377.8,336.5s.07-.38-.17-.51c0,0-.2-.17-.3-.15s.27.13.31.22S1377.78,336.06,1377.8,336.5Z"/><path d="M1380.36,335.38s.17-.36,0-.55c0,0-.15-.21-.26-.21s.24.19.25.29S1380.46,334.94,1380.36,335.38Z"/><path d="M1378.67,335.61s-.14-.41-.3-.44c0,0-.35-.08-.44.08a.56.56,0,0,1,.46,0A1,1,0,0,1,1378.67,335.61Z"/><path d="M1380.36,335.81s-.15-.4-.31-.42c0,0-.36-.08-.43.09a.52.52,0,0,1,.45,0A.93.93,0,0,1,1380.36,335.81Z"/><path d="M1378.37,336.12a.23.23,0,0,0-.27-.22s-.57.18,0,.07c0,0,.24-.12.24.21,0,0,.11.13,0,.19s0,.16.05,0C1378.39,336.36,1378.5,336.31,1378.37,336.12Z"/><path d="M1379.69,336.1a.21.21,0,0,0-.27.21s0,.6.06,0c0,0-.06-.27.26-.19,0,0,.16-.08.18,0s.17,0,0-.05C1379.92,336.13,1379.91,336,1379.69,336.1Z"/><path d="M1381.49,335.44s-.11-.21-.19,0c0,0,.11-.45,0-.39s0-.1-.16-.1.22,0-.27-.36a.4.4,0,0,0-.19,0s0-.12.24,0c0,0,.38.36.52.3s0,.06-.06.06-.07,0-.1,0,.21.17.16.31S1381.36,335.25,1381.49,335.44Z"/><path class="cls-33" d="M1385.51,346.87s-2,2.1-5.6.76a3.26,3.26,0,0,0,1.19,2.17s-.18.1-.11,3.7c0,0-.07.5,1.55.27,0,0,.31-.07.21-.23a.53.53,0,0,0-.26-.2s-.75,0-.85-.17a4.64,4.64,0,0,1,.19-3.07,1.93,1.93,0,0,0,1.77,0s.15-.34.16,3.07c0,0-1,0-1,.3s.72.36.72.36.89.09.85-.58c0,0,0-2.95,0-3.23C1384.36,350.05,1386.48,349.87,1385.51,346.87Z"/><path class="cls-26" d="M1530,365a7.38,7.38,0,0,1,1.94,5.25,22.06,22.06,0,0,1,.65,7.26,14.38,14.38,0,0,0,.4,4.93,3.38,3.38,0,0,1-2,3.23,38.18,38.18,0,0,0,0,4.8,1.39,1.39,0,0,1-2.34.32s0-.48,1.49-.44c0,0,0-4.68-.24-4.56a3.54,3.54,0,0,1-2.62,0s-1,2.58-.29,4.56c0,0-.2.28,1.26.24,0,0,.8.41.08.65,0,0-2.1.32-2.3-.41,0,0-.09-5.49.16-5.49,0,0-2.26-1.45-1.78-5.28,0,0,0-.89-2-4.4,0,0-3.79-5.57-2.18-10.22C1520.19,365.36,1524.15,366.7,1530,365Z"/><path class="cls-27" d="M1525.86,375.85s-7.87-.62-7.87-.21-.4-.57-.52,1.05c0,0-.92.49-.6-1.19,0,0,0-1,2.92-.63l5.91.08"/><path class="cls-27" d="M1521.41,373.89a30.58,30.58,0,0,0-4.14-.15s-2.59-.24-2.83.32c0,0,0,1.62-.44,1.13a1.66,1.66,0,0,1,.24-1.89s.48-.37,3.71-.25a27.6,27.6,0,0,1,3.14.16"/><path d="M1526.4,369s-1.31,1.15-2.21,0a1.44,1.44,0,0,1,0-2s.18-.71,1.79,0A1.74,1.74,0,0,1,1526.4,369Z"/><path class="cls-28" d="M1526.4,368.2s.15.78-1.26.7c0,0-1.46-.09-1.05-1,0,0-.1-.67,1.12-.32A1.15,1.15,0,0,1,1526.4,368.2Z"/><path d="M1521.74,369.06s-1,.12-1.41-1.74c0,0,.06-1.46,1-1.28a1.88,1.88,0,0,1,1.82,1.51S1523.18,369.23,1521.74,369.06Z"/><path class="cls-28" d="M1521.79,366.43a1.38,1.38,0,0,1,1,1.21s.12,1.11-1,.8c0,0-1.22.06-1.15-1C1520.64,367.43,1520.62,366.07,1521.79,366.43Z"/><path class="cls-29" d="M1526.56,372.44s.07.81-1.79.65l-2.36,0s-1.25-.25-1-.8c0,0-.17-.6,1.74-.8C1523.15,371.51,1526.52,371.21,1526.56,372.44Z"/><path class="cls-30" d="M1525.63,371.65a4.4,4.4,0,0,0,.32,1c.12.12-.89-.16-.89-.32,0,0-.08-.81,0-.83A2.11,2.11,0,0,1,1525.63,371.65Z"/><path class="cls-30" d="M1524.77,371.51a3,3,0,0,0,.11.79,1.38,1.38,0,0,1-.67-.05,1.36,1.36,0,0,1,.1-.77Z"/><path class="cls-30" d="M1524,371.48a1.39,1.39,0,0,0,0,.56s-.29.12-.41-.08c0,0,0-.44.07-.48A1.21,1.21,0,0,1,1524,371.48Z"/><path class="cls-30" d="M1523.15,371.51s0,0,.09.45c0,0,.07.12-.19.12a2,2,0,0,1-.49,0s-.18,0-.13-.46A4.89,4.89,0,0,1,1523.15,371.51Z"/><path class="cls-30" d="M1521.55,372c0,.16.57.4.57.4s.27-.28.16-.32-.16-.38-.16-.38c-.57.3-.57.14-.57.3v.16"/><path class="cls-30" d="M1525.57,373.1a.42.42,0,0,0-.27-.41s-.4-.16-.4-.08v.49A3.75,3.75,0,0,0,1525.57,373.1Z"/><path class="cls-30" d="M1524.65,373.09v-.24s0-.12-.15,0a.54.54,0,0,1-.28,0s-.13,0-.09.29Z"/><path class="cls-30" d="M1523.82,373.11s.18-.76-.08-.71c0,0-.27,0-.22.32l0,.38Z"/><path class="cls-30" d="M1523.28,373.1s-.1-.53,0-.59,0-.12-.28-.11c0,0-.42,0-.25.29a.86.86,0,0,1,0,.42Z"/><path class="cls-30" d="M1522.41,373.11s.09-.48-.19-.39c0,0-.53.09-.42.19S1522.34,373.1,1522.41,373.11Z"/><path class="cls-29" d="M1523.48,369.94s.08.61.3.69.27-.32.27-.32S1523.77,369.94,1523.48,369.94Z"/><path class="cls-29" d="M1523,369.86s-.39,0-.34.85C1522.64,370.71,1523.33,370.59,1523,369.86Z"/><path class="cls-24" d="M1530.75,367.89s-.26-.13-.35,0,.24.46.17.45-.06.15-.35-.37c0,0-.28.16-.2.28s.08.52,0,.48-.06.07-.17-.45c0,0-.39.13-.39.21s-.2,0,.32-.28a1.82,1.82,0,0,0-.24-.45,2.44,2.44,0,0,0-.32.13s-.21-.08.24-.17a.29.29,0,0,0-.2-.32s0,0-.13-.52.17.56.45.76c0,0,.43-.16.35-.26s-.35-.79-.23-.75a3.61,3.61,0,0,1,.4.69s.29-.2.41-.12.2.28-.2.2c0,0-.25-.08-.09.2,0,0,.09.29.29.16C1530.51,367.76,1530.79,367.76,1530.75,367.89Z"/><path class="cls-26" d="M1530.06,367.6a.28.28,0,0,1,.08.16.25.25,0,0,0,0,.17s-.25.08-.24.2a.58.58,0,0,1-.24-.41S1529.86,367.48,1530.06,367.6Z"/><path class="cls-31" d="M1530.82,366s.09-1.37.41-1.49a1.18,1.18,0,0,0-.41.74s-.19-1.23-.35-1.23a4.79,4.79,0,0,1,.2,1.54s-.16-1-.49-1.11a4,4,0,0,1,.41,1s0,.1-.09.11Z"/><path class="cls-31" d="M1520.33,365.41s-.12-.19,0-1.36c0,0-.12-.16-.12.77,0,0,0,0-.32-.61,0,0,.4.93.28,1s-.36-.77-.48-.73a5.67,5.67,0,0,1,.44.85v.38A1.68,1.68,0,0,1,1520.33,365.41Z"/><path class="cls-32" d="M1529.38,365.14s.6-.28,0-.79a1,1,0,0,0-1-.7s-.08-.89-.81-.89c0,0-1-.81-1.16.14,0,0-.84-.84-.91-.23,0,0-1.13-.37-1.11.21,0,0-1-.61-1.4.2a1.29,1.29,0,0,0-1.57.6s-.15.29.14.37c0,0-.73-.24-.75.3,0,0-.67.15-.47,1.06,0,0,1,.43,4.53.43C1524.86,365.84,1529.13,365.57,1529.38,365.14Z"/><path d="M1528.77,364.66a.41.41,0,0,0-.16-.57s-.28.12-.24-.32c0,0,0-.36-.12-.36s0,.36,0,.52c0,0,0,.32.2.28C1528.49,364.21,1528.81,364,1528.77,364.66Z"/><path d="M1523.6,364.17a.39.39,0,0,0-.16-.56s-.28.12-.24-.33c0,0,0-.36-.12-.36s0,.36,0,.53c0,0,0,.32.2.28C1523.32,363.73,1523.64,363.53,1523.6,364.17Z"/><path d="M1526.51,365.75a.41.41,0,0,0-.16-.57s-.28.12-.24-.32c0,0,0-.36-.12-.36s0,.36,0,.52c0,0,0,.32.2.28C1526.23,365.3,1526.55,365.1,1526.51,365.75Z"/><path d="M1528,363.81s-.24-.53-.64-.49c0,0-.38,0-.5.09s.45-.09.57,0S1527.64,363.28,1528,363.81Z"/><path d="M1528.53,365.42s-.24-.52-.65-.48c0,0-.38,0-.49.08a1.33,1.33,0,0,1,.57,0S1528.13,364.9,1528.53,365.42Z"/><path d="M1521.22,365.51s.1-.57-.25-.77c0,0-.29-.26-.45-.22,0,0,.41.19.47.33S1521.19,364.84,1521.22,365.51Z"/><path d="M1525,363.83s.25-.52,0-.8c0,0-.21-.32-.38-.33,0,0,.35.29.37.44S1525.17,363.19,1525,363.83Z"/><path d="M1522.51,364.17s-.2-.6-.44-.64c0,0-.52-.12-.65.12a.87.87,0,0,1,.69,0A1.57,1.57,0,0,1,1522.51,364.17Z"/><path d="M1525,364.48s-.22-.6-.46-.63c0,0-.53-.11-.65.13a.87.87,0,0,1,.68,0A1.48,1.48,0,0,1,1525,364.48Z"/><path d="M1522.07,364.94a.33.33,0,0,0-.4-.32s-.85.26,0,.09c0,0,.36-.17.36.31,0,0,.16.2,0,.28,0,0,0,.25.07,0C1522.1,365.29,1522.27,365.22,1522.07,364.94Z"/><path d="M1524,364.9a.34.34,0,0,0-.41.33s.07.88.09,0c0,0-.09-.4.39-.29,0,0,.23-.11.27.07,0,0,.25,0,0-.08C1524.38,365,1524.36,364.77,1524,364.9Z"/><path d="M1526.71,363.93s-.16-.32-.28,0c0,0,.16-.66,0-.57a.23.23,0,0,0-.24-.16s.32,0-.41-.52a.49.49,0,0,0-.27-.06s0-.18.35.06c0,0,.57.52.77.44,0,0,0,.08-.08.08s-.11-.05-.15,0,.31.25.23.45C1526.63,363.61,1526.51,363.65,1526.71,363.93Z"/><path class="cls-33" d="M1532.68,380.91s-2.89,3.11-8.33,1.12a4.86,4.86,0,0,0,1.78,3.23s-.27.15-.16,5.49c0,0-.11.75,2.3.41,0,0,.46-.1.31-.35a1.07,1.07,0,0,0-.39-.3s-1.11-.06-1.26-.24a6.87,6.87,0,0,1,.29-4.56,2.88,2.88,0,0,0,2.62,0s.22-.51.24,4.56c0,0-1.43-.06-1.49.44s1.07.54,1.07.54,1.33.13,1.27-.86c0,0-.06-4.38,0-4.8C1531,385.63,1534.12,385.37,1532.68,380.91Z"/><path class="cls-26" d="M1378,421.46s-6.57,6.68-5.84,15.8c0,0-2.43,6.93-1.94,21.89A43.72,43.72,0,0,1,1369,474s-.73,6.2,6.08,9.72a113.2,113.2,0,0,1,.12,14.47s2.92,5.11,7.06,1c0,0-.12-1.46-4.5-1.34,0,0-.12-14.11.73-13.74a10.62,10.62,0,0,0,7.9-.12s3.16,7.78.85,13.74c0,0,.61.85-3.77.73,0,0-2.43,1.21-.24,1.94,0,0,6.32,1,6.93-1.21,0,0,.24-16.54-.49-16.54,0,0,6.81-4.38,5.35-15.93,0,0,.13-2.68,6-13.25,0,0,11.43-16.78,6.57-30.77C1407.55,422.67,1395.63,426.68,1378,421.46Z"/><path class="cls-27" d="M1390.49,454.25s23.69-1.85,23.69-.63,1.21-1.7,1.58,3.16c0,0,2.75,1.48,1.8-3.58,0,0,.12-3-8.81-1.9l-17.8.25"/><path class="cls-27" d="M1403.87,448.36s10.43-.94,12.49-.46c0,0,7.79-.73,8.52,1,0,0,0,4.86,1.33,3.4a5,5,0,0,0-.73-5.71s-1.46-1.1-11.18-.73c0,0-8.81.07-9.45.46"/><path d="M1388.87,433.61s3.92,3.47,6.65,0c0,0,2.74-2.5,0-6.08,0,0-.55-2.13-5.42,0A5.25,5.25,0,0,0,1388.87,433.61Z"/><path class="cls-28" d="M1388.87,431.21s-.47,2.35,3.78,2.1c0,0,4.38-.24,3.16-3.16,0,0,.31-2-3.37-.95A3.42,3.42,0,0,0,1388.87,431.21Z"/><path d="M1402.9,433.81s3,.35,4.22-5.24c0,0-.16-4.41-3-3.85a5.68,5.68,0,0,0-5.48,4.53S1398.55,434.32,1402.9,433.81Z"/><path class="cls-28" d="M1402.75,425.89s-3,.73-3.17,3.65c0,0-.36,3.34,3.17,2.4,0,0,3.65.19,3.46-3.05C1406.21,428.89,1406.27,424.8,1402.75,425.89Z"/><path class="cls-29" d="M1388.38,444s-.23,2.46,5.37,2c0,0,4.77,0,7.12.06,0,0,3.76-.75,3-2.41,0,0,.52-1.82-5.23-2.41C1398.64,441.2,1388.48,440.29,1388.38,444Z"/><path class="cls-30" d="M1391.16,441.6a14.15,14.15,0,0,1-.94,3.14c-.36.37,2.68-.48,2.68-1,0,0,.24-2.43,0-2.49A7.4,7.4,0,0,0,1391.16,441.6Z"/><path class="cls-30" d="M1393.77,441.19a9.63,9.63,0,0,1-.34,2.37,4.12,4.12,0,0,0,2-.16,4.08,4.08,0,0,0-.31-2.29Z"/><path class="cls-30" d="M1396.17,441.1a4.13,4.13,0,0,1,.13,1.7s.85.36,1.22-.25c0,0,.09-1.32-.2-1.45A3.41,3.41,0,0,0,1396.17,441.1Z"/><path class="cls-30" d="M1398.64,441.2s-.15-.11-.27,1.35c0,0-.21.34.56.35a6.53,6.53,0,0,0,1.48,0s.56.05.41-1.37A12,12,0,0,0,1398.64,441.2Z"/><path class="cls-30" d="M1403.45,442.66c.1.48-1.72,1.2-1.72,1.2s-.81-.82-.48-1,.48-1.13.48-1.13c1.74.9,1.74.42,1.74.9v.49"/><path class="cls-30" d="M1391.35,446a1.25,1.25,0,0,1,.82-1.23s1.21-.48,1.21-.24V446A9.86,9.86,0,0,1,1391.35,446Z"/><path class="cls-30" d="M1394.11,446l.05-.73s-.05-.37.44-.12a1.66,1.66,0,0,0,.85,0s.4-.11.26.85Z"/><path class="cls-30" d="M1396.62,446s-.55-2.31.23-2.16c0,0,.82,0,.68,1l-.14,1.14Z"/><path class="cls-30" d="M1398.24,446s.32-1.6.1-1.78c0,0-.15-.37.85-.34,0,0,1.25-.09.76.88a2.39,2.39,0,0,0,.11,1.26S1398.49,446,1398.24,446Z"/><path class="cls-30" d="M1400.87,446s-.26-1.47.56-1.19c0,0,1.62.27,1.29.58Z"/><path class="cls-29" d="M1397.64,436.47s-.22,1.83-.9,2.07-.8-1-.8-1S1396.79,436.47,1397.64,436.47Z"/><path class="cls-29" d="M1399.15,436.23s1.16-.12,1,2.55C1400.19,438.78,1398.11,438.42,1399.15,436.23Z"/><path class="cls-24" d="M1375.75,430.27s.77-.36,1,0c0,0-.72,1.39-.52,1.37,0,0,.2.46,1-1.12,0,0,.85.48.61.85,0,0-.24,1.58,0,1.46,0,0,.2.2.52-1.36,0,0,1.18.38,1.18.63,0,0,.61-.13-1-.86,0,0,.49-1.21.73-1.33a5.25,5.25,0,0,1,1,.36s.61-.24-.73-.48a.89.89,0,0,1,.61-1s.12.12.37-1.58-.49,1.7-1.34,2.31c0,0-1.29-.48-1.07-.79,0,0,1.07-2.37.7-2.25a10.06,10.06,0,0,0-1.21,2.07s-.85-.61-1.22-.37c0,0-.61.86.61.61,0,0,.73-.24.24.61,0,0-.24.85-.85.49C1376.48,429.91,1375.63,429.91,1375.75,430.27Z"/><path class="cls-26" d="M1377.82,429.42a.84.84,0,0,0-.24.49.68.68,0,0,1-.13.48s.77.27.75.62a1.77,1.77,0,0,0,.71-1.22S1378.43,429.06,1377.82,429.42Z"/><path class="cls-31" d="M1375.55,424.69s-.28-4.15-1.26-4.51a3.71,3.71,0,0,1,1.26,2.25s.57-3.71,1-3.71a14.22,14.22,0,0,0-.61,4.62s.49-3.11,1.46-3.32a12.08,12.08,0,0,0-1.21,3s0,.28.25.32Z"/><path class="cls-31" d="M1407.12,422.8s.37-.55.12-4.08c0,0,.37-.49.37,2.31,0,0,.12,0,1-1.82,0,0-1.21,2.79-.85,2.92,0,0,1.1-2.32,1.46-2.19a17.1,17.1,0,0,0-1.34,2.55v1.15A5.17,5.17,0,0,0,1407.12,422.8Z"/><path class="cls-32" d="M1379.89,422s-1.83-.84,0-2.36a3,3,0,0,1,3-2.13s.24-2.67,2.43-2.67c0,0,3.09-2.43,3.49.42,0,0,2.54-2.52,2.75-.68,0,0,3.41-1.11,3.33.61,0,0,3.06-1.84,4.22.61,0,0,3.29-1.1,4.72,1.83,0,0,.46.86-.4,1.1,0,0,2.21-.73,2.26.91,0,0,2,.44,1.39,3.17,0,0-2.93,1.32-13.62,1.3C1393.5,424.1,1380.61,423.31,1379.89,422Z"/><path d="M1381.71,420.54a1.22,1.22,0,0,1,.49-1.7s.85.37.73-1c0,0,0-1.09.36-1.09,0,0-.12,1.09-.12,1.58,0,0,0,1-.61.85C1382.56,419.21,1381.59,418.6,1381.71,420.54Z"/><path d="M1397.27,419.09a1.24,1.24,0,0,1,.49-1.71s.85.37.73-1c0,0,0-1.09.36-1.09,0,0-.12,1.09-.12,1.58,0,0,0,1-.61.85C1398.12,417.75,1397.15,417.14,1397.27,419.09Z"/><path d="M1388.52,423.83a1.22,1.22,0,0,1,.49-1.7s.85.36.72-1c0,0,0-1.09.37-1.09,0,0-.12,1.09-.12,1.58,0,0,0,1-.61.85C1389.37,422.49,1388.4,421.88,1388.52,423.83Z"/><path d="M1383.9,418s.73-1.58,1.94-1.46c0,0,1.16-.12,1.49.25,0,0-1.34-.25-1.71,0C1385.62,416.78,1385.11,416.41,1383.9,418Z"/><path d="M1382.44,422.85s.73-1.58,1.94-1.45c0,0,1.16-.13,1.49.24,0,0-1.33-.24-1.71,0C1384.16,421.64,1383.66,421.27,1382.44,422.85Z"/><path d="M1404.46,423.1s-.32-1.71.75-2.31c0,0,.87-.77,1.35-.66,0,0-1.23.57-1.4,1C1405.16,421.12,1404.54,421.11,1404.46,423.1Z"/><path d="M1393,418.06s-.72-1.58.16-2.42c0,0,.66-1,1.15-1,0,0-1,.86-1.11,1.31C1393.16,416,1392.55,416.11,1393,418.06Z"/><path d="M1400.56,419.09s.6-1.83,1.33-1.95c0,0,1.58-.36,1.95.36a2.55,2.55,0,0,0-2,.09A4.3,4.3,0,0,0,1400.56,419.09Z"/><path d="M1393,420s.66-1.81,1.39-1.91c0,0,1.59-.33,1.93.41a2.53,2.53,0,0,0-2,0A4.31,4.31,0,0,0,1393,420Z"/><path d="M1401.89,421.4a1,1,0,0,1,1.22-1s2.55.81,0,.28c0,0-1.09-.52-1.09.94,0,0-.49.61,0,.85,0,0-.07.75-.22-.05C1401.8,422.44,1401.29,422.25,1401.89,421.4Z"/><path d="M1396,421.29a1,1,0,0,1,1.22,1s-.21,2.67-.27.06c0,0,.26-1.18-1.16-.86,0,0-.7-.33-.83.2,0,0-.75.1,0-.23C1394.93,421.43,1395,420.89,1396,421.29Z"/><path d="M1387.91,418.36s.49-1,.85-.13c0,0-.48-2,0-1.72a.7.7,0,0,1,.73-.46s-1,.12,1.22-1.59a1.71,1.71,0,0,1,.83-.17s-.1-.55-1.08.17c0,0-1.7,1.59-2.31,1.34,0,0-.12.25.25.25,0,0,.33-.17.47,0s-1,.75-.72,1.35C1388.15,417.38,1388.52,417.5,1387.91,418.36Z"/><path class="cls-33" d="M1369.94,469.49s8.71,9.38,25.08,3.38c0,0-.54,6.28-5.35,9.75,0,0,.79.42.49,16.54,0,0,.3,2.24-6.93,1.21,0,0-1.4-.31-1-1.05a3,3,0,0,1,1.19-.89s3.35-.19,3.77-.73c0,0,2.13-5.05-.85-13.74,0,0-3.22,2.12-7.9.12,0,0-.67-1.52-.73,13.74,0,0,4.31-.18,4.5,1.34s-3.22,1.61-3.22,1.61-4,.39-3.84-2.59c0,0,.19-13.19-.12-14.47C1375.08,483.71,1365.6,482.93,1369.94,469.49Z"/><path class="cls-26" d="M1175.36,481.67s13.67,13.92,12.15,32.9c0,0,5.06,14.42,4,45.55,0,0-1.77,15.7,2.53,30.88,0,0,1.52,12.91-12.66,20.25,0,0-1,9.36-.25,30.12,0,0-6.07,10.63-14.68,2,0,0,.25-3,9.37-2.78,0,0,.25-29.36-1.52-28.6,0,0-8.35,3.54-16.45-.26,0,0-6.58,16.2-1.77,28.6,0,0-1.27,1.78,7.84,1.52,0,0,5.06,2.53.51,4,0,0-13.16,2-14.43-2.53,0,0-.51-34.42,1-34.42,0,0-14.17-9.11-11.13-33.15,0,0-.26-5.57-12.4-27.59,0,0-23.79-34.93-13.67-64C1113.86,484.2,1138.66,492.55,1175.36,481.67Z"/><path class="cls-27" d="M1149.37,549.92s-49.3-3.84-49.3-1.31-2.53-3.54-3.29,6.58c0,0-5.74,3.08-3.76-7.44,0,0-.25-6.26,18.33-4l37.06.53"/><path class="cls-27" d="M1121.52,537.66s-21.71-2-26-.95c0,0-16.2-1.51-17.72,2,0,0,0,10.12-2.78,7.09,0,0-3.54-6.33,1.52-11.9,0,0,3-2.28,23.28-1.52,0,0,18.34.16,19.68,1"/><path d="M1152.74,507s-8.16,7.21-13.84,0c0,0-5.71-5.2,0-12.66,0,0,1.13-4.44,11.27,0A10.94,10.94,0,0,1,1152.74,507Z"/><path class="cls-28" d="M1152.74,502s1,4.89-7.88,4.38c0,0-9.11-.5-6.58-6.58,0,0-.63-4.2,7-2C1145.31,497.79,1150,496.82,1152.74,502Z"/><path d="M1123.54,507.39s-6.26.72-8.79-10.92c0,0,.34-9.18,6.24-8,0,0,8.81-.32,11.41,9.41C1132.4,497.88,1132.59,508.44,1123.54,507.39Z"/><path class="cls-28" d="M1123.86,490.9s6.32,1.52,6.58,7.6c0,0,.76,6.95-6.58,5,0,0-7.61.39-7.22-6.35C1116.64,497.14,1116.52,488.63,1123.86,490.9Z"/><path class="cls-29" d="M1153.76,528.54s.47,5.14-11.18,4.12c0,0-9.92,0-14.83.14,0,0-7.82-1.57-6.23-5,0,0-1.08-3.79,10.88-5C1132.4,522.76,1153.55,520.87,1153.76,528.54Z"/><path class="cls-30" d="M1148,523.59s1.21,5.78,2,6.54-5.56-1-5.56-2c0,0-.51-5.06,0-5.19A14.94,14.94,0,0,1,1148,523.59Z"/><path class="cls-30" d="M1142.54,522.73a20.16,20.16,0,0,0,.7,4.94,8.6,8.6,0,0,1-4.2-.32,8.57,8.57,0,0,1,.65-4.77Z"/><path class="cls-30" d="M1137.53,522.55a8.73,8.73,0,0,0-.26,3.53s-1.77.76-2.53-.5c0,0-.2-2.76.41-3A7.58,7.58,0,0,1,1137.53,522.55Z"/><path class="cls-30" d="M1132.4,522.76s.31-.22.57,2.82c0,0,.43.7-1.18.73a13.45,13.45,0,0,1-3.07,0s-1.16.09-.86-2.85A24.38,24.38,0,0,1,1132.4,522.76Z"/><path class="cls-30" d="M1122.39,525.8c-.21,1,3.58,2.5,3.58,2.5s1.68-1.71,1-2-1-2.35-1-2.35c-3.63,1.87-3.63.86-3.63,1.87v1"/><path class="cls-30" d="M1147.57,532.7a2.6,2.6,0,0,0-1.69-2.57s-2.54-1-2.54-.5v3.09S1147.5,533,1147.57,532.7Z"/><path class="cls-30" d="M1141.83,532.67l-.1-1.51s.1-.77-.92-.27a3.35,3.35,0,0,1-1.77,0s-.84-.22-.55,1.79Z"/><path class="cls-30" d="M1136.61,532.8s1.15-4.82-.49-4.5c0,0-1.7-.08-1.41,2l.29,2.38Z"/><path class="cls-30" d="M1133.22,532.71s-.65-3.33-.2-3.71c0,0,.32-.77-1.76-.7,0,0-2.6-.19-1.58,1.83a5,5,0,0,1-.24,2.63S1132.72,532.76,1133.22,532.71Z"/><path class="cls-30" d="M1127.75,532.8s.56-3.06-1.16-2.48c0,0-3.37.56-2.67,1.2C1123.92,531.52,1127.35,532.68,1127.75,532.8Z"/><path class="cls-29" d="M1134.49,512.92s.45,3.8,1.87,4.31,1.67-2,1.67-2S1136.26,512.92,1134.49,512.92Z"/><path class="cls-29" d="M1131.33,512.42s-2.41-.26-2.16,5.31C1129.17,517.73,1133.5,517,1131.33,512.42Z"/><path class="cls-24" d="M1180,500s-1.6-.76-2.19,0c0,0,1.52,2.89,1.1,2.83,0,0-.43,1-2.2-2.33,0,0-1.77,1-1.26,1.77,0,0,.5,3.29,0,3,0,0-.41.44-1.09-2.82,0,0-2.46.8-2.46,1.3,0,0-1.26-.25,2-1.77,0,0-1-2.53-1.52-2.78a11.07,11.07,0,0,0-2,.76s-1.26-.51,1.52-1a1.82,1.82,0,0,0-1.26-2s-.26.25-.76-3.29,1,3.54,2.78,4.81c0,0,2.69-1,2.23-1.64,0,0-2.23-4.94-1.47-4.69a20,20,0,0,1,2.53,4.3s1.77-1.26,2.53-.76c0,0,1.27,1.78-1.26,1.27,0,0-1.52-.51-.51,1.26,0,0,.51,1.78,1.77,1C1178.52,499.26,1180.3,499.26,1180,500Z"/><path class="cls-26" d="M1175.74,498.24a1.78,1.78,0,0,1,.51,1,1.54,1.54,0,0,0,.25,1s-1.59.55-1.56,1.29a3.73,3.73,0,0,1-1.48-2.56S1174.47,497.49,1175.74,498.24Z"/><path class="cls-31" d="M1180.46,488.39s.59-8.62,2.62-9.38c0,0-2.45,2-2.62,4.69,0,0-1.18-7.73-2.19-7.73a29.6,29.6,0,0,1,1.27,9.62s-1-6.47-3-6.91c0,0,2.53,4.63,2.53,6.15,0,0,0,.58-.53.67Z"/><path class="cls-31" d="M1114.75,484.47s-.76-1.16-.26-8.5c0,0-.76-1-.76,4.81,0,0-.25,0-2-3.8,0,0,2.53,5.83,1.77,6.08,0,0-2.28-4.81-3-4.56,0,0,3,5.07,2.79,5.32l0,2.39A11.2,11.2,0,0,1,1114.75,484.47Z"/><path class="cls-32" d="M1171.44,482.77s3.79-1.74,0-4.9a6.16,6.16,0,0,0-6.33-4.43s-.51-5.57-5.06-5.57c0,0-6.45-5.06-7.27.89,0,0-5.3-5.26-5.72-1.43,0,0-7.11-2.31-6.93,1.27,0,0-6.38-3.82-8.8,1.27,0,0-6.84-2.29-9.81,3.8,0,0-1,1.8.82,2.3,0,0-4.58-1.52-4.7,1.9,0,0-4.16.91-2.89,6.6,0,0,6.1,2.74,28.36,2.69C1143.11,487.16,1169.92,485.52,1171.44,482.77Z"/><path d="M1167.64,479.77a2.54,2.54,0,0,0-1-3.54s-1.77.75-1.52-2c0,0,0-2.28-.76-2.28,0,0,.25,2.28.25,3.29,0,0,0,2,1.27,1.77C1165.87,477,1167.89,475.72,1167.64,479.77Z"/><path d="M1135.25,476.73a2.55,2.55,0,0,0-1-3.54s-1.77.76-1.52-2c0,0,0-2.27-.75-2.27,0,0,.25,2.27.25,3.29,0,0,0,2,1.26,1.77C1133.47,474,1135.5,472.68,1135.25,476.73Z"/><path d="M1153.47,486.6a2.55,2.55,0,0,0-1-3.54s-1.78.76-1.52-2c0,0,0-2.27-.76-2.27,0,0,.25,2.27.25,3.29,0,0,0,2,1.27,1.77C1151.7,483.82,1153.72,482.55,1153.47,486.6Z"/><path d="M1163.09,474.45s-1.52-3.29-4-3c0,0-2.4-.26-3.1.5,0,0,2.78-.5,3.57,0C1159.51,471.92,1160.55,471.16,1163.09,474.45Z"/><path d="M1166.12,484.58s-1.52-3.29-4-3c0,0-2.4-.25-3.09.51,0,0,2.78-.51,3.57,0C1162.55,482.05,1163.59,481.29,1166.12,484.58Z"/><path d="M1120.29,485.09s.66-3.56-1.56-4.81c0,0-1.81-1.6-2.82-1.38,0,0,2.57,1.19,2.92,2.06C1118.83,481,1120.12,481,1120.29,485.09Z"/><path d="M1144.21,474.61s1.52-3.3-.32-5.06c0,0-1.37-2-2.4-2,0,0,2.2,1.79,2.32,2.72C1143.81,470.25,1145.07,470.54,1144.21,474.61Z"/><path d="M1128.41,476.73s-1.26-3.79-2.78-4.05c0,0-3.29-.76-4.05.76a5.28,5.28,0,0,1,4.27.17A9.06,9.06,0,0,1,1128.41,476.73Z"/><path d="M1144.16,478.67s-1.37-3.76-2.89-4c0,0-3.31-.67-4,.86a5.3,5.3,0,0,1,4.28.06A9.23,9.23,0,0,1,1144.16,478.67Z"/><path d="M1125.63,481.54a2.06,2.06,0,0,0-2.53-2s-5.32,1.67,0,.58c0,0,2.27-1.09,2.27,1.95,0,0,1,1.26,0,1.77,0,0,.15,1.56.45-.11C1125.82,483.71,1126.89,483.31,1125.63,481.54Z"/><path d="M1138,481.32a2.07,2.07,0,0,0-2.54,2s.44,5.55.57.13c0,0-.55-2.47,2.41-1.79,0,0,1.46-.7,1.72.4,0,0,1.55.22,0-.46C1140.12,481.62,1140,480.49,1138,481.32Z"/><path d="M1154.73,475.21s-1-2-1.77-.25c0,0,1-4.13,0-3.58a1.46,1.46,0,0,0-1.52-1s2,.26-2.53-3.29a3.51,3.51,0,0,0-1.73-.36s.21-1.15,2.24.36c0,0,3.54,3.29,4.81,2.79,0,0,.25.5-.51.5,0,0-.69-.33-1,0,0,0,2,1.56,1.49,2.83C1154.23,473.19,1153.47,473.44,1154.73,475.21Z"/><path class="cls-33" d="M1192.13,581.65s-18.13,19.51-52.18,7c0,0,1.12,13.08,11.11,20.29,0,0-1.64.89-1,34.42,0,0-.63,4.68,14.43,2.53,0,0,2.92-.64,2-2.19a6.24,6.24,0,0,0-2.48-1.86s-7-.38-7.84-1.52c0,0-4.43-10.5,1.77-28.6,0,0,6.7,4.43,16.45.26,0,0,1.39-3.17,1.52,28.6,0,0-9-.38-9.37,2.78s6.7,3.36,6.7,3.36,8.36.82,8-5.38c0,0-.38-27.46.25-30.12C1181.43,611.25,1201.18,609.63,1192.13,581.65Z"/><path class="cls-26" d="M1414.62,383s-2.94,4.43-2.77,6.29c0,0,4.9,7.21,16.22,4,0,0,2.69-3,2.48-9.57,0,0-2.45-12.57-2.17-13.81l-1.18-.74s-4,3.29-14.77,0c0,0,.35,6.48,1.61,9.59,0,.13.1.25.16.37"/><path class="cls-33" d="M1411.85,389.28s-3.28,8.37,4.24,10.23v6.68s-.39,1.47,2.27,1.24c0,0,1.75-.68-.74-1.24,0,0-.62.22-.34-2.21l-.11-4.3a8.91,8.91,0,0,0,3.73-.11l.3,6.39s-2.75.62-1,1.5c0,0,3,.31,2.13-1.5l.17-7.08s2-.47,5.58-5.63C1428.07,393.25,1418.58,396.41,1411.85,389.28Z"/><path class="cls-34" d="M1421.54,379.32s.33,1.16.07,1.17c0,0-.25.92.2,1.12,0,0-.28-.81,0-.93s0-1.16,0-1.16"/><path class="cls-27" d="M1424.24,384s9.28-.12,11.2-.4c0,0,.83-.62,1.77,1.87,0,0,2,.68.61-2.66,0,0,0-.93-6.54-.38l-7-.17"/><path class="cls-27" d="M1429.73,379.61s6.28-1.88,10-1.14c0,0,1.25-.11,1.08,1.41,0,0,1,1.81,1.3-.79a2.33,2.33,0,0,0-3-2s-9,.5-9.56.93"/><path d="M1418.08,372.31a2.33,2.33,0,0,0-.66,1.68s0,2.15,1.24,2.21,2.38.63,3.19-.63-.09-3.26-.09-3.26S1419.76,370.89,1418.08,372.31Z"/><path d="M1423.66,371.17a2.1,2.1,0,0,0-.59,1.5s0,1.92,1.11,2,2.13.56,2.84-.56-.08-2.9-.08-2.9A2.79,2.79,0,0,0,1423.66,371.17Z"/><path class="cls-29" d="M1421.81,377.85s4.31-.91,5.89,0a.83.83,0,0,1,0,1.38c-.86.77-5.61.43-5.61.43S1420.45,379.09,1421.81,377.85Z"/><polygon class="cls-30" points="1424.42 377.49 1424.42 378.29 1425.14 378.19 1425.14 377.44 1424.42 377.49"/><polyline class="cls-30" points="1425.6 377.44 1425.54 378.41 1426.12 378.29 1426.25 377.48"/><polyline class="cls-30" points="1422.75 379.69 1422.83 378.41 1423.51 378.41 1423.67 379.72"/><circle class="cls-28" cx="1425.06" cy="372.67" r="1.61"/><circle class="cls-28" cx="1420.39" cy="374.11" r="1.58"/><path class="cls-32" d="M1413.3,369.59a1.23,1.23,0,0,1,1.15-1.7s-.17-2,3-1.08c0,0,0-1.92,2.26-.84,0,0,2-1.31,2.1.56,0,0,.68-2.11,3.34.33,0,0,1.83.52.54,1.88,0,0,1.67-2,1.49.85C1427.18,369.59,1422,372.2,1413.3,369.59Z"/><path d="M1413.93,369.77s.13-.81.58-.81.68-.73.68-.73,0,.73-.57.9a.72.72,0,0,0-.54.69Z"/><path d="M1419.87,366.29s.79.2.75.65.66.75.66.75-.73-.07-.84-.65a.7.7,0,0,0-.63-.6Z"/><path d="M1416.77,366.65a.32.32,0,0,1,0,.5.66.66,0,0,0-.28.46,1.1,1.1,0,0,1,.21.75s.36-.75.07-.75.13-.35.13-.35.46-.49.25-.53"/><path d="M1425.58,367s.08.23-.14.27a.38.38,0,0,0-.29.16.72.72,0,0,1-.11.47s.41-.3.26-.39.17-.15.17-.15.39-.13.29-.2"/><path d="M1421.58,369.64s1.29-.06,1.53.29c0,0,.92-.08,1.15.45,0,0-1.32-.52-1.53-.36C1422.73,370,1422.7,369.76,1421.58,369.64Z"/><path d="M1421.84,366.46a.8.8,0,0,1,1.11.65s.61-.18.71.41a.82.82,0,0,0-.78-.34S1422.92,366.41,1421.84,366.46Z"/><path d="M1418.6,367.17a.81.81,0,0,1,1.09-.69s.12-.63.69-.44a.83.83,0,0,0-.66.54S1419.05,366.19,1418.6,367.17Z"/><path d="M1415.56,368.33a.8.8,0,0,1,1.11.65s.61-.18.71.41a.82.82,0,0,0-.78-.34S1416.64,368.28,1415.56,368.33Z"/><path d="M1419,370.68s.46.09.41-.67l.3-.71-.17.71s-.25.52-.13.7"/><path d="M1426,368.39s-.26.39.45.65l.53.56-.58-.44s-.38-.44-.59-.4"/><path d="M1421,369.13s.33-.91.53-1a7.54,7.54,0,0,1,1.11-.14l-1.13.23A6.56,6.56,0,0,0,1421,369.13Z"/><path d="M1418.08,367.86s1-.11,1.13,0a7.12,7.12,0,0,1,.61.92l-.7-.91A6.58,6.58,0,0,0,1418.08,367.86Z"/><path d="M1423.48,368.86s.92-.32,1.11-.22a7.07,7.07,0,0,1,.81.76l-.9-.72A6.68,6.68,0,0,0,1423.48,368.86Z"/><path class="cls-31" d="M1412.76,372.13A9.42,9.42,0,0,0,1411,372s.79-.06.73-.23c0,0-.42-.25-.52-.21s0-.35-.16-.35a4.68,4.68,0,0,0,1.42.68s.17-.29-.23-.34a1,1,0,0,1-.62-.46,3.06,3.06,0,0,1-.17-.79s.34.91.39.85.4.34.57.23l.23-.23Z"/><path class="cls-31" d="M1428.38,370s.1-.62,1.4-1a3.59,3.59,0,0,1-1,.17,2.82,2.82,0,0,1,1.13-1.36s-.34-.05-1,.85c0,0,.11-1.47-.06-1.47,0,0,0,1.53-.22,1.7s-.22-1.3-.22-1.3,0,1.34-.19,1.35-.16-1.47-.16-1.47l-.11,1.25a5.59,5.59,0,0,1-.81-1.28s.64,1.33.47,1.39l-.38.45"/><path class="cls-26" d="M1322.2,399.34s3.88,5.84,3.66,8.3c0,0-6.47,9.52-21.44,5.24,0,0-3.54-4-3.27-12.64,0,0,3.24-16.61,2.87-18.25l1.56-1s5.31,4.34,19.52,0c0,0-.47,8.55-2.13,12.67l-.21.49"/><path class="cls-33" d="M1325.86,407.64s4.34,11.06-5.61,13.52V430s.53,1.94-3,1.64c0,0-2.31-.9,1-1.64,0,0,.83.29.45-2.92l.15-5.68a11.91,11.91,0,0,1-4.93-.15l-.4,8.44s3.64.82,1.34,2c0,0-4,.42-2.81-2l-.22-9.36s-2.59-.62-7.39-7.45C1304.42,412.88,1317,417.07,1325.86,407.64Z"/><path class="cls-34" d="M1313.06,394.48s-.44,1.54-.1,1.55c0,0,.33,1.22-.26,1.48,0,0,.37-1.07,0-1.23s0-1.53,0-1.53"/><path class="cls-27" d="M1309.49,400.61s-12.26-.15-14.8-.53c0,0-1.1-.82-2.34,2.47,0,0-2.67.9-.8-3.51,0,0-.07-1.23,8.63-.5l9.31-.23"/><path class="cls-27" d="M1302.24,394.87s-8.3-2.49-13.16-1.52c0,0-1.65-.14-1.42,1.87,0,0-1.33,2.39-1.71-1,0,0,.29-3.29,4-2.62,0,0,11.94.66,12.62,1.23"/><path d="M1317.63,385.22a3.06,3.06,0,0,1,.87,2.22s0,2.84-1.63,2.91-3.16.84-4.22-.83.12-4.3.12-4.3S1315.41,383.34,1317.63,385.22Z"/><path d="M1310.25,383.71a2.74,2.74,0,0,1,.78,2s0,2.53-1.46,2.6-2.81.74-3.76-.75.11-3.83.11-3.83S1308.27,382,1310.25,383.71Z"/><path class="cls-29" d="M1312.7,392.53s-5.69-1.19-7.78,0a1.11,1.11,0,0,0,0,1.84c1.13,1,7.41.55,7.41.55S1314.5,394.18,1312.7,392.53Z"/><polygon class="cls-30" points="1309.24 392.06 1309.24 393.12 1308.29 392.98 1308.29 392 1309.24 392.06"/><polyline class="cls-30" points="1307.69 392 1307.77 393.28 1307 393.12 1306.83 392.04"/><polyline class="cls-30" points="1311.46 394.97 1311.35 393.28 1310.46 393.28 1310.24 395.01"/><circle class="cls-28" cx="1308.4" cy="385.69" r="2.13"/><circle class="cls-28" cx="1314.57" cy="387.6" r="2.09"/><path class="cls-32" d="M1323.94,381.63a1.63,1.63,0,0,0-1.52-2.25s.22-2.62-4-1.42c0,0,0-2.55-3-1.13,0,0-2.62-1.72-2.77.75,0,0-.89-2.79-4.41.44,0,0-2.42.68-.72,2.48,0,0-2.2-2.6-2,1.13C1305.6,381.63,1312.45,385.08,1323.94,381.63Z"/><path d="M1323.12,381.86s-.18-1.06-.77-1.06-.9-1-.9-1,0,1,.75,1.2a.93.93,0,0,1,.71.9Z"/><path d="M1315.27,377.26s-1,.27-1,.87-.89,1-.89,1,1-.09,1.12-.86a1,1,0,0,1,.83-.8Z"/><path d="M1319.35,377.74a.43.43,0,0,0,0,.66.85.85,0,0,1,.38.6,1.46,1.46,0,0,0-.27,1s-.48-1-.1-1-.17-.46-.17-.46-.61-.65-.33-.69"/><path d="M1307.71,378.21s-.09.31.2.36a.53.53,0,0,1,.38.21.88.88,0,0,0,.15.62s-.55-.4-.35-.51-.23-.2-.23-.2-.52-.17-.38-.27"/><path d="M1313,381.69s-1.71-.08-2,.38c0,0-1.22-.1-1.52.59,0,0,1.74-.68,2-.47C1311.48,382.19,1311.52,381.85,1313,381.69Z"/><path d="M1312.67,377.49a1.08,1.08,0,0,0-1.48.86s-.81-.24-.94.54a1.1,1.1,0,0,1,1-.45S1311.23,377.42,1312.67,377.49Z"/><path d="M1316.94,378.43a1.07,1.07,0,0,0-1.44-.92.71.71,0,0,0-.92-.58,1.11,1.11,0,0,1,.88.71S1316.34,377.12,1316.94,378.43Z"/><path d="M1321,380a1.06,1.06,0,0,0-1.47.85s-.81-.24-.94.55a1.1,1.1,0,0,1,1-.45S1319.53,379.89,1321,380Z"/><path d="M1316.48,383.06s-.6.12-.55-.89l-.39-.93.22.93s.34.7.17.93"/><path d="M1307.14,380s.36.51-.59.86l-.69.73.76-.57s.5-.59.78-.53"/><path d="M1313.82,381s-.44-1.21-.7-1.31a9.55,9.55,0,0,0-1.46-.19l1.49.3A8.58,8.58,0,0,1,1313.82,381Z"/><path d="M1317.63,379.34s-1.28-.15-1.49,0a10,10,0,0,0-.81,1.23l.93-1.2A8.17,8.17,0,0,1,1317.63,379.34Z"/><path d="M1310.49,380.66s-1.21-.43-1.46-.29a9.2,9.2,0,0,0-1.07,1l1.18-1A9,9,0,0,1,1310.49,380.66Z"/><path class="cls-31" d="M1324.66,385a12.12,12.12,0,0,1,2.4-.15s-1-.07-1-.3c0,0,.56-.34.69-.28s.06-.46.21-.46a6.13,6.13,0,0,1-1.87.89s-.22-.37.3-.45a1.27,1.27,0,0,0,.82-.59,4.63,4.63,0,0,0,.23-1.05s-.45,1.2-.53,1.12-.52.45-.74.3l-.3-.3Z"/><path class="cls-31" d="M1304,382.21s-.14-.82-1.86-1.34a4.81,4.81,0,0,0,1.35.22,3.8,3.8,0,0,0-1.5-1.79s.44-.07,1.34,1.12c0,0-.14-1.94.08-1.94,0,0,0,2,.3,2.24s.29-1.71.29-1.71,0,1.77.25,1.78.21-1.94.21-1.94l.15,1.65a7.65,7.65,0,0,0,1.07-1.69s-.85,1.76-.62,1.84l.5.6"/></svg>
