<svg id="Layer_1" data-name="Layer 1" xmlns="http://www.w3.org/2000/svg" width="293" height="90" viewBox="0 0 293 90"><defs><style>.cls-1{fill:#93561f;}.cls-2{fill:#f28a22;}.cls-3{fill:#fff;}</style></defs><g id="knap"><rect class="cls-1" x="10.45" y="18" width="263.55" height="64" rx="4.11"/></g><g id="knap-2" data-name="knap"><rect class="cls-2" x="16.45" y="11" width="263.55" height="61.84" rx="4.11"/></g><g id="knap-3" data-name="knap"><path class="cls-3" d="M53.31,50.3c0-10.56.06-10.23-.39-18.63L52,30.41c5.61.12,6.42,0,8.46.45a9,9,0,0,1,3.3,1.35,5,5,0,0,1,1.14,6.87c-1.23,1.83-3.12,2.7-5.73,2.94a9.42,9.42,0,0,1,5,2.64c2.52,3.06.18,7-3.69,7.92-1.77.42-4.11.24-8.22,0Zm10.8-14.43c0-3.15-3.09-4.32-9.54-4.17,0,2.91.15,6,.09,9.09,2.4,0,4.35.24,6.51-.51a4.53,4.53,0,0,0,2.94-3.87Zm-9.3,15.45a20.7,20.7,0,0,0,5.1,0c2.94-.51,5-4.14,2.64-6.36-1.32-1.2-3.57-2.25-7.92-2.46C54.69,45.26,54.81,48.59,54.81,51.32Z"/><path class="cls-3" d="M83.43,52.28c.21-.45.48-1.14.81-1.77l-1.32-2.94-13,.12-1.62,2.67,1.26,1.92-3.54,0L76.86,29.63c-.06,0,8.07,18.57,10,22.68ZM76.68,33,70.56,46.07c2.73-.09,8.85-.09,11.82,0Z"/><path class="cls-3" d="M91,49.85l1.8-3C92.25,34.76,92,35.21,92,34.1l-4.89.27-2.88,3.87,1.38-6.39,1,1,13.89-.72,1.08-1.29.36,6.36-2-3.54v0L93.69,34l.6,13.53,1.29,2Z"/><path class="cls-3" d="M108.42,49.85l1.8-3c-.51-12.12-.75-11.67-.72-12.78l-4.89.27-2.88,3.87,1.38-6.39,1,1,13.89-.72,1.08-1.29.36,6.36-1.95-3.54v0l-6.39.39.6,13.53,1.29,2Z"/><path class="cls-3" d="M119.67,51h-.18l1.62-2.49-.36-12.33-1.17-3.9,4.29.18-1.68,3.24.54,13.71h8.91l2.13-4.65-.72,6.3Z"/><path class="cls-3" d="M133.77,51.56c.51-1.32,1.23-3,1.86-4.26l.21-13.65A27.08,27.08,0,0,0,134,31.31l17.46,0,.42,6.69L149.79,33H137.22l-.12,8.82,7.26,0a14,14,0,0,0,2.43-2.37c-.21,2.19-.42,4.68-.42,7A19.13,19.13,0,0,0,144,43.13L137,43,137,49.7c13.56.81,13.56.81,14,.78.63-1.62,1.68-3.66,2.49-5.34L153,51.56Z"/><path class="cls-3" d="M165.57,35.9l-.09,12.93c.78.75,1.68,1.41,2.64,2.37a45.83,45.83,0,0,0-5,.39c.39-1.53.93-4.38,1-4.86V31.94l16.32,16.11.06-11a35.56,35.56,0,0,0-.51-5.43l4,0-2,1.92,0,18.24Z"/><path class="cls-3" d="M184.23,40.31c1.41-12.21,19.89-11.94,20.85.45a9.64,9.64,0,0,1-.9,5,10.74,10.74,0,0,1-13.65,5.64A10.6,10.6,0,0,1,184.23,40.31Zm9.09-7.53c-5.88.63-9.72,7.56-6.78,12.78,2.7,4.86,8.73,6.66,13.38,3.21,5.13-3.6,4.86-12.06-.75-15A10.33,10.33,0,0,0,193.32,32.78Z"/><path class="cls-3" d="M234.18,52.49c-10-16.41-10.35-17.16-10.86-17.82-6.69,11-8.28,13.77-9.9,16.44-8.16-17.58-8.52-18.51-9.06-19.41,1.89-.21,2.85-.54,4.74-.69l-1.92,3.15c1.89,3.87,4.41,9.12,6.27,13l9.9-15.09L234,49.4c.24-.6.45-1.29,4.41-13.86-.45-1-1.05-2.1-1.59-3.15,1.38.06,2.79.33,4.14.42l-6.75,19.68Z"/><path class="cls-3" d="M242.82,46.61c-.15-7.23-.57-12.15-.93-16.62l2.52.24-.72,16.5ZM242,50.45a1.18,1.18,0,0,1,1.29-1.56,1.14,1.14,0,0,1,.93.6,1.19,1.19,0,0,1-1.08,1.77A1.23,1.23,0,0,1,242,50.45Z"/></g></svg>
