<svg id="Layer_1" data-name="Layer 1" xmlns="http://www.w3.org/2000/svg" width="820" height="120" viewBox="0 0 820 120"><defs><style>.cls-1{fill:#c1272d;}.cls-2{fill:#a4b797;}.cls-3{fill:#b4c7a9;}.cls-4{fill:#e2dfa6;}.cls-5{fill:#c5d2c0;}.cls-6{fill:#f4d083;}.cls-7{fill:#4d4d4d;}.cls-8{fill:#887146;}.cls-9{fill:#ea718b;}.cls-10{fill:#96ab8a;}.cls-11{fill:#cd89d3;}.cls-12{fill:#c875d1;}.cls-13{fill:#fff;}</style></defs><rect class="cls-1" x="23.39" y="38.33" width="770.12" height="50.5" rx="12"/><path class="cls-2" d="M20.52,29.51s-5.28,5.37-4.69,12.69c0,0-1.95,5.57-1.56,17.58a35.14,35.14,0,0,1-1,11.91s-.58,5,4.88,7.81a92,92,0,0,1,.1,11.62s2.34,4.1,5.66.78c0,0-.09-1.18-3.61-1.08,0,0-.1-11.32.59-11a8.48,8.48,0,0,0,6.34-.1s2.54,6.25.69,11c0,0,.48.69-3,.59,0,0-1.95,1-.2,1.56,0,0,5.08.78,5.57-1,0,0,.19-13.28-.39-13.28,0,0,5.47-3.52,4.29-12.79,0,0,.1-2.15,4.79-10.64,0,0,9.18-13.48,5.27-24.7C44.24,30.49,34.67,33.71,20.52,29.51Z"/><path class="cls-3" d="M30.54,55.84s19-1.48,19-.51,1-1.36,1.27,2.54c0,0,2.21,1.19,1.45-2.87,0,0,.09-2.41-7.07-1.53l-14.3.2"/><path class="cls-3" d="M41.29,51.11s8.37-.76,10-.37c0,0,6.25-.58,6.83.79,0,0,0,3.9,1.08,2.73a4.07,4.07,0,0,0-.59-4.59s-1.17-.88-9-.58c0,0-7.08.06-7.59.37"/><path d="M29.24,39.27s3.15,2.78,5.34,0c0,0,2.2-2,0-4.88,0,0-.44-1.72-4.35,0A4.22,4.22,0,0,0,29.24,39.27Z"/><path class="cls-4" d="M29.24,37.34s-.38,1.88,3,1.69c0,0,3.52-.2,2.54-2.54,0,0,.24-1.62-2.71-.76A2.75,2.75,0,0,0,29.24,37.34Z"/><path d="M40.51,39.43s2.41.28,3.39-4.21c0,0-.13-3.54-2.41-3.09a4.56,4.56,0,0,0-4.4,3.63S37,39.84,40.51,39.43Z"/><path class="cls-4" d="M40.38,33.07A3.33,3.33,0,0,0,37.85,36s-.3,2.69,2.53,1.93c0,0,2.94.15,2.79-2.45C43.17,35.48,43.22,32.19,40.38,33.07Z"/><path class="cls-5" d="M28.85,47.59s-.18,2,4.31,1.59c0,0,3.83,0,5.72,0,0,0,3-.6,2.41-1.94,0,0,.41-1.46-4.2-1.93C37.09,45.36,28.93,44.63,28.85,47.59Z"/><path class="cls-6" d="M31.08,45.68a11.94,11.94,0,0,1-.75,2.53c-.3.29,2.15-.39,2.15-.78,0,0,.19-2,0-2A6.43,6.43,0,0,0,31.08,45.68Z"/><path class="cls-6" d="M33.18,45.35a7.57,7.57,0,0,1-.28,1.91,3.31,3.31,0,0,0,1.63-.13,3.33,3.33,0,0,0-.25-1.84Z"/><path class="cls-6" d="M35.11,45.28a3.28,3.28,0,0,1,.1,1.36s.68.3,1-.19c0,0,.07-1.07-.16-1.17A3.14,3.14,0,0,0,35.11,45.28Z"/><path class="cls-6" d="M37.09,45.36s-.12-.08-.22,1.09c0,0-.17.27.45.28a5.16,5.16,0,0,0,1.19,0s.45,0,.33-1.1A9.26,9.26,0,0,0,37.09,45.36Z"/><path class="cls-6" d="M41,46.54c.08.38-1.38,1-1.38,1s-.65-.66-.39-.77.39-.91.39-.91c1.4.73,1.4.34,1.4.73v.39"/><path class="cls-6" d="M31.23,49.2a1,1,0,0,1,.66-1s1-.39,1-.2v1.2A8.18,8.18,0,0,1,31.23,49.2Z"/><path class="cls-6" d="M33.45,49.18l0-.58s0-.3.35-.1a1.33,1.33,0,0,0,.69,0s.32-.09.21.69Z"/><path class="cls-6" d="M35.46,49.23s-.44-1.85.19-1.73c0,0,.66,0,.55.78l-.11.92Z"/><path class="cls-6" d="M36.77,49.2s.25-1.28.08-1.43c0,0-.13-.3.68-.27,0,0,1-.07.61.71a1.93,1.93,0,0,0,.09,1S37,49.22,36.77,49.2Z"/><path class="cls-6" d="M38.88,49.23s-.21-1.17.45-.95c0,0,1.3.22,1,.46C40.36,48.74,39,49.19,38.88,49.23Z"/><path class="cls-5" d="M36.28,41.57s-.17,1.46-.72,1.66-.64-.78-.64-.78S35.6,41.57,36.28,41.57Z"/><path class="cls-5" d="M37.5,41.37s.93-.1.83,2.05C38.33,43.42,36.67,43.13,37.5,41.37Z"/><path class="cls-7" d="M18.71,36.59s.62-.29.85,0c0,0-.59,1.11-.43,1.09,0,0,.17.37.85-.9,0,0,.68.39.49.69,0,0-.2,1.27,0,1.17,0,0,.15.17.42-1.09,0,0,.94.31.94.5,0,0,.49-.09-.78-.68,0,0,.39-1,.59-1.07a3.8,3.8,0,0,1,.78.29s.49-.2-.59-.39a.71.71,0,0,1,.49-.78s.1.09.29-1.27-.39,1.36-1.07,1.85c0,0-1-.39-.86-.63,0,0,.86-1.91.57-1.81a7.85,7.85,0,0,0-1,1.66s-.68-.49-1-.29c0,0-.49.68.48.49,0,0,.59-.2.2.48,0,0-.2.69-.68.4C19.3,36.3,18.61,36.3,18.71,36.59Z"/><path class="cls-2" d="M20.37,35.9a.7.7,0,0,0-.2.4.64.64,0,0,1-.09.39s.61.21.6.49a1.45,1.45,0,0,0,.57-1S20.86,35.61,20.37,35.9Z"/><path class="cls-8" d="M18.55,32.1s-.23-3.32-1-3.62a3,3,0,0,1,1,1.81s.45-3,.84-3A11.63,11.63,0,0,0,18.9,31s.4-2.49,1.18-2.66a9.52,9.52,0,0,0-1,2.37s0,.22.2.26Z"/><path class="cls-8" d="M43.9,30.59s.29-.45.1-3.28c0,0,.29-.39.29,1.86,0,0,.1,0,.78-1.47,0,0-1,2.25-.68,2.35,0,0,.88-1.86,1.17-1.76a14.2,14.2,0,0,0-1.08,2.05v.92A4.57,4.57,0,0,0,43.9,30.59Z"/><path class="cls-9" d="M22,29.94s-1.47-.67,0-1.89a2.37,2.37,0,0,1,2.44-1.71s.2-2.15,2-2.15c0,0,2.49-2,2.81.34,0,0,2-2,2.2-.55,0,0,2.74-.89,2.68.49,0,0,2.46-1.48,3.39.49,0,0,2.64-.89,3.79,1.47,0,0,.36.69-.32.88,0,0,1.77-.58,1.81.74,0,0,1.61.35,1.12,2.54,0,0-2.36,1.06-10.94,1C33,31.63,22.61,31,22,29.94Z"/><path d="M23.49,28.78a1,1,0,0,1,.39-1.37s.69.29.59-.78c0,0,0-.88.29-.88,0,0-.09.88-.09,1.27,0,0,0,.78-.49.68C24.18,27.7,23.4,27.22,23.49,28.78Z"/><path d="M36,27.61a1,1,0,0,1,.39-1.37s.68.29.59-.78c0,0,0-.88.29-.88,0,0-.1.88-.1,1.27,0,0,0,.78-.49.68C36.67,26.53,35.89,26,36,27.61Z"/><path d="M29,31.41a1,1,0,0,1,.39-1.36s.68.29.59-.78c0,0,0-.88.29-.88,0,0-.1.88-.1,1.27,0,0,0,.78-.49.68C29.64,30.34,28.86,29.85,29,31.41Z"/><path d="M25.25,26.73s.59-1.27,1.56-1.17c0,0,.93-.1,1.2.19,0,0-1.08-.19-1.38,0C26.63,25.75,26.23,25.46,25.25,26.73Z"/><path d="M24.08,30.63s.59-1.27,1.56-1.17c0,0,.93-.1,1.2.2,0,0-1.08-.2-1.38,0C25.46,29.66,25.06,29.36,24.08,30.63Z"/><path d="M41.76,30.83s-.25-1.37.6-1.86c0,0,.7-.61,1.09-.53,0,0-1,.46-1.13.8C42.32,29.24,41.82,29.23,41.76,30.83Z"/><path d="M32.53,26.79s-.58-1.27.13-1.95c0,0,.52-.77.92-.78,0,0-.85.69-.9,1C32.68,25.1,32.2,25.22,32.53,26.79Z"/><path d="M38.63,27.61s.48-1.47,1.07-1.57c0,0,1.27-.29,1.56.3a2.05,2.05,0,0,0-1.65.06A3.49,3.49,0,0,0,38.63,27.61Z"/><path d="M32.55,28.35s.53-1.45,1.12-1.53c0,0,1.27-.26,1.55.33a2,2,0,0,0-1.65,0A3.51,3.51,0,0,0,32.55,28.35Z"/><path d="M39.7,29.46a.8.8,0,0,1,1-.78s2,.65,0,.23c0,0-.88-.43-.88.75,0,0-.39.48,0,.68,0,0-.06.6-.18,0C39.62,30.3,39.21,30.14,39.7,29.46Z"/><path d="M34.94,29.38a.79.79,0,0,1,1,.77s-.17,2.15-.22.05c0,0,.22-.95-.93-.68,0,0-.56-.27-.66.15,0,0-.6.08,0-.18C34.11,29.49,34.17,29.06,34.94,29.38Z"/><path d="M28.47,27s.39-.78.69-.1c0,0-.39-1.59,0-1.38a.55.55,0,0,1,.58-.37s-.78.09,1-1.27a1.27,1.27,0,0,1,.67-.14s-.09-.45-.87.14c0,0-1.36,1.27-1.85,1.07,0,0-.1.2.19.2,0,0,.27-.13.38,0s-.77.6-.57,1.09C28.67,26.24,29,26.34,28.47,27Z"/><path class="cls-10" d="M14.05,68.08s7,7.53,20.13,2.71c0,0-.44,5-4.29,7.83,0,0,.63.34.39,13.28,0,0,.24,1.8-5.57,1,0,0-1.12-.24-.76-.84a2.37,2.37,0,0,1,1-.72s2.68-.15,3-.59c0,0,1.7-4-.69-11a6.92,6.92,0,0,1-6.34.1s-.54-1.22-.59,11c0,0,3.47-.14,3.61,1.08s-2.58,1.29-2.58,1.29-3.23.32-3.08-2.07c0,0,.15-10.6-.1-11.62C18.17,79.5,10.56,78.87,14.05,68.08Z"/><path class="cls-11" d="M795.08,52.34s5.71-1.12,7.91-4.63c0,0,2.4-3.1,2.7-4.7a18.18,18.18,0,0,1,1.21-4.81s2.6-3,2.6-4.21c0,0-.7-1.3-3.71,2.81a11.46,11.46,0,0,0-1.5,4.9s-1.62,5.48-4,6.2a9.14,9.14,0,0,1-5.44,2.31A6,6,0,0,0,795.08,52.34Z"/><path class="cls-11" d="M773.39,49.5s-4.15-.28-5-7.09c0,0-2.7-6.81-5.1-8.22,0,0-1.55-2.2-2.23,0a6.8,6.8,0,0,0,2.53,3.71s2.9,3.3,2.7,5.41c0,0,.77,7.41,7.09,7.91A7,7,0,0,0,773.39,49.5Z"/><path class="cls-11" d="M768.54,67.94s1,1,4.9-1.18a7.07,7.07,0,0,1,5.22,2,11.65,11.65,0,0,0,5.1-1.6s1.31-.3,4.11,1.2c0,0,.79.63,4.6-1.59a6.53,6.53,0,0,1,4.26,1,1.77,1.77,0,0,0,2.36,0s1.7,9.35,0,11.15c0,0-.61,2.09-16,1.69,0,0-17.12-2.2-16.92-3.71C766.14,76.85,767.34,68.34,768.54,67.94Z"/><path class="cls-12" d="M766.14,76.85s-.9,10.82,12,11.22c0,0-2,3.9-.6,9.81,0,0-3.51-.1-3.31,1.2s3.31.61,3.31.61,1.9.8,1.2-2.41c0,0,.1-9.41,1.5-9.41,0,0,3.1.7,3.6.1,0,0,1.91,8.81.61,11.11,0,0,.3.81,3,.51,0,0,2,.5,2.2-.61,0,0,.36-.79-2.88-.84,0,0-.62-.26-.32-3.86,0,0,.7-3.81-.6-6.41a11.46,11.46,0,0,0,9.91-2.7s3.11-1.19,3.31-6.3c0,0-1.61,2.09-16,1.69C783.06,80.56,766.34,78.46,766.14,76.85Z"/><path class="cls-13" d="M768.54,67.94s1,1,4.9-1.18a7.28,7.28,0,0,1,5.22,2s3.4-.3,5.1-1.6a7.58,7.58,0,0,1,4.11,1.2s.49.73,4.6-1.59c0,0,.89-.83,5.21,1.43,0,0,1.11,0,1.41-.46,0,0-1.7-13.15-4-15.38a41.42,41.42,0,0,1,.4-10.84s2.4-15.62-10.11-16.92c0,0-10-2.07-11.93,9.93,0,0-.92,4.45-.05,15C773.39,49.5,774.35,54.52,768.54,67.94Z"/><ellipse class="cls-11" cx="781.56" cy="36.5" rx="2.4" ry="3.81"/><ellipse class="cls-11" cx="787.37" cy="36.5" rx="2.4" ry="3.81"/><path d="M781.56,33.39s2.2.2,1.4,3.61c0,0-.3,2.7-1.7,2.6,0,0-1.57,0-1.58-3.1S781.56,33.39,781.56,33.39Z"/><path d="M787,33.39s2.2.2,1.4,3.61c0,0-.3,2.7-1.7,2.6,0,0-1.57,0-1.59-3.1S787,33.39,787,33.39Z"/><path class="cls-13" d="M780.14,35.26a1.22,1.22,0,0,0,1.12-.16,1.26,1.26,0,0,0,.16-1.14A1.77,1.77,0,0,0,780.14,35.26Z"/><path class="cls-13" d="M785.75,35.06a1.22,1.22,0,0,0,1.12-.16,1.28,1.28,0,0,0,.16-1.15A1.8,1.8,0,0,0,785.75,35.06Z"/><path d="M778.26,43.61s-.2,2.1,2.2,1.2c0,0,2.35-.2,2.68.5a3.51,3.51,0,0,0,2.61-.29,5.72,5.72,0,0,1,2.52-.11s2.31.32,2.56-.39c0,0,.44-1.89-1.06-2.3s-3.8.59-3.8.59a6.93,6.93,0,0,1-4.11,0S778.46,41.2,778.26,43.61Z"/></svg>
