<svg id="Layer_1" data-name="Layer 1" xmlns="http://www.w3.org/2000/svg" width="60" height="85" viewBox="0 0 60 85"><defs><style>.cls-1{fill:#a4b797;}.cls-2{fill:#b4c7a9;}.cls-3{fill:#e2dfa6;}.cls-4{fill:#c5d2c0;}.cls-5{fill:#f4d083;}.cls-6{fill:#4d4d4d;}.cls-7{fill:#887146;}.cls-8{fill:#ea718b;}.cls-9{fill:#96ab8a;}</style></defs><path class="cls-1" d="M15.16,10.74s-5.55,5.77-4.93,13.64c0,0-2.05,6-1.64,18.88a38.43,38.43,0,0,1-1,12.8s-.62,5.35,5.14,8.4a100.58,100.58,0,0,1,.1,12.48s2.47,4.41,6,.84c0,0-.1-1.26-3.8-1.15,0,0-.1-12.17.61-11.86a8.81,8.81,0,0,0,6.68-.1s2.67,6.71.72,11.85c0,0,.52.74-3.18.63,0,0-2.06,1-.21,1.68,0,0,5.34.84,5.86-1,0,0,.2-14.27-.41-14.27,0,0,5.75-3.77,4.52-13.74,0,0,.1-2.31,5-11.44,0,0,9.66-14.48,5.55-26.54C40.13,11.79,30.06,15.25,15.16,10.74Z"/><path class="cls-2" d="M25.71,39s20-1.59,20-.54,1-1.47,1.34,2.73c0,0,2.32,1.28,1.52-3.09,0,0,.1-2.59-7.44-1.64l-15,.22"/><path class="cls-2" d="M37,34s8.81-.81,10.56-.39c0,0,6.58-.63,7.19.84,0,0,0,4.19,1.13,2.94a4.45,4.45,0,0,0-.61-4.94s-1.24-.94-9.46-.62c0,0-7.44.06-8,.4"/><path d="M24.35,21.23s3.31,3,5.62,0c0,0,2.31-2.16,0-5.25,0,0-.47-1.84-4.58,0A4.6,4.6,0,0,0,24.35,21.23Z"/><path class="cls-3" d="M24.35,19.15s-.4,2,3.19,1.82c0,0,3.7-.21,2.68-2.73,0,0,.25-1.74-2.86-.82A2.86,2.86,0,0,0,24.35,19.15Z"/><path d="M36.2,21.4s2.54.3,3.57-4.52c0,0-.14-3.81-2.53-3.32a4.81,4.81,0,0,0-4.64,3.9S32.53,21.84,36.2,21.4Z"/><path class="cls-3" d="M36.07,14.57a3.55,3.55,0,0,0-2.67,3.15s-.31,2.88,2.67,2.07c0,0,3.09.16,2.93-2.64C39,17.15,39.05,13.62,36.07,14.57Z"/><path class="cls-4" d="M23.93,30.17s-.19,2.13,4.54,1.71c0,0,4,0,6,.06,0,0,3.17-.66,2.53-2.09,0,0,.44-1.57-4.42-2.08C32.6,27.77,24,27,23.93,30.17Z"/><path class="cls-5" d="M26.29,28.12a12.61,12.61,0,0,1-.8,2.71c-.31.32,2.26-.42,2.26-.84,0,0,.21-2.1,0-2.15A5.94,5.94,0,0,0,26.29,28.12Z"/><path class="cls-5" d="M28.49,27.76a8.32,8.32,0,0,1-.29,2,3.49,3.49,0,0,0,1.71-.13,3.62,3.62,0,0,0-.27-2Z"/><path class="cls-5" d="M30.52,27.69a3.64,3.64,0,0,1,.11,1.46s.72.32,1-.21c0,0,.08-1.14-.16-1.25A2.87,2.87,0,0,0,30.52,27.69Z"/><path class="cls-5" d="M32.6,27.77s-.12-.09-.23,1.17c0,0-.17.29.48.31a5.69,5.69,0,0,0,1.25,0s.47,0,.35-1.19A10.13,10.13,0,0,0,32.6,27.77Z"/><path class="cls-5" d="M36.67,29c.08.4-1.46,1-1.46,1s-.68-.71-.4-.82.4-1,.4-1c1.48.78,1.48.36,1.48.78v.42"/><path class="cls-5" d="M26.44,31.89a1.08,1.08,0,0,1,.69-1.06s1-.42,1-.21V31.9A8.25,8.25,0,0,1,26.44,31.89Z"/><path class="cls-5" d="M28.78,31.88l0-.62s0-.32.37-.11a1.44,1.44,0,0,0,.72,0s.34-.1.22.74Z"/><path class="cls-5" d="M30.9,31.94s-.47-2,.19-1.87c0,0,.69,0,.58.84l-.12,1Z"/><path class="cls-5" d="M32.27,31.9s.27-1.38.08-1.54c0,0-.13-.32.72-.29,0,0,1-.08.64.76a2.12,2.12,0,0,0,.09,1.09S32.47,31.92,32.27,31.9Z"/><path class="cls-5" d="M34.49,31.94s-.22-1.27.47-1c0,0,1.37.23,1.09.5Z"/><path class="cls-4" d="M31.76,23.7s-.19,1.57-.76,1.78-.68-.84-.68-.84S31,23.7,31.76,23.7Z"/><path class="cls-4" d="M33,23.49s1-.11.87,2.2C33.91,25.69,32.16,25.38,33,23.49Z"/><path class="cls-6" d="M13.26,18.35s.65-.32.89,0c0,0-.61,1.2-.44,1.17,0,0,.17.4.89-1,0,0,.72.42.51.73,0,0-.2,1.36,0,1.26,0,0,.17.18.44-1.17,0,0,1,.33,1,.54,0,0,.51-.11-.82-.73A4.52,4.52,0,0,1,16.34,18a4.64,4.64,0,0,1,.83.32s.51-.21-.62-.42a.77.77,0,0,1,.51-.84s.11.1.31-1.37-.41,1.47-1.13,2c0,0-1.09-.42-.9-.68,0,0,.9-2,.59-1.95a9,9,0,0,0-1,1.79s-.72-.53-1-.32c0,0-.51.74.51.53,0,0,.62-.21.21.52,0,0-.21.74-.72.42C13.88,18,13.16,18,13.26,18.35Z"/><path class="cls-1" d="M15,17.61a.73.73,0,0,0-.21.42.66.66,0,0,1-.1.42s.65.23.63.53a1.53,1.53,0,0,0,.6-1.05S15.52,17.3,15,17.61Z"/><path class="cls-7" d="M13.09,13.53S12.85,10,12,9.64a3.24,3.24,0,0,1,1.06,1.94s.48-3.2.89-3.2a12.65,12.65,0,0,0-.51,4s.41-2.69,1.23-2.87a10.46,10.46,0,0,0-1,2.55s0,.24.22.28Z"/><path class="cls-7" d="M39.77,11.9s.31-.48.1-3.52c0,0,.31-.42.31,2,0,0,.11,0,.82-1.57,0,0-1,2.41-.71,2.52,0,0,.92-2,1.23-1.89a15.17,15.17,0,0,0-1.13,2.2v1A4.61,4.61,0,0,0,39.77,11.9Z"/><path class="cls-8" d="M16.76,11.2s-1.55-.72,0-2a2.51,2.51,0,0,1,2.56-1.84S19.53,5,21.38,5c0,0,2.62-2.1,2.95.37,0,0,2.15-2.18,2.32-.59,0,0,2.89-1,2.82.52,0,0,2.59-1.58,3.57.53,0,0,2.78-.95,4,1.58,0,0,.39.74-.33,1,0,0,1.86-.63,1.9.79,0,0,1.7.37,1.18,2.73,0,0-2.48,1.14-11.51,1.12C28.26,13,17.37,12.34,16.76,11.2Z"/><path d="M18.3,10a1.06,1.06,0,0,1,.41-1.47s.72.32.61-.84c0,0,0-.94.31-.94,0,0-.1.94-.1,1.36,0,0,0,.84-.51.74C19,8.8,18.19,8.27,18.3,10Z"/><path d="M31.45,8.69a1.08,1.08,0,0,1,.41-1.47s.72.32.62-.83c0,0,0-.95.3-.95,0,0-.1.95-.1,1.37,0,0,0,.83-.51.73C32.17,7.54,31.35,7,31.45,8.69Z"/><path d="M24.05,12.79a1.08,1.08,0,0,1,.41-1.47s.72.31.62-.84c0,0,0-1,.31-1,0,0-.11,1-.11,1.37,0,0,0,.84-.51.73C24.77,11.63,24,11.11,24.05,12.79Z"/><path d="M20.15,7.75s.61-1.36,1.64-1.26c0,0,1-.1,1.26.21,0,0-1.13-.21-1.45,0C21.6,6.7,21.17,6.39,20.15,7.75Z"/><path d="M18.91,12s.62-1.37,1.65-1.26c0,0,1-.11,1.25.21,0,0-1.13-.21-1.45,0C20.36,10.9,19.94,10.58,18.91,12Z"/><path d="M37.52,12.16s-.27-1.48.63-2c0,0,.74-.66,1.15-.57,0,0-1,.5-1.19.86C38.11,10.45,37.59,10.44,37.52,12.16Z"/><path d="M27.81,7.81s-.62-1.36.13-2.09c0,0,.55-.82,1-.84,0,0-.89.74-.94,1.13C28,6,27.46,6.13,27.81,7.81Z"/><path d="M34.22,8.69S34.74,7.12,35.35,7c0,0,1.34-.32,1.65.31a2.1,2.1,0,0,0-1.74.07A3.7,3.7,0,0,0,34.22,8.69Z"/><path d="M27.83,9.5S28.38,7.94,29,7.85c0,0,1.35-.28,1.64.36a2.11,2.11,0,0,0-1.74,0A3.64,3.64,0,0,0,27.83,9.5Z"/><path d="M35.35,10.69a.85.85,0,0,1,1-.84s2.16.69,0,.24c0,0-.92-.45-.92.81,0,0-.41.52,0,.73,0,0-.06.65-.19,0C35.27,11.59,34.84,11.42,35.35,10.69Z"/><path d="M30.35,10.6a.84.84,0,0,1,1,.83s-.18,2.3-.23.06c0,0,.22-1-1-.74,0,0-.59-.29-.7.16,0,0-.63.09,0-.19C29.47,10.72,29.53,10.25,30.35,10.6Z"/><path d="M23.54,8.06s.41-.84.72-.1c0,0-.41-1.71,0-1.49a.59.59,0,0,1,.61-.4s-.82.11,1-1.36a1.35,1.35,0,0,1,.7-.15s-.08-.48-.91.15c0,0-1.43,1.36-2,1.15,0,0-.1.21.21.21,0,0,.28-.14.4,0s-.81.65-.61,1.17C23.74,7.22,24.05,7.33,23.54,8.06Z"/><path class="cls-9" d="M8.36,52.19s7.35,8.09,21.18,2.91c0,0-.45,5.42-4.51,8.41,0,0,.66.37.41,14.27,0,0,.25,1.94-5.86,1,0,0-1.18-.27-.8-.91a2.56,2.56,0,0,1,1-.77S22.61,77,23,76.52c0,0,1.8-4.35-.72-11.85a7.18,7.18,0,0,1-6.68.1S15,63.46,15,76.63c0,0,3.65-.16,3.8,1.15S16,79.17,16,79.17s-3.39.34-3.24-2.23c0,0,.15-11.38-.1-12.48C12.7,64.46,4.68,63.79,8.36,52.19Z"/></svg>
