<svg id="Layer_1" data-name="Layer 1" xmlns="http://www.w3.org/2000/svg" width="825" height="95" viewBox="0 0 825 95"><defs><style>.cls-1{fill:#891f27;}.cls-2{fill:#cd89d3;}.cls-3{fill:#c875d1;}.cls-4{fill:#fff;}</style></defs><rect class="cls-1" x="23.68" y="23" width="762" height="50" rx="12.73"/><path class="cls-2" d="M794,38.19s5.77-1.12,8-4.61c0,0,2.43-3.08,2.73-4.67A17.76,17.76,0,0,1,806,24.13s2.63-3,2.63-4.19c0,0-.71-1.29-3.74,2.79a11.21,11.21,0,0,0-1.52,4.88s-1.65,5.45-4.06,6.16a9.34,9.34,0,0,1-5.5,2.3A5.92,5.92,0,0,0,794,38.19Z"/><path class="cls-2" d="M772.1,35.36s-4.19-.28-5.1-7c0,0-2.73-6.77-5.16-8.17,0,0-1.57-2.19-2.25,0a6.83,6.83,0,0,0,2.55,3.69s2.94,3.28,2.74,5.37c0,0,.77,7.38,7.16,7.87A6.45,6.45,0,0,0,772.1,35.36Z"/><path class="cls-2" d="M767.2,53.7s1,1,4.95-1.18a7.19,7.19,0,0,1,5.27,2,11.93,11.93,0,0,0,5.16-1.59s1.32-.3,4.15,1.2c0,0,.8.62,4.65-1.58a6.7,6.7,0,0,1,4.31,1,1.81,1.81,0,0,0,2.38,0s1.72,9.3,0,11.08c0,0-.61,2.08-16.19,1.68,0,0-17.31-2.19-17.11-3.68C764.77,62.56,766,54.1,767.2,53.7Z"/><path class="cls-3" d="M764.77,62.56s-.91,10.75,12.15,11.15c0,0-2,3.88-.61,9.76,0,0-3.54-.1-3.34,1.19s3.34.6,3.34.6,1.92.8,1.21-2.39c0,0,.11-9.36,1.52-9.36,0,0,3.14.7,3.65.1,0,0,1.92,8.76.6,11,0,0,.31.8,3,.5,0,0,2,.5,2.22-.6,0,0,.36-.78-2.9-.84,0,0-.64-.25-.33-3.84,0,0,.7-3.78-.61-6.37a11.7,11.7,0,0,0,10-2.69s3.14-1.17,3.34-6.26c0,0-1.62,2.08-16.19,1.68C781.88,66.24,765,64.15,764.77,62.56Z"/><path class="cls-4" d="M767.2,53.7s1,1,4.95-1.18a7.41,7.41,0,0,1,5.27,2s3.44-.29,5.16-1.59a7.72,7.72,0,0,1,4.15,1.2s.49.72,4.65-1.58c0,0,.9-.83,5.26,1.42,0,0,1.13,0,1.43-.46,0,0-1.72-13.08-4.05-15.29a40.45,40.45,0,0,1,.4-10.78s2.43-15.53-10.22-16.83c0,0-10.14-2.06-12.05,9.88,0,0-.92,4.42,0,14.9C772.1,35.36,773.07,40.36,767.2,53.7Z"/><ellipse class="cls-2" cx="780.36" cy="22.43" rx="2.43" ry="3.78"/><ellipse class="cls-2" cx="786.23" cy="22.43" rx="2.43" ry="3.78"/><path d="M780.36,19.35s2.22.2,1.41,3.58c0,0-.3,2.69-1.72,2.59,0,0-1.58,0-1.6-3.09S780.36,19.35,780.36,19.35Z"/><path d="M785.82,19.35s2.23.2,1.42,3.58c0,0-.3,2.69-1.72,2.59,0,0-1.58,0-1.6-3.09S785.82,19.35,785.82,19.35Z"/><path class="cls-4" d="M778.92,21.21a1.25,1.25,0,0,0,1.13-.17,1.22,1.22,0,0,0,.17-1.13A1.8,1.8,0,0,0,778.92,21.21Z"/><path class="cls-4" d="M784.59,21a1.25,1.25,0,0,0,1.13-.17c.41-.4.16-1.13.16-1.13A1.78,1.78,0,0,0,784.59,21Z"/><path d="M777,29.5s-.2,2.09,2.22,1.2c0,0,2.38-.2,2.71.49a3.58,3.58,0,0,0,2.64-.29,5.92,5.92,0,0,1,2.55-.1s2.33.32,2.58-.39c0,0,.45-1.88-1.06-2.29s-3.85.59-3.85.59a7.15,7.15,0,0,1-4.15,0S777.22,27.11,777,29.5Z"/></svg>
