<svg id="Layer_1" data-name="Layer 1" xmlns="http://www.w3.org/2000/svg" width="395" height="570" viewBox="0 0 395 570"><defs><style>.cls-1{fill:#a4b797;}.cls-2{fill:#b4c7a9;}.cls-3{fill:#e2dfa6;}.cls-4{fill:#c5d2c0;}.cls-5{fill:#f4d083;}.cls-6{fill:#4d4d4d;}.cls-7{fill:#887146;}.cls-8{fill:#ea718b;}.cls-9{fill:#96ab8a;}</style></defs><path class="cls-1" d="M78.37,59.65s-40.52,41.27-36,97.56c0,0-15,42.77-12,135.08,0,0,5.25,46.52-7.51,91.55,0,0-4.5,38.27,37.52,60,0,0,3,27.76.75,89.3,0,0,18,31.52,43.53,6,0,0-.75-9-27.77-8.25,0,0-.75-87,4.51-84.8,0,0,24.76,10.5,48.78-.75,0,0,19.51,48,5.25,84.8,0,0,3.75,5.25-23.27,4.5,0,0-15,7.5-1.5,12,0,0,39,6,42.78-7.51,0,0,1.5-102.06-3-102.06,0,0,42-27,33-98.31,0,0,.75-16.51,36.77-81.79,0,0,70.54-103.57,40.52-189.87C260.73,67.15,187.19,91.92,78.37,59.65Z"/><path class="cls-2" d="M155.42,262s146.21-11.4,146.21-3.9,7.51-10.51,9.76,19.51c0,0,17,9.15,11.12-22.07,0,0,.75-18.55-54.34-11.74L158.3,245.38"/><path class="cls-2" d="M238,225.68s64.35-5.81,77.11-2.81c0,0,48-4.5,52.53,6,0,0,0,30,8.25,21,0,0,10.51-18.76-4.5-35.27,0,0-9-6.76-69-4.51,0,0-54.38.48-58.33,2.87"/><path d="M145.44,134.68s24.21,21.38,41.05,0c0,0,16.93-15.44,0-37.54,0,0-3.37-13.17-33.42,0C153.07,97.14,135.58,111.78,145.44,134.68Z"/><path class="cls-3" d="M145.44,119.83s-2.9,14.49,23.36,13c0,0,27-1.5,19.51-19.51,0,0,1.87-12.46-20.82-5.86C167.49,107.45,153.59,104.59,145.44,119.83Z"/><path d="M232,135.92s18.57,2.15,26.08-32.37c0,0-1-27.21-18.53-23.74,0,0-26.13-.93-33.82,27.92C205.76,107.73,205.2,139,232,135.92Z"/><path class="cls-3" d="M231.09,87s-18.76,4.5-19.51,22.51c0,0-2.25,20.63,19.51,14.82,0,0,22.55,1.14,21.41-18.85C252.5,105.52,252.85,80.29,231.09,87Z"/><path class="cls-4" d="M142.42,198.64s-1.38,15.22,33.14,12.22c0,0,29.42,0,44,.4,0,0,23.18-4.66,18.49-14.91,0,0,3.19-11.23-32.27-14.87C205.76,181.48,143.06,175.9,142.42,198.64Z"/><path class="cls-5" d="M159.61,184s-3.56,17.15-5.82,19.4,16.51-3,16.51-6c0,0,1.5-15,0-15.39S161.68,183.32,159.61,184Z"/><path class="cls-5" d="M175.7,181.42s-.3,10.36-2.1,14.65a25.59,25.59,0,0,0,12.46-1s1.4-5.77-1.92-14.14Z"/><path class="cls-5" d="M190.54,180.88a25.58,25.58,0,0,1,.78,10.47s5.25,2.25,7.5-1.5c0,0,.58-8.19-1.21-9S192.76,180.91,190.54,180.88Z"/><path class="cls-5" d="M205.76,181.48s-.94-.63-1.69,8.37c0,0-1.28,2.09,3.49,2.17,0,0,7.45.67,9.11,0,0,0,3.44.27,2.55-8.45A73.38,73.38,0,0,0,205.76,181.48Z"/><path class="cls-5" d="M235.45,190.52c.61,2.92-10.63,7.4-10.63,7.4s-5-5.07-3-5.9,3-7,3-7c10.77,5.56,10.77,2.56,10.77,5.56v3"/><path class="cls-5" d="M160.76,211s-.21-6.11,5-7.61c0,0,7.51-3,7.51-1.5V211S161,211.82,160.76,211Z"/><path class="cls-5" d="M177.79,210.87l.3-4.47s-.28-2.29,2.72-.79a10.2,10.2,0,0,0,5.25,0s2.5-.67,1.63,5.29C187.69,210.9,183,210.87,177.79,210.87Z"/><path class="cls-5" d="M193.28,211.26s-3.4-14.28,1.44-13.34c0,0,5-.22,4.19,6l-.86,7.06Z"/><path class="cls-5" d="M203.31,211s1.95-9.88.61-11c0,0-1-2.26,5.23-2.07,0,0,7.68-.56,4.68,5.44,0,0-.86,4.33.69,7.79C214.52,211.15,204.81,211.16,203.31,211Z"/><path class="cls-5" d="M219.54,211.26s-1.64-9.06,3.45-7.36c0,0,10,1.68,7.92,3.57C230.91,207.47,220.74,210.9,219.54,211.26Z"/><path class="cls-4" d="M199.57,152.33s-1.35,11.26-5.55,12.76-5-6-5-6S194.32,152.33,199.57,152.33Z"/><path class="cls-4" d="M208.92,150.83s7.16-.75,6.41,15.76C215.33,166.59,202.51,164.34,208.92,150.83Z"/><path class="cls-6" d="M64.49,114.06s4.75-2.26,6.5,0c0,0-4.5,8.58-3.25,8.41,0,0,1.25,2.84,6.51-6.91,0,0,5.25,3,3.75,5.25,0,0-1.5,9.76,0,9,0,0,1.21,1.29,3.23-8.36,0,0,7.28,2.35,7.28,3.85,0,0,3.75-.75-6-5.25,0,0,3-7.5,4.5-8.26a33.57,33.57,0,0,1,6,2.26s3.75-1.5-4.5-3a5.44,5.44,0,0,1,3.75-6s.75.75,2.25-9.76-3,10.51-8.26,14.26c0,0-8-3-6.6-4.86,0,0,6.6-14.65,4.35-13.9,0,0-2.25,2.25-7.5,12.76,0,0-5.25-3.75-7.51-2.25,0,0-3.75,5.25,3.76,3.75,0,0,4.5-1.5,1.5,3.75,0,0-1.5,5.26-5.26,3C69,111.8,63.74,111.8,64.49,114.06Z"/><path class="cls-1" d="M77.25,108.8a5.24,5.24,0,0,0-1.5,3,4.52,4.52,0,0,1-.75,3s4.72,1.63,4.61,3.82A11.11,11.11,0,0,0,84,111.05S81,106.55,77.25,108.8Z"/><path class="cls-7" d="M63.24,79.59S61.49,54,55.49,51.77c0,0,7.25,6.06,7.75,13.91,0,0,3.5-22.92,6.5-22.92A87.65,87.65,0,0,0,66,71.28s3-19.19,9-20.48c0,0-7.51,13.73-7.51,18.23,0,0,.13,1.72,1.57,2Z"/><path class="cls-7" d="M258.11,68s2.25-3.42.75-25.19c0,0,2.25-3,2.25,14.26,0,0,.75,0,6-11.25,0,0-7.5,17.26-5.25,18,0,0,6.75-14.26,9-13.51,0,0-9,15-8.25,15.76l0,7.1A32.61,32.61,0,0,0,258.11,68Z"/><path class="cls-8" d="M90,62.92s-11.25-5.15,0-14.53c0,0,3-13.13,18.77-13.13,0,0,1.5-16.51,15-16.51,0,0,19.11-15,21.56,2.62,0,0,15.69-15.59,16.95-4.23,0,0,21.07-6.84,20.54,3.76,0,0,18.93-11.33,26.09,3.76,0,0,20.29-6.79,29.11,11.29,0,0,2.82,5.31-2.44,6.81,0,0,13.58-4.5,13.92,5.63,0,0,12.35,2.71,8.6,19.56,0,0-18.11,8.14-84.1,8C174,75.93,94.51,71.07,90,62.92Z"/><path d="M101.26,54s-3.75-6,3-10.51c0,0,5.26,2.26,4.51-6,0,0,0-6.75,2.25-6.75,0,0-.75,6.75-.75,9.75,0,0,0,6-3.75,5.26C106.52,45.77,100.51,42,101.26,54Z"/><path d="M197.32,45s-3.75-6,3-10.51c0,0,5.25,2.25,4.5-6,0,0,0-6.76,2.26-6.76,0,0-.76,6.76-.76,9.76,0,0,0,6-3.75,5.25C202.57,36.76,196.57,33,197.32,45Z"/><path d="M143.29,74.28s-3.75-6,3-10.5c0,0,5.25,2.25,4.5-6,0,0,0-6.75,2.25-6.75,0,0-.75,6.75-.75,9.75,0,0,0,6-3.75,5.26C148.54,66,142.54,62.28,143.29,74.28Z"/><path d="M114.77,38.26s4.5-9.75,12-9c0,0,7.11-.75,9.18,1.5,0,0-8.25-1.5-10.59,0C125.37,30.76,122.28,28.51,114.77,38.26Z"/><path d="M105.77,68.28s4.5-9.76,12-9c0,0,7.11-.75,9.19,1.5,0,0-8.26-1.5-10.6,0C116.36,60.77,113.27,58.52,105.77,68.28Z"/><path d="M241.67,69.81s-1.95-10.57,4.61-14.29c0,0,5.37-4.72,8.36-4.08,0,0-7.61,3.55-8.65,6.12C246,57.56,242.17,57.51,241.67,69.81Z"/><path d="M170.72,38.71s-4.48-9.76,1-15c0,0,4.05-5.89,7.11-6,0,0-6.51,5.3-6.89,8.05C171.91,25.78,168.19,26.67,170.72,38.71Z"/><path d="M217.58,45s3.75-11.26,8.26-12c0,0,9.75-2.25,12,2.25a15.65,15.65,0,0,0-12.66.5S222.08,37.51,217.58,45Z"/><path d="M170.9,50.76s4-11.16,8.55-11.79c0,0,9.81-2,12,2.55a15.7,15.7,0,0,0-12.68.18S175.59,43.37,170.9,50.76Z"/><path d="M225.84,59.27s0-6.75,7.5-6c0,0,15.76,5,0,1.73,0,0-6.75-3.23-6.75,5.77,0,0-3,3.76,0,5.26,0,0-.42,4.62-1.34-.32C225.25,65.71,222.08,64.53,225.84,59.27Z"/><path d="M189.27,58.63s6.58-1.52,7.54,6c0,0-1.3,16.48-1.69.39,0,0,1.63-7.3-7.14-5.28,0,0-4.34-2.08-5.12,1.18,0,0-4.6.63,0-1.37C182.86,59.51,183.31,56.16,189.27,58.63Z"/><path d="M139.54,40.51s3-6,5.25-.75c0,0-3-12.24,0-10.62,0,0,.75-2.89,4.5-2.89,0,0-6,.75,7.51-9.75a10.14,10.14,0,0,1,5.12-1.08s-.62-3.42-6.63,1.08c0,0-10.5,9.75-14.25,8.25,0,0-.75,1.5,1.5,1.5,0,0,2-1,2.9-.12,0,0-5.9,4.63-4.4,8.38C141,34.51,143.29,35.26,139.54,40.51Z"/><path class="cls-9" d="M28.65,356.11S82.39,414,183.38,377c0,0-3.32,38.77-33,60.16,0,0,4.87,2.63,3,102.06,0,0,1.87,13.88-42.78,7.51,0,0-8.65-1.9-5.85-6.49.93-1.53,3.13-3.36,7.35-5.52,0,0,20.64-1.13,23.27-4.5,0,0,13.13-31.15-5.25-84.8,0,0-19.89,13.13-48.78.75,0,0-4.13-9.38-4.51,84.8,0,0,26.64-1.13,27.77,8.25s-19.87,10-19.87,10-24.78,2.42-23.66-16c0,0,1.13-81.42-.75-89.3C60.36,443.88,1.82,439.07,28.65,356.11Z"/></svg>
