<svg id="Layer_1" data-name="Layer 1" xmlns="http://www.w3.org/2000/svg" width="290" height="460" viewBox="0 0 290 460"><defs><style>.cls-1{fill:#a4b797;}.cls-2{fill:#b4c7a9;}.cls-3{fill:#e2dfa6;}.cls-4{fill:#c5d2c0;}.cls-5{fill:#f4d083;}.cls-6{fill:#4d4d4d;}.cls-7{fill:#887146;}.cls-8{fill:#ea718b;}.cls-9{fill:#96ab8a;}</style></defs><path class="cls-1" d="M52,51S20.68,83,24.16,126.52c0,0-11.61,33.09-9.29,104.51,0,0,4.06,36-5.81,70.83,0,0-3.48,29.61,29,46.45,0,0,2.33,21.48.58,69.09,0,0,13.94,24.38,33.68,4.64,0,0-.58-7-21.48-6.38,0,0-.58-67.35,3.48-65.61,0,0,19.16,8.13,37.74-.58,0,0,15.09,37.16,4.06,65.61,0,0,2.91,4.06-18,3.48,0,0-11.62,5.81-1.17,9.29,0,0,30.19,4.64,33.1-5.81,0,0,1.16-79-2.32-79,0,0,32.51-20.9,25.54-76.06,0,0,.58-12.77,28.45-63.28,0,0,54.58-80.12,31.35-146.89C193.11,56.85,136.21,76,52,51Z"/><path class="cls-2" d="M111.64,207.63s113.12-8.83,113.12-3,5.8-8.13,7.54,15.1c0,0,13.15,7.07,8.61-17.08,0,0,.58-14.35-42-9.09l-85,1.2"/><path class="cls-2" d="M175.55,179.5s49.79-4.5,59.66-2.18c0,0,37.15-3.48,40.64,4.65,0,0,0,23.22,6.38,16.25,0,0,8.13-14.51-3.48-27.28,0,0-7-5.23-53.41-3.49,0,0-42.07.38-45.13,2.22"/><path d="M103.91,109.09s18.74,16.54,31.76,0c0,0,13.11-11.94,0-29,0,0-2.6-10.19-25.85,0C109.82,80.05,96.28,91.38,103.91,109.09Z"/><path class="cls-3" d="M103.91,97.6s-2.24,11.21,18.08,10.05c0,0,20.9-1.16,15.1-15.09,0,0,1.44-9.64-16.12-4.53C121,88,110.22,85.81,103.91,97.6Z"/><path d="M170.9,110.05s14.37,1.67,20.18-25c0,0-.79-21.06-14.33-18.37,0,0-20.21-.72-26.17,21.6C150.58,88.24,150.15,112.45,170.9,110.05Z"/><path class="cls-3" d="M170.18,72.24s-14.52,3.48-15.1,17.41c0,0-1.74,16,15.1,11.46,0,0,17.45.88,16.56-14.58C186.74,86.53,187,67,170.18,72.24Z"/><path class="cls-4" d="M101.58,158.57s-1.07,11.79,25.64,9.46c0,0,22.76,0,34,.31,0,0,17.94-3.6,14.31-11.54,0,0,2.47-8.68-25-11.5C150.58,145.3,102.07,141,101.58,158.57Z"/><path class="cls-5" d="M114.88,147.22s-2.76,13.27-4.5,15,12.77-2.33,12.77-4.65c0,0,1.16-11.61,0-11.9S116.48,146.73,114.88,147.22Z"/><path class="cls-5" d="M127.33,145.25s-.24,8-1.63,11.34a19.91,19.91,0,0,0,9.64-.75s1.09-4.47-1.49-10.94Z"/><path class="cls-5" d="M138.8,144.84a19.7,19.7,0,0,1,.61,8.1s4.06,1.74,5.8-1.16c0,0,.46-6.34-.93-6.94S140.52,144.86,138.8,144.84Z"/><path class="cls-5" d="M150.58,145.3s-.72-.49-1.3,6.48c0,0-1,1.61,2.69,1.68,0,0,5.77.51,7.05,0,0,0,2.67.2,2-6.55A57.7,57.7,0,0,0,150.58,145.3Z"/><path class="cls-5" d="M173.55,152.3c.48,2.26-8.22,5.72-8.22,5.72s-3.86-3.92-2.29-4.56,2.29-5.41,2.29-5.41c8.33,4.31,8.33,2,8.33,4.31v2.32"/><path class="cls-5" d="M115.77,168.11s-.17-4.72,3.9-5.88c0,0,5.8-2.33,5.8-1.16v7.1S115.94,168.77,115.77,168.11Z"/><path class="cls-5" d="M129,168l.22-3.46s-.21-1.77,2.11-.61a7.89,7.89,0,0,0,4.06,0s1.94-.52,1.26,4.09C136.6,168.06,133,168,129,168Z"/><path class="cls-5" d="M140.93,168.34S138.29,157.29,142,158c0,0,3.89-.17,3.24,4.63l-.66,5.46Z"/><path class="cls-5" d="M148.69,168.15s1.5-7.65.47-8.53c0,0-.74-1.75,4-1.6,0,0,6-.44,3.63,4.21a11.44,11.44,0,0,0,.53,6S149.84,168.26,148.69,168.15Z"/><path class="cls-5" d="M161.24,168.34s-1.27-7,2.67-5.69c0,0,7.73,1.3,6.13,2.76C170,165.41,162.17,168.06,161.24,168.34Z"/><path class="cls-4" d="M145.79,122.75s-1,8.71-4.29,9.87-3.83-4.65-3.83-4.65S141.73,122.75,145.79,122.75Z"/><path class="cls-4" d="M153,121.59s5.54-.58,5,12.19C158,133.78,148.07,132,153,121.59Z"/><path class="cls-6" d="M41.29,93.14s3.67-1.75,5,0c0,0-3.49,6.64-2.52,6.51,0,0,1,2.2,5-5.35,0,0,4.06,2.32,2.9,4.06,0,0-1.16,7.55,0,7,0,0,.93,1,2.5-6.47,0,0,5.63,1.82,5.63,3,0,0,2.9-.59-4.65-4.07,0,0,2.32-5.8,3.49-6.39a26.13,26.13,0,0,1,4.64,1.75s2.9-1.16-3.48-2.33a4.2,4.2,0,0,1,2.9-4.64s.58.58,1.74-7.55-2.32,8.13-6.39,11c0,0-6.16-2.3-5.11-3.76,0,0,5.11-11.33,3.37-10.75,0,0-1.74,1.74-5.8,9.87,0,0-4.07-2.9-5.81-1.74,0,0-2.9,4.06,2.9,2.9,0,0,3.49-1.16,1.17,2.9,0,0-1.17,4.07-4.07,2.32C44.77,91.39,40.71,91.39,41.29,93.14Z"/><path class="cls-1" d="M51.16,89.07A4,4,0,0,0,50,91.39a3.5,3.5,0,0,1-.58,2.33s3.65,1.26,3.56,3a8.57,8.57,0,0,0,3.4-5.86S54.06,87.33,51.16,89.07Z"/><path class="cls-7" d="M40.32,66.47S39,46.69,34.32,45c0,0,5.61,4.69,6,10.76,0,0,2.71-17.73,5-17.73A67.81,67.81,0,0,0,42.45,60s2.32-14.84,7-15.84c0,0-5.81,10.62-5.81,14.1,0,0,.1,1.33,1.21,1.54Z"/><path class="cls-7" d="M191.08,57.46s1.74-2.64.58-19.48c0,0,1.74-2.32,1.74,11,0,0,.58,0,4.65-8.71,0,0-5.81,13.36-4.07,13.94,0,0,5.23-11,7-10.45,0,0-7,11.61-6.39,12.19l0,5.5A25.87,25.87,0,0,0,191.08,57.46Z"/><path class="cls-8" d="M61,53.57s-8.71-4,0-11.24c0,0,2.32-10.16,14.51-10.16,0,0,1.16-12.77,11.61-12.77,0,0,14.79-11.62,16.69,2,0,0,12.13-12.06,13.11-3.27,0,0,16.3-5.3,15.9,2.91,0,0,14.64-8.77,20.18,2.91,0,0,15.7-5.26,22.52,8.73,0,0,2.18,4.11-1.89,5.27,0,0,10.51-3.48,10.77,4.35,0,0,9.55,2.1,6.65,15.13,0,0-14,6.3-65.06,6.18C126,63.64,64.51,59.88,61,53.57Z"/><path d="M69.74,46.69S66.83,42,72.06,38.56c0,0,4.06,1.74,3.48-4.64,0,0,0-5.23,1.74-5.23,0,0-.58,5.23-.58,7.55,0,0,0,4.64-2.9,4.06C73.8,40.3,69.16,37.4,69.74,46.69Z"/><path d="M144.05,39.72s-2.9-4.64,2.33-8.13c0,0,4.06,1.75,3.48-4.64,0,0,0-5.23,1.74-5.23,0,0-.58,5.23-.58,7.55,0,0,0,4.65-2.9,4.07C148.12,33.34,143.47,30.43,144.05,39.72Z"/><path d="M102.25,62.37s-2.9-4.65,2.32-8.13c0,0,4.07,1.74,3.49-4.65,0,0,0-5.22,1.74-5.22,0,0-.58,5.22-.58,7.54,0,0,0,4.65-2.91,4.07C106.31,56,101.67,53.08,102.25,62.37Z"/><path d="M80.19,34.5s3.48-7.55,9.29-7c0,0,5.5-.58,7.1,1.16,0,0-6.38-1.16-8.2,0C88.38,28.69,86,27,80.19,34.5Z"/><path d="M73.22,57.72s3.48-7.55,9.29-7c0,0,5.5-.58,7.1,1.16,0,0-6.38-1.16-8.19,0C81.42,51.91,79,50.17,73.22,57.72Z"/><path d="M178.37,58.9s-1.52-8.17,3.56-11c0,0,4.15-3.65,6.47-3.15,0,0-5.89,2.74-6.69,4.73C181.71,49.43,178.75,49.39,178.37,58.9Z"/><path d="M123.48,34.85s-3.47-7.56.74-11.59c0,0,3.14-4.56,5.5-4.65,0,0-5,4.1-5.33,6.23C124.39,24.84,121.52,25.53,123.48,34.85Z"/><path d="M159.73,39.72s2.9-8.71,6.39-9.29c0,0,7.54-1.74,9.28,1.74a12.13,12.13,0,0,0-9.8.39S163.21,33.92,159.73,39.72Z"/><path d="M123.61,44.17s3.12-8.64,6.62-9.13c0,0,7.59-1.55,9.24,2a12.1,12.1,0,0,0-9.8.14S127.24,38.45,123.61,44.17Z"/><path d="M166.12,50.75s0-5.22,5.8-4.64c0,0,12.19,3.84,0,1.34,0,0-5.22-2.5-5.22,4.46,0,0-2.33,2.91,0,4.07,0,0-.33,3.58-1-.24C165.66,55.74,163.21,54.82,166.12,50.75Z"/><path d="M137.82,50.26s5.1-1.18,5.84,4.61c0,0-1,12.74-1.31.3,0,0,1.26-5.65-5.53-4.09,0,0-3.35-1.61-4,.92,0,0-3.56.49,0-1.06C132.87,50.94,133.21,48.34,137.82,50.26Z"/><path d="M99.35,36.24s2.32-4.65,4.06-.58c0,0-2.32-9.48,0-8.22a3.35,3.35,0,0,1,3.48-2.23s-4.64.58,5.81-7.55a7.89,7.89,0,0,1,4-.84s-.49-2.64-5.13.84c0,0-8.13,7.55-11,6.39,0,0-.58,1.16,1.16,1.16,0,0,1.58-.77,2.24-.1,0,0-4.56,3.58-3.4,6.48C100.51,31.59,102.25,32.17,99.35,36.24Z"/><path class="cls-9" d="M13.56,280.41s41.58,44.76,119.71,16.12c0,0-2.57,30-25.5,46.55,0,0,3.77,2,2.32,79,0,0,1.45,10.74-33.1,5.81,0,0-6.69-1.47-4.53-5,.72-1.19,2.43-2.6,5.7-4.27,0,0,16-.87,18-3.48,0,0,10.16-24.1-4.06-65.61,0,0-15.39,10.16-37.74.58,0,0-3.19-7.26-3.48,65.61,0,0,20.61-.87,21.48,6.38S57,429.75,57,429.75s-19.17,1.87-18.3-12.35c0,0,.88-63-.58-69.09C38.09,348.31-7.2,344.59,13.56,280.41Z"/></svg>
