<svg id="Layer_1" data-name="Layer 1" xmlns="http://www.w3.org/2000/svg" width="430" height="570" viewBox="0 0 430 570"><defs><style>.cls-1{fill:#a4b797;}.cls-2{fill:#96ab8a;}.cls-3{fill:#80cecc;}.cls-4{fill:#b4c7a9;}.cls-5{fill:#c5d2c0;}.cls-6{fill:#f4d083;}.cls-7{fill:#e2dfa6;}.cls-8{fill:#ea718b;}.cls-9{fill:#887146;}</style></defs><path class="cls-1" d="M56.74,237.82s-38.37,57.72-36.15,82c0,0,63.84,94,211.57,51.74,0,0,35-39.08,32.34-124.77,0,0-32-163.92-28.41-180.13L220.7,57.07s-52.34,42.78-192.63,0c0,0,4.65,84.42,21,125.08q1,2.51,2.07,4.77"/><path class="cls-2" d="M20.59,319.8S-22.2,428.9,75.92,453.25v87.12s-5.16,19.12,29.51,16.17c0,0,22.87-8.85-9.59-16.23,0,0-8.11,3-4.43-28.78l-1.47-56.07S115,460.63,138.63,454l3.94,83.3s-35.9,8.06-13.28,19.56c0,0,39.59,4.12,27.79-19.49L159.27,445s25.5-6.15,72.89-73.47C232.16,371.54,108.38,412.84,20.59,319.8Z"/><path class="cls-3" d="M146.91,189.93s4.35,15.17,1,15.3c0,0-3.27,12,2.59,14.53,0,0-3.64-10.54,0-12.1s0-15.1,0-15.1"/><path class="cls-4" d="M182.16,250.36s121-1.48,146.08-5.16c0,0,10.79-8.12,23.1,24.34,0,0,26.33,8.86,7.89-34.67,0,0,.65-12.06-85.26-4.92l-91.81-2.26"/><path class="cls-4" d="M253.72,193.74s81.9-24.54,129.85-14.94c0,0,16.24-1.48,14,18.44,0,0,13.16,23.6,16.91-10.33,0,0-2.89-32.46-39.78-25.82,0,0-117.82,6.51-124.57,12.11"/><path d="M101.81,98.48s-9.73,9.6-8.63,21.93c0,0-.28,28.09,16.17,28.77s31.11,8.22,41.59-8.22-1.17-42.48-1.17-42.48S123.73,80,101.81,98.48Z"/><path d="M174.64,83.57s-8.68,8.56-7.7,19.55c0,0-.24,25,14.42,25.66s27.74,7.33,37.08-7.33-1-37.88-1-37.88S194.19,67.08,174.64,83.57Z"/><path class="cls-5" d="M150.44,170.68s56.17-11.8,76.78,0c0,0,11.12,8.15,0,18.09s-73.09,5.52-73.09,5.52S132.73,186.91,150.44,170.68Z"/><polygon class="cls-6" points="184.55 165.97 184.55 176.44 193.97 175.11 193.97 165.43 184.55 165.97"/><polyline class="cls-6" points="199.86 165.43 199.13 178.06 206.68 176.44 208.35 165.84"/><polyline class="cls-6" points="162.71 194.77 163.78 178.06 172.6 178.06 174.71 195.17"/><circle class="cls-7" cx="192.86" cy="103.17" r="21.03"/><circle class="cls-7" cx="131.99" cy="121.99" r="20.66"/><path class="cls-8" d="M39.54,63.06s-7.15-18.54,15-22.23c0,0-2.22-25.82,39.1-14,0,0,0-25.08,29.51-11.06,0,0,25.82-17,27.3,7.37,0,0,8.85-27.59,43.53,4.29,0,0,23.87,6.78,7.14,24.49,0,0,21.68-25.64,19.44,11.16C220.55,63.06,152.92,97.09,39.54,63.06Z"/><path d="M47.64,65.4s1.72-10.55,7.62-10.55,8.86-9.59,8.86-9.59,0,9.59-7.38,11.8S49.65,66,49.65,66Z"/><path d="M125.11,19.92s10.34,2.7,9.78,8.58,8.71,9.72,8.71,9.72-9.54-.91-11-8.46-8.17-7.89-8.17-7.89Z"/><path d="M84.79,24.72s3.71,3.47,0,6.47-3.7,5.95-3.7,5.95S85,42.7,83.76,46.93c0,0,4.7-9.79,1-9.79s1.67-4.55,1.67-4.55,6-6.39,3.25-6.82"/><path d="M199.66,29.37s1,3-1.91,3.49S194,35,194,35s.45,4.14-1.45,6.07c0,0,5.43-3.89,3.44-5s2.25-2,2.25-2,5.09-1.69,3.76-2.72"/><path d="M147.53,63.66s16.8-.74,19.86,3.8c0,0,12.06-1,15,5.84,0,0-17.21-6.75-19.91-4.74C162.52,68.56,162.12,65.29,147.53,63.66Z"/><path d="M150.8,22.21s12.37-4.27,14.59,8.45c0,0,7.94-2.36,9.26,5.37a10.86,10.86,0,0,0-10.21-4.39S164.93,21.53,150.8,22.21Z"/><path d="M108.61,31.48s1.91-12.95,14.22-9c0,0,1.57-8.14,9-5.75a10.87,10.87,0,0,0-8.6,7S114.51,18.62,108.61,31.48Z"/><path d="M68.91,46.56S81.28,42.28,83.49,55c0,0,8-2.36,9.27,5.37A10.85,10.85,0,0,0,82.54,56S83,45.87,68.91,46.56Z"/><path d="M113.12,77.22s6,1.15,5.43-8.76l3.85-9.18-2.16,9.18s-3.33,6.82-1.69,9.15"/><path d="M205.3,47.37s-3.48,5,5.83,8.5L218,63.11l-7.53-5.69s-4.9-5.8-7.69-5.24"/><path d="M139.37,57.06s4.36-11.93,7-13,14.42-1.78,14.42-1.78L146,45.26S139.37,55.59,139.37,57.06Z"/><path d="M101.81,40.44s12.62-1.41,14.72.47,8,12.11,8,12.11l-9.22-11.89S103.13,39.79,101.81,40.44Z"/><path d="M172.23,53.55s12-4.27,14.44-2.93,10.58,10,10.58,10l-11.69-9.47S173.37,52.61,172.23,53.55Z"/><path class="cls-9" d="M32.39,96.16s-22.13-3-23.61-1.47c0,0,10.33-.74,9.59-3,0,0-5.52-3.36-6.82-2.79,0,0-.55-4.59-2-4.59,0,0,13.28,8.85,18.44,8.85,0,0,2.22-3.69-2.95-4.42s-8.11-5.91-8.11-5.91S14,73.29,14.68,72.56c0,0,4.43,11.8,5.17,11.06,0,0,5.16,4.43,7.38,2.95l2.95-2.95Z"/><path class="cls-9" d="M236.09,68.85s1.4-8.1,18.37-13.26c0,0-10.33,2.95-13.28,2.21,0,0,2.95-9.59,14.76-17.71,0,0-4.37-.73-13.25,11.07,0,0,1.44-19.18-.77-19.18,0,0,0,19.92-2.95,22.13s-2.88-16.87-2.88-16.87.46,17.48-2.39,17.54-2.11-19.11-2.11-19.11L230.12,51.9S220,39.18,219.53,35.21c0,0,8.37,17.43,6.16,18.16l-5,5.91"/></svg>
