<svg id="Layer_1" data-name="Layer 1" xmlns="http://www.w3.org/2000/svg" width="290" height="460" viewBox="0 0 290 460"><defs><style>.cls-1{fill:#a4b797;}.cls-2{fill:#96ab8a;}.cls-3{fill:#80cecc;}.cls-4{fill:#b4c7a9;}.cls-5{fill:#c5d2c0;}.cls-6{fill:#f4d083;}.cls-7{fill:#e2dfa6;}.cls-8{fill:#ea718b;}.cls-9{fill:#887146;}</style></defs><path class="cls-1" d="M38.65,210.65s-26.29,39.56-24.78,56.19c0,0,43.76,64.41,145,35.46,0,0,24-26.79,22.17-85.51,0,0-22-112.35-19.48-123.47L151,86.77s-35.87,29.32-132,0c0,0,3.19,57.86,14.43,85.73.46,1.14.93,2.23,1.42,3.27"/><path class="cls-2" d="M13.87,266.84s-29.33,74.78,37.93,91.47V418S48.26,431.12,72,429.1c0,0,15.67-6.07-6.58-11.13,0,0-5.56,2-3-19.72l-1-38.43s17.19,3.54,33.37-1l2.7,57.1s-24.6,5.52-9.1,13.4c0,0,27.13,2.82,19-13.36l1.51-63.29s17.47-4.21,49.95-50.36C158.88,302.3,74.05,330.61,13.87,266.84Z"/><path class="cls-3" d="M100.45,177.83s3,10.39.68,10.48c0,0-2.24,8.2,1.78,10,0,0-2.5-7.22,0-8.29s0-10.35,0-10.35"/><path class="cls-4" d="M124.62,219.25s82.92-1,100.12-3.54c0,0,7.39-5.57,15.83,16.68,0,0,18.05,6.07,5.41-23.76,0,0,.44-8.27-58.44-3.38l-62.92-1.54"/><path class="cls-4" d="M173.66,180.44s56.13-16.82,89-10.24c0,0,11.13-1,9.61,12.64,0,0,9,16.17,11.59-7.09,0,0-2-22.24-27.27-17.69,0,0-80.75,4.46-85.38,8.3"/><path d="M69.54,115.15s-6.67,6.58-5.91,15c0,0-.19,19.25,11.08,19.72s21.32,5.63,28.5-5.64-.8-29.11-.8-29.11S84.57,102.47,69.54,115.15Z"/><path d="M119.46,104.93s-5.95,5.86-5.27,13.4c0,0-.17,17.16,9.88,17.58s19,5,25.41-5-.71-26-.71-26S132.86,93.63,119.46,104.93Z"/><path class="cls-5" d="M102.87,164.63s38.5-8.09,52.63,0c0,0,7.62,5.59,0,12.4s-50.1,3.79-50.1,3.79S90.74,175.76,102.87,164.63Z"/><polygon class="cls-6" points="126.25 161.41 126.25 168.58 132.71 167.67 132.71 161.04 126.25 161.41"/><polyline class="cls-6" points="136.75 161.04 136.25 169.69 141.42 168.58 142.57 161.32"/><polyline class="cls-6" points="111.28 181.14 112.02 169.69 118.06 169.69 119.51 181.42"/><circle class="cls-7" cx="131.95" cy="118.37" r="14.41"/><circle class="cls-7" cx="90.23" cy="131.26" r="14.16"/><path class="cls-8" d="M26.86,90.87S22,78.16,37.13,75.64c0,0-1.51-17.7,26.8-9.61,0,0,0-17.19,20.23-7.59,0,0,17.7-11.63,18.71,5.06,0,0,6.07-18.91,29.84,2.93,0,0,16.36,4.66,4.89,16.79,0,0,14.86-17.57,13.33,7.65C150.93,90.87,104.58,114.19,26.86,90.87Z"/><path d="M32.42,92.47s1.17-7.23,5.22-7.23,6.07-6.57,6.07-6.57,0,6.57-5.06,8.09a6.31,6.31,0,0,0-4.85,6.09Z"/><path d="M85.52,61.3s7.08,1.86,6.7,5.88,6,6.67,6,6.67-6.55-.63-7.58-5.8A6.32,6.32,0,0,0,85,62.64Z"/><path d="M57.88,64.59s2.54,2.38,0,4.44-2.54,4.08-2.54,4.08,2.66,3.8,1.83,6.7c0,0,3.23-6.7.7-6.7S59,70,59,70s4.07-4.38,2.22-4.68"/><path d="M136.61,67.78s.67,2-1.31,2.4a3.58,3.58,0,0,0-2.58,1.44s.31,2.84-1,4.17c0,0,3.72-2.67,2.36-3.42S135.63,71,135.63,71s3.49-1.16,2.58-1.87"/><path d="M100.88,91.28s11.51-.51,13.61,2.61c0,0,8.27-.71,10.31,4,0,0-11.79-4.62-13.65-3.25C111.15,94.64,110.88,92.4,100.88,91.28Z"/><path d="M103.12,62.87s8.48-2.93,10,5.8c0,0,5.45-1.62,6.35,3.68a7.45,7.45,0,0,0-7-3S112.81,62.4,103.12,62.87Z"/><path d="M74.2,69.22S75.51,60.35,84,63c0,0,1.08-5.57,6.19-3.94a7.44,7.44,0,0,0-5.89,4.83S78.25,60.41,74.2,69.22Z"/><path d="M47,79.56s8.48-2.93,10,5.79c0,0,5.45-1.61,6.35,3.68a7.45,7.45,0,0,0-7-3S56.68,79.09,47,79.56Z"/><path d="M77.29,100.58s4.11.79,3.72-6l2.65-6.29-1.49,6.29s-2.28,4.68-1.15,6.27"/><path d="M140.47,80.12s-2.38,3.44,4,5.83l4.69,5L144,87s-3.36-4-5.27-3.59"/><path d="M95.29,86.76s3-8.18,4.78-8.89S110,76.65,110,76.65l-10.11,2S95.29,85.75,95.29,86.76Z"/><path d="M69.54,75.37s8.65-1,10.09.32,5.5,8.3,5.5,8.3l-6.32-8.15S70.45,74.92,69.54,75.37Z"/><path d="M117.81,84.35s8.2-2.92,9.9-2S135,89.17,135,89.17l-8-6.49S118.59,83.71,117.81,84.35Z"/><path class="cls-9" d="M22,113.56s-15.17-2-16.18-1c0,0,7.08-.51,6.58-2,0,0-3.79-2.31-4.68-1.91,0,0-.38-3.15-1.39-3.15,0,0,9.1,6.07,12.64,6.07,0,0,1.52-2.53-2-3s-5.56-4-5.56-4-2-6.57-1.52-7.08c0,0,3,8.09,3.54,7.58,0,0,3.54,3,5.05,2l2-2Z"/><path class="cls-9" d="M161.57,94.84s1-5.55,12.6-9.09c0,0-7.08,2-9.1,1.52,0,0,2-6.58,10.11-12.14,0,0-3-.51-9.08,7.59,0,0,1-13.15-.53-13.15,0,0,0,13.65-2,15.17s-2-11.57-2-11.57.32,12-1.63,12-1.45-13.1-1.45-13.1l-1,11.12s-6.92-8.71-7.25-11.44c0,0,5.74,12,4.22,12.45l-3.42,4"/></svg>
